0
SECTION
2
HEADER
9
$INSUNITS
70
4
9
$ACADVER
1
AC1014
9
$HANDSEED
5
FFFF
0
ENDSEC
0
SECTION
2
TABLES
0
TABLE
2
VPORT
5
8
100
AcDbSymbolTable
0
ENDTAB
0
TABLE
2
LTYPE
5
5
100
AcDbSymbolTable
0
LTYPE
5
14
100
AcDbSymbolTableRecord
100
AcDbLinetypeTableRecord
2
BYBLOCK
70
0
0
LTYPE
5
15
100
AcDbSymbolTableRecord
100
AcDbLinetypeTableRecord
2
BYLAYER
70
0
0
LTYPE
5
16
100
AcDbSymbolTableRecord
100
AcDbLinetypeTableRecord
2
DASHED
70
0
3
Dashed __ __ __ __ __ __ __ __ __ __ __ __ __ _
72
65
73
2
40
0.75
49
0.5
74
0
49
-0.25
74
0
0
ENDTAB
0
TABLE
2
LAYER
5
2
100
AcDbSymbolTable
70
2
0
LAYER
5
50
100
AcDbSymbolTableRecord
100
AcDbLayerTableRecord
2
0
70
0
62
7
6
CONTINUOUS
0
ENDTAB
0
TABLE
2
STYLE
5
3
100
AcDbSymbolTable
70
1
0
STYLE
5
11
100
AcDbSymbolTableRecord
100
AcDbTextStyleTableRecord
2
STANDARD
70
0
0
ENDTAB
0
TABLE
2
VIEW
5
6
100
AcDbSymbolTable
70
0
0
ENDTAB
0
TABLE
2
UCS
5
7
100
AcDbSymbolTable
70
0
0
ENDTAB
0
TABLE
2
APPID
5
9
100
AcDbSymbolTable
70
2
0
APPID
5
12
100
AcDbSymbolTableRecord
100
AcDbRegAppTableRecord
2
ACAD
70
0
0
ENDTAB
0
TABLE
2
DIMSTYLE
5
A
100
AcDbSymbolTable
70
1
0
ENDTAB
0
TABLE
2
BLOCK_RECORD
5
1
100
AcDbSymbolTable
70
1
0
BLOCK_RECORD
5
1F
100
AcDbSymbolTableRecord
100
AcDbBlockTableRecord
2
*MODEL_SPACE
0
BLOCK_RECORD
5
1B
100
AcDbSymbolTableRecord
100
AcDbBlockTableRecord
2
*PAPER_SPACE
0
ENDTAB
0
ENDSEC
0
SECTION
2
BLOCKS
0
BLOCK
5
20
100
AcDbEntity
100
AcDbBlockBegin
2
*MODEL_SPACE
0
ENDBLK
5
21
100
AcDbEntity
100
AcDbBlockEnd
0
BLOCK
5
1C
100
AcDbEntity
100
AcDbBlockBegin
2
*PAPER_SPACE
0
ENDBLK
5
1D
100
AcDbEntity
100
AcDbBlockEnd
0
ENDSEC
0
SECTION
2
ENTITIES
0
LWPOLYLINE
5
100
100
AcDbEntity
8
OUTER_PROFILES
100
AcDbPolyline
90
4
70
1
43
0.0
10
249.14336052701583
20
0
10
0
20
0
10
0
20
90
10
249.14336052701583
20
90
0
CIRCLE
5
101
100
AcDbEntity
8
INTERIOR_PROFILES
100
AcDbCircle
10
-6.9999999999999929
20
25
30
0
40
2.7500000000000036
210
0
220
0
230
-1
0
CIRCLE
5
102
100
AcDbEntity
8
INTERIOR_PROFILES
100
AcDbCircle
10
-242.14336052701583
20
70
30
0
40
2.7499999999999858
210
0
220
0
230
-1
0
CIRCLE
5
103
100
AcDbEntity
8
INTERIOR_PROFILES
100
AcDbCircle
10
-207.35752039526187
20
45
30
0
40
5.9999999999999787
210
0
220
0
230
-1
0
CIRCLE
5
104
100
AcDbEntity
8
INTERIOR_PROFILES
100
AcDbCircle
10
-242.14336052701583
20
25
30
0
40
2.7499999999999858
210
0
220
0
230
-1
0
CIRCLE
5
105
100
AcDbEntity
8
INTERIOR_PROFILES
100
AcDbCircle
10
-6.9999999999999929
20
70
30
0
40
2.7500000000000036
210
0
220
0
230
-1
0
CIRCLE
5
106
100
AcDbEntity
8
INTERIOR_PROFILES
100
AcDbCircle
10
-41.785840131753957
20
45
30
0
40
5.9999999999999964
210
0
220
0
230
-1
0
LINE
5
107
100
AcDbEntity
8
BEND
100
AcDbLine
10
14.392920065876993
20
0
30
-2.5529671020631252e-14
11
14.392920065876993
21
90
31
-2.5529671020631252e-14
0
LINE
5
108
100
AcDbEntity
8
BEND
100
AcDbLine
10
234.75044046113879
20
90
30
-2.0874539786622113e-13
11
234.75044046113879
21
0
31
-2.0874539786622113e-13
0
LINE
5
109
100
AcDbEntity
8
BEND
100
AcDbLine
10
72.17876019763095
20
0
30
-3.6775181817697071e-14
11
72.17876019763095
21
90
31
-3.6775181817697071e-14
0
LINE
5
110
100
AcDbEntity
8
BEND
100
AcDbLine
10
176.96460032938489
20
90
30
-1.1756382929614421e-13
11
176.96460032938489
21
0
31
-1.1756382929614421e-13
0
LINE
5
111
100
AcDbEntity
8
BEND_EXTENT
100
AcDbLine
10
231.35752039526187
20
90
30
-1.8725570507408723e-13
11
231.35752039526187
21
0
31
-1.8725570507408723e-13
0
LINE
5
112
100
AcDbEntity
8
BEND_EXTENT
100
AcDbLine
10
238.1433605270158
20
0
30
-2.191328604121039e-13
11
238.1433605270158
21
90
31
-2.191328604121039e-13
0
LINE
5
113
100
AcDbEntity
8
BEND_EXTENT
100
AcDbLine
10
180.35752039526187
20
0
30
-1.0352638530027337e-13
11
180.35752039526187
21
90
31
-1.0352638530027337e-13
0
LINE
5
114
100
AcDbEntity
8
BEND_EXTENT
100
AcDbLine
10
173.57168026350791
20
90
30
-1.1605815094726292e-13
11
173.57168026350791
21
0
31
-1.1605815094726292e-13
0
LINE
5
115
100
AcDbEntity
8
BEND_EXTENT
100
AcDbLine
10
75.571680263507915
20
0
30
-4.0501306215828692e-14
11
75.571680263507915
21
90
31
-4.0501306215828692e-14
0
LINE
5
116
100
AcDbEntity
8
BEND_EXTENT
100
AcDbLine
10
11.000000000000014
20
90
30
-8.4808703269977201e-15
11
11.000000000000014
21
0
31
-8.4808703269977201e-15
0
LINE
5
117
100
AcDbEntity
8
BEND_EXTENT
100
AcDbLine
10
17.785840131753954
20
0
30
-2.2594457271011918e-14
11
17.785840131753954
21
90
31
-2.2594457271011918e-14
0
LINE
5
118
100
AcDbEntity
8
BEND_EXTENT
100
AcDbLine
10
68.785840131753957
20
90
30
-1.7505935074813242e-14
11
68.785840131753957
21
0
31
-1.7505935074813242e-14
0
ENDSEC
0
SECTION
2
OBJECTS
0
DICTIONARY
5
C
100
AcDbDictionary
3
ACAD_GROUP
350
D
3
ACAD_MLINESTYLE
350
17
0
DICTIONARY
5
D
100
AcDbDictionary
0
DICTIONARY
5
1A
330
C
100
AcDbDictionary
0
DICTIONARY
5
17
100
AcDbDictionary
0
ENDSEC
0
EOF
