0
SECTION
2
HEADER
9
$INSUNITS
70
4
9
$ACADVER
1
AC1014
9
$HANDSEED
5
FFFF
0
ENDSEC
0
SECTION
2
TABLES
0
TABLE
2
VPORT
5
8
100
AcDbSymbolTable
0
ENDTAB
0
TABLE
2
LTYPE
5
5
100
AcDbSymbolTable
0
LTYPE
5
14
100
AcDbSymbolTableRecord
100
AcDbLinetypeTableRecord
2
BYBLOCK
70
0
0
LTYPE
5
15
100
AcDbSymbolTableRecord
100
AcDbLinetypeTableRecord
2
BYLAYER
70
0
0
LTYPE
5
16
100
AcDbSymbolTableRecord
100
AcDbLinetypeTableRecord
2
DASHED
70
0
3
Dashed __ __ __ __ __ __ __ __ __ __ __ __ __ _
72
65
73
2
40
0.75
49
0.5
74
0
49
-0.25
74
0
0
ENDTAB
0
TABLE
2
LAYER
5
2
100
AcDbSymbolTable
70
2
0
LAYER
5
50
100
AcDbSymbolTableRecord
100
AcDbLayerTableRecord
2
0
70
0
62
7
6
CONTINUOUS
0
ENDTAB
0
TABLE
2
STYLE
5
3
100
AcDbSymbolTable
70
1
0
STYLE
5
11
100
AcDbSymbolTableRecord
100
AcDbTextStyleTableRecord
2
STANDARD
70
0
0
ENDTAB
0
TABLE
2
VIEW
5
6
100
AcDbSymbolTable
70
0
0
ENDTAB
0
TABLE
2
UCS
5
7
100
AcDbSymbolTable
70
0
0
ENDTAB
0
TABLE
2
APPID
5
9
100
AcDbSymbolTable
70
2
0
APPID
5
12
100
AcDbSymbolTableRecord
100
AcDbRegAppTableRecord
2
ACAD
70
0
0
ENDTAB
0
TABLE
2
DIMSTYLE
5
A
100
AcDbSymbolTable
70
1
0
ENDTAB
0
TABLE
2
BLOCK_RECORD
5
1
100
AcDbSymbolTable
70
1
0
BLOCK_RECORD
5
1F
100
AcDbSymbolTableRecord
100
AcDbBlockTableRecord
2
*MODEL_SPACE
0
BLOCK_RECORD
5
1B
100
AcDbSymbolTableRecord
100
AcDbBlockTableRecord
2
*PAPER_SPACE
0
ENDTAB
0
ENDSEC
0
SECTION
2
BLOCKS
0
BLOCK
5
20
100
AcDbEntity
100
AcDbBlockBegin
2
*MODEL_SPACE
0
ENDBLK
5
21
100
AcDbEntity
100
AcDbBlockEnd
0
BLOCK
5
1C
100
AcDbEntity
100
AcDbBlockBegin
2
*PAPER_SPACE
0
ENDBLK
5
1D
100
AcDbEntity
100
AcDbBlockEnd
0
ENDSEC
0
SECTION
2
ENTITIES
0
LINE
5
100
100
AcDbEntity
8
OUTER_PROFILES
100
AcDbLine
10
460.28584013175407
20
185.57168026350786
30
0
11
460.28584013175407
21
134.97292346302967
31
0
0
ARC
5
101
100
AcDbEntity
8
OUTER_PROFILES
100
AcDbCircle
10
-472.78584013175407
20
92.785840131753957
30
0
40
43.999999999999986
210
0
220
0
230
-1
100
AcDbArc
50
13.77152531318194
51
73.495484478636271
0
ARC
5
102
100
AcDbEntity
8
OUTER_PROFILES
100
AcDbCircle
10
-430.78584013175407
20
92.785840131753957
30
0
40
10.499999999999993
210
-0
220
0
230
-1
100
AcDbArc
50
-85.985361572249062
51
85.985361572249062
0
ARC
5
103
100
AcDbEntity
8
OUTER_PROFILES
100
AcDbCircle
10
-472.78584013175407
20
92.785840131753957
30
0
40
44
210
-0
220
0
230
-1
100
AcDbArc
50
286.50451552136377
51
346.228474686818
0
LINE
5
104
100
AcDbEntity
8
OUTER_PROFILES
100
AcDbLine
10
460.28584013175407
20
50.598756800478249
30
0
11
460.28584013175407
21
8.8817841970012523e-14
31
0
0
LINE
5
105
100
AcDbEntity
8
OUTER_PROFILES
100
AcDbLine
10
460.28584013175407
20
8.8817841970012523e-14
30
0
11
382.78584013175407
21
8.8817841970012523e-14
31
0
0
LINE
5
106
100
AcDbEntity
8
OUTER_PROFILES
100
AcDbLine
10
382.78584013175407
20
8.8817841970012523e-14
30
0
11
382.78584013175407
21
27.486218941374663
31
0
0
ARC
5
107
100
AcDbEntity
8
OUTER_PROFILES
100
AcDbCircle
10
-382.73584013175412
20
30.785840131753961
30
0
40
3.3000000000000016
210
0
220
0
230
-1
100
AcDbArc
50
53.778453380164301
51
269.13184890975185
0
SPLINE
5
108
100
AcDbEntity
8
OUTER_PROFILES
100
AcDbSpline
70
0
71
3
72
14
73
10
74
0
42
0.000000001
43
0.0000000001
44
0.0000000001
40
0.78018591388427649
40
0.78018591388427649
40
0.78018591388427649
40
0.78018591388427649
40
0.96771862166491385
40
0.96771862166491385
40
0.96771862166491385
40
1.2109802868213173
40
1.2109802868213173
40
1.2109802868213173
40
1.3778934544817354
40
1.3778934544817354
40
1.3778934544817354
40
1.3778934544817354
10
380.78584013175407
20
33.448076034148798
30
0
10
380.40926090117057
20
33.064976218721824
30
0
10
380.11902093863335
20
32.538302128462213
30
0
10
379.95276462624582
20
31.917508860731854
30
0
10
379.73710204731333
20
31.112234912452816
30
0
10
379.75887777048695
20
30.236219990405093
30
0
10
380.01246323316923
20
29.451964736292666
30
0
10
380.186460039537
20
28.913850649825044
30
0
10
380.45066642794689
20
28.464581568617859
30
0
10
380.78584013175401
20
28.123604229359103
30
0
0
ARC
5
109
100
AcDbEntity
8
OUTER_PROFILES
100
AcDbCircle
10
-382.73584013175412
20
30.785840131753961
30
0
40
3.3000000000000029
210
-0
220
0
230
-1
100
AcDbArc
50
294.61997732865842
51
306.22154661983626
0
LINE
5
110
100
AcDbEntity
8
OUTER_PROFILES
100
AcDbLine
10
381.36106742326729
20
27.785840131753968
30
0
11
370
21
27.785840131753954
31
0
0
LINE
5
111
100
AcDbEntity
8
OUTER_PROFILES
100
AcDbLine
10
370
20
27.785840131753954
30
0
11
370
21
0
31
0
0
LINE
5
112
100
AcDbEntity
8
OUTER_PROFILES
100
AcDbLine
10
370
20
0
30
0
11
0
21
0
31
0
0
LINE
5
113
100
AcDbEntity
8
OUTER_PROFILES
100
AcDbLine
10
0
20
0
30
0
11
0
21
27.785840131753954
31
0
0
LINE
5
114
100
AcDbEntity
8
OUTER_PROFILES
100
AcDbLine
10
0
20
27.785840131753954
30
0
11
-11.361067423267299
21
27.785840131753964
31
0
0
ARC
5
115
100
AcDbEntity
8
OUTER_PROFILES
100
AcDbCircle
10
12.735840131754053
20
30.785840131753961
30
0
40
3.3000000000000016
210
0
220
0
230
-1
100
AcDbArc
50
233.77845338016522
51
245.38002267134286
0
SPLINE
5
116
100
AcDbEntity
8
OUTER_PROFILES
100
AcDbSpline
70
0
71
3
72
14
73
10
74
0
42
0.000000001
43
0.0000000001
44
0.0000000001
40
0.78018591388427916
40
0.78018591388427916
40
0.78018591388427916
40
0.78018591388427916
40
0.96771862166316913
40
0.96771862166316913
40
0.96771862166316913
40
1.2109802868217601
40
1.2109802868217601
40
1.2109802868217601
40
1.3778934544817338
40
1.3778934544817338
40
1.3778934544817338
40
1.3778934544817338
10
-10.785840131754041
20
28.12360422935912
30
0
10
-10.409260901173953
20
28.506704044782545
30
0
10
-10.119020938638968
20
29.033378135035299
30
0
10
-9.952764626250417
20
29.654171402758696
30
0
10
-9.7371020473127157
20
30.459445351043435
30
0
10
-9.7588777704852792
20
31.335460273100555
30
0
10
-10.012463233170577
20
32.119715527219498
30
0
10
-10.186460039538437
20
32.65782961368533
30
0
10
-10.450666427947761
20
33.107098694890915
30
0
10
-10.785840131754036
20
33.44807603414877
30
0
0
ARC
5
117
100
AcDbEntity
8
OUTER_PROFILES
100
AcDbCircle
10
12.735840131754053
20
30.785840131753961
30
0
40
3.3000000000000016
210
-0
220
0
230
-1
100
AcDbArc
50
-89.131848909750929
51
126.22154661983559
0
LINE
5
118
100
AcDbEntity
8
OUTER_PROFILES
100
AcDbLine
10
-12.78584013175406
20
27.486218941374677
30
0
11
-12.78584013175406
21
8.8817841970012523e-14
31
0
0
LINE
5
119
100
AcDbEntity
8
OUTER_PROFILES
100
AcDbLine
10
-12.78584013175406
20
8.8817841970012523e-14
30
0
11
-90.285840131754057
21
8.8817841970012523e-14
31
0
0
LINE
5
120
100
AcDbEntity
8
OUTER_PROFILES
100
AcDbLine
10
-90.285840131754057
20
8.8817841970012523e-14
30
0
11
-90.285840131754057
21
50.598756800478256
31
0
0
ARC
5
121
100
AcDbEntity
8
OUTER_PROFILES
100
AcDbCircle
10
102.78584013175406
20
92.785840131753957
30
0
40
44
210
0
220
0
230
-1
100
AcDbArc
50
193.77152531318191
51
253.49548447863626
0
ARC
5
122
100
AcDbEntity
8
OUTER_PROFILES
100
AcDbCircle
10
60.785840131754057
20
92.785840131753957
30
0
40
10.499999999999989
210
0
220
0
230
-1
100
AcDbArc
50
94.014638427750981
51
265.98536157224902
0
ARC
5
123
100
AcDbEntity
8
OUTER_PROFILES
100
AcDbCircle
10
102.78584013175406
20
92.785840131753957
30
0
40
44.000000000000014
210
0
220
0
230
-1
100
AcDbArc
50
106.50451552136374
51
166.22847468681809
0
LINE
5
124
100
AcDbEntity
8
OUTER_PROFILES
100
AcDbLine
10
-90.285840131754057
20
134.97292346302967
30
0
11
-90.285840131754057
21
185.57168026350786
31
0
0
LINE
5
125
100
AcDbEntity
8
OUTER_PROFILES
100
AcDbLine
10
-90.285840131754057
20
185.57168026350786
30
0
11
-12.78584013175406
21
185.57168026350786
31
0
0
LINE
5
126
100
AcDbEntity
8
OUTER_PROFILES
100
AcDbLine
10
-12.78584013175406
20
185.57168026350786
30
0
11
-12.78584013175406
21
158.08546132213323
31
0
0
ARC
5
127
100
AcDbEntity
8
OUTER_PROFILES
100
AcDbCircle
10
12.735840131754053
20
154.78584013175396
30
0
40
3.3000000000000016
210
0
220
0
230
-1
100
AcDbArc
50
-126.22154661983488
51
89.131848909750943
0
SPLINE
5
128
100
AcDbEntity
8
OUTER_PROFILES
100
AcDbSpline
70
0
71
3
72
14
73
10
74
0
42
0.000000001
43
0.0000000001
44
0.0000000001
40
0.78018591388427794
40
0.78018591388427794
40
0.78018591388427794
40
0.78018591388427794
40
0.96771862166171019
40
0.96771862166171019
40
0.96771862166171019
40
1.2109802868221444
40
1.2109802868221444
40
1.2109802868221444
40
1.3778934544817367
40
1.3778934544817367
40
1.3778934544817367
40
1.3778934544817367
10
-10.785840131754041
20
152.12360422935913
30
0
10
-10.409260901176893
20
152.50670404477955
30
0
10
-10.119020938643668
20
153.03337813502668
30
0
10
-9.9527646262542984
20
153.6541714027442
30
0
10
-9.7371020473122254
20
154.45944535103371
30
0
10
-9.7588777704838723
20
155.33546027309876
30
0
10
-10.012463233171779
20
156.11971552722324
30
0
10
-10.186460039539716
20
156.65782961368754
30
0
10
-10.450666427948523
20
157.1070986948917
30
0
10
-10.785840131754034
20
157.44807603414878
30
0
0
ARC
5
129
100
AcDbEntity
8
OUTER_PROFILES
100
AcDbCircle
10
12.735840131754053
20
154.78584013175396
30
0
40
3.3000000000000074
210
0
220
0
230
-1
100
AcDbArc
50
114.61997732865713
51
126.22154661983538
0
LINE
5
130
100
AcDbEntity
8
OUTER_PROFILES
100
AcDbLine
10
-11.361067423267299
20
157.78584013175396
30
0
11
0
21
157.78584013175396
31
0
0
LINE
5
131
100
AcDbEntity
8
OUTER_PROFILES
100
AcDbLine
10
0
20
157.78584013175396
30
0
11
0
21
185.57168026350786
31
0
0
LINE
5
132
100
AcDbEntity
8
OUTER_PROFILES
100
AcDbLine
10
0
20
185.57168026350786
30
0
11
370
21
185.57168026350786
31
0
0
LINE
5
133
100
AcDbEntity
8
OUTER_PROFILES
100
AcDbLine
10
370
20
185.57168026350786
30
0
11
370
21
157.78584013175396
31
0
0
LINE
5
134
100
AcDbEntity
8
OUTER_PROFILES
100
AcDbLine
10
370
20
157.78584013175396
30
0
11
381.36106742326729
21
157.78584013175396
31
0
0
ARC
5
135
100
AcDbEntity
8
OUTER_PROFILES
100
AcDbCircle
10
-382.73584013175412
20
154.78584013175396
30
0
40
3.299999999999998
210
0
220
0
230
-1
100
AcDbArc
50
53.778453380164265
51
65.380022671341663
0
SPLINE
5
136
100
AcDbEntity
8
OUTER_PROFILES
100
AcDbSpline
70
0
71
3
72
14
73
10
74
0
42
0.000000001
43
0.0000000001
44
0.0000000001
40
0.78018591388427494
40
0.78018591388427494
40
0.78018591388427494
40
0.78018591388427494
40
0.96771862166775313
40
0.96771862166775313
40
0.96771862166775313
40
1.2109802868207034
40
1.2109802868207034
40
1.2109802868207034
40
1.3778934544817347
40
1.3778934544817347
40
1.3778934544817347
40
1.3778934544817347
10
380.78584013175401
20
157.44807603414878
30
0
10
380.40926090116471
20
157.06497621871603
30
0
10
380.1190209386242
20
156.53830212844542
30
0
10
379.95276462623821
20
155.91750886070366
30
0
10
379.73710204731412
20
155.11223491243351
30
0
10
379.75887777048973
20
154.23621999040054
30
0
10
380.0124632331673
20
153.45196473629858
30
0
10
380.18646003953495
20
152.91385064982853
30
0
10
380.45066642794558
20
152.46458156861917
30
0
10
380.78584013175401
20
152.1236042293591
30
0
0
ARC
5
137
100
AcDbEntity
8
OUTER_PROFILES
100
AcDbCircle
10
-382.73584013175412
20
154.78584013175396
30
0
40
3.2999999999999963
210
0
220
0
230
-1
100
AcDbArc
50
90.868151090248134
51
306.22154661983626
0
LINE
5
138
100
AcDbEntity
8
OUTER_PROFILES
100
AcDbLine
10
382.78584013175407
20
158.08546132213326
30
0
11
382.78584013175407
21
185.57168026350786
31
0
0
LINE
5
139
100
AcDbEntity
8
OUTER_PROFILES
100
AcDbLine
10
382.78584013175407
20
185.57168026350786
30
0
11
460.28584013175407
21
185.57168026350786
31
0
0
CIRCLE
5
140
100
AcDbEntity
8
INTERIOR_PROFILES
100
AcDbCircle
10
-238.33333333333337
20
10.999999999999996
30
0
40
2.7500000000000036
210
-0
220
0
230
-1
0
CIRCLE
5
141
100
AcDbEntity
8
INTERIOR_PROFILES
100
AcDbCircle
10
-419.03584013175407
20
11.000000000000103
30
0
40
2.7499999999999858
210
0
220
0
230
-1
0
CIRCLE
5
142
100
AcDbEntity
8
INTERIOR_PROFILES
100
AcDbCircle
10
-345
20
174.57168026350789
30
0
40
2.7500000000000213
210
0
220
0
230
-1
0
CIRCLE
5
143
100
AcDbEntity
8
INTERIOR_PROFILES
100
AcDbCircle
10
-238.33333333333337
20
174.57168026350789
30
0
40
2.7500000000000213
210
0
220
0
230
-1
0
CIRCLE
5
144
100
AcDbEntity
8
INTERIOR_PROFILES
100
AcDbCircle
10
-345
20
10.999999999999996
30
0
40
2.7500000000000036
210
-0
220
0
230
-1
0
CIRCLE
5
145
100
AcDbEntity
8
INTERIOR_PROFILES
100
AcDbCircle
10
-247
20
42.785840131753957
30
0
40
2.7500000000000213
210
0
220
0
230
-1
0
CIRCLE
5
146
100
AcDbEntity
8
INTERIOR_PROFILES
100
AcDbCircle
10
-443.78584013175407
20
11.000000000000103
30
0
40
2.7499999999999858
210
0
220
0
230
-1
0
CIRCLE
5
147
100
AcDbEntity
8
INTERIOR_PROFILES
100
AcDbCircle
10
-443.78584013175407
20
174.57168026350786
30
0
40
2.7499999999999858
210
0
220
0
230
-1
0
CIRCLE
5
148
100
AcDbEntity
8
INTERIOR_PROFILES
100
AcDbCircle
10
-123
20
87.785840131753957
30
0
40
2.7500000000000036
210
0
220
0
230
-1
0
CIRCLE
5
149
100
AcDbEntity
8
INTERIOR_PROFILES
100
AcDbCircle
10
-419.03584013175407
20
174.57168026350786
30
0
40
2.7499999999999858
210
0
220
0
230
-1
0
CIRCLE
5
150
100
AcDbEntity
8
INTERIOR_PROFILES
100
AcDbCircle
10
-247
20
87.785840131753957
30
0
40
2.7500000000000213
210
0
220
0
230
-1
0
CIRCLE
5
151
100
AcDbEntity
8
INTERIOR_PROFILES
100
AcDbCircle
10
-123
20
42.785840131753957
30
0
40
2.7500000000000036
210
0
220
0
230
-1
0
CIRCLE
5
152
100
AcDbEntity
8
INTERIOR_PROFILES
100
AcDbCircle
10
-394.28584013175401
20
11.000000000000103
30
0
40
2.7499999999999858
210
0
220
0
230
-1
0
CIRCLE
5
153
100
AcDbEntity
8
INTERIOR_PROFILES
100
AcDbCircle
10
-394.28584013175401
20
174.57168026350786
30
0
40
2.7499999999999858
210
0
220
0
230
-1
0
CIRCLE
5
154
100
AcDbEntity
8
INTERIOR_PROFILES
100
AcDbCircle
10
-78.333333333333343
20
174.57168026350789
30
0
40
2.7500000000000213
210
0
220
0
230
-1
0
CIRCLE
5
155
100
AcDbEntity
8
INTERIOR_PROFILES
100
AcDbCircle
10
-25
20
10.999999999999996
30
0
40
2.7500000000000036
210
-0
220
0
230
-1
0
CIRCLE
5
156
100
AcDbEntity
8
INTERIOR_PROFILES
100
AcDbCircle
10
-291.66666666666674
20
10.999999999999996
30
0
40
2.7500000000000036
210
-0
220
0
230
-1
0
CIRCLE
5
157
100
AcDbEntity
8
INTERIOR_PROFILES
100
AcDbCircle
10
-291.66666666666674
20
174.57168026350789
30
0
40
2.7500000000000213
210
0
220
0
230
-1
0
CIRCLE
5
158
100
AcDbEntity
8
INTERIOR_PROFILES
100
AcDbCircle
10
-131.66666666666669
20
10.999999999999996
30
0
40
2.7500000000000036
210
-0
220
0
230
-1
0
CIRCLE
5
159
100
AcDbEntity
8
INTERIOR_PROFILES
100
AcDbCircle
10
-185
20
174.57168026350789
30
0
40
2.7500000000000213
210
0
220
0
230
-1
0
CIRCLE
5
160
100
AcDbEntity
8
INTERIOR_PROFILES
100
AcDbCircle
10
-442.82584013175409
20
50.465840131753964
30
0
40
3.5000000000000142
210
0
220
0
230
-1
0
CIRCLE
5
161
100
AcDbEntity
8
INTERIOR_PROFILES
100
AcDbCircle
10
-25
20
174.57168026350789
30
0
40
2.7500000000000213
210
0
220
0
230
-1
0
CIRCLE
5
162
100
AcDbEntity
8
INTERIOR_PROFILES
100
AcDbCircle
10
72.825840131754063
20
50.465840131753964
30
0
40
3.4999999999999964
210
0
220
0
230
-1
0
CIRCLE
5
163
100
AcDbEntity
8
INTERIOR_PROFILES
100
AcDbCircle
10
-78.333333333333343
20
10.999999999999996
30
0
40
2.7500000000000036
210
-0
220
0
230
-1
0
CIRCLE
5
164
100
AcDbEntity
8
INTERIOR_PROFILES
100
AcDbCircle
10
73.785840131754057
20
174.57168026350786
30
0
40
2.7500000000000036
210
0
220
0
230
-1
0
CIRCLE
5
165
100
AcDbEntity
8
INTERIOR_PROFILES
100
AcDbCircle
10
73.785840131754057
20
11.000000000000103
30
0
40
2.7500000000000036
210
0
220
0
230
-1
0
CIRCLE
5
166
100
AcDbEntity
8
INTERIOR_PROFILES
100
AcDbCircle
10
49.035840131754057
20
11.000000000000103
30
0
40
2.7500000000000036
210
0
220
0
230
-1
0
CIRCLE
5
167
100
AcDbEntity
8
INTERIOR_PROFILES
100
AcDbCircle
10
49.035840131754057
20
174.57168026350786
30
0
40
2.7500000000000036
210
0
220
0
230
-1
0
CIRCLE
5
168
100
AcDbEntity
8
INTERIOR_PROFILES
100
AcDbCircle
10
-185
20
10.999999999999996
30
0
40
2.7500000000000036
210
-0
220
0
230
-1
0
CIRCLE
5
169
100
AcDbEntity
8
INTERIOR_PROFILES
100
AcDbCircle
10
-393.54584013175406
20
71.285840131753957
30
0
40
3.5000000000000142
210
0
220
0
230
-1
0
CIRCLE
5
170
100
AcDbEntity
8
INTERIOR_PROFILES
100
AcDbCircle
10
23.545840131754048
20
71.285840131753957
30
0
40
3.4999999999999964
210
0
220
0
230
-1
0
CIRCLE
5
171
100
AcDbEntity
8
INTERIOR_PROFILES
100
AcDbCircle
10
24.285840131754057
20
11.000000000000103
30
0
40
2.7500000000000036
210
0
220
0
230
-1
0
CIRCLE
5
172
100
AcDbEntity
8
INTERIOR_PROFILES
100
AcDbCircle
10
24.285840131754057
20
174.57168026350786
30
0
40
2.7500000000000036
210
0
220
0
230
-1
0
CIRCLE
5
173
100
AcDbEntity
8
INTERIOR_PROFILES
100
AcDbCircle
10
-131.66666666666669
20
174.57168026350789
30
0
40
2.7500000000000213
210
0
220
0
230
-1
0
CIRCLE
5
174
100
AcDbEntity
8
INTERIOR_PROFILES
100
AcDbCircle
10
53.160840131754064
20
43.586356049748133
30
0
40
3.3000000000000007
210
0
220
0
230
-1
0
CIRCLE
5
175
100
AcDbEntity
8
INTERIOR_PROFILES
100
AcDbCircle
10
-402.53584013175407
20
148.720597550646
30
0
40
3.2999999999999829
210
0
220
0
230
-1
0
CIRCLE
5
176
100
AcDbEntity
8
INTERIOR_PROFILES
100
AcDbCircle
10
-402.53584013175407
20
36.851082712861881
30
0
40
3.2999999999999829
210
0
220
0
230
-1
0
CIRCLE
5
177
100
AcDbEntity
8
INTERIOR_PROFILES
100
AcDbCircle
10
53.160840131754064
20
141.98532421375978
30
0
40
3.3000000000000007
210
0
220
0
230
-1
0
CIRCLE
5
178
100
AcDbEntity
8
INTERIOR_PROFILES
100
AcDbCircle
10
-423.16084013175407
20
43.586356049748133
30
0
40
3.2999999999999829
210
0
220
0
230
-1
0
CIRCLE
5
179
100
AcDbEntity
8
INTERIOR_PROFILES
100
AcDbCircle
10
72.825840131754063
20
135.10584013175395
30
0
40
3.4999999999999964
210
0
220
0
230
-1
0
CIRCLE
5
180
100
AcDbEntity
8
INTERIOR_PROFILES
100
AcDbCircle
10
32.535840131754057
20
148.720597550646
30
0
40
3.3000000000000007
210
0
220
0
230
-1
0
CIRCLE
5
181
100
AcDbEntity
8
INTERIOR_PROFILES
100
AcDbCircle
10
23.545840131754048
20
114.28584013175396
30
0
40
3.4999999999999964
210
0
220
0
230
-1
0
CIRCLE
5
182
100
AcDbEntity
8
INTERIOR_PROFILES
100
AcDbCircle
10
32.535840131754057
20
36.851082712861881
30
0
40
3.3000000000000007
210
0
220
0
230
-1
0
CIRCLE
5
183
100
AcDbEntity
8
INTERIOR_PROFILES
100
AcDbCircle
10
-442.82584013175409
20
135.10584013175395
30
0
40
3.5000000000000142
210
0
220
0
230
-1
0
CIRCLE
5
184
100
AcDbEntity
8
INTERIOR_PROFILES
100
AcDbCircle
10
-423.16084013175407
20
141.98532421375978
30
0
40
3.2999999999999829
210
0
220
0
230
-1
0
CIRCLE
5
185
100
AcDbEntity
8
INTERIOR_PROFILES
100
AcDbCircle
10
-393.54584013175406
20
114.28584013175396
30
0
40
3.5000000000000142
210
0
220
0
230
-1
0
LINE
5
186
100
AcDbEntity
8
BEND
100
AcDbLine
10
-12.785840131754057
20
163.17876019763094
30
1.8374191057546338e-13
11
-90.285840131754057
21
163.17876019763094
31
-1.4765966227514585e-13
0
LINE
5
187
100
AcDbEntity
8
BEND
100
AcDbLine
10
0
20
163.17876019763094
30
1.0339811365857981e-13
11
370
21
163.17876019763094
31
1.6320278461989801e-13
0
LINE
5
188
100
AcDbEntity
8
BEND
100
AcDbLine
10
-90.285840131754057
20
22.392920065876947
30
-1.1157741397482687e-13
11
-12.78584013175406
21
22.392920065876947
31
2.1982415887578236e-13
0
LINE
5
189
100
AcDbEntity
8
BEND
100
AcDbLine
10
460.28584013175407
20
163.17876019763094
30
-1.4876988529977098e-13
11
382.78584013175407
21
163.17876019763094
31
1.8263168755083825e-13
0
LINE
5
190
100
AcDbEntity
8
BEND
100
AcDbLine
10
370
20
22.392920065876929
30
1.0339811365857976e-13
11
0
21
22.392920065876929
31
1.6320278461989801e-13
0
LINE
5
191
100
AcDbEntity
8
BEND
100
AcDbLine
10
377.39292006587704
20
157.78584013175396
30
1.8318679906315083e-13
11
377.39292006587704
21
27.785840131753954
31
1.8318679906315083e-13
0
LINE
5
192
100
AcDbEntity
8
BEND
100
AcDbLine
10
-7.3929200658770746
20
157.78584013175396
30
1.8318679906315073e-13
11
-7.3929200658770746
21
27.785840131753954
31
1.8318679906315073e-13
0
LINE
5
193
100
AcDbEntity
8
BEND
100
AcDbLine
10
382.78584013175407
20
22.392920065876947
30
2.1871393585115715e-13
11
460.28584013175407
21
22.392920065876947
31
-1.1268763699945206e-13
0
LINE
5
194
100
AcDbEntity
8
BEND_EXTENT
100
AcDbLine
10
-10.785840131754068
20
157.78584013175396
30
1.6875389974302379e-13
11
-10.785840131754068
21
157.44807603414881
31
1.6875389974302379e-13
0
LINE
5
195
100
AcDbEntity
8
BEND_EXTENT
100
AcDbLine
10
-10.785840131754068
20
152.12360422935913
30
1.6875389974302379e-13
11
-10.785840131754068
21
33.448076034148798
31
1.6875389974302379e-13
0
LINE
5
196
100
AcDbEntity
8
BEND_EXTENT
100
AcDbLine
10
-90.285840131754057
20
159.78584013175396
30
-1.5099033134902129e-13
11
-12.78584013175406
21
159.78584013175396
31
1.6875389974302379e-13
0
LINE
5
197
100
AcDbEntity
8
BEND_EXTENT
100
AcDbLine
10
-12.78584013175406
20
25.785840131753961
30
1.6875389974302379e-13
11
-90.285840131754057
21
25.785840131753961
31
-1.5099033134902129e-13
0
LINE
5
198
100
AcDbEntity
8
BEND_EXTENT
100
AcDbLine
10
-10.785840131754068
20
28.12360422935912
30
1.6875389974302379e-13
11
-10.785840131754068
21
27.785840131753954
31
1.6875389974302379e-13
0
LINE
5
199
100
AcDbEntity
8
BEND_EXTENT
100
AcDbLine
10
380.78584013175407
20
27.785840131753954
30
1.6875389974302379e-13
11
380.78584013175407
21
28.12360422935912
31
1.6875389974302379e-13
0
LINE
5
200
100
AcDbEntity
8
BEND_EXTENT
100
AcDbLine
10
380.78584013175407
20
157.44807603414881
30
1.6875389974302379e-13
11
380.78584013175407
21
157.78584013175396
31
1.6875389974302379e-13
0
LINE
5
201
100
AcDbEntity
8
BEND_EXTENT
100
AcDbLine
10
460.28584013175407
20
25.785840131753961
30
-1.5099033134902129e-13
11
382.78584013175407
21
25.785840131753961
31
1.6875389974302379e-13
0
LINE
5
202
100
AcDbEntity
8
BEND_EXTENT
100
AcDbLine
10
382.78584013175407
20
159.78584013175396
30
1.6875389974302379e-13
11
460.28584013175407
21
159.78584013175396
31
-1.5099033134902129e-13
0
LINE
5
203
100
AcDbEntity
8
BEND_EXTENT
100
AcDbLine
10
380.78584013175407
20
33.448076034148798
30
1.6875389974302379e-13
11
380.78584013175407
21
152.12360422935913
31
1.6875389974302379e-13
0
LINE
5
204
100
AcDbEntity
8
BEND_EXTENT
100
AcDbLine
10
-4.0000000000000568
20
27.785840131753954
30
1.6875389974302379e-13
11
-4.0000000000000568
21
157.78584013175396
31
1.6875389974302379e-13
0
LINE
5
205
100
AcDbEntity
8
BEND_EXTENT
100
AcDbLine
10
374.00000000000006
20
157.78584013175396
30
1.6875389974302379e-13
11
374.00000000000006
21
27.785840131753954
31
1.6875389974302379e-13
0
LINE
5
206
100
AcDbEntity
8
BEND_EXTENT
100
AcDbLine
10
370
20
25.785840131753943
30
1.6875389974302379e-13
11
0
21
25.785840131753943
31
1.6875389974302379e-13
0
LINE
5
207
100
AcDbEntity
8
BEND_EXTENT
100
AcDbLine
10
0
20
159.78584013175396
30
1.6875389974302379e-13
11
370
21
159.78584013175396
31
1.6875389974302379e-13
0
LINE
5
208
100
AcDbEntity
8
BEND_EXTENT
100
AcDbLine
10
-12.78584013175406
20
166.57168026350789
30
1.7763568394002505e-13
11
-90.285840131754057
21
166.57168026350789
31
-1.5099033134902129e-13
0
LINE
5
209
100
AcDbEntity
8
BEND_EXTENT
100
AcDbLine
10
-90.285840131754057
20
19.000000000000075
30
-9.7699626167013776e-14
11
-12.78584013175406
21
19.000000000000075
31
2.3092638912203256e-13
0
LINE
5
210
100
AcDbEntity
8
BEND_EXTENT
100
AcDbLine
10
460.28584013175407
20
166.57168026350789
30
-1.5099033134902129e-13
11
382.78584013175407
21
166.57168026350789
31
1.7763568394002505e-13
0
LINE
5
211
100
AcDbEntity
8
BEND_EXTENT
100
AcDbLine
10
382.78584013175407
20
19.000000000000075
30
2.3092638912203256e-13
11
460.28584013175407
21
19.000000000000075
31
-9.7699626167013776e-14
0
LINE
5
212
100
AcDbEntity
8
BEND_EXTENT
100
AcDbLine
10
370
20
166.57168026350789
30
1.4210854715202004e-13
11
0
21
166.57168026350789
31
1.4210854715202004e-13
0
LINE
5
213
100
AcDbEntity
8
BEND_EXTENT
100
AcDbLine
10
0
20
19.000000000000004
30
1.4210854715202004e-13
11
370
21
19.000000000000004
31
1.4210854715202004e-13
0
ENDSEC
0
SECTION
2
OBJECTS
0
DICTIONARY
5
C
100
AcDbDictionary
3
ACAD_GROUP
350
D
3
ACAD_MLINESTYLE
350
17
0
DICTIONARY
5
D
100
AcDbDictionary
0
DICTIONARY
5
1A
330
C
100
AcDbDictionary
0
DICTIONARY
5
17
100
AcDbDictionary
0
ENDSEC
0
EOF
