0
SECTION
2
HEADER
9
$INSUNITS
70
4
9
$ACADVER
1
AC1014
9
$HANDSEED
5
FFFF
0
ENDSEC
0
SECTION
2
TABLES
0
TABLE
2
VPORT
5
8
100
AcDbSymbolTable
0
ENDTAB
0
TABLE
2
LTYPE
5
5
100
AcDbSymbolTable
0
LTYPE
5
14
100
AcDbSymbolTableRecord
100
AcDbLinetypeTableRecord
2
BYBLOCK
70
0
0
LTYPE
5
15
100
AcDbSymbolTableRecord
100
AcDbLinetypeTableRecord
2
BYLAYER
70
0
0
LTYPE
5
16
100
AcDbSymbolTableRecord
100
AcDbLinetypeTableRecord
2
DASHED
70
0
3
Dashed __ __ __ __ __ __ __ __ __ __ __ __ __ _
72
65
73
2
40
0.75
49
0.5
74
0
49
-0.25
74
0
0
ENDTAB
0
TABLE
2
LAYER
5
2
100
AcDbSymbolTable
70
2
0
LAYER
5
50
100
AcDbSymbolTableRecord
100
AcDbLayerTableRecord
2
0
70
0
62
7
6
CONTINUOUS
0
ENDTAB
0
TABLE
2
STYLE
5
3
100
AcDbSymbolTable
70
1
0
STYLE
5
11
100
AcDbSymbolTableRecord
100
AcDbTextStyleTableRecord
2
STANDARD
70
0
0
ENDTAB
0
TABLE
2
VIEW
5
6
100
AcDbSymbolTable
70
0
0
ENDTAB
0
TABLE
2
UCS
5
7
100
AcDbSymbolTable
70
0
0
ENDTAB
0
TABLE
2
APPID
5
9
100
AcDbSymbolTable
70
2
0
APPID
5
12
100
AcDbSymbolTableRecord
100
AcDbRegAppTableRecord
2
ACAD
70
0
0
ENDTAB
0
TABLE
2
DIMSTYLE
5
A
100
AcDbSymbolTable
70
1
0
ENDTAB
0
TABLE
2
BLOCK_RECORD
5
1
100
AcDbSymbolTable
70
1
0
BLOCK_RECORD
5
1F
100
AcDbSymbolTableRecord
100
AcDbBlockTableRecord
2
*MODEL_SPACE
0
BLOCK_RECORD
5
1B
100
AcDbSymbolTableRecord
100
AcDbBlockTableRecord
2
*PAPER_SPACE
0
ENDTAB
0
ENDSEC
0
SECTION
2
BLOCKS
0
BLOCK
5
20
100
AcDbEntity
100
AcDbBlockBegin
2
*MODEL_SPACE
0
ENDBLK
5
21
100
AcDbEntity
100
AcDbBlockEnd
0
BLOCK
5
1C
100
AcDbEntity
100
AcDbBlockBegin
2
*PAPER_SPACE
0
ENDBLK
5
1D
100
AcDbEntity
100
AcDbBlockEnd
0
ENDSEC
0
SECTION
2
ENTITIES
0
LWPOLYLINE
5
100
100
AcDbEntity
8
OUTER_PROFILES
100
AcDbPolyline
90
18
70
1
43
0.0
10
139.79411398847404
20
154.91164916504749
42
-0.26291979894840634
10
108.26007518667925
20
125.26488095238095
42
-0.93227628568342291
10
87.311605076828528
20
125.26488095238093
42
-0.26291979894840645
10
55.777566275033728
20
154.91164916504749
10
51.02457839628795
20
156.46377874227221
10
19.785840131753876
20
60.803373517518757
10
19.785840131753876
20
56.803373517518772
10
26.785840131753869
20
56.803373517518772
10
26.785840131753872
20
50.803373517518757
10
0
20
50.803373517518793
10
0
20
0
10
195.5716802635078
20
-1.7763568394002505e-14
10
195.5716802635078
20
50.803373517518736
10
168.7858401317539
20
50.803373517518779
10
168.78584013175387
20
56.803373517518793
10
175.78584013175387
20
56.803373517518793
10
175.7858401317539
20
60.803373517518779
10
144.54710186721979
20
156.46377874227224
0
CIRCLE
5
101
100
AcDbEntity
8
INTERIOR_PROFILES
100
AcDbCircle
10
-119.28584013175389
20
88.759999999999991
30
0
40
3.4999999999999964
210
0
220
0
230
-1
0
CIRCLE
5
102
100
AcDbEntity
8
INTERIOR_PROFILES
100
AcDbCircle
10
-146.9853242137597
20
118.37500000000003
30
0
40
3.3000000000000007
210
0
220
0
230
-1
0
CIRCLE
5
103
100
AcDbEntity
8
INTERIOR_PROFILES
100
AcDbCircle
10
-11.000000000000023
20
38.102530138139073
30
0
40
2.7500000000000036
210
0
220
0
230
-1
0
CIRCLE
5
104
100
AcDbEntity
8
INTERIOR_PROFILES
100
AcDbCircle
10
-55.465840131753879
20
138.03999999999999
30
0
40
3.4999999999999964
210
0
220
0
230
-1
0
CIRCLE
5
105
100
AcDbEntity
8
INTERIOR_PROFILES
100
AcDbCircle
10
-35.785840131753879
20
77.950000000000003
30
0
40
3.3000000000000007
210
0
220
0
230
-1
0
CIRCLE
5
106
100
AcDbEntity
8
INTERIOR_PROFILES
100
AcDbCircle
10
-153.72059755064595
20
97.75
30
0
40
3.3000000000000007
210
0
220
0
230
-1
0
CIRCLE
5
107
100
AcDbEntity
8
INTERIOR_PROFILES
100
AcDbCircle
10
-41.851082712861817
20
97.750000000000028
30
0
40
3.3000000000000007
210
0
220
0
230
-1
0
CIRCLE
5
108
100
AcDbEntity
8
INTERIOR_PROFILES
100
AcDbCircle
10
-48.586356049748062
20
118.37500000000003
30
0
40
3.3000000000000007
210
0
220
0
230
-1
0
CIRCLE
5
109
100
AcDbEntity
8
INTERIOR_PROFILES
100
AcDbCircle
10
-184.5716802635078
20
38.102530138139059
30
0
40
2.7500000000000036
210
0
220
0
230
-1
0
CIRCLE
5
110
100
AcDbEntity
8
INTERIOR_PROFILES
100
AcDbCircle
10
-76.285840131753886
20
88.759999999999991
30
0
40
3.4999999999999964
210
0
220
0
230
-1
0
CIRCLE
5
111
100
AcDbEntity
8
INTERIOR_PROFILES
100
AcDbCircle
10
-159.78584013175387
20
77.950000000000017
30
0
40
3.3000000000000007
210
0
220
0
230
-1
0
CIRCLE
5
112
100
AcDbEntity
8
INTERIOR_PROFILES
100
AcDbCircle
10
-140.10584013175387
20
138.03999999999999
30
0
40
3.4999999999999964
210
0
220
0
230
-1
0
CIRCLE
5
113
100
AcDbEntity
8
INTERIOR_PROFILES
100
AcDbCircle
10
-11.000000000000014
20
12.700843379379716
30
0
40
2.7500000000000036
210
0
220
0
230
-1
0
CIRCLE
5
114
100
AcDbEntity
8
INTERIOR_PROFILES
100
AcDbCircle
10
-184.5716802635078
20
12.700843379379645
30
0
40
2.7500000000000036
210
0
220
0
230
-1
0
LINE
5
115
100
AcDbEntity
8
BEND
100
AcDbLine
10
22.392920065876936
20
50.803373517518779
30
2.3006285722488396e-14
11
22.392920065876943
21
3.5527136788005009e-14
31
2.3006285722488396e-14
0
LINE
5
116
100
AcDbEntity
8
BEND
100
AcDbLine
10
173.17876019763079
20
0
30
1.3366776745901621e-12
11
173.17876019763079
21
50.803373517518779
31
1.3366776745901621e-12
0
LINE
5
117
100
AcDbEntity
8
BEND_EXTENT
100
AcDbLine
10
18.999999999999989
20
50.803373517518793
30
5.6590534727422506e-15
11
18.999999999999993
21
1.7763568394002505e-14
31
5.6590534727422506e-15
0
LINE
5
118
100
AcDbEntity
8
BEND_EXTENT
100
AcDbLine
10
25.785840131753901
20
1.7763568394002505e-14
30
7.3660208710989428e-14
11
25.785840131753879
21
50.803373517518757
31
7.3660208710989302e-14
0
LINE
5
119
100
AcDbEntity
8
BEND_EXTENT
100
AcDbLine
10
169.7858401317539
20
50.803373517518779
30
1.3282122265374175e-12
11
169.7858401317539
21
1.7763568394002505e-14
31
1.3282122265374175e-12
0
LINE
5
120
100
AcDbEntity
8
BEND_EXTENT
100
AcDbLine
10
176.5716802635078
20
-1.7763568394002505e-14
30
1.3784498133816624e-12
11
176.5716802635078
21
50.803373517518757
31
1.3784498133816622e-12
0
ENDSEC
0
SECTION
2
OBJECTS
0
DICTIONARY
5
C
100
AcDbDictionary
3
ACAD_GROUP
350
D
3
ACAD_MLINESTYLE
350
17
0
DICTIONARY
5
D
100
AcDbDictionary
0
DICTIONARY
5
1A
330
C
100
AcDbDictionary
0
DICTIONARY
5
17
100
AcDbDictionary
0
ENDSEC
0
EOF
