M48
METRIC,LZ,000.000
;FILE_FORMAT=3:3
;TYPE=PLATED
;Layer: PTH_Through
;EasyEDA v6.5.46, 2026-05-27 16:22:10
;37b0a3b6e356420ea259f72b66a9e9c6,10
;Gerber Generator version 0.2
;Holesize 1 = 0.306 mm
T01C0.306
;Holesize 2 = 0.310 mm
T02C0.310
;Holesize 3 = 0.600 mm
T03C0.600
;Holesize 4 = 0.889 mm
T04C0.889
;Holesize 5 = 0.915 mm
T05C0.915
;Holesize 6 = 1.000 mm
T06C1.000
;Holesize 7 = 1.200 mm
T07C1.200
;Holesize 8 = 1.300 mm
T08C1.300
;Holesize 9 = 2.000 mm
T09C2.000
%
G05
G90
T01
X045847Y-067900
X040308Y-044450
X044196Y-047752
X037465Y-033909
X042545Y-032893
X097917Y-008763
X098806Y-008763
X099695Y-008763
X100584Y-008763
X101473Y-008763
X102362Y-008763
X103251Y-008763
X104140Y-008763
X104140Y-009652
X103251Y-009652
X102362Y-009652
X101473Y-009652
X100584Y-009652
X099695Y-009652
X098806Y-009652
X097917Y-009652
X104140Y-010541
X103251Y-010541
X102362Y-010541
X101473Y-010541
X100584Y-010541
X099695Y-010541
X098806Y-010541
X097917Y-010541
X104140Y-011430
X103251Y-011430
X102362Y-011430
X101473Y-011430
X100584Y-011430
X099695Y-011430
X098806Y-011430
X097917Y-011430
X104140Y-012319
X103251Y-012319
X102362Y-012319
X101473Y-012319
X100584Y-012319
X099695Y-012319
X098806Y-012319
X097917Y-012319
X104140Y-013208
X103251Y-013208
X102362Y-013208
X101473Y-013208
X100584Y-013208
X099695Y-013208
X098806Y-013208
X097917Y-013208
X104140Y-014097
X103251Y-014097
X102362Y-014097
X101473Y-014097
X100584Y-014097
X099695Y-014097
X098806Y-014097
X097917Y-014097
X104140Y-014986
X103251Y-014986
X102362Y-014986
X101473Y-014986
X100584Y-014986
X099695Y-014986
X098806Y-014986
X097917Y-014986
X105029Y-014986
X105029Y-014097
X105029Y-013208
X105029Y-012319
X105029Y-011430
X105029Y-010541
X105029Y-009652
X105029Y-008763
X105918Y-014986
X105918Y-014097
X105918Y-013208
X105918Y-012319
X105918Y-011430
X105918Y-010541
X105918Y-009652
X105918Y-008763
X105918Y-015875
X105029Y-015875
X097917Y-015875
X098806Y-015875
X099695Y-015875
X100584Y-015875
X101473Y-015875
X102362Y-015875
X103251Y-015875
X104140Y-015875
X105918Y-016764
X105029Y-016764
X097917Y-016764
X098806Y-016764
X099695Y-016764
X100584Y-016764
X101473Y-016764
X102362Y-016764
X103251Y-016764
X104140Y-016764
X104267Y-041402
X103378Y-041402
X102489Y-041402
X101600Y-041402
X100711Y-041402
X099822Y-041402
X098933Y-041402
X098044Y-041402
X105156Y-041402
X106045Y-041402
X104267Y-040513
X103378Y-040513
X102489Y-040513
X101600Y-040513
X100711Y-040513
X099822Y-040513
X098933Y-040513
X098044Y-040513
X105156Y-040513
X106045Y-040513
X106045Y-033401
X106045Y-034290
X106045Y-035179
X106045Y-036068
X106045Y-036957
X106045Y-037846
X106045Y-038735
X106045Y-039624
X105156Y-033401
X105156Y-034290
X105156Y-035179
X105156Y-036068
X105156Y-036957
X105156Y-037846
X105156Y-038735
X105156Y-039624
X098044Y-039624
X098933Y-039624
X099822Y-039624
X100711Y-039624
X101600Y-039624
X102489Y-039624
X103378Y-039624
X104267Y-039624
X098044Y-038735
X098933Y-038735
X099822Y-038735
X100711Y-038735
X101600Y-038735
X102489Y-038735
X103378Y-038735
X104267Y-038735
X098044Y-037846
X098933Y-037846
X099822Y-037846
X100711Y-037846
X101600Y-037846
X102489Y-037846
X103378Y-037846
X104267Y-037846
X098044Y-036957
X098933Y-036957
X099822Y-036957
X100711Y-036957
X101600Y-036957
X102489Y-036957
X103378Y-036957
X104267Y-036957
X098044Y-036068
X098933Y-036068
X099822Y-036068
X100711Y-036068
X101600Y-036068
X102489Y-036068
X103378Y-036068
X104267Y-036068
X098044Y-035179
X098933Y-035179
X099822Y-035179
X100711Y-035179
X101600Y-035179
X102489Y-035179
X103378Y-035179
X104267Y-035179
X098044Y-034290
X098933Y-034290
X099822Y-034290
X100711Y-034290
X101600Y-034290
X102489Y-034290
X103378Y-034290
X104267Y-034290
X104267Y-033401
X103378Y-033401
X102489Y-033401
X101600Y-033401
X100711Y-033401
X099822Y-033401
X098933Y-033401
X098044Y-033401
X104267Y-066040
X103378Y-066040
X102489Y-066040
X101600Y-066040
X100711Y-066040
X099822Y-066040
X098933Y-066040
X098044Y-066040
X105156Y-066040
X106045Y-066040
X104267Y-065151
X103378Y-065151
X102489Y-065151
X101600Y-065151
X100711Y-065151
X099822Y-065151
X098933Y-065151
X098044Y-065151
X105156Y-065151
X106045Y-065151
X106045Y-058039
X106045Y-058928
X106045Y-059817
X106045Y-060706
X106045Y-061595
X106045Y-062484
X106045Y-063373
X106045Y-064262
X105156Y-058039
X105156Y-058928
X105156Y-059817
X105156Y-060706
X105156Y-061595
X105156Y-062484
X105156Y-063373
X105156Y-064262
X098044Y-064262
X098933Y-064262
X099822Y-064262
X100711Y-064262
X101600Y-064262
X102489Y-064262
X103378Y-064262
X104267Y-064262
X098044Y-063373
X098933Y-063373
X099822Y-063373
X100711Y-063373
X101600Y-063373
X102489Y-063373
X103378Y-063373
X104267Y-063373
X098044Y-062484
X098933Y-062484
X099822Y-062484
X100711Y-062484
X101600Y-062484
X102489Y-062484
X103378Y-062484
X104267Y-062484
X098044Y-061595
X098933Y-061595
X099822Y-061595
X100711Y-061595
X101600Y-061595
X102489Y-061595
X103378Y-061595
X104267Y-061595
X098044Y-060706
X098933Y-060706
X099822Y-060706
X100711Y-060706
X101600Y-060706
X102489Y-060706
X103378Y-060706
X104267Y-060706
X098044Y-059817
X098933Y-059817
X099822Y-059817
X100711Y-059817
X101600Y-059817
X102489Y-059817
X103378Y-059817
X104267Y-059817
X098044Y-058928
X098933Y-058928
X099822Y-058928
X100711Y-058928
X101600Y-058928
X102489Y-058928
X103378Y-058928
X104267Y-058928
X104267Y-058039
X103378Y-058039
X102489Y-058039
X101600Y-058039
X100711Y-058039
X099822Y-058039
X098933Y-058039
X098044Y-058039
X104013Y-090805
X103124Y-090805
X102235Y-090805
X101346Y-090805
X100457Y-090805
X099568Y-090805
X098679Y-090805
X097790Y-090805
X104902Y-090805
X105791Y-090805
X104013Y-089916
X103124Y-089916
X102235Y-089916
X101346Y-089916
X100457Y-089916
X099568Y-089916
X098679Y-089916
X097790Y-089916
X104902Y-089916
X105791Y-089916
X105791Y-082804
X105791Y-083693
X105791Y-084582
X105791Y-085471
X105791Y-086360
X105791Y-087249
X105791Y-088138
X105791Y-089027
X104902Y-082804
X104902Y-083693
X104902Y-084582
X104902Y-085471
X104902Y-086360
X104902Y-087249
X104902Y-088138
X104902Y-089027
X097790Y-089027
X098679Y-089027
X099568Y-089027
X100457Y-089027
X101346Y-089027
X102235Y-089027
X103124Y-089027
X104013Y-089027
X097790Y-088138
X098679Y-088138
X099568Y-088138
X100457Y-088138
X101346Y-088138
X102235Y-088138
X103124Y-088138
X104013Y-088138
X097790Y-087249
X098679Y-087249
X099568Y-087249
X100457Y-087249
X101346Y-087249
X102235Y-087249
X103124Y-087249
X104013Y-087249
X097790Y-086360
X098679Y-086360
X099568Y-086360
X100457Y-086360
X101346Y-086360
X102235Y-086360
X103124Y-086360
X104013Y-086360
X097790Y-085471
X098679Y-085471
X099568Y-085471
X100457Y-085471
X101346Y-085471
X102235Y-085471
X103124Y-085471
X104013Y-085471
X097790Y-084582
X098679Y-084582
X099568Y-084582
X100457Y-084582
X101346Y-084582
X102235Y-084582
X103124Y-084582
X104013Y-084582
X097790Y-083693
X098679Y-083693
X099568Y-083693
X100457Y-083693
X101346Y-083693
X102235Y-083693
X103124Y-083693
X104013Y-083693
X104013Y-082804
X103124Y-082804
X102235Y-082804
X101346Y-082804
X100457Y-082804
X099568Y-082804
X098679Y-082804
X097790Y-082804
T02
X053467Y-056896
X056007Y-056896
X087503Y-036068
X087503Y-034798
X050927Y-056896
X048387Y-056896
X087884Y-010160
X087884Y-011430
X087503Y-059563
X087503Y-060833
X087630Y-084201
X087630Y-085471
X050927Y-061214
X048387Y-061214
X056007Y-061214
X053467Y-061214
X087630Y-038608
X087630Y-039878
X074041Y-053340
X074041Y-055880
X076200Y-015240
X074422Y-013970
X075438Y-021590
X074295Y-021590
X074295Y-073660
X074295Y-076200
X087122Y-078232
X085598Y-078994
X074295Y-063500
X074422Y-066040
X087757Y-063373
X087757Y-064643
X054737Y-056896
X057277Y-057658
X052197Y-056896
X049657Y-056896
X058928Y-063754
X062611Y-063754
X042164Y-034290
X042164Y-036576
X038608Y-033020
X022225Y-049784
X022098Y-056134
X037084Y-037973
X035560Y-033020
X047117Y-052324
T03
X090170Y-030861
X091440Y-030861
X092710Y-030861
X090043Y-006477
X091313Y-006477
X092583Y-006477
X090170Y-055626
X091440Y-055626
X092710Y-055626
X089916Y-080391
X091186Y-080391
X092456Y-080391
T04
X019050Y-029210
X019050Y-026670
X021590Y-029210
X021590Y-026670
X024130Y-029210
X024130Y-026670
X026670Y-029210
X026670Y-026670
X008890Y-029210
X008890Y-026670
X011430Y-029210
X011430Y-026670
X013970Y-029210
X013970Y-026670
X016510Y-029210
X016510Y-026670
X058166Y-094996
X055626Y-094996
X038100Y-012319
X038100Y-014859
X038100Y-017399
X039370Y-004191
X036830Y-004191
X034290Y-004191
X031750Y-004191
X035433Y-094869
X037973Y-094869
X040513Y-094869
X043053Y-094869
X024130Y-004191
X021590Y-004191
X019050Y-004191
X016510Y-004191
T05
X019050Y-024130
X021590Y-024130
X024130Y-024130
X026670Y-024130
X008890Y-024130
X011430Y-024130
X013970Y-024130
X016510Y-024130
X053086Y-094996
X028575Y-012700
X024892Y-012700
T06
X027054Y-089154G85X027048Y-089154
X027054Y-086614G85X027048Y-086614
X027054Y-084074G85X027048Y-084074
X027054Y-081534G85X027048Y-081534
X027054Y-078994G85X027048Y-078994
X027054Y-076454G85X027048Y-076454
X027054Y-073914G85X027048Y-073914
X027054Y-071374G85X027048Y-071374
X027054Y-068834G85X027048Y-068834
X027054Y-066294G85X027048Y-066294
X027054Y-063754G85X027048Y-063754
X027054Y-061214G85X027048Y-061214
X027054Y-058674G85X027048Y-058674
X027054Y-056134G85X027048Y-056134
X027054Y-053594G85X027048Y-053594
X027054Y-051054G85X027048Y-051054
X027061Y-048518G85X027056Y-048518
X027054Y-045974G85X027048Y-045974
X027054Y-043434G85X027048Y-043434
X027054Y-040894G85X027048Y-040894
X009274Y-040894G85X009268Y-040894
X009274Y-043434G85X009268Y-043434
X009274Y-045902G85X009268Y-045902
X009274Y-048514G85X009268Y-048514
X009274Y-051054G85X009268Y-051054
X009274Y-053594G85X009268Y-053594
X009274Y-056134G85X009268Y-056134
X009274Y-058674G85X009268Y-058674
X009274Y-061214G85X009268Y-061214
X009274Y-063754G85X009268Y-063754
X009274Y-066294G85X009268Y-066294
X009274Y-068834G85X009268Y-068834
X009274Y-071374G85X009268Y-071374
X009274Y-073914G85X009268Y-073914
X009274Y-076454G85X009268Y-076454
X009274Y-078994G85X009268Y-078994
X009274Y-081534G85X009268Y-081534
X009274Y-084074G85X009268Y-084074
X009274Y-086614G85X009268Y-086614
X009274Y-089154G85X009268Y-089154
X021974Y-040894G85X021968Y-040894
X019434Y-040894G85X019428Y-040894
X016894Y-040894G85X016888Y-040894
X014354Y-040894G85X014348Y-040894
T07
X072450Y-090932
X079950Y-090932
T08
X068090Y-025038G85X068090Y-025032
X047770Y-025038G85X047770Y-025032
X047770Y-014878G85X047770Y-014872
X047770Y-004718G85X047770Y-004712
X068090Y-017418G85X068090Y-017412
X068090Y-012338G85X068090Y-012332
T09
X119507Y-012319
X119507Y-020320
X119507Y-045085
X119507Y-052705
X119507Y-081280
X119507Y-073660
M30
