M48
METRIC,LZ,000.000
;FILE_FORMAT=3:3
;TYPE=PLATED
;Layer: PTH_Through_Via
;EasyEDA v6.5.46, 2026-05-27 16:22:10
;37b0a3b6e356420ea259f72b66a9e9c6,10
;Gerber Generator version 0.2
;Holesize 1 = 0.306 mm
T01C0.306
;Holesize 2 = 0.310 mm
T02C0.310
%
G05
G90
T01
X045847Y-067900
X040308Y-044450
X044196Y-047752
X037465Y-033909
X042545Y-032893
T02
X053467Y-056896
X056007Y-056896
X087503Y-036068
X087503Y-034798
X050927Y-056896
X048387Y-056896
X087884Y-010160
X087884Y-011430
X087503Y-059563
X087503Y-060833
X087630Y-084201
X087630Y-085471
X050927Y-061214
X048387Y-061214
X056007Y-061214
X053467Y-061214
X087630Y-038608
X087630Y-039878
X074041Y-053340
X074041Y-055880
X076200Y-015240
X074422Y-013970
X075438Y-021590
X074295Y-021590
X074295Y-073660
X074295Y-076200
X087122Y-078232
X085598Y-078994
X074295Y-063500
X074422Y-066040
X087757Y-063373
X087757Y-064643
X054737Y-056896
X057277Y-057658
X052197Y-056896
X049657Y-056896
X058928Y-063754
X062611Y-063754
X042164Y-034290
X042164Y-036576
X038608Y-033020
X022225Y-049784
X022098Y-056134
X037084Y-037973
X035560Y-033020
X047117Y-052324
M30
