G04 Layer: BottomSilkscreenLayer*
G04 EasyEDA v6.5.46, 2026-05-27 16:22:10*
G04 37b0a3b6e356420ea259f72b66a9e9c6,10*
G04 Gerber Generator version 0.2*
G04 Scale: 100 percent, Rotated: No, Reflected: No *
G04 Dimensions in millimeters *
G04 leading zeros omitted , absolute positions ,4 integer and 5 decimal *
%FSLAX45Y45*%
%MOMM*%

%ADD10C,0.0001*%

%LPD*%
G36*
X4686147Y-1829968D02*
G01*
X4673193Y-1834946D01*
X4467504Y-1989277D01*
X4183684Y-2203551D01*
X3788308Y-2501341D01*
X3071063Y-3042412D01*
X3071063Y-3055772D01*
X3083864Y-3066389D01*
X3306775Y-2898800D01*
X3338626Y-2877058D01*
X3545027Y-2719425D01*
X3586479Y-2689504D01*
X3834129Y-2501950D01*
X4056938Y-2334717D01*
X4078579Y-2319477D01*
X4285030Y-2161946D01*
X4311497Y-2145334D01*
X4325569Y-2131314D01*
X4614519Y-1915058D01*
X4678324Y-1864614D01*
X4681728Y-1868373D01*
X5289397Y-2674315D01*
X6064758Y-3703269D01*
X6156045Y-3824935D01*
X7413091Y-5492546D01*
X8197850Y-6534200D01*
X8631580Y-7109510D01*
X9007703Y-7609738D01*
X8999016Y-7617155D01*
X8897620Y-7692644D01*
X8876030Y-7707630D01*
X8669528Y-7865414D01*
X8628024Y-7895132D01*
X8400897Y-8065363D01*
X8360867Y-8097926D01*
X8167725Y-8241385D01*
X8111947Y-8285073D01*
X7929473Y-8422640D01*
X7908086Y-8437524D01*
X7685836Y-8604758D01*
X7415022Y-8810904D01*
X7415022Y-8818981D01*
X7429804Y-8831224D01*
X7442911Y-8823248D01*
X7701381Y-8629548D01*
X8912860Y-7716824D01*
X9042095Y-7618374D01*
X9042095Y-7610551D01*
X8962999Y-7504836D01*
X8511641Y-6906717D01*
X7736331Y-5877763D01*
X7362291Y-5381040D01*
X5964072Y-3525875D01*
X5751576Y-3243122D01*
X5582107Y-3018993D01*
G37*
G36*
X4674108Y-1885238D02*
G01*
X4548276Y-1979879D01*
X3560216Y-2724962D01*
X3230727Y-2972511D01*
X3095498Y-3076498D01*
X3102152Y-3097530D01*
X3111550Y-3097530D01*
X3357473Y-2914650D01*
X3392932Y-2886456D01*
X3580485Y-2745232D01*
X3621989Y-2714853D01*
X3849471Y-2542540D01*
X4072178Y-2375052D01*
X4093768Y-2360015D01*
X4259681Y-2232101D01*
X4341368Y-2172512D01*
X4669942Y-1925370D01*
X4704334Y-1964689D01*
X4899050Y-2223160D01*
X5086604Y-2471572D01*
X5823153Y-3449828D01*
X5831535Y-3459987D01*
X6074308Y-3782364D01*
X6109817Y-3830726D01*
X6529831Y-4387545D01*
X6683197Y-4590288D01*
X7129830Y-5183327D01*
X7419695Y-5568594D01*
X7428179Y-5578703D01*
X7686192Y-5921603D01*
X7706461Y-5949746D01*
X7894015Y-6197498D01*
X8095894Y-6465773D01*
X8432292Y-6911797D01*
X8919972Y-7560614D01*
X8940647Y-7587488D01*
X8946388Y-7602423D01*
X8821623Y-7697114D01*
X8613800Y-7853680D01*
X8390737Y-8022183D01*
X8369452Y-8037068D01*
X8106918Y-8235797D01*
X7873746Y-8411260D01*
X7671003Y-8564880D01*
X7629144Y-8594648D01*
X7403846Y-8766962D01*
X7388859Y-8778798D01*
X7400188Y-8799931D01*
X7403795Y-8799931D01*
X7650734Y-8617204D01*
X7686192Y-8589010D01*
X7868666Y-8451138D01*
X7915503Y-8417255D01*
X8177885Y-8218982D01*
X8375548Y-8070646D01*
X8405977Y-8046415D01*
X8618829Y-7886750D01*
X8680196Y-7839405D01*
X8985961Y-7611313D01*
X8986316Y-7603998D01*
X7307224Y-5375960D01*
X4687265Y-1898802D01*
G37*
G36*
X5003698Y-2761538D02*
G01*
X4989626Y-2770124D01*
X4896815Y-2838805D01*
X4870297Y-2850896D01*
X4841544Y-2823362D01*
X4794632Y-2854502D01*
X4936591Y-2854502D01*
X4942128Y-2841599D01*
X4998770Y-2796743D01*
X5017465Y-2819908D01*
X5017465Y-2828696D01*
X4992471Y-2817317D01*
X4959197Y-2842514D01*
X4936591Y-2854502D01*
X4794632Y-2854502D01*
X4778502Y-2865221D01*
X4744110Y-2879598D01*
X4718761Y-2879598D01*
X4670247Y-2819450D01*
X4664506Y-2818739D01*
X3874465Y-3413658D01*
X3648913Y-3584651D01*
X3648913Y-3595776D01*
X3651718Y-3599484D01*
X3684371Y-3599484D01*
X3684371Y-3590950D01*
X3814267Y-3495446D01*
X4041749Y-3325063D01*
X4122826Y-3261360D01*
X4264964Y-3155848D01*
X4307382Y-3125419D01*
X4513326Y-2968294D01*
X4555591Y-2937865D01*
X4657090Y-2859328D01*
X4666589Y-2859328D01*
X4682947Y-2884322D01*
X4682947Y-2890875D01*
X4656785Y-2873756D01*
X4477664Y-3009493D01*
X4261592Y-3172307D01*
X4945430Y-3172307D01*
X4975352Y-3142437D01*
X5014925Y-3137560D01*
X5047183Y-3157829D01*
X5187289Y-3341928D01*
X5242306Y-3417773D01*
X5246725Y-3471316D01*
X5209286Y-3512769D01*
X5156860Y-3532174D01*
X5131511Y-3539032D01*
X5178755Y-3494633D01*
X4951730Y-3192119D01*
X4945430Y-3172307D01*
X4261592Y-3172307D01*
X4219528Y-3204006D01*
X4924856Y-3204006D01*
X5005730Y-3307892D01*
X5130546Y-3475177D01*
X5139639Y-3486962D01*
X5106162Y-3511600D01*
X5081117Y-3528415D01*
X5072532Y-3528415D01*
X5118201Y-3490366D01*
X5118862Y-3482086D01*
X4935982Y-3239312D01*
X4915103Y-3204006D01*
X4219528Y-3204006D01*
X4116941Y-3281324D01*
X4828743Y-3281324D01*
X4841138Y-3243732D01*
X4873040Y-3224326D01*
X4888992Y-3224276D01*
X4939893Y-3287623D01*
X5052364Y-3439668D01*
X5073142Y-3466541D01*
X5078984Y-3481730D01*
X5045354Y-3506825D01*
X5022697Y-3518560D01*
X4983276Y-3498443D01*
X4946243Y-3459378D01*
X4839716Y-3318103D01*
X4828743Y-3281324D01*
X4116941Y-3281324D01*
X3788308Y-3529584D01*
X3705098Y-3591763D01*
X3704691Y-3604158D01*
X3705380Y-3605072D01*
X3740454Y-3605072D01*
X3803497Y-3555593D01*
X3888028Y-3496665D01*
X3867703Y-3536442D01*
X4458563Y-3536442D01*
X4491939Y-3508552D01*
X4520793Y-3502253D01*
X4558741Y-3520795D01*
X4698339Y-3703269D01*
X4758994Y-3788206D01*
X4758588Y-3835044D01*
X4743907Y-3862019D01*
X4708601Y-3883812D01*
X4645558Y-3908551D01*
X4639868Y-3908450D01*
X4693310Y-3860393D01*
X4464964Y-3556660D01*
X4458563Y-3536442D01*
X3867703Y-3536442D01*
X3866845Y-3538118D01*
X3866845Y-3552190D01*
X3846576Y-3570528D01*
X3846576Y-3580434D01*
X3916070Y-3677920D01*
X3932478Y-3709822D01*
X3938879Y-3749751D01*
X3889654Y-3791915D01*
X3882491Y-3791965D01*
X3827678Y-3723538D01*
X3740454Y-3605072D01*
X3705380Y-3605072D01*
X3872839Y-3827424D01*
X3882440Y-3833368D01*
X3953001Y-3785158D01*
X3958945Y-3791102D01*
X3880358Y-3853078D01*
X3872534Y-3850284D01*
X3684371Y-3599484D01*
X3651718Y-3599484D01*
X3859276Y-3873754D01*
X3870502Y-3888282D01*
X3877970Y-3888282D01*
X3995267Y-3802126D01*
X4010761Y-3802126D01*
X4037076Y-3827322D01*
X4148175Y-3748278D01*
X4320184Y-3618382D01*
X4356862Y-3595217D01*
X4395571Y-3584549D01*
X4430064Y-3622192D01*
X4559350Y-3794506D01*
X4596485Y-3846169D01*
X4147820Y-4184802D01*
X4113987Y-4211370D01*
X4119147Y-4218432D01*
X4150055Y-4218432D01*
X4315460Y-4094429D01*
X4497933Y-3956304D01*
X4519371Y-3941521D01*
X4629708Y-3857244D01*
X4633010Y-3847998D01*
X4449368Y-3604310D01*
X4428490Y-3568954D01*
X4438294Y-3568954D01*
X4519168Y-3672840D01*
X4652518Y-3851148D01*
X4652010Y-3855313D01*
X4412922Y-4035298D01*
X4470044Y-4035298D01*
X4470044Y-4040327D01*
X4464964Y-4040327D01*
X4464964Y-4035298D01*
X4412922Y-4035298D01*
X4392735Y-4050487D01*
X4449775Y-4050487D01*
X4449775Y-4055567D01*
X4444695Y-4055567D01*
X4444695Y-4050487D01*
X4392735Y-4050487D01*
X4372548Y-4065676D01*
X4429506Y-4065676D01*
X4429506Y-4070756D01*
X4424426Y-4070756D01*
X4424426Y-4065676D01*
X4372548Y-4065676D01*
X4352361Y-4080865D01*
X4409236Y-4080865D01*
X4409236Y-4085945D01*
X4404156Y-4085945D01*
X4404156Y-4080865D01*
X4352361Y-4080865D01*
X4332106Y-4096105D01*
X4388967Y-4096105D01*
X4388967Y-4101185D01*
X4383887Y-4101185D01*
X4383887Y-4096105D01*
X4332106Y-4096105D01*
X4180535Y-4210151D01*
X4170222Y-4222292D01*
X4171338Y-4223766D01*
X4211523Y-4223766D01*
X4290110Y-4166666D01*
X4369612Y-4110736D01*
X4344111Y-4144264D01*
X4336948Y-4174642D01*
X4313631Y-4199991D01*
X4393844Y-4311497D01*
X4409236Y-4361535D01*
X4409236Y-4373930D01*
X4359656Y-4415434D01*
X4350359Y-4415434D01*
X4318457Y-4372356D01*
X4211777Y-4230420D01*
X4211523Y-4223766D01*
X4171338Y-4223766D01*
X4230116Y-4301388D01*
X4298543Y-4392625D01*
X4345584Y-4455972D01*
X4354728Y-4455972D01*
X4418634Y-4410354D01*
X4424426Y-4410354D01*
X4424426Y-4419092D01*
X4347768Y-4477816D01*
X4334764Y-4463592D01*
X4159250Y-4230420D01*
X4150055Y-4218432D01*
X4119147Y-4218432D01*
X4157624Y-4270959D01*
X4294276Y-4453432D01*
X4339386Y-4509211D01*
X4348175Y-4512513D01*
X4406696Y-4467555D01*
X4466691Y-4425594D01*
X4478731Y-4425594D01*
X4505960Y-4450842D01*
X4589170Y-4392676D01*
X5365851Y-3808120D01*
X5435650Y-3753967D01*
X5498947Y-3703269D01*
X5498998Y-3692042D01*
X5465064Y-3647490D01*
X5447690Y-3613810D01*
X5447131Y-3573932D01*
X5459984Y-3542944D01*
X5613044Y-3425545D01*
X5650230Y-3394049D01*
X5651093Y-3390544D01*
X5593283Y-3307892D01*
X5269026Y-2877058D01*
X5178450Y-2763266D01*
X5106162Y-2812846D01*
X5060543Y-2824937D01*
G37*
G36*
X2996031Y-2904490D02*
G01*
X2843022Y-3018993D01*
X2842971Y-3029204D01*
X2906318Y-3116986D01*
X3104591Y-3378860D01*
X3494278Y-3895902D01*
X3841242Y-4357116D01*
X3864356Y-4386681D01*
X4036669Y-4616043D01*
X4315460Y-4986020D01*
X4531766Y-5273497D01*
X4701286Y-5497626D01*
X5106162Y-6034887D01*
X5437632Y-6475882D01*
X5446318Y-6486042D01*
X5644438Y-6749592D01*
X6110274Y-7367981D01*
X6374231Y-7717739D01*
X7027265Y-8584641D01*
X7042454Y-8605977D01*
X7125868Y-8716314D01*
X7198461Y-8809786D01*
X7209739Y-8803386D01*
X7358634Y-8691676D01*
X7348778Y-8673185D01*
X7338669Y-8673185D01*
X7202373Y-8774277D01*
X6490563Y-7829245D01*
X6144564Y-7370521D01*
X4233164Y-4833620D01*
X3121406Y-3358591D01*
X2878480Y-3035604D01*
X2878480Y-3027832D01*
X2976168Y-2953105D01*
X3010001Y-2927756D01*
X3010255Y-2916326D01*
G37*
G36*
X3025749Y-2937865D02*
G01*
X3002635Y-2952140D01*
X2893314Y-3032760D01*
X2902305Y-3044342D01*
X3570986Y-3931361D01*
X4456836Y-5107330D01*
X4919370Y-5720638D01*
X5854852Y-6962495D01*
X6067602Y-7245248D01*
X6237122Y-7469378D01*
X7204557Y-8754313D01*
X7209739Y-8754313D01*
X7334453Y-8657132D01*
X7321600Y-8640267D01*
X7319314Y-8636609D01*
X7212228Y-8713774D01*
X7207758Y-8713774D01*
X7179309Y-8674760D01*
X6980834Y-8412175D01*
X6774535Y-8138464D01*
X6605981Y-7915402D01*
X5597855Y-6577685D01*
X5582666Y-6555740D01*
X5193080Y-6039967D01*
X4669536Y-5345531D01*
X3878935Y-4296308D01*
X3787800Y-4174642D01*
X3351682Y-3596843D01*
X2933192Y-3040786D01*
X2941828Y-3033115D01*
X3035604Y-2959912D01*
X3035452Y-2953105D01*
G37*
G36*
X5754217Y-3755898D02*
G01*
X5481269Y-3960469D01*
X5462320Y-3978503D01*
X5466568Y-3984345D01*
X5497576Y-3984345D01*
X5501538Y-3980687D01*
X5613044Y-3898900D01*
X5751728Y-3792423D01*
X5772150Y-3824630D01*
X5767730Y-3829100D01*
X5747410Y-3810711D01*
X5519775Y-3982059D01*
X5519322Y-3991000D01*
X5559298Y-3991000D01*
X5641238Y-3931361D01*
X5687110Y-3897528D01*
X5682234Y-3940048D01*
X5659678Y-3964076D01*
X5689092Y-4007408D01*
X6074054Y-4519320D01*
X6092088Y-4554423D01*
X6092037Y-4585258D01*
X6072784Y-4616754D01*
X6041745Y-4638852D01*
X5984036Y-4658715D01*
X5977991Y-4658410D01*
X6023610Y-4618786D01*
X6012434Y-4600448D01*
X5585764Y-4032758D01*
X5564987Y-4005884D01*
X5559298Y-3991000D01*
X5519318Y-3991101D01*
X5673445Y-4194962D01*
X5978601Y-4600448D01*
X5984798Y-4610760D01*
X5947816Y-4635906D01*
X5917184Y-4654550D01*
X5966510Y-4608982D01*
X5958128Y-4595368D01*
X5632602Y-4164533D01*
X5497576Y-3984345D01*
X5466568Y-3984345D01*
X5531967Y-4074210D01*
X5926886Y-4599279D01*
X5886754Y-4633518D01*
X5864148Y-4639513D01*
X5820867Y-4614011D01*
X5794095Y-4585258D01*
X5618886Y-4352086D01*
X5539079Y-4253230D01*
X5533237Y-4253230D01*
X5469280Y-4298848D01*
X5416600Y-4311040D01*
X5395112Y-4285792D01*
X5363819Y-4246575D01*
X5253177Y-4327855D01*
X5231130Y-4339386D01*
X5201056Y-4314037D01*
X5195620Y-4314037D01*
X5148761Y-4345178D01*
X5288686Y-4345178D01*
X5334304Y-4302810D01*
X5359857Y-4284573D01*
X5382514Y-4319117D01*
X5375656Y-4319117D01*
X5357012Y-4302302D01*
X5303875Y-4338015D01*
X5288686Y-4345178D01*
X5148761Y-4345178D01*
X5132222Y-4356150D01*
X5087416Y-4369612D01*
X5069535Y-4360062D01*
X5030622Y-4309008D01*
X5020005Y-4309160D01*
X4760823Y-4504131D01*
X4732731Y-4526584D01*
X4819802Y-4647742D01*
X4819396Y-4656175D01*
X4614519Y-4810658D01*
X4584852Y-4834585D01*
X4592076Y-4844948D01*
X4622139Y-4844948D01*
X4622546Y-4838649D01*
X4860340Y-4661560D01*
X4860340Y-4655210D01*
X4768850Y-4533239D01*
X4883150Y-4449064D01*
X4913579Y-4426153D01*
X5019090Y-4344466D01*
X5025440Y-4344466D01*
X5043424Y-4374896D01*
X5033264Y-4374896D01*
X5027015Y-4364736D01*
X5011775Y-4364736D01*
X4789373Y-4533392D01*
X4789525Y-4539589D01*
X4830165Y-4539589D01*
X4892903Y-4494022D01*
X4960721Y-4446320D01*
X4955387Y-4488942D01*
X4931714Y-4514443D01*
X4983632Y-4589068D01*
X4987950Y-4635906D01*
X4965735Y-4669231D01*
X5306415Y-4669231D01*
X5306415Y-4654194D01*
X5341162Y-4627676D01*
X5371592Y-4626813D01*
X5403291Y-4639919D01*
X5584647Y-4880610D01*
X5605424Y-4914696D01*
X5605272Y-4955235D01*
X5584342Y-4988001D01*
X5521807Y-5018227D01*
X5491429Y-5025136D01*
X5539079Y-4982667D01*
X5323789Y-4696764D01*
X5306415Y-4669231D01*
X4965735Y-4669231D01*
X4964277Y-4671415D01*
X4931430Y-4687570D01*
X5275986Y-4687570D01*
X5297424Y-4706874D01*
X5492038Y-4965395D01*
X5498592Y-4976368D01*
X5437428Y-5019497D01*
X5432856Y-5014976D01*
X5479389Y-4976876D01*
X5474512Y-4964226D01*
X5287670Y-4717034D01*
X5275986Y-4694885D01*
X5275986Y-4687570D01*
X4931430Y-4687570D01*
X4908499Y-4698847D01*
X4878070Y-4705654D01*
X4920996Y-4668266D01*
X4855870Y-4580178D01*
X4835093Y-4553305D01*
X4830165Y-4539589D01*
X4789525Y-4539589D01*
X4880152Y-4659985D01*
X4642866Y-4838649D01*
X4642415Y-4850079D01*
X4680610Y-4850079D01*
X4715865Y-4820462D01*
X4817872Y-4751070D01*
X4808403Y-4779060D01*
X5188712Y-4779060D01*
X5194452Y-4743653D01*
X5212588Y-4723587D01*
X5241442Y-4708702D01*
X5262168Y-4727143D01*
X5438190Y-4961483D01*
X5437784Y-4970475D01*
X5392978Y-5003393D01*
X5372100Y-5003393D01*
X5334304Y-4979212D01*
X5307533Y-4950206D01*
X5205069Y-4813554D01*
X5188712Y-4779060D01*
X4808403Y-4779060D01*
X4801057Y-4800701D01*
X4782515Y-4821174D01*
X4826558Y-4884318D01*
X5237378Y-5431332D01*
X5249316Y-5467197D01*
X5255666Y-5494172D01*
X5204917Y-5536692D01*
X5191150Y-5531408D01*
X4997043Y-5274614D01*
X4724450Y-4912614D01*
X4680610Y-4850079D01*
X4642415Y-4850079D01*
X4642408Y-4850282D01*
X4700168Y-4924856D01*
X5028996Y-5360771D01*
X5190185Y-5576163D01*
X5201208Y-5576163D01*
X5266537Y-5529580D01*
X5270804Y-5533847D01*
X5258257Y-5549087D01*
X5192014Y-5600649D01*
X4622139Y-4844948D01*
X4592076Y-4844948D01*
X4608982Y-4869078D01*
X4757064Y-5066792D01*
X5130952Y-5563514D01*
X5185206Y-5631942D01*
X5194808Y-5631942D01*
X5298795Y-5554522D01*
X5321808Y-5544058D01*
X5351018Y-5572048D01*
X5435650Y-5512866D01*
X6484874Y-4723028D01*
X6588252Y-4640986D01*
X6588810Y-4633874D01*
X6521145Y-4539589D01*
X6384290Y-4357116D01*
X6014008Y-3865473D01*
X5932982Y-3764076D01*
X5930798Y-3760825D01*
X5867095Y-3804310D01*
X5816549Y-3821429D01*
X5793028Y-3805986D01*
X5792571Y-3799586D01*
G37*
G36*
X6692696Y-5003444D02*
G01*
X6520383Y-5132781D01*
X6003340Y-5522315D01*
X5780328Y-5690717D01*
X5433110Y-5952490D01*
X5433110Y-5963005D01*
X5464251Y-5963005D01*
X5551170Y-5898032D01*
X5593689Y-5867654D01*
X6079388Y-5502554D01*
X6292494Y-5340502D01*
X6334455Y-5310073D01*
X6560921Y-5139690D01*
X6684721Y-5043982D01*
X6694068Y-5043982D01*
X6710476Y-5068925D01*
X6710476Y-5074361D01*
X6703669Y-5074361D01*
X6685991Y-5058410D01*
X6545732Y-5163667D01*
X5796299Y-5728766D01*
X6485890Y-5728766D01*
X6503416Y-5702046D01*
X6539687Y-5686907D01*
X6575958Y-5700725D01*
X6598920Y-5734812D01*
X6598920Y-5766257D01*
X6579158Y-5798667D01*
X6554012Y-5815126D01*
X6501384Y-5835142D01*
X6495288Y-5828995D01*
X6533032Y-5796686D01*
X6485890Y-5728766D01*
X5796299Y-5728766D01*
X5592470Y-5882843D01*
X5488279Y-5962243D01*
X5491071Y-5974080D01*
X5524601Y-5974080D01*
X5561431Y-5943650D01*
X5671413Y-5865418D01*
X5651093Y-5905246D01*
X5651093Y-5919266D01*
X5630824Y-5937656D01*
X5630824Y-5947664D01*
X5702046Y-6048603D01*
X5717133Y-6077813D01*
X5723128Y-6121400D01*
X5674766Y-6159093D01*
X5663742Y-6158839D01*
X5524601Y-5974080D01*
X5491071Y-5974080D01*
X5491429Y-5975604D01*
X5658662Y-6199174D01*
X5671515Y-6199632D01*
X5734202Y-6154013D01*
X5743549Y-6154013D01*
X5730646Y-6169558D01*
X5666333Y-6220764D01*
X5656834Y-6217361D01*
X5464251Y-5963005D01*
X5433110Y-5963005D01*
X5433110Y-5963259D01*
X5643473Y-6241542D01*
X5654751Y-6255410D01*
X5663946Y-6255410D01*
X5774080Y-6174536D01*
X5793943Y-6168237D01*
X5822238Y-6195314D01*
X5912104Y-6131458D01*
X6140043Y-5960414D01*
X6180785Y-5939536D01*
X6239052Y-5921806D01*
X6238798Y-5928461D01*
X6198514Y-5958281D01*
X6198514Y-5970778D01*
X6222339Y-5999429D01*
X6285788Y-6089040D01*
X6277051Y-6096812D01*
X6084468Y-6242202D01*
X6051499Y-6268059D01*
X6051753Y-6278219D01*
X6136995Y-6394805D01*
X6119926Y-6411264D01*
X5926988Y-6557009D01*
X5898337Y-6579616D01*
X5903258Y-6586220D01*
X5934811Y-6586220D01*
X6169101Y-6410807D01*
X6173978Y-6398006D01*
X6082893Y-6277356D01*
X6164986Y-6217361D01*
X6221323Y-6177889D01*
X6226403Y-6170879D01*
X6325209Y-6098184D01*
X6325209Y-6092698D01*
X6246672Y-5989675D01*
X6234023Y-5972454D01*
X6434226Y-5824474D01*
X6476949Y-5791606D01*
X6472224Y-5778906D01*
X6465265Y-5761177D01*
X6482892Y-5775553D01*
X6492849Y-5794146D01*
X6483604Y-5794146D01*
X6256782Y-5967120D01*
X6253226Y-5977178D01*
X6257832Y-5983224D01*
X6294831Y-5983224D01*
X6294831Y-5977432D01*
X6403797Y-5897118D01*
X6425946Y-5885383D01*
X6420205Y-5923381D01*
X6395212Y-5950305D01*
X6448298Y-6028944D01*
X6452514Y-6070396D01*
X6432804Y-6101689D01*
X6405473Y-6123178D01*
X6350203Y-6143904D01*
X6338620Y-6143904D01*
X6381597Y-6107125D01*
X6376822Y-6094780D01*
X6294831Y-5983224D01*
X6257832Y-5983224D01*
X6340449Y-6091580D01*
X6340195Y-6100775D01*
X6297371Y-6131102D01*
X6107277Y-6276340D01*
X6107369Y-6287160D01*
X6142634Y-6287160D01*
X6195974Y-6246977D01*
X6251752Y-6208115D01*
X6286652Y-6181902D01*
X6278219Y-6202172D01*
X6266383Y-6234684D01*
X6249212Y-6253683D01*
X6249212Y-6262319D01*
X6299047Y-6334404D01*
X6304330Y-6369456D01*
X6294780Y-6401358D01*
X6260185Y-6431788D01*
X6206134Y-6451803D01*
X6182512Y-6459067D01*
X6231432Y-6415328D01*
X6235192Y-6413042D01*
X6151321Y-6298488D01*
X6142634Y-6287160D01*
X6107369Y-6287160D01*
X6107379Y-6288328D01*
X6194399Y-6403594D01*
X6180785Y-6416040D01*
X5967882Y-6576110D01*
X5953709Y-6589268D01*
X5955866Y-6592112D01*
X5995517Y-6592112D01*
X6069279Y-6538874D01*
X6149035Y-6482740D01*
X6129507Y-6510172D01*
X6566001Y-6510172D01*
X6586270Y-6488887D01*
X6745122Y-6369456D01*
X7230008Y-6003493D01*
X7345273Y-5915812D01*
X7351979Y-5915812D01*
X7369962Y-5946190D01*
X7362596Y-5946190D01*
X7345324Y-5930544D01*
X7235088Y-6012332D01*
X7200138Y-6039967D01*
X6970877Y-6212332D01*
X6768744Y-6365189D01*
X6748475Y-6376365D01*
X6599377Y-6491173D01*
X6566001Y-6510172D01*
X6129507Y-6510172D01*
X6127445Y-6513068D01*
X6121349Y-6543598D01*
X6097371Y-6566153D01*
X6154674Y-6648246D01*
X6364376Y-6927037D01*
X6380988Y-6976973D01*
X6380988Y-6994042D01*
X6327749Y-7035596D01*
X6310985Y-7018274D01*
X6021730Y-6633006D01*
X6000902Y-6606184D01*
X5995517Y-6592112D01*
X5955866Y-6592112D01*
X6098387Y-6780022D01*
X6320485Y-7076440D01*
X6395974Y-7023912D01*
X6401917Y-7029907D01*
X6322669Y-7091730D01*
X6315506Y-7091730D01*
X5934811Y-6586220D01*
X5903258Y-6586220D01*
X5952693Y-6652615D01*
X5967882Y-6674713D01*
X6155436Y-6922363D01*
X6281267Y-7089190D01*
X6311696Y-7127240D01*
X6321044Y-7127240D01*
X6424066Y-7052564D01*
X6447891Y-7040168D01*
X6475323Y-7066381D01*
X6482435Y-7066381D01*
X6576110Y-6998665D01*
X7625384Y-6208064D01*
X7714081Y-6137910D01*
X7714081Y-6128207D01*
X7630566Y-6009538D01*
X7550150Y-5908192D01*
X7525410Y-5881116D01*
X7460284Y-5925718D01*
X7412481Y-5939891D01*
X7396378Y-5931509D01*
X7352842Y-5875121D01*
X7341514Y-5883808D01*
X7219848Y-5974334D01*
X7198461Y-5989269D01*
X6976211Y-6156553D01*
X6949897Y-6176822D01*
X6753555Y-6324498D01*
X6670649Y-6381800D01*
X6685025Y-6354216D01*
X6685127Y-6332982D01*
X6705396Y-6314643D01*
X6705396Y-6305296D01*
X6653580Y-6231128D01*
X6648399Y-6185408D01*
X6670446Y-6146444D01*
X6758025Y-6080506D01*
X6849872Y-6006338D01*
X6853072Y-5997397D01*
X6806895Y-5929985D01*
X6796786Y-5892444D01*
X6805675Y-5861456D01*
X6817156Y-5839917D01*
X6920788Y-5761837D01*
X6996836Y-5701182D01*
X7005574Y-5693664D01*
X6952640Y-5617768D01*
X6947611Y-5573318D01*
X6963206Y-5536082D01*
X7051802Y-5467197D01*
X7152233Y-5387898D01*
X7147356Y-5375148D01*
X7071969Y-5269534D01*
X6957009Y-5117439D01*
X6871106Y-5008829D01*
X6859981Y-5015534D01*
X6794093Y-5057597D01*
X6750964Y-5068265D01*
G37*
G36*
X7822539Y-6498386D02*
G01*
X7696352Y-6592671D01*
X7674711Y-6607657D01*
X7531608Y-6717487D01*
X7531608Y-6727037D01*
X7535536Y-6732270D01*
X7567066Y-6732270D01*
X7567574Y-6724243D01*
X7817307Y-6537909D01*
X7835747Y-6560667D01*
X7835747Y-6569913D01*
X7812938Y-6555079D01*
X7671003Y-6662775D01*
X7589875Y-6725716D01*
X7590942Y-6739788D01*
X7591977Y-6741159D01*
X7625943Y-6741159D01*
X7636306Y-6724751D01*
X7746492Y-6645706D01*
X7754010Y-6645706D01*
X7748219Y-6683705D01*
X7729270Y-6704634D01*
X7729270Y-6711543D01*
X7781645Y-6785102D01*
X8025282Y-7109510D01*
X8149793Y-7274204D01*
X8155889Y-7302093D01*
X8158530Y-7312253D01*
X8150301Y-7342886D01*
X8117027Y-7374890D01*
X8063433Y-7395870D01*
X8053679Y-7395870D01*
X8053984Y-7388250D01*
X8088884Y-7362901D01*
X8089138Y-7356297D01*
X7880146Y-7079081D01*
X7625943Y-6741159D01*
X7591977Y-6741159D01*
X7858455Y-7094270D01*
X8048599Y-7347712D01*
X8048599Y-7353401D01*
X7987792Y-7395362D01*
X7987792Y-7386370D01*
X8033410Y-7353604D01*
X8033410Y-7349744D01*
X7646416Y-6835749D01*
X7567066Y-6732270D01*
X7535536Y-6732270D01*
X7993125Y-7342073D01*
X7964982Y-7364882D01*
X7932115Y-7382916D01*
X7899095Y-7364069D01*
X7865109Y-7332522D01*
X7697012Y-7109510D01*
X7606233Y-6995464D01*
X7603896Y-6995464D01*
X7536535Y-7040625D01*
X7498638Y-7051141D01*
X7481671Y-7051192D01*
X7433056Y-6992924D01*
X7430566Y-6989013D01*
X7309612Y-7076440D01*
X7295388Y-7081926D01*
X7271308Y-7056272D01*
X7262825Y-7056272D01*
X7215460Y-7087412D01*
X7356703Y-7087412D01*
X7402322Y-7044842D01*
X7426248Y-7029043D01*
X7445197Y-7053732D01*
X7445451Y-7061555D01*
X7420254Y-7045045D01*
X7371943Y-7079589D01*
X7356703Y-7087412D01*
X7215460Y-7087412D01*
X7194499Y-7101179D01*
X7148931Y-7113066D01*
X7100874Y-7058812D01*
X7100773Y-7051192D01*
X7089394Y-7051192D01*
X6951218Y-7153097D01*
X6889750Y-7200747D01*
X6802120Y-7266635D01*
X6801713Y-7272883D01*
X6870801Y-7367981D01*
X6888378Y-7394905D01*
X6783273Y-7474458D01*
X6658813Y-7569911D01*
X6653784Y-7583017D01*
X6658335Y-7589062D01*
X6690156Y-7589062D01*
X6690156Y-7579512D01*
X6717436Y-7561630D01*
X6915759Y-7414768D01*
X6930288Y-7401255D01*
X6836257Y-7278065D01*
X6849872Y-7265568D01*
X7077964Y-7095439D01*
X7089648Y-7086244D01*
X7112914Y-7118959D01*
X7081774Y-7106361D01*
X6956298Y-7201408D01*
X6859981Y-7275118D01*
X6856984Y-7283246D01*
X6862260Y-7290206D01*
X6897979Y-7290206D01*
X6897979Y-7281265D01*
X6965848Y-7231125D01*
X7022185Y-7193737D01*
X7025335Y-7202525D01*
X7014209Y-7243825D01*
X7004100Y-7243825D01*
X6998919Y-7257338D01*
X7050278Y-7332573D01*
X7054392Y-7367981D01*
X7048906Y-7388250D01*
X7039275Y-7401814D01*
X7369606Y-7401814D01*
X7405217Y-7370521D01*
X7449718Y-7370521D01*
X7478725Y-7394956D01*
X7658049Y-7632242D01*
X7673543Y-7669275D01*
X7672324Y-7682280D01*
X7667294Y-7702550D01*
X7647279Y-7730693D01*
X7600035Y-7754518D01*
X7564526Y-7761274D01*
X7603896Y-7726781D01*
X7600035Y-7717485D01*
X7385812Y-7433157D01*
X7369606Y-7401814D01*
X7039203Y-7401915D01*
X7029551Y-7415530D01*
X6976567Y-7441031D01*
X6954012Y-7445603D01*
X7344054Y-7445603D01*
X7344460Y-7428839D01*
X7375245Y-7464298D01*
X7561986Y-7712303D01*
X7561986Y-7719872D01*
X7501178Y-7761224D01*
X7501178Y-7750708D01*
X7508798Y-7750302D01*
X7548270Y-7716469D01*
X7344054Y-7445603D01*
X6954012Y-7445603D01*
X6946138Y-7447178D01*
X6984187Y-7412532D01*
X6984187Y-7406081D01*
X6897979Y-7290206D01*
X6862260Y-7290206D01*
X6943598Y-7397496D01*
X6943598Y-7404353D01*
X6710883Y-7580884D01*
X6710476Y-7593330D01*
X6716591Y-7601407D01*
X6751015Y-7601407D01*
X6751015Y-7588453D01*
X6868058Y-7501839D01*
X6881368Y-7496708D01*
X6872713Y-7530744D01*
X7257897Y-7530744D01*
X7257897Y-7493558D01*
X7279030Y-7466634D01*
X7309103Y-7451090D01*
X7340549Y-7484567D01*
X7473543Y-7661960D01*
X7490968Y-7687309D01*
X7506716Y-7708950D01*
X7456728Y-7745628D01*
X7437628Y-7745628D01*
X7397292Y-7718196D01*
X7379462Y-7697470D01*
X7289596Y-7580731D01*
X7257897Y-7530744D01*
X6872713Y-7530744D01*
X6869836Y-7542123D01*
X6850735Y-7563256D01*
X6865061Y-7590129D01*
X7297369Y-8164830D01*
X7313828Y-8196580D01*
X7319772Y-8240268D01*
X7274509Y-8277352D01*
X7264400Y-8280400D01*
X7224014Y-8229498D01*
X6926021Y-7834325D01*
X6751015Y-7601407D01*
X6716591Y-7601407D01*
X6919772Y-7869783D01*
X7254189Y-8315858D01*
X7260539Y-8323072D01*
X7334503Y-8271662D01*
X7339533Y-8276742D01*
X7262774Y-8339429D01*
X7253173Y-8336127D01*
X6690156Y-7589062D01*
X6658335Y-7589062D01*
X6957415Y-7986369D01*
X7247940Y-8371636D01*
X7265466Y-8370773D01*
X7380427Y-8287969D01*
X7391653Y-8287969D01*
X7419492Y-8314639D01*
X7488529Y-8265718D01*
X8350199Y-7616901D01*
X8602014Y-7426045D01*
X8656320Y-7383221D01*
X8656878Y-7379970D01*
X8591905Y-7286904D01*
X8099602Y-6633006D01*
X7997037Y-6503720D01*
X7985252Y-6510985D01*
X7930083Y-6549593D01*
X7878825Y-6564934D01*
X7848346Y-6531660D01*
G37*
M02*
