G04 Layer: BottomLayer*
G04 EasyEDA v6.5.46, 2026-05-27 16:22:10*
G04 37b0a3b6e356420ea259f72b66a9e9c6,10*
G04 Gerber Generator version 0.2*
G04 Scale: 100 percent, Rotated: No, Reflected: No *
G04 Dimensions in millimeters *
G04 leading zeros omitted , absolute positions ,4 integer and 5 decimal *
%FSLAX45Y45*%
%MOMM*%

%ADD10C,0.2540*%
%ADD11R,1.5748X1.5748*%
%ADD12C,1.5748*%
%ADD13R,1.6000X1.6000*%
%ADD14C,1.6000*%
%ADD15C,1.9500*%
%ADD16C,2.2000*%
%ADD17O,4.9999899999999995X3.9999919999999998*%
%ADD18C,1.0000*%
%ADD19C,0.6100*%
%ADD20C,2.0000*%
%ADD21C,0.6200*%
%ADD22C,0.0155*%

%LPD*%
G36*
X10668Y-9981692D02*
G01*
X6756Y-9980930D01*
X3505Y-9978694D01*
X1270Y-9975443D01*
X508Y-9971532D01*
X508Y-36068D01*
X1270Y-32156D01*
X3505Y-28905D01*
X6756Y-26670D01*
X10668Y-25908D01*
X12363958Y-25908D01*
X12367869Y-26670D01*
X12371120Y-28905D01*
X12373356Y-32156D01*
X12374118Y-36068D01*
X12374118Y-9971532D01*
X12373356Y-9975443D01*
X12371120Y-9978694D01*
X12367869Y-9980930D01*
X12363958Y-9981692D01*
G37*

%LPC*%
G36*
X450088Y-9887051D02*
G01*
X472490Y-9885578D01*
X494639Y-9882225D01*
X516432Y-9876993D01*
X537667Y-9869881D01*
X558241Y-9860940D01*
X577951Y-9850323D01*
X596696Y-9838029D01*
X614324Y-9824161D01*
X630682Y-9808819D01*
X645668Y-9792106D01*
X659130Y-9774224D01*
X671017Y-9755225D01*
X681228Y-9735261D01*
X689711Y-9714534D01*
X696366Y-9693097D01*
X701141Y-9671202D01*
X704037Y-9649002D01*
X705002Y-9626600D01*
X704037Y-9604197D01*
X701141Y-9581997D01*
X696366Y-9560102D01*
X689711Y-9538665D01*
X681228Y-9517938D01*
X671017Y-9497974D01*
X659130Y-9478975D01*
X645668Y-9461093D01*
X630682Y-9444380D01*
X614324Y-9429038D01*
X596696Y-9415170D01*
X577951Y-9402876D01*
X558241Y-9392259D01*
X537667Y-9383318D01*
X516432Y-9376206D01*
X494639Y-9370974D01*
X472490Y-9367621D01*
X450088Y-9366148D01*
X427685Y-9366656D01*
X405434Y-9369044D01*
X383438Y-9373362D01*
X361848Y-9379559D01*
X340918Y-9387586D01*
X320751Y-9397339D01*
X301548Y-9408820D01*
X283362Y-9421926D01*
X266344Y-9436557D01*
X250647Y-9452559D01*
X236423Y-9469882D01*
X223723Y-9488322D01*
X212648Y-9507829D01*
X203301Y-9528200D01*
X195732Y-9549282D01*
X189992Y-9570974D01*
X186182Y-9593072D01*
X184251Y-9615373D01*
X184251Y-9637826D01*
X186182Y-9660128D01*
X189992Y-9682226D01*
X195732Y-9703917D01*
X203301Y-9724999D01*
X212648Y-9745370D01*
X223723Y-9764877D01*
X236423Y-9783318D01*
X250647Y-9800640D01*
X266344Y-9816642D01*
X283362Y-9831273D01*
X301548Y-9844379D01*
X320751Y-9855860D01*
X340918Y-9865614D01*
X361848Y-9873640D01*
X383438Y-9879838D01*
X405434Y-9884156D01*
X427685Y-9886543D01*
G37*
G36*
X5862320Y-9678873D02*
G01*
X5894984Y-9678873D01*
X5908446Y-9677958D01*
X5921349Y-9675418D01*
X5933795Y-9671202D01*
X5945581Y-9665360D01*
X5956503Y-9658045D01*
X5966409Y-9649409D01*
X5975045Y-9639503D01*
X5982360Y-9628581D01*
X5988202Y-9616795D01*
X5992418Y-9604349D01*
X5994958Y-9591446D01*
X5995873Y-9577984D01*
X5995873Y-9545320D01*
X5862320Y-9545320D01*
G37*
G36*
X5738215Y-9678873D02*
G01*
X5770880Y-9678873D01*
X5770880Y-9545320D01*
X5748426Y-9545320D01*
X5744057Y-9544354D01*
X5740501Y-9541560D01*
X5738520Y-9537547D01*
X5738469Y-9533077D01*
X5739688Y-9527184D01*
X5741619Y-9508845D01*
X5741619Y-9490354D01*
X5739688Y-9472015D01*
X5738469Y-9466122D01*
X5738520Y-9461652D01*
X5740501Y-9457639D01*
X5744057Y-9454845D01*
X5748426Y-9453880D01*
X5770880Y-9453880D01*
X5770880Y-9320377D01*
X5738215Y-9320377D01*
X5724753Y-9321241D01*
X5711850Y-9323781D01*
X5699404Y-9328048D01*
X5687618Y-9333839D01*
X5676696Y-9341154D01*
X5669940Y-9347047D01*
X5666282Y-9349130D01*
X5662015Y-9349486D01*
X5658002Y-9348114D01*
X5646826Y-9341408D01*
X5630113Y-9333585D01*
X5612688Y-9327489D01*
X5594756Y-9323273D01*
X5576417Y-9320885D01*
X5557977Y-9320428D01*
X5539587Y-9321850D01*
X5521452Y-9325152D01*
X5503722Y-9330334D01*
X5486603Y-9337243D01*
X5470347Y-9345930D01*
X5455005Y-9356242D01*
X5442000Y-9367113D01*
X5438851Y-9368891D01*
X5435244Y-9369450D01*
X5431688Y-9368688D01*
X5428589Y-9366758D01*
X5423408Y-9361982D01*
X5408676Y-9350908D01*
X5392826Y-9341408D01*
X5376113Y-9333585D01*
X5358688Y-9327489D01*
X5340756Y-9323273D01*
X5322417Y-9320885D01*
X5303977Y-9320428D01*
X5285587Y-9321850D01*
X5267452Y-9325152D01*
X5249722Y-9330334D01*
X5232603Y-9337243D01*
X5216347Y-9345930D01*
X5201005Y-9356242D01*
X5186832Y-9368078D01*
X5173980Y-9381286D01*
X5162499Y-9395764D01*
X5152593Y-9411309D01*
X5144363Y-9427819D01*
X5137861Y-9445091D01*
X5133136Y-9462922D01*
X5130292Y-9481159D01*
X5129377Y-9499600D01*
X5130292Y-9518040D01*
X5133136Y-9536277D01*
X5137861Y-9554108D01*
X5144363Y-9571380D01*
X5152593Y-9587890D01*
X5162499Y-9603435D01*
X5173980Y-9617913D01*
X5186832Y-9631121D01*
X5201005Y-9642957D01*
X5216347Y-9653270D01*
X5232603Y-9661956D01*
X5249722Y-9668865D01*
X5267452Y-9674047D01*
X5285587Y-9677349D01*
X5303977Y-9678771D01*
X5322417Y-9678314D01*
X5340756Y-9675926D01*
X5358688Y-9671710D01*
X5376113Y-9665614D01*
X5392826Y-9657791D01*
X5408676Y-9648291D01*
X5423408Y-9637217D01*
X5428589Y-9632442D01*
X5431688Y-9630511D01*
X5435244Y-9629749D01*
X5438851Y-9630308D01*
X5442000Y-9632086D01*
X5455005Y-9642957D01*
X5470347Y-9653270D01*
X5486603Y-9661956D01*
X5503722Y-9668865D01*
X5521452Y-9674047D01*
X5539587Y-9677349D01*
X5557977Y-9678771D01*
X5576417Y-9678314D01*
X5594756Y-9675926D01*
X5612688Y-9671710D01*
X5630113Y-9665614D01*
X5646826Y-9657791D01*
X5658002Y-9651085D01*
X5662015Y-9649714D01*
X5666282Y-9650069D01*
X5669940Y-9652152D01*
X5676696Y-9658045D01*
X5687618Y-9665360D01*
X5699404Y-9671202D01*
X5711850Y-9675418D01*
X5724753Y-9677958D01*
G37*
G36*
X3464915Y-9666173D02*
G01*
X3621684Y-9666173D01*
X3635146Y-9665258D01*
X3648049Y-9662718D01*
X3660495Y-9658502D01*
X3672281Y-9652660D01*
X3683203Y-9645345D01*
X3689959Y-9639452D01*
X3693668Y-9637369D01*
X3697884Y-9637014D01*
X3701897Y-9638385D01*
X3713073Y-9645091D01*
X3729786Y-9652914D01*
X3747211Y-9659010D01*
X3751579Y-9660026D01*
X3751579Y-9532620D01*
X3732733Y-9532620D01*
X3728821Y-9531858D01*
X3725519Y-9529622D01*
X3723335Y-9526371D01*
X3722573Y-9522460D01*
X3722573Y-9451340D01*
X3723335Y-9447428D01*
X3725519Y-9444177D01*
X3728821Y-9441942D01*
X3732733Y-9441180D01*
X3751579Y-9441180D01*
X3751579Y-9313773D01*
X3747211Y-9314789D01*
X3729786Y-9320885D01*
X3713073Y-9328708D01*
X3701897Y-9335414D01*
X3697884Y-9336786D01*
X3693668Y-9336430D01*
X3689959Y-9334347D01*
X3683203Y-9328454D01*
X3672281Y-9321139D01*
X3660495Y-9315348D01*
X3648049Y-9311081D01*
X3635146Y-9308541D01*
X3621684Y-9307677D01*
X3464915Y-9307677D01*
X3451453Y-9308541D01*
X3438550Y-9311081D01*
X3426104Y-9315348D01*
X3414318Y-9321139D01*
X3403396Y-9328454D01*
X3393490Y-9337090D01*
X3384854Y-9346996D01*
X3377539Y-9357918D01*
X3371748Y-9369704D01*
X3367481Y-9382150D01*
X3364941Y-9395053D01*
X3364077Y-9408515D01*
X3364077Y-9565284D01*
X3364941Y-9578746D01*
X3367481Y-9591649D01*
X3371748Y-9604095D01*
X3377539Y-9615881D01*
X3384854Y-9626803D01*
X3393490Y-9636709D01*
X3403396Y-9645345D01*
X3414318Y-9652660D01*
X3426104Y-9658502D01*
X3438550Y-9662718D01*
X3451453Y-9665258D01*
G37*
G36*
X4055922Y-9666071D02*
G01*
X4074312Y-9664649D01*
X4092448Y-9661347D01*
X4110177Y-9656165D01*
X4127296Y-9649256D01*
X4143552Y-9640570D01*
X4158894Y-9630257D01*
X4171899Y-9619386D01*
X4175048Y-9617608D01*
X4178655Y-9617049D01*
X4182211Y-9617811D01*
X4185310Y-9619742D01*
X4190492Y-9624517D01*
X4205224Y-9635591D01*
X4221073Y-9645091D01*
X4237786Y-9652914D01*
X4255211Y-9659010D01*
X4273143Y-9663226D01*
X4291482Y-9665614D01*
X4309922Y-9666071D01*
X4328312Y-9664649D01*
X4346448Y-9661347D01*
X4364177Y-9656165D01*
X4381296Y-9649256D01*
X4397552Y-9640570D01*
X4412894Y-9630257D01*
X4427067Y-9618421D01*
X4439920Y-9605213D01*
X4451400Y-9590735D01*
X4461306Y-9575190D01*
X4469536Y-9558680D01*
X4476038Y-9541408D01*
X4480763Y-9523577D01*
X4483608Y-9505340D01*
X4484522Y-9486900D01*
X4483608Y-9468459D01*
X4480763Y-9450222D01*
X4476038Y-9432391D01*
X4469536Y-9415119D01*
X4461306Y-9398609D01*
X4451400Y-9383064D01*
X4439920Y-9368586D01*
X4427067Y-9355378D01*
X4412894Y-9343542D01*
X4397552Y-9333230D01*
X4381296Y-9324543D01*
X4364177Y-9317634D01*
X4346448Y-9312452D01*
X4328312Y-9309150D01*
X4309922Y-9307728D01*
X4291482Y-9308185D01*
X4273143Y-9310573D01*
X4255211Y-9314789D01*
X4237786Y-9320885D01*
X4221073Y-9328708D01*
X4205224Y-9338208D01*
X4190492Y-9349282D01*
X4185310Y-9354058D01*
X4182211Y-9355988D01*
X4178655Y-9356750D01*
X4175048Y-9356191D01*
X4171899Y-9354413D01*
X4158894Y-9343542D01*
X4143552Y-9333230D01*
X4127296Y-9324543D01*
X4110177Y-9317634D01*
X4092448Y-9312452D01*
X4074312Y-9309150D01*
X4055922Y-9307728D01*
X4037482Y-9308185D01*
X4019143Y-9310573D01*
X4001211Y-9314789D01*
X3983786Y-9320885D01*
X3967073Y-9328708D01*
X3951224Y-9338208D01*
X3936492Y-9349282D01*
X3931310Y-9354058D01*
X3928211Y-9355988D01*
X3924655Y-9356750D01*
X3921048Y-9356191D01*
X3917899Y-9354413D01*
X3904894Y-9343542D01*
X3889552Y-9333230D01*
X3873296Y-9324543D01*
X3856177Y-9317634D01*
X3843020Y-9313773D01*
X3843020Y-9441180D01*
X3865473Y-9441180D01*
X3869842Y-9442145D01*
X3873398Y-9444939D01*
X3875379Y-9448952D01*
X3875430Y-9453422D01*
X3874211Y-9459315D01*
X3872280Y-9477654D01*
X3872280Y-9496145D01*
X3874211Y-9514484D01*
X3875430Y-9520377D01*
X3875379Y-9524847D01*
X3873398Y-9528860D01*
X3869842Y-9531654D01*
X3865473Y-9532620D01*
X3843020Y-9532620D01*
X3843020Y-9660026D01*
X3856177Y-9656165D01*
X3873296Y-9649256D01*
X3889552Y-9640570D01*
X3904894Y-9630257D01*
X3917899Y-9619386D01*
X3921048Y-9617608D01*
X3924655Y-9617049D01*
X3928211Y-9617811D01*
X3931310Y-9619742D01*
X3936492Y-9624517D01*
X3951224Y-9635591D01*
X3967073Y-9645091D01*
X3983786Y-9652914D01*
X4001211Y-9659010D01*
X4019143Y-9663226D01*
X4037482Y-9665614D01*
G37*
G36*
X5862320Y-9453880D02*
G01*
X5995873Y-9453880D01*
X5995873Y-9421215D01*
X5994958Y-9407753D01*
X5992418Y-9394850D01*
X5988202Y-9382404D01*
X5982360Y-9370618D01*
X5975045Y-9359696D01*
X5966409Y-9349790D01*
X5956503Y-9341154D01*
X5945581Y-9333839D01*
X5933795Y-9328048D01*
X5921349Y-9323781D01*
X5908446Y-9321241D01*
X5894984Y-9320377D01*
X5862320Y-9320377D01*
G37*
G36*
X7984998Y-9303461D02*
G01*
X8005013Y-9303461D01*
X8024977Y-9301581D01*
X8044637Y-9297771D01*
X8063839Y-9292132D01*
X8082432Y-9284665D01*
X8100263Y-9275521D01*
X8117128Y-9264700D01*
X8132876Y-9252305D01*
X8147354Y-9238488D01*
X8160461Y-9223349D01*
X8172094Y-9206992D01*
X8182102Y-9189669D01*
X8190433Y-9171432D01*
X8196986Y-9152534D01*
X8201710Y-9133027D01*
X8204555Y-9113215D01*
X8205520Y-9093200D01*
X8204555Y-9073184D01*
X8201710Y-9053372D01*
X8196986Y-9033916D01*
X8190433Y-9014968D01*
X8182102Y-8996781D01*
X8172094Y-8979408D01*
X8160461Y-8963101D01*
X8147354Y-8947962D01*
X8132876Y-8934145D01*
X8117128Y-8921750D01*
X8100263Y-8910929D01*
X8082432Y-8901734D01*
X8063839Y-8894318D01*
X8044637Y-8888628D01*
X8024977Y-8884869D01*
X8005013Y-8882938D01*
X7984998Y-8882938D01*
X7965033Y-8884869D01*
X7945374Y-8888628D01*
X7926171Y-8894318D01*
X7907578Y-8901734D01*
X7889748Y-8910929D01*
X7872933Y-8921750D01*
X7857185Y-8934145D01*
X7842656Y-8947962D01*
X7829550Y-8963101D01*
X7817916Y-8979408D01*
X7807909Y-8996781D01*
X7799578Y-9014968D01*
X7793024Y-9033916D01*
X7788300Y-9053372D01*
X7785455Y-9073184D01*
X7784490Y-9093200D01*
X7785455Y-9113215D01*
X7788300Y-9133027D01*
X7793024Y-9152534D01*
X7799578Y-9171432D01*
X7807909Y-9189669D01*
X7817916Y-9206992D01*
X7829550Y-9223349D01*
X7842656Y-9238488D01*
X7857185Y-9252305D01*
X7872933Y-9264700D01*
X7889748Y-9275521D01*
X7907578Y-9284665D01*
X7926171Y-9292132D01*
X7945374Y-9297771D01*
X7965033Y-9301581D01*
G37*
G36*
X9715855Y-9295333D02*
G01*
X10654944Y-9295333D01*
X10668406Y-9294418D01*
X10681309Y-9291878D01*
X10693755Y-9287662D01*
X10705541Y-9281820D01*
X10716463Y-9274505D01*
X10726369Y-9265869D01*
X10735005Y-9255963D01*
X10742320Y-9245041D01*
X10748162Y-9233255D01*
X10752378Y-9220809D01*
X10754918Y-9207906D01*
X10755833Y-9194444D01*
X10755833Y-8153755D01*
X10754918Y-8140293D01*
X10752378Y-8127390D01*
X10748162Y-8114944D01*
X10742320Y-8103158D01*
X10735005Y-8092236D01*
X10726369Y-8082330D01*
X10716463Y-8073694D01*
X10705541Y-8066379D01*
X10693755Y-8060588D01*
X10681309Y-8056321D01*
X10668406Y-8053781D01*
X10654944Y-8052917D01*
X9715855Y-8052917D01*
X9702393Y-8053781D01*
X9689490Y-8056321D01*
X9677044Y-8060588D01*
X9665258Y-8066379D01*
X9654336Y-8073694D01*
X9644430Y-8082330D01*
X9635794Y-8092236D01*
X9628479Y-8103158D01*
X9622688Y-8114944D01*
X9618421Y-8127390D01*
X9615881Y-8140293D01*
X9615017Y-8153755D01*
X9615017Y-9194444D01*
X9615881Y-9207906D01*
X9618421Y-9220809D01*
X9622688Y-9233255D01*
X9628479Y-9245041D01*
X9635794Y-9255963D01*
X9644430Y-9265869D01*
X9654336Y-9274505D01*
X9665258Y-9281820D01*
X9677044Y-9287662D01*
X9689490Y-9291878D01*
X9702393Y-9294418D01*
G37*
G36*
X7306360Y-9294317D02*
G01*
X7313879Y-9292132D01*
X7332472Y-9284665D01*
X7350252Y-9275521D01*
X7367117Y-9264650D01*
X7382865Y-9252305D01*
X7397343Y-9238488D01*
X7410500Y-9223349D01*
X7422083Y-9206992D01*
X7432141Y-9189669D01*
X7440422Y-9171432D01*
X7446264Y-9154566D01*
X7306360Y-9154566D01*
G37*
G36*
X7183678Y-9294317D02*
G01*
X7183678Y-9154566D01*
X7043775Y-9154566D01*
X7049617Y-9171432D01*
X7057948Y-9189669D01*
X7067956Y-9206992D01*
X7079538Y-9223349D01*
X7092696Y-9238488D01*
X7107174Y-9252305D01*
X7122922Y-9264650D01*
X7139787Y-9275521D01*
X7157567Y-9284665D01*
X7176160Y-9292132D01*
G37*
G36*
X2625445Y-9095892D02*
G01*
X2784754Y-9095892D01*
X2798216Y-9095028D01*
X2811119Y-9092438D01*
X2823565Y-9088221D01*
X2835351Y-9082430D01*
X2846273Y-9075115D01*
X2856179Y-9066479D01*
X2864815Y-9056573D01*
X2872130Y-9045651D01*
X2877921Y-9033865D01*
X2882138Y-9021419D01*
X2884728Y-9008516D01*
X2885592Y-8995054D01*
X2885592Y-8835745D01*
X2884728Y-8822283D01*
X2882138Y-8809380D01*
X2877921Y-8796934D01*
X2872130Y-8785148D01*
X2864815Y-8774226D01*
X2859582Y-8768232D01*
X2857550Y-8764625D01*
X2857093Y-8760510D01*
X2858363Y-8756548D01*
X2866542Y-8742121D01*
X2874010Y-8725052D01*
X2879648Y-8707374D01*
X2883458Y-8689187D01*
X2885338Y-8670696D01*
X2885338Y-8652103D01*
X2883458Y-8633612D01*
X2879648Y-8615426D01*
X2874010Y-8597747D01*
X2866542Y-8580678D01*
X2857398Y-8564524D01*
X2846628Y-8549386D01*
X2839364Y-8541105D01*
X2837484Y-8538006D01*
X2836824Y-8534400D01*
X2837484Y-8530793D01*
X2839364Y-8527694D01*
X2846628Y-8519414D01*
X2857398Y-8504275D01*
X2866542Y-8488121D01*
X2874010Y-8471052D01*
X2879496Y-8453729D01*
X2751429Y-8453729D01*
X2751429Y-8474303D01*
X2750820Y-8477859D01*
X2748940Y-8481009D01*
X2746044Y-8483244D01*
X2742590Y-8484362D01*
X2719019Y-8481466D01*
X2700477Y-8480958D01*
X2681935Y-8482380D01*
X2670708Y-8484463D01*
X2666339Y-8484260D01*
X2662377Y-8482228D01*
X2659684Y-8478774D01*
X2658770Y-8474456D01*
X2658770Y-8453729D01*
X2530906Y-8453729D01*
X2533142Y-8462314D01*
X2539695Y-8479688D01*
X2548026Y-8496300D01*
X2557983Y-8511997D01*
X2569514Y-8526576D01*
X2572410Y-8530590D01*
X2573121Y-8534400D01*
X2572410Y-8538210D01*
X2569514Y-8542223D01*
X2557983Y-8556802D01*
X2548026Y-8572500D01*
X2539695Y-8589111D01*
X2533142Y-8606485D01*
X2528417Y-8624468D01*
X2525572Y-8642858D01*
X2524607Y-8661400D01*
X2525572Y-8679942D01*
X2528417Y-8698331D01*
X2533142Y-8716314D01*
X2539695Y-8733688D01*
X2548026Y-8750300D01*
X2551633Y-8755989D01*
X2553157Y-8760053D01*
X2552801Y-8764371D01*
X2550718Y-8768130D01*
X2545384Y-8774226D01*
X2538069Y-8785148D01*
X2532278Y-8796934D01*
X2528062Y-8809380D01*
X2525471Y-8822283D01*
X2524607Y-8835745D01*
X2524607Y-8995054D01*
X2525471Y-9008516D01*
X2528062Y-9021419D01*
X2532278Y-9033865D01*
X2538069Y-9045651D01*
X2545384Y-9056573D01*
X2554020Y-9066479D01*
X2563926Y-9075115D01*
X2574848Y-9082430D01*
X2586634Y-9088221D01*
X2599080Y-9092438D01*
X2611983Y-9095028D01*
G37*
G36*
X922477Y-9095841D02*
G01*
X941019Y-9095333D01*
X959459Y-9092946D01*
X977544Y-9088678D01*
X995121Y-9082582D01*
X1011936Y-9074708D01*
X1027836Y-9065158D01*
X1042720Y-9053982D01*
X1056386Y-9041384D01*
X1068628Y-9027414D01*
X1079398Y-9012275D01*
X1088542Y-8996121D01*
X1096010Y-8979052D01*
X1101648Y-8961374D01*
X1105458Y-8943187D01*
X1107338Y-8924696D01*
X1107338Y-8906103D01*
X1105458Y-8887612D01*
X1101648Y-8869426D01*
X1096010Y-8851747D01*
X1088542Y-8834678D01*
X1079398Y-8818524D01*
X1068628Y-8803386D01*
X1061364Y-8795105D01*
X1059484Y-8792006D01*
X1058824Y-8788400D01*
X1059484Y-8784793D01*
X1061364Y-8781694D01*
X1068628Y-8773414D01*
X1079398Y-8758275D01*
X1088542Y-8742121D01*
X1096010Y-8725052D01*
X1101648Y-8707374D01*
X1105458Y-8689187D01*
X1107338Y-8670696D01*
X1107338Y-8652103D01*
X1105458Y-8633612D01*
X1101648Y-8615426D01*
X1096010Y-8597747D01*
X1088542Y-8580678D01*
X1079398Y-8564524D01*
X1068628Y-8549386D01*
X1061364Y-8541105D01*
X1059484Y-8538006D01*
X1058824Y-8534400D01*
X1059484Y-8530793D01*
X1061364Y-8527694D01*
X1068628Y-8519414D01*
X1079398Y-8504275D01*
X1088542Y-8488121D01*
X1096010Y-8471052D01*
X1101496Y-8453729D01*
X973429Y-8453729D01*
X973429Y-8474303D01*
X972819Y-8477859D01*
X970940Y-8481009D01*
X968044Y-8483244D01*
X964590Y-8484362D01*
X941019Y-8481466D01*
X922477Y-8480958D01*
X903935Y-8482380D01*
X892708Y-8484463D01*
X888339Y-8484260D01*
X884377Y-8482228D01*
X881684Y-8478774D01*
X880770Y-8474456D01*
X880770Y-8453729D01*
X752906Y-8453729D01*
X755142Y-8462314D01*
X761695Y-8479688D01*
X770026Y-8496300D01*
X779983Y-8511997D01*
X791514Y-8526576D01*
X794410Y-8530590D01*
X795121Y-8534400D01*
X794410Y-8538210D01*
X791514Y-8542223D01*
X779983Y-8556802D01*
X770026Y-8572500D01*
X761695Y-8589111D01*
X755142Y-8606485D01*
X750417Y-8624468D01*
X747572Y-8642858D01*
X746607Y-8661400D01*
X747572Y-8679942D01*
X750417Y-8698331D01*
X755142Y-8716314D01*
X761695Y-8733688D01*
X770026Y-8750300D01*
X779983Y-8765997D01*
X791514Y-8780576D01*
X794410Y-8784590D01*
X795121Y-8788400D01*
X794410Y-8792210D01*
X791514Y-8796223D01*
X779983Y-8810802D01*
X770026Y-8826500D01*
X761695Y-8843111D01*
X755142Y-8860485D01*
X750417Y-8878468D01*
X747572Y-8896858D01*
X746607Y-8915400D01*
X747572Y-8933942D01*
X750417Y-8952331D01*
X755142Y-8970314D01*
X761695Y-8987688D01*
X770026Y-9004300D01*
X779983Y-9019997D01*
X791514Y-9034576D01*
X804519Y-9047886D01*
X818743Y-9059773D01*
X834186Y-9070136D01*
X850595Y-9078874D01*
X867816Y-9085884D01*
X885647Y-9091066D01*
X903935Y-9094419D01*
G37*
G36*
X7306360Y-9031833D02*
G01*
X7446264Y-9031833D01*
X7440422Y-9014968D01*
X7432141Y-8996730D01*
X7422083Y-8979408D01*
X7410500Y-8963101D01*
X7397343Y-8947962D01*
X7382865Y-8934145D01*
X7367117Y-8921750D01*
X7350252Y-8910929D01*
X7332472Y-8901734D01*
X7313879Y-8894267D01*
X7306360Y-8892082D01*
G37*
G36*
X7043775Y-9031833D02*
G01*
X7183678Y-9031833D01*
X7183678Y-8892082D01*
X7176160Y-8894267D01*
X7157567Y-8901734D01*
X7139787Y-8910929D01*
X7122922Y-8921750D01*
X7107174Y-8934145D01*
X7092696Y-8947962D01*
X7079538Y-8963101D01*
X7067956Y-8979408D01*
X7057948Y-8996730D01*
X7049617Y-9014968D01*
G37*
G36*
X8766911Y-8678519D02*
G01*
X8782405Y-8677148D01*
X8797645Y-8673947D01*
X8812428Y-8668969D01*
X8826500Y-8662263D01*
X8839657Y-8653932D01*
X8851747Y-8644128D01*
X8862618Y-8632952D01*
X8872067Y-8620556D01*
X8879992Y-8607145D01*
X8886240Y-8592870D01*
X8890812Y-8577986D01*
X8893556Y-8562644D01*
X8894470Y-8547100D01*
X8893556Y-8531555D01*
X8890812Y-8516213D01*
X8886240Y-8501329D01*
X8880246Y-8487714D01*
X8879382Y-8483600D01*
X8880246Y-8479485D01*
X8886240Y-8465870D01*
X8890812Y-8450986D01*
X8893556Y-8435644D01*
X8894470Y-8420100D01*
X8893556Y-8404555D01*
X8890812Y-8389213D01*
X8886240Y-8374329D01*
X8879992Y-8360054D01*
X8872067Y-8346643D01*
X8862618Y-8334248D01*
X8851747Y-8323072D01*
X8839657Y-8313267D01*
X8826500Y-8304936D01*
X8812428Y-8298230D01*
X8797798Y-8293303D01*
X8793886Y-8290864D01*
X8612022Y-8109102D01*
X8603640Y-8101939D01*
X8601049Y-8100009D01*
X8591905Y-8093964D01*
X8579205Y-8087563D01*
X8576208Y-8086293D01*
X8565845Y-8082737D01*
X8562695Y-8081873D01*
X8551976Y-8079689D01*
X8548725Y-8079231D01*
X8537803Y-8078368D01*
X5499404Y-8078317D01*
X5495493Y-8077504D01*
X5492191Y-8075320D01*
X5208879Y-7792008D01*
X5206695Y-7788706D01*
X5205933Y-7784795D01*
X5205933Y-6190589D01*
X5206288Y-6187948D01*
X5207304Y-6185458D01*
X5210454Y-6179667D01*
X5212588Y-6176568D01*
X5215737Y-6174435D01*
X5219446Y-6173622D01*
X5223205Y-6174232D01*
X5226456Y-6176162D01*
X5228793Y-6179159D01*
X5233466Y-6188252D01*
X5242204Y-6201206D01*
X5252364Y-6212992D01*
X5263845Y-6223508D01*
X5276494Y-6232601D01*
X5290159Y-6240119D01*
X5304586Y-6245961D01*
X5311038Y-6247739D01*
X5313476Y-6248755D01*
X5315559Y-6250330D01*
X5357977Y-6292697D01*
X5366359Y-6299860D01*
X5368950Y-6301790D01*
X5378094Y-6307836D01*
X5390794Y-6314236D01*
X5393791Y-6315506D01*
X5404154Y-6319062D01*
X5407304Y-6319926D01*
X5418074Y-6322110D01*
X5421274Y-6322568D01*
X5432196Y-6323431D01*
X5667603Y-6323431D01*
X5678525Y-6322568D01*
X5681776Y-6322110D01*
X5692495Y-6319926D01*
X5695645Y-6319062D01*
X5706008Y-6315506D01*
X5709005Y-6314236D01*
X5721705Y-6307836D01*
X5730849Y-6301790D01*
X5733440Y-6299860D01*
X5741822Y-6292697D01*
X5835091Y-6199479D01*
X5838393Y-6197295D01*
X5842304Y-6196533D01*
X8681161Y-6196533D01*
X8683701Y-6196838D01*
X8686038Y-6197752D01*
X8693759Y-6202019D01*
X8699957Y-6204508D01*
X8703259Y-6206693D01*
X8705494Y-6209995D01*
X8706256Y-6213906D01*
X8705494Y-6217767D01*
X8703310Y-6221120D01*
X8700008Y-6223304D01*
X8696096Y-6224117D01*
X7468565Y-6224117D01*
X7448905Y-6219952D01*
X7433411Y-6218580D01*
X7417816Y-6219037D01*
X7402423Y-6221323D01*
X7387386Y-6225438D01*
X7372959Y-6231280D01*
X7359294Y-6238798D01*
X7346645Y-6247892D01*
X7335164Y-6258407D01*
X7325004Y-6270193D01*
X7316266Y-6283147D01*
X7309154Y-6297015D01*
X7303719Y-6311595D01*
X7300061Y-6326733D01*
X7298232Y-6342227D01*
X7298232Y-6357772D01*
X7300061Y-6373266D01*
X7303719Y-6388404D01*
X7309154Y-6402984D01*
X7316266Y-6416852D01*
X7325004Y-6429806D01*
X7335164Y-6441592D01*
X7346645Y-6452108D01*
X7359294Y-6461201D01*
X7372959Y-6468719D01*
X7377836Y-6470700D01*
X7381036Y-6472732D01*
X7383221Y-6475831D01*
X7384135Y-6479489D01*
X7383678Y-6483248D01*
X7381849Y-6486601D01*
X7378903Y-6488988D01*
X7371994Y-6492798D01*
X7359345Y-6501892D01*
X7347864Y-6512407D01*
X7337704Y-6524193D01*
X7328966Y-6537147D01*
X7321854Y-6551015D01*
X7316419Y-6565595D01*
X7312761Y-6580733D01*
X7310932Y-6596227D01*
X7310932Y-6611772D01*
X7312761Y-6627266D01*
X7316419Y-6642404D01*
X7321854Y-6656984D01*
X7328966Y-6670852D01*
X7337704Y-6683806D01*
X7347864Y-6695592D01*
X7359345Y-6706108D01*
X7371994Y-6715201D01*
X7385659Y-6722719D01*
X7400086Y-6728561D01*
X7415123Y-6732676D01*
X7430516Y-6734962D01*
X7446111Y-6735419D01*
X7461605Y-6734048D01*
X7476845Y-6730847D01*
X7491628Y-6725869D01*
X7508900Y-6717588D01*
X7511694Y-6717233D01*
X8639403Y-6717131D01*
X8650325Y-6716268D01*
X8653576Y-6715810D01*
X8664295Y-6713626D01*
X8667445Y-6712762D01*
X8677808Y-6709206D01*
X8680805Y-6707936D01*
X8693505Y-6701536D01*
X8702649Y-6695490D01*
X8705240Y-6693560D01*
X8713622Y-6686397D01*
X8806586Y-6593535D01*
X8810498Y-6591096D01*
X8825128Y-6586169D01*
X8839200Y-6579463D01*
X8852357Y-6571132D01*
X8864447Y-6561328D01*
X8875318Y-6550152D01*
X8884767Y-6537756D01*
X8892692Y-6524345D01*
X8898940Y-6510070D01*
X8903512Y-6495186D01*
X8906256Y-6479844D01*
X8907170Y-6464300D01*
X8906256Y-6448755D01*
X8903512Y-6433413D01*
X8898940Y-6418529D01*
X8892946Y-6404914D01*
X8892082Y-6400800D01*
X8892946Y-6396685D01*
X8898940Y-6383070D01*
X8903512Y-6368186D01*
X8906256Y-6352844D01*
X8907170Y-6337300D01*
X8906256Y-6321755D01*
X8903512Y-6306413D01*
X8898940Y-6291529D01*
X8892692Y-6277254D01*
X8884767Y-6263843D01*
X8875318Y-6251448D01*
X8864447Y-6240272D01*
X8852357Y-6230467D01*
X8839200Y-6222136D01*
X8825128Y-6215430D01*
X8820404Y-6213856D01*
X8817102Y-6211976D01*
X8814714Y-6209030D01*
X8813546Y-6205423D01*
X8813850Y-6201664D01*
X8815476Y-6198209D01*
X8818219Y-6195618D01*
X8826957Y-6190132D01*
X8839047Y-6180328D01*
X8849918Y-6169152D01*
X8859367Y-6156756D01*
X8867292Y-6143345D01*
X8873540Y-6129070D01*
X8878112Y-6114186D01*
X8880856Y-6098844D01*
X8881770Y-6083300D01*
X8880856Y-6067755D01*
X8878112Y-6052413D01*
X8873540Y-6037529D01*
X8867546Y-6023914D01*
X8866682Y-6019800D01*
X8867546Y-6015685D01*
X8873540Y-6002070D01*
X8878112Y-5987186D01*
X8880856Y-5971844D01*
X8881770Y-5956300D01*
X8880856Y-5940755D01*
X8878112Y-5925413D01*
X8873540Y-5910529D01*
X8867292Y-5896254D01*
X8859367Y-5882843D01*
X8849918Y-5870448D01*
X8839047Y-5859272D01*
X8826957Y-5849467D01*
X8813800Y-5841136D01*
X8799728Y-5834430D01*
X8784945Y-5829452D01*
X8769705Y-5826252D01*
X8754211Y-5824880D01*
X8738616Y-5825337D01*
X8723223Y-5827623D01*
X8708186Y-5831738D01*
X8693759Y-5837580D01*
X8680094Y-5845098D01*
X8667445Y-5854192D01*
X8655964Y-5864707D01*
X8645804Y-5876493D01*
X8637117Y-5889396D01*
X8634831Y-5891784D01*
X8631936Y-5893358D01*
X8628684Y-5893917D01*
X5805830Y-5893917D01*
X5801563Y-5892952D01*
X5798108Y-5890361D01*
X5796026Y-5886551D01*
X5795772Y-5882233D01*
X5797296Y-5878169D01*
X5800394Y-5875121D01*
X5804357Y-5872632D01*
X5816447Y-5862828D01*
X5827318Y-5851652D01*
X5836767Y-5839256D01*
X5844692Y-5825845D01*
X5850940Y-5811570D01*
X5851448Y-5809996D01*
X5853531Y-5806236D01*
X5856986Y-5803696D01*
X5861151Y-5802833D01*
X6099403Y-5802731D01*
X6110325Y-5801868D01*
X6113576Y-5801410D01*
X6124295Y-5799226D01*
X6127445Y-5798362D01*
X6137808Y-5794806D01*
X6140805Y-5793536D01*
X6153505Y-5787136D01*
X6162649Y-5781090D01*
X6165240Y-5779160D01*
X6173622Y-5771997D01*
X6330797Y-5614822D01*
X6337960Y-5606440D01*
X6339890Y-5603849D01*
X6345936Y-5594705D01*
X6352336Y-5582005D01*
X6353606Y-5579008D01*
X6357162Y-5568645D01*
X6358026Y-5565495D01*
X6360210Y-5554776D01*
X6360668Y-5551525D01*
X6361531Y-5540603D01*
X6361633Y-4978704D01*
X6362395Y-4974793D01*
X6364579Y-4971491D01*
X7613091Y-3722979D01*
X7616393Y-3720795D01*
X7620304Y-3720033D01*
X8681161Y-3720033D01*
X8683701Y-3720337D01*
X8686038Y-3721252D01*
X8693759Y-3725519D01*
X8698636Y-3727500D01*
X8701836Y-3729532D01*
X8704021Y-3732631D01*
X8704935Y-3736289D01*
X8704478Y-3740048D01*
X8702649Y-3743401D01*
X8699703Y-3745788D01*
X8692794Y-3749598D01*
X8680145Y-3758692D01*
X8668664Y-3769207D01*
X8658504Y-3780993D01*
X8649766Y-3793947D01*
X8642654Y-3807815D01*
X8637219Y-3822395D01*
X8635593Y-3827576D01*
X8633917Y-3829761D01*
X7321702Y-5142077D01*
X7314539Y-5150459D01*
X7312609Y-5153050D01*
X7306564Y-5162194D01*
X7300163Y-5174894D01*
X7298893Y-5177891D01*
X7295337Y-5188254D01*
X7294473Y-5191404D01*
X7292289Y-5202174D01*
X7291831Y-5205374D01*
X7290968Y-5216296D01*
X7290917Y-5264658D01*
X7290612Y-5267045D01*
X7289749Y-5269280D01*
X7283754Y-5281015D01*
X7278319Y-5295595D01*
X7274661Y-5310733D01*
X7272832Y-5326227D01*
X7272832Y-5341772D01*
X7274661Y-5357266D01*
X7278319Y-5372404D01*
X7283754Y-5386984D01*
X7290866Y-5400852D01*
X7299604Y-5413806D01*
X7309764Y-5425592D01*
X7321245Y-5436108D01*
X7333894Y-5445201D01*
X7346442Y-5452110D01*
X7349693Y-5454954D01*
X7351471Y-5458866D01*
X7351471Y-5463133D01*
X7349693Y-5467045D01*
X7346442Y-5469890D01*
X7333894Y-5476798D01*
X7321245Y-5485892D01*
X7309764Y-5496407D01*
X7299604Y-5508193D01*
X7290866Y-5521147D01*
X7283754Y-5535015D01*
X7278319Y-5549595D01*
X7274661Y-5564733D01*
X7272832Y-5580227D01*
X7272832Y-5595772D01*
X7274661Y-5611266D01*
X7278319Y-5626404D01*
X7283754Y-5640984D01*
X7290866Y-5654852D01*
X7299604Y-5667806D01*
X7309764Y-5679592D01*
X7321245Y-5690108D01*
X7333894Y-5699201D01*
X7347559Y-5706719D01*
X7361986Y-5712561D01*
X7377023Y-5716676D01*
X7392416Y-5718962D01*
X7408011Y-5719419D01*
X7423505Y-5718048D01*
X7438745Y-5714847D01*
X7453528Y-5709869D01*
X7470749Y-5701588D01*
X7473594Y-5701233D01*
X7496454Y-5701131D01*
X7507325Y-5700268D01*
X7510576Y-5699810D01*
X7521295Y-5697626D01*
X7524445Y-5696762D01*
X7534808Y-5693206D01*
X7537805Y-5691936D01*
X7550505Y-5685536D01*
X7559649Y-5679490D01*
X7562240Y-5677560D01*
X7570622Y-5670397D01*
X7664297Y-5576722D01*
X7671460Y-5568340D01*
X7673390Y-5565749D01*
X7679436Y-5556605D01*
X7685836Y-5543905D01*
X7687106Y-5540908D01*
X7690662Y-5530545D01*
X7691526Y-5527395D01*
X7693710Y-5516676D01*
X7694168Y-5513425D01*
X7695031Y-5502503D01*
X7695133Y-5220004D01*
X7695895Y-5216093D01*
X7698079Y-5212791D01*
X8793886Y-4117035D01*
X8797798Y-4114596D01*
X8812428Y-4109669D01*
X8826500Y-4102963D01*
X8839657Y-4094632D01*
X8851747Y-4084828D01*
X8862618Y-4073651D01*
X8872067Y-4061256D01*
X8879992Y-4047845D01*
X8886240Y-4033570D01*
X8890812Y-4018686D01*
X8893556Y-4003344D01*
X8894470Y-3987800D01*
X8893556Y-3972255D01*
X8890812Y-3956913D01*
X8886240Y-3942029D01*
X8880246Y-3928414D01*
X8879382Y-3924300D01*
X8880246Y-3920185D01*
X8886240Y-3906570D01*
X8890812Y-3891686D01*
X8893556Y-3876344D01*
X8894470Y-3860800D01*
X8893556Y-3845255D01*
X8890812Y-3829913D01*
X8886240Y-3815029D01*
X8879992Y-3800754D01*
X8872067Y-3787343D01*
X8862618Y-3774948D01*
X8851747Y-3763772D01*
X8839657Y-3753967D01*
X8826500Y-3745636D01*
X8814511Y-3739946D01*
X8811107Y-3737305D01*
X8809075Y-3733495D01*
X8808821Y-3729228D01*
X8810345Y-3725164D01*
X8813444Y-3722166D01*
X8826957Y-3713632D01*
X8839047Y-3703828D01*
X8849918Y-3692651D01*
X8859367Y-3680256D01*
X8867292Y-3666845D01*
X8873540Y-3652570D01*
X8878112Y-3637686D01*
X8880856Y-3622344D01*
X8881770Y-3606800D01*
X8880856Y-3591255D01*
X8878112Y-3575913D01*
X8873540Y-3561029D01*
X8867546Y-3547414D01*
X8866682Y-3543300D01*
X8867546Y-3539185D01*
X8873540Y-3525570D01*
X8878112Y-3510686D01*
X8880856Y-3495344D01*
X8881770Y-3479800D01*
X8880856Y-3464255D01*
X8878112Y-3448913D01*
X8873540Y-3434029D01*
X8867292Y-3419754D01*
X8859367Y-3406343D01*
X8849918Y-3393948D01*
X8839047Y-3382772D01*
X8826957Y-3372967D01*
X8813800Y-3364636D01*
X8799728Y-3357930D01*
X8784945Y-3352952D01*
X8769705Y-3349751D01*
X8754211Y-3348380D01*
X8738616Y-3348837D01*
X8723223Y-3351123D01*
X8708186Y-3355238D01*
X8693759Y-3361080D01*
X8680094Y-3368598D01*
X8675776Y-3371697D01*
X8672322Y-3373323D01*
X8668512Y-3373526D01*
X8664905Y-3372307D01*
X8661958Y-3369818D01*
X8660180Y-3366465D01*
X8659723Y-3362655D01*
X8660333Y-3352698D01*
X8660333Y-1435404D01*
X8661095Y-1431493D01*
X8663279Y-1428191D01*
X8819286Y-1272235D01*
X8823198Y-1269796D01*
X8837828Y-1264869D01*
X8851900Y-1258163D01*
X8865057Y-1249832D01*
X8877147Y-1240028D01*
X8888018Y-1228852D01*
X8897467Y-1216456D01*
X8905392Y-1203045D01*
X8911640Y-1188770D01*
X8916212Y-1173886D01*
X8918956Y-1158544D01*
X8919870Y-1143000D01*
X8918956Y-1127455D01*
X8916212Y-1112113D01*
X8911640Y-1097229D01*
X8905646Y-1083614D01*
X8904782Y-1079500D01*
X8905646Y-1075385D01*
X8911640Y-1061770D01*
X8916212Y-1046886D01*
X8918956Y-1031544D01*
X8919870Y-1016000D01*
X8918956Y-1000455D01*
X8916212Y-985113D01*
X8911640Y-970229D01*
X8905392Y-955954D01*
X8897467Y-942543D01*
X8888018Y-930148D01*
X8877147Y-918971D01*
X8865057Y-909167D01*
X8851900Y-900836D01*
X8837828Y-894130D01*
X8823045Y-889152D01*
X8807805Y-885952D01*
X8792311Y-884580D01*
X8776716Y-885037D01*
X8761323Y-887323D01*
X8746286Y-891438D01*
X8731859Y-897280D01*
X8718194Y-904798D01*
X8705545Y-913892D01*
X8694064Y-924407D01*
X8683904Y-936193D01*
X8675166Y-949147D01*
X8668054Y-963015D01*
X8662619Y-977595D01*
X8660993Y-982776D01*
X8659317Y-984961D01*
X8413902Y-1230477D01*
X8406739Y-1238859D01*
X8404809Y-1241450D01*
X8398764Y-1250594D01*
X8392363Y-1263294D01*
X8391093Y-1266291D01*
X8387537Y-1276654D01*
X8386673Y-1279804D01*
X8384489Y-1290574D01*
X8384031Y-1293774D01*
X8383168Y-1304696D01*
X8383117Y-3250895D01*
X8382304Y-3254806D01*
X8380120Y-3258108D01*
X8350808Y-3287420D01*
X8347506Y-3289604D01*
X8343595Y-3290417D01*
X7489596Y-3290468D01*
X7478674Y-3291332D01*
X7475474Y-3291789D01*
X7464704Y-3293973D01*
X7461554Y-3294837D01*
X7451191Y-3298393D01*
X7448194Y-3299663D01*
X7435494Y-3306064D01*
X7426350Y-3312109D01*
X7423759Y-3314039D01*
X7415377Y-3321202D01*
X5962802Y-4773777D01*
X5955639Y-4782159D01*
X5953709Y-4784750D01*
X5947664Y-4793894D01*
X5941263Y-4806594D01*
X5939993Y-4809591D01*
X5936437Y-4819954D01*
X5935573Y-4823104D01*
X5933389Y-4833874D01*
X5932932Y-4837074D01*
X5932068Y-4847996D01*
X5932017Y-5350357D01*
X5931204Y-5354218D01*
X5929020Y-5357520D01*
X5925718Y-5359704D01*
X5921857Y-5360517D01*
X5000396Y-5360568D01*
X4989474Y-5361432D01*
X4986274Y-5361889D01*
X4975504Y-5364073D01*
X4972354Y-5364937D01*
X4961991Y-5368493D01*
X4958994Y-5369763D01*
X4946294Y-5376164D01*
X4937150Y-5382209D01*
X4934559Y-5384139D01*
X4926177Y-5391302D01*
X4756302Y-5561177D01*
X4749139Y-5569559D01*
X4747209Y-5572150D01*
X4741164Y-5581294D01*
X4734763Y-5593994D01*
X4733493Y-5596991D01*
X4729937Y-5607354D01*
X4729124Y-5610453D01*
X4727549Y-5618276D01*
X4725466Y-5622747D01*
X4718354Y-5636615D01*
X4712919Y-5651195D01*
X4709261Y-5666333D01*
X4707432Y-5681827D01*
X4707432Y-5697372D01*
X4709261Y-5712866D01*
X4712919Y-5728004D01*
X4718354Y-5742584D01*
X4721860Y-5749442D01*
X4722977Y-5753404D01*
X4722418Y-5757468D01*
X4720234Y-5761024D01*
X4716881Y-5763412D01*
X4712817Y-5764225D01*
X4291888Y-5764276D01*
X4280916Y-5765139D01*
X4277715Y-5765596D01*
X4266946Y-5767832D01*
X4263847Y-5768695D01*
X4253433Y-5772251D01*
X4250436Y-5773470D01*
X4240580Y-5778296D01*
X4237786Y-5779922D01*
X4228592Y-5785967D01*
X4226001Y-5787898D01*
X4217670Y-5795010D01*
X3372002Y-6640677D01*
X3364839Y-6649059D01*
X3362909Y-6651650D01*
X3356864Y-6660794D01*
X3350463Y-6673494D01*
X3349193Y-6676491D01*
X3345637Y-6686854D01*
X3344773Y-6690004D01*
X3342589Y-6700774D01*
X3342132Y-6703974D01*
X3341268Y-6714896D01*
X3341166Y-7149795D01*
X3340404Y-7153706D01*
X3338220Y-7157008D01*
X3220008Y-7275220D01*
X3216706Y-7277404D01*
X3212795Y-7278217D01*
X2850184Y-7278217D01*
X2845968Y-7277303D01*
X2842564Y-7274763D01*
X2839364Y-7271105D01*
X2837484Y-7268006D01*
X2836824Y-7264400D01*
X2837484Y-7260793D01*
X2839364Y-7257694D01*
X2846628Y-7249414D01*
X2857398Y-7234275D01*
X2866542Y-7218121D01*
X2874010Y-7201052D01*
X2879496Y-7183729D01*
X2751429Y-7183729D01*
X2751429Y-7204303D01*
X2750820Y-7207859D01*
X2748940Y-7211009D01*
X2746044Y-7213244D01*
X2742590Y-7214362D01*
X2719019Y-7211466D01*
X2700477Y-7210958D01*
X2681935Y-7212380D01*
X2670708Y-7214463D01*
X2666339Y-7214260D01*
X2662377Y-7212228D01*
X2659684Y-7208774D01*
X2658770Y-7204456D01*
X2658770Y-7183729D01*
X2530906Y-7183729D01*
X2533142Y-7192314D01*
X2539695Y-7209688D01*
X2548026Y-7226300D01*
X2557983Y-7241997D01*
X2569514Y-7256576D01*
X2572410Y-7260590D01*
X2573121Y-7264400D01*
X2572410Y-7268209D01*
X2569514Y-7272223D01*
X2557983Y-7286802D01*
X2548026Y-7302500D01*
X2539695Y-7319111D01*
X2533142Y-7336485D01*
X2528417Y-7354468D01*
X2525572Y-7372858D01*
X2524607Y-7391400D01*
X2524810Y-7395260D01*
X2524302Y-7399020D01*
X2522423Y-7402322D01*
X2519476Y-7404760D01*
X2515819Y-7405878D01*
X2509621Y-7406589D01*
X2499004Y-7408773D01*
X2495854Y-7409637D01*
X2485491Y-7413193D01*
X2482494Y-7414463D01*
X2469794Y-7420864D01*
X2460650Y-7426909D01*
X2458059Y-7428839D01*
X2449677Y-7436002D01*
X2406802Y-7478877D01*
X2399639Y-7487259D01*
X2397709Y-7489850D01*
X2391664Y-7498994D01*
X2385263Y-7511694D01*
X2383993Y-7514691D01*
X2380437Y-7525054D01*
X2379573Y-7528204D01*
X2377389Y-7538974D01*
X2376932Y-7542174D01*
X2376068Y-7553096D01*
X2376068Y-7852003D01*
X2376932Y-7862925D01*
X2377389Y-7866176D01*
X2379573Y-7876895D01*
X2380437Y-7880045D01*
X2383993Y-7890408D01*
X2385263Y-7893405D01*
X2391664Y-7906105D01*
X2397709Y-7915249D01*
X2399639Y-7917840D01*
X2406802Y-7926222D01*
X2462377Y-7981797D01*
X2470759Y-7988960D01*
X2473350Y-7990890D01*
X2482494Y-7996936D01*
X2495194Y-8003336D01*
X2498191Y-8004606D01*
X2508554Y-8008162D01*
X2511704Y-8009026D01*
X2522474Y-8011210D01*
X2525674Y-8011668D01*
X2536545Y-8012531D01*
X2559913Y-8012633D01*
X2564180Y-8013547D01*
X2567635Y-8016189D01*
X2570734Y-8019846D01*
X2572562Y-8023047D01*
X2573121Y-8026755D01*
X2572308Y-8030413D01*
X2569514Y-8034223D01*
X2557983Y-8048802D01*
X2548026Y-8064500D01*
X2539695Y-8081111D01*
X2533142Y-8098485D01*
X2528417Y-8116468D01*
X2525572Y-8134858D01*
X2524607Y-8153400D01*
X2525572Y-8171942D01*
X2528417Y-8190331D01*
X2533142Y-8208314D01*
X2539695Y-8225688D01*
X2548026Y-8242300D01*
X2557983Y-8257997D01*
X2569514Y-8272576D01*
X2572410Y-8276590D01*
X2573121Y-8280400D01*
X2572410Y-8284209D01*
X2569514Y-8288223D01*
X2557983Y-8302802D01*
X2548026Y-8318500D01*
X2539695Y-8335111D01*
X2533142Y-8352485D01*
X2530906Y-8361070D01*
X2658770Y-8361070D01*
X2658770Y-8340344D01*
X2659684Y-8336025D01*
X2662377Y-8332571D01*
X2666339Y-8330539D01*
X2670708Y-8330336D01*
X2681935Y-8332419D01*
X2700477Y-8333841D01*
X2719019Y-8333333D01*
X2742590Y-8330438D01*
X2746044Y-8331555D01*
X2748940Y-8333790D01*
X2750820Y-8336940D01*
X2751429Y-8340496D01*
X2751429Y-8361070D01*
X2879496Y-8361070D01*
X2874010Y-8343747D01*
X2866542Y-8326678D01*
X2857398Y-8310524D01*
X2846628Y-8295386D01*
X2839364Y-8287105D01*
X2837484Y-8284006D01*
X2836824Y-8280400D01*
X2837484Y-8276793D01*
X2839364Y-8273694D01*
X2842564Y-8270036D01*
X2845968Y-8267496D01*
X2850184Y-8266633D01*
X3381603Y-8266531D01*
X3392525Y-8265668D01*
X3395776Y-8265210D01*
X3406495Y-8263026D01*
X3409645Y-8262162D01*
X3420008Y-8258606D01*
X3423005Y-8257336D01*
X3435705Y-8250936D01*
X3444849Y-8244890D01*
X3447440Y-8242960D01*
X3455822Y-8235797D01*
X3727297Y-7964322D01*
X3734460Y-7955940D01*
X3736390Y-7953349D01*
X3742436Y-7944205D01*
X3748836Y-7931505D01*
X3750106Y-7928508D01*
X3753662Y-7918145D01*
X3754526Y-7914995D01*
X3756710Y-7904276D01*
X3757168Y-7901025D01*
X3758031Y-7890103D01*
X3758133Y-6794804D01*
X3758895Y-6790893D01*
X3761079Y-6787591D01*
X4412691Y-6135979D01*
X4415993Y-6133795D01*
X4419904Y-6133033D01*
X4698898Y-6133033D01*
X4702505Y-6133693D01*
X4705604Y-6135573D01*
X4707890Y-6138468D01*
X4708956Y-6141974D01*
X4709261Y-6144666D01*
X4712919Y-6159804D01*
X4718354Y-6174384D01*
X4724349Y-6186119D01*
X4725212Y-6188354D01*
X4725517Y-6190742D01*
X4725568Y-7661503D01*
X4726432Y-7672425D01*
X4726889Y-7675676D01*
X4729073Y-7686395D01*
X4729937Y-7689545D01*
X4733493Y-7699908D01*
X4734763Y-7702905D01*
X4741164Y-7715605D01*
X4747209Y-7724749D01*
X4749139Y-7727340D01*
X4756302Y-7735722D01*
X5370677Y-8350097D01*
X5379059Y-8357260D01*
X5381650Y-8359190D01*
X5390794Y-8365236D01*
X5403494Y-8371636D01*
X5406491Y-8372906D01*
X5416854Y-8376462D01*
X5420004Y-8377326D01*
X5430774Y-8379510D01*
X5433974Y-8379968D01*
X5444896Y-8380831D01*
X8432495Y-8380933D01*
X8436406Y-8381695D01*
X8439708Y-8383879D01*
X8633917Y-8578138D01*
X8635593Y-8580323D01*
X8637219Y-8585504D01*
X8642654Y-8600084D01*
X8649766Y-8613952D01*
X8658504Y-8626906D01*
X8668664Y-8638692D01*
X8680145Y-8649208D01*
X8692794Y-8658301D01*
X8706459Y-8665819D01*
X8720886Y-8671661D01*
X8735923Y-8675776D01*
X8751316Y-8678062D01*
G37*
G36*
X11900916Y-8428532D02*
G01*
X12000484Y-8428532D01*
X12024868Y-8427516D01*
X12048896Y-8424621D01*
X12072620Y-8419744D01*
X12095835Y-8413038D01*
X12118492Y-8404453D01*
X12140336Y-8394090D01*
X12161316Y-8382000D01*
X12181230Y-8368233D01*
X12199975Y-8352942D01*
X12217400Y-8336178D01*
X12233452Y-8318042D01*
X12247981Y-8298688D01*
X12260935Y-8278266D01*
X12272162Y-8256828D01*
X12281662Y-8234578D01*
X12289332Y-8211616D01*
X12295124Y-8188096D01*
X12298984Y-8164220D01*
X12300966Y-8140090D01*
X12300966Y-8115909D01*
X12298984Y-8091779D01*
X12295124Y-8067903D01*
X12289332Y-8044383D01*
X12281662Y-8021421D01*
X12272162Y-7999171D01*
X12260935Y-7977733D01*
X12247981Y-7957312D01*
X12233452Y-7937957D01*
X12217400Y-7919821D01*
X12199975Y-7903057D01*
X12181230Y-7887766D01*
X12161316Y-7874000D01*
X12140336Y-7861909D01*
X12118492Y-7851546D01*
X12095835Y-7842961D01*
X12072620Y-7836255D01*
X12048896Y-7831378D01*
X12024868Y-7828483D01*
X12000484Y-7827518D01*
X11900916Y-7827518D01*
X11876532Y-7828483D01*
X11852503Y-7831378D01*
X11828780Y-7836255D01*
X11805564Y-7842961D01*
X11782907Y-7851546D01*
X11761063Y-7861909D01*
X11740083Y-7874000D01*
X11720169Y-7887766D01*
X11701424Y-7903057D01*
X11684000Y-7919821D01*
X11667947Y-7937957D01*
X11653418Y-7957312D01*
X11640464Y-7977733D01*
X11629237Y-7999171D01*
X11619738Y-8021421D01*
X11612067Y-8044383D01*
X11606276Y-8067903D01*
X11602415Y-8091779D01*
X11600434Y-8115909D01*
X11600434Y-8140090D01*
X11602415Y-8164220D01*
X11606276Y-8188096D01*
X11612067Y-8211616D01*
X11619738Y-8234578D01*
X11629237Y-8256828D01*
X11640464Y-8278266D01*
X11653418Y-8298688D01*
X11667947Y-8318042D01*
X11684000Y-8336178D01*
X11701424Y-8352942D01*
X11720169Y-8368233D01*
X11740083Y-8382000D01*
X11761063Y-8394090D01*
X11782907Y-8404453D01*
X11805564Y-8413038D01*
X11828780Y-8419744D01*
X11852503Y-8424621D01*
X11876532Y-8427516D01*
G37*
G36*
X752906Y-8361070D02*
G01*
X880770Y-8361070D01*
X880770Y-8340344D01*
X881684Y-8336025D01*
X884377Y-8332571D01*
X888339Y-8330539D01*
X892708Y-8330336D01*
X903935Y-8332419D01*
X922477Y-8333841D01*
X941019Y-8333333D01*
X964590Y-8330438D01*
X968044Y-8331555D01*
X970940Y-8333790D01*
X972819Y-8336940D01*
X973429Y-8340496D01*
X973429Y-8361070D01*
X1101496Y-8361070D01*
X1096010Y-8343747D01*
X1088542Y-8326678D01*
X1079398Y-8310524D01*
X1068628Y-8295386D01*
X1061364Y-8287105D01*
X1059484Y-8284006D01*
X1058824Y-8280400D01*
X1059484Y-8276793D01*
X1061364Y-8273694D01*
X1068628Y-8265414D01*
X1079398Y-8250275D01*
X1088542Y-8234121D01*
X1096010Y-8217052D01*
X1101648Y-8199374D01*
X1105458Y-8181187D01*
X1107338Y-8162696D01*
X1107338Y-8144103D01*
X1105458Y-8125612D01*
X1101648Y-8107425D01*
X1096010Y-8089747D01*
X1088542Y-8072678D01*
X1079398Y-8056524D01*
X1068628Y-8041386D01*
X1061364Y-8033105D01*
X1059484Y-8030006D01*
X1058824Y-8026400D01*
X1059484Y-8022793D01*
X1061364Y-8019694D01*
X1068628Y-8011414D01*
X1079398Y-7996275D01*
X1088542Y-7980121D01*
X1096010Y-7963052D01*
X1101648Y-7945374D01*
X1105458Y-7927187D01*
X1107338Y-7908696D01*
X1107338Y-7890103D01*
X1105458Y-7871612D01*
X1101648Y-7853425D01*
X1096010Y-7835747D01*
X1088542Y-7818678D01*
X1079398Y-7802524D01*
X1068628Y-7787386D01*
X1061364Y-7779105D01*
X1059484Y-7776006D01*
X1058824Y-7772400D01*
X1059484Y-7768793D01*
X1061364Y-7765694D01*
X1068628Y-7757414D01*
X1079398Y-7742275D01*
X1088542Y-7726121D01*
X1096010Y-7709052D01*
X1101648Y-7691374D01*
X1105458Y-7673187D01*
X1107338Y-7654696D01*
X1107338Y-7636103D01*
X1105458Y-7617612D01*
X1101648Y-7599425D01*
X1096010Y-7581747D01*
X1088542Y-7564678D01*
X1079398Y-7548524D01*
X1068628Y-7533386D01*
X1061364Y-7525105D01*
X1059484Y-7522006D01*
X1058824Y-7518400D01*
X1059484Y-7514793D01*
X1061364Y-7511694D01*
X1068628Y-7503414D01*
X1079398Y-7488275D01*
X1088542Y-7472121D01*
X1096010Y-7455052D01*
X1101648Y-7437374D01*
X1105458Y-7419187D01*
X1107338Y-7400696D01*
X1107338Y-7382103D01*
X1105458Y-7363612D01*
X1101648Y-7345425D01*
X1096010Y-7327747D01*
X1088542Y-7310678D01*
X1079398Y-7294524D01*
X1068628Y-7279386D01*
X1061364Y-7271105D01*
X1059484Y-7268006D01*
X1058824Y-7264400D01*
X1059484Y-7260793D01*
X1061364Y-7257694D01*
X1068628Y-7249414D01*
X1079398Y-7234275D01*
X1088542Y-7218121D01*
X1096010Y-7201052D01*
X1101496Y-7183729D01*
X973429Y-7183729D01*
X973429Y-7204303D01*
X972819Y-7207859D01*
X970940Y-7211009D01*
X968044Y-7213244D01*
X964590Y-7214362D01*
X941019Y-7211466D01*
X922477Y-7210958D01*
X903935Y-7212380D01*
X892708Y-7214463D01*
X888339Y-7214260D01*
X884377Y-7212228D01*
X881684Y-7208774D01*
X880770Y-7204456D01*
X880770Y-7183729D01*
X752906Y-7183729D01*
X755142Y-7192314D01*
X761695Y-7209688D01*
X770026Y-7226300D01*
X779983Y-7241997D01*
X791514Y-7256576D01*
X794410Y-7260590D01*
X795121Y-7264400D01*
X794410Y-7268209D01*
X791514Y-7272223D01*
X779983Y-7286802D01*
X770026Y-7302500D01*
X761695Y-7319111D01*
X755142Y-7336485D01*
X750417Y-7354468D01*
X747572Y-7372858D01*
X746607Y-7391400D01*
X747572Y-7409942D01*
X750417Y-7428331D01*
X755142Y-7446314D01*
X761695Y-7463688D01*
X770026Y-7480300D01*
X779983Y-7495997D01*
X791514Y-7510576D01*
X794410Y-7514590D01*
X795121Y-7518400D01*
X794410Y-7522209D01*
X791514Y-7526223D01*
X779983Y-7540802D01*
X770026Y-7556500D01*
X761695Y-7573111D01*
X755142Y-7590485D01*
X750417Y-7608468D01*
X747572Y-7626858D01*
X746607Y-7645400D01*
X747572Y-7663942D01*
X750417Y-7682331D01*
X755142Y-7700314D01*
X761695Y-7717688D01*
X770026Y-7734300D01*
X779983Y-7749997D01*
X791514Y-7764576D01*
X794410Y-7768590D01*
X795121Y-7772400D01*
X794410Y-7776209D01*
X791514Y-7780223D01*
X779983Y-7794802D01*
X770026Y-7810500D01*
X761695Y-7827111D01*
X755142Y-7844485D01*
X750417Y-7862468D01*
X747572Y-7880858D01*
X746607Y-7899400D01*
X747572Y-7917942D01*
X750417Y-7936331D01*
X755142Y-7954314D01*
X761695Y-7971688D01*
X770026Y-7988300D01*
X779983Y-8003997D01*
X791514Y-8018576D01*
X794410Y-8022590D01*
X795121Y-8026400D01*
X794410Y-8030209D01*
X791514Y-8034223D01*
X779983Y-8048802D01*
X770026Y-8064500D01*
X761695Y-8081111D01*
X755142Y-8098485D01*
X750417Y-8116468D01*
X747572Y-8134858D01*
X746607Y-8153400D01*
X747572Y-8171942D01*
X750417Y-8190331D01*
X755142Y-8208314D01*
X761695Y-8225688D01*
X770026Y-8242300D01*
X779983Y-8257997D01*
X791514Y-8272576D01*
X794410Y-8276590D01*
X795121Y-8280400D01*
X794410Y-8284209D01*
X791514Y-8288223D01*
X779983Y-8302802D01*
X770026Y-8318500D01*
X761695Y-8335111D01*
X755142Y-8352485D01*
G37*
G36*
X9022943Y-8186166D02*
G01*
X9025077Y-8185810D01*
X9041282Y-8181136D01*
X9051188Y-8177022D01*
X9055100Y-8176259D01*
X9059011Y-8177022D01*
X9068917Y-8181136D01*
X9085122Y-8185810D01*
X9087256Y-8186166D01*
X9087256Y-8070443D01*
X9022943Y-8070443D01*
G37*
G36*
X9149943Y-8186166D02*
G01*
X9152077Y-8185810D01*
X9168282Y-8181136D01*
X9178188Y-8177022D01*
X9182100Y-8176259D01*
X9186011Y-8177022D01*
X9195917Y-8181136D01*
X9212122Y-8185810D01*
X9214256Y-8186166D01*
X9214256Y-8070443D01*
X9149943Y-8070443D01*
G37*
G36*
X8960256Y-8186166D02*
G01*
X8960256Y-8070443D01*
X8844534Y-8070443D01*
X8844889Y-8072577D01*
X8849563Y-8088782D01*
X8856014Y-8104378D01*
X8864193Y-8119160D01*
X8873947Y-8132927D01*
X8885174Y-8145525D01*
X8897772Y-8156752D01*
X8911539Y-8166506D01*
X8926322Y-8174685D01*
X8941917Y-8181136D01*
X8958122Y-8185810D01*
G37*
G36*
X9276943Y-8186166D02*
G01*
X9279077Y-8185810D01*
X9295282Y-8181136D01*
X9310878Y-8174685D01*
X9325660Y-8166506D01*
X9339427Y-8156752D01*
X9352026Y-8145525D01*
X9363252Y-8132927D01*
X9373006Y-8119160D01*
X9381185Y-8104378D01*
X9387636Y-8088782D01*
X9392310Y-8072577D01*
X9392666Y-8070443D01*
X9276943Y-8070443D01*
G37*
G36*
X8563711Y-8030819D02*
G01*
X8579205Y-8029448D01*
X8594445Y-8026247D01*
X8609228Y-8021269D01*
X8623300Y-8014563D01*
X8636457Y-8006232D01*
X8648547Y-7996428D01*
X8659418Y-7985252D01*
X8668867Y-7972856D01*
X8676792Y-7959445D01*
X8679891Y-7954721D01*
X8683701Y-7952638D01*
X8688120Y-7952333D01*
X8700516Y-7954162D01*
X8716111Y-7954619D01*
X8731605Y-7953248D01*
X8746845Y-7950047D01*
X8761628Y-7945069D01*
X8775700Y-7938363D01*
X8788857Y-7930032D01*
X8800947Y-7920228D01*
X8811818Y-7909052D01*
X8821267Y-7896656D01*
X8829192Y-7883245D01*
X8835440Y-7868970D01*
X8840012Y-7854086D01*
X8842756Y-7838744D01*
X8843670Y-7823200D01*
X8842756Y-7807655D01*
X8840012Y-7792313D01*
X8835440Y-7777429D01*
X8829192Y-7763154D01*
X8821267Y-7749743D01*
X8811818Y-7737348D01*
X8800947Y-7726172D01*
X8788857Y-7716367D01*
X8775700Y-7708036D01*
X8761628Y-7701330D01*
X8746998Y-7696403D01*
X8743086Y-7693964D01*
X8332622Y-7283602D01*
X8324240Y-7276439D01*
X8321649Y-7274509D01*
X8312505Y-7268464D01*
X8299805Y-7262063D01*
X8296808Y-7260793D01*
X8286445Y-7257237D01*
X8283295Y-7256373D01*
X8272576Y-7254189D01*
X8269325Y-7253731D01*
X8258403Y-7252868D01*
X7498994Y-7252817D01*
X7496200Y-7252411D01*
X7478928Y-7244130D01*
X7464145Y-7239152D01*
X7448905Y-7235952D01*
X7433411Y-7234580D01*
X7417816Y-7235037D01*
X7402423Y-7237323D01*
X7387386Y-7241438D01*
X7372959Y-7247280D01*
X7359294Y-7254798D01*
X7346645Y-7263892D01*
X7335164Y-7274407D01*
X7325004Y-7286193D01*
X7316266Y-7299147D01*
X7309154Y-7313015D01*
X7303719Y-7327595D01*
X7300061Y-7342733D01*
X7298232Y-7358227D01*
X7298232Y-7373772D01*
X7300061Y-7389266D01*
X7303719Y-7404404D01*
X7309154Y-7418984D01*
X7316266Y-7432852D01*
X7325004Y-7445806D01*
X7335164Y-7457592D01*
X7346645Y-7468108D01*
X7359294Y-7477201D01*
X7371842Y-7484109D01*
X7375093Y-7486954D01*
X7376871Y-7490866D01*
X7376871Y-7495133D01*
X7375093Y-7499045D01*
X7371842Y-7501890D01*
X7359294Y-7508798D01*
X7346645Y-7517892D01*
X7335164Y-7528407D01*
X7325004Y-7540193D01*
X7316266Y-7553147D01*
X7309154Y-7567015D01*
X7303719Y-7581595D01*
X7300061Y-7596733D01*
X7298232Y-7612227D01*
X7298232Y-7627772D01*
X7300061Y-7643266D01*
X7303719Y-7658404D01*
X7309154Y-7672984D01*
X7316266Y-7686852D01*
X7325004Y-7699806D01*
X7335164Y-7711592D01*
X7346645Y-7722108D01*
X7359294Y-7731201D01*
X7372959Y-7738719D01*
X7387386Y-7744561D01*
X7402423Y-7748676D01*
X7417816Y-7750962D01*
X7433411Y-7751419D01*
X7448905Y-7750048D01*
X7464145Y-7746847D01*
X7478928Y-7741869D01*
X7496200Y-7733588D01*
X7498994Y-7733233D01*
X8229295Y-7733233D01*
X8233206Y-7733995D01*
X8236508Y-7736179D01*
X8430717Y-7930438D01*
X8432393Y-7932623D01*
X8434019Y-7937804D01*
X8439454Y-7952384D01*
X8446566Y-7966252D01*
X8455304Y-7979206D01*
X8465464Y-7990992D01*
X8476945Y-8001508D01*
X8489594Y-8010601D01*
X8503259Y-8018119D01*
X8517686Y-8023961D01*
X8532723Y-8028076D01*
X8548116Y-8030362D01*
G37*
G36*
X9149943Y-8007756D02*
G01*
X9214256Y-8007756D01*
X9214256Y-7892034D01*
X9212122Y-7892389D01*
X9195917Y-7897063D01*
X9186011Y-7901178D01*
X9182100Y-7901940D01*
X9178188Y-7901178D01*
X9168282Y-7897063D01*
X9152077Y-7892389D01*
X9149943Y-7892034D01*
G37*
G36*
X9022943Y-8007756D02*
G01*
X9087256Y-8007756D01*
X9087256Y-7892034D01*
X9085122Y-7892389D01*
X9068917Y-7897063D01*
X9059011Y-7901178D01*
X9055100Y-7901940D01*
X9051188Y-7901178D01*
X9041282Y-7897063D01*
X9025077Y-7892389D01*
X9022943Y-7892034D01*
G37*
G36*
X9276943Y-8007756D02*
G01*
X9392666Y-8007756D01*
X9392310Y-8005622D01*
X9387636Y-7989417D01*
X9381185Y-7973822D01*
X9373006Y-7959039D01*
X9363252Y-7945272D01*
X9352026Y-7932674D01*
X9339427Y-7921447D01*
X9325660Y-7911693D01*
X9310878Y-7903514D01*
X9295282Y-7897063D01*
X9279077Y-7892389D01*
X9276943Y-7892034D01*
G37*
G36*
X8844534Y-8007756D02*
G01*
X8960256Y-8007756D01*
X8960256Y-7892034D01*
X8958122Y-7892389D01*
X8941917Y-7897063D01*
X8926322Y-7903514D01*
X8911539Y-7911693D01*
X8897772Y-7921447D01*
X8885174Y-7932674D01*
X8873947Y-7945272D01*
X8864193Y-7959039D01*
X8856014Y-7973822D01*
X8849563Y-7989417D01*
X8844889Y-8005622D01*
G37*
G36*
X10165588Y-7677251D02*
G01*
X10187990Y-7675778D01*
X10210139Y-7672425D01*
X10231932Y-7667193D01*
X10253167Y-7660081D01*
X10273741Y-7651140D01*
X10293451Y-7640523D01*
X10312196Y-7628229D01*
X10329824Y-7614361D01*
X10346182Y-7599019D01*
X10361168Y-7582306D01*
X10374630Y-7564424D01*
X10386517Y-7545425D01*
X10396728Y-7525461D01*
X10405211Y-7504734D01*
X10411866Y-7483297D01*
X10416641Y-7461402D01*
X10419537Y-7439202D01*
X10420502Y-7416800D01*
X10419537Y-7394397D01*
X10416641Y-7372197D01*
X10411866Y-7350302D01*
X10405211Y-7328865D01*
X10396728Y-7308138D01*
X10386517Y-7288174D01*
X10374630Y-7269175D01*
X10361168Y-7251293D01*
X10346182Y-7234580D01*
X10329824Y-7219238D01*
X10312196Y-7205370D01*
X10293451Y-7193076D01*
X10273741Y-7182459D01*
X10253167Y-7173518D01*
X10231932Y-7166406D01*
X10210139Y-7161174D01*
X10187990Y-7157821D01*
X10165588Y-7156348D01*
X10143185Y-7156856D01*
X10120934Y-7159244D01*
X10098938Y-7163562D01*
X10077348Y-7169759D01*
X10056418Y-7177786D01*
X10036251Y-7187539D01*
X10017048Y-7199020D01*
X9998862Y-7212126D01*
X9981844Y-7226757D01*
X9966147Y-7242759D01*
X9951923Y-7260081D01*
X9939223Y-7278522D01*
X9928148Y-7298029D01*
X9918801Y-7318400D01*
X9911232Y-7339482D01*
X9905492Y-7361174D01*
X9901682Y-7383272D01*
X9899751Y-7405573D01*
X9899751Y-7428026D01*
X9901682Y-7450328D01*
X9905492Y-7472425D01*
X9911232Y-7494117D01*
X9918801Y-7515199D01*
X9928148Y-7535570D01*
X9939223Y-7555077D01*
X9951923Y-7573518D01*
X9966147Y-7590840D01*
X9981844Y-7606842D01*
X9998862Y-7621473D01*
X10017048Y-7634579D01*
X10036251Y-7646060D01*
X10056418Y-7655814D01*
X10077348Y-7663840D01*
X10098938Y-7670038D01*
X10120934Y-7674356D01*
X10143185Y-7676743D01*
G37*
G36*
X12082068Y-7655052D02*
G01*
X12095835Y-7651038D01*
X12118492Y-7642453D01*
X12140336Y-7632090D01*
X12161316Y-7620000D01*
X12181230Y-7606233D01*
X12199975Y-7590942D01*
X12217400Y-7574178D01*
X12233452Y-7556042D01*
X12247981Y-7536688D01*
X12260935Y-7516266D01*
X12272162Y-7494828D01*
X12281763Y-7472375D01*
X12082068Y-7472375D01*
G37*
G36*
X11819331Y-7655052D02*
G01*
X11819331Y-7472375D01*
X11619636Y-7472375D01*
X11629237Y-7494828D01*
X11640464Y-7516266D01*
X11653418Y-7536688D01*
X11667947Y-7556042D01*
X11684000Y-7574178D01*
X11701424Y-7590942D01*
X11720169Y-7606233D01*
X11740083Y-7620000D01*
X11761063Y-7632090D01*
X11782907Y-7642453D01*
X11805564Y-7651038D01*
G37*
G36*
X11619636Y-7259675D02*
G01*
X11819331Y-7259675D01*
X11819331Y-7076948D01*
X11805564Y-7080961D01*
X11782907Y-7089546D01*
X11761063Y-7099909D01*
X11740083Y-7112000D01*
X11720169Y-7125766D01*
X11701424Y-7141057D01*
X11684000Y-7157821D01*
X11667947Y-7175957D01*
X11653418Y-7195312D01*
X11640464Y-7215733D01*
X11629237Y-7237171D01*
G37*
G36*
X12082068Y-7259675D02*
G01*
X12281763Y-7259675D01*
X12272162Y-7237171D01*
X12260935Y-7215733D01*
X12247981Y-7195312D01*
X12233452Y-7175957D01*
X12217400Y-7157821D01*
X12199975Y-7141057D01*
X12181230Y-7125766D01*
X12161316Y-7112000D01*
X12140336Y-7099909D01*
X12118492Y-7089546D01*
X12095835Y-7080961D01*
X12082068Y-7076948D01*
G37*
G36*
X2530906Y-7091070D02*
G01*
X2658770Y-7091070D01*
X2658770Y-7070344D01*
X2659684Y-7066025D01*
X2662377Y-7062571D01*
X2666339Y-7060539D01*
X2670708Y-7060336D01*
X2681935Y-7062419D01*
X2700477Y-7063841D01*
X2719019Y-7063333D01*
X2742590Y-7060438D01*
X2746044Y-7061555D01*
X2748940Y-7063790D01*
X2750820Y-7066940D01*
X2751429Y-7070496D01*
X2751429Y-7091070D01*
X2879496Y-7091070D01*
X2874010Y-7073747D01*
X2866542Y-7056678D01*
X2857398Y-7040524D01*
X2846628Y-7025386D01*
X2839364Y-7017105D01*
X2837484Y-7014006D01*
X2836824Y-7010400D01*
X2837484Y-7006793D01*
X2839364Y-7003694D01*
X2846628Y-6995414D01*
X2857398Y-6980275D01*
X2866542Y-6964121D01*
X2874010Y-6947052D01*
X2879648Y-6929374D01*
X2883458Y-6911187D01*
X2885338Y-6892696D01*
X2885338Y-6874103D01*
X2883458Y-6855612D01*
X2879648Y-6837425D01*
X2874010Y-6819747D01*
X2866542Y-6802678D01*
X2857398Y-6786524D01*
X2846628Y-6771386D01*
X2839364Y-6763105D01*
X2837484Y-6760006D01*
X2836824Y-6756400D01*
X2837484Y-6752793D01*
X2839364Y-6749694D01*
X2846628Y-6741414D01*
X2857398Y-6726275D01*
X2866542Y-6710121D01*
X2874010Y-6693052D01*
X2879648Y-6675374D01*
X2883458Y-6657187D01*
X2885338Y-6638696D01*
X2885338Y-6620103D01*
X2883458Y-6601612D01*
X2879648Y-6583425D01*
X2874010Y-6565747D01*
X2866542Y-6548678D01*
X2857398Y-6532524D01*
X2846628Y-6517385D01*
X2839364Y-6509105D01*
X2837484Y-6506006D01*
X2836824Y-6502400D01*
X2837484Y-6498793D01*
X2839364Y-6495694D01*
X2846628Y-6487414D01*
X2857398Y-6472275D01*
X2866542Y-6456121D01*
X2874010Y-6439052D01*
X2879648Y-6421374D01*
X2883458Y-6403187D01*
X2885338Y-6384696D01*
X2885338Y-6366103D01*
X2883458Y-6347612D01*
X2879648Y-6329426D01*
X2874010Y-6311747D01*
X2866542Y-6294678D01*
X2857398Y-6278524D01*
X2846628Y-6263386D01*
X2839364Y-6255105D01*
X2837484Y-6252006D01*
X2836824Y-6248400D01*
X2837484Y-6244793D01*
X2839364Y-6241694D01*
X2846628Y-6233414D01*
X2857398Y-6218275D01*
X2866542Y-6202121D01*
X2874010Y-6185052D01*
X2879648Y-6167374D01*
X2883458Y-6149187D01*
X2885338Y-6130696D01*
X2885338Y-6112103D01*
X2883458Y-6093612D01*
X2879648Y-6075426D01*
X2874010Y-6057747D01*
X2866542Y-6040678D01*
X2857398Y-6024524D01*
X2846628Y-6009386D01*
X2839364Y-6001105D01*
X2837484Y-5998006D01*
X2836824Y-5994400D01*
X2837484Y-5990793D01*
X2839364Y-5987694D01*
X2846628Y-5979414D01*
X2857398Y-5964275D01*
X2866542Y-5948121D01*
X2874010Y-5931052D01*
X2879496Y-5913729D01*
X2751429Y-5913729D01*
X2751429Y-5934303D01*
X2750820Y-5937859D01*
X2748940Y-5941009D01*
X2746044Y-5943244D01*
X2742590Y-5944362D01*
X2719019Y-5941466D01*
X2700477Y-5940958D01*
X2681935Y-5942380D01*
X2670708Y-5944463D01*
X2666339Y-5944260D01*
X2662377Y-5942228D01*
X2659684Y-5938774D01*
X2658770Y-5934456D01*
X2658770Y-5913729D01*
X2530906Y-5913729D01*
X2533142Y-5922314D01*
X2539695Y-5939688D01*
X2548026Y-5956300D01*
X2557983Y-5971997D01*
X2569514Y-5986576D01*
X2572410Y-5990590D01*
X2573121Y-5994400D01*
X2572410Y-5998210D01*
X2569514Y-6002223D01*
X2557983Y-6016802D01*
X2548026Y-6032500D01*
X2539695Y-6049111D01*
X2533142Y-6066485D01*
X2528417Y-6084468D01*
X2525572Y-6102858D01*
X2524607Y-6121400D01*
X2525572Y-6139942D01*
X2528417Y-6158331D01*
X2533142Y-6176314D01*
X2539695Y-6193688D01*
X2548026Y-6210300D01*
X2557983Y-6225997D01*
X2569514Y-6240576D01*
X2572410Y-6244590D01*
X2573121Y-6248400D01*
X2572410Y-6252210D01*
X2569514Y-6256223D01*
X2557983Y-6270802D01*
X2548026Y-6286500D01*
X2539695Y-6303111D01*
X2533142Y-6320485D01*
X2528417Y-6338468D01*
X2525572Y-6356858D01*
X2524607Y-6375400D01*
X2525572Y-6393942D01*
X2528417Y-6412331D01*
X2533142Y-6430314D01*
X2539695Y-6447688D01*
X2548026Y-6464300D01*
X2557983Y-6479997D01*
X2569514Y-6494576D01*
X2572410Y-6498590D01*
X2573121Y-6502400D01*
X2572410Y-6506209D01*
X2569514Y-6510223D01*
X2557983Y-6524802D01*
X2548026Y-6540500D01*
X2539695Y-6557111D01*
X2533142Y-6574485D01*
X2528417Y-6592468D01*
X2525572Y-6610858D01*
X2524607Y-6629400D01*
X2525572Y-6647942D01*
X2528417Y-6666331D01*
X2533142Y-6684314D01*
X2539695Y-6701688D01*
X2548026Y-6718300D01*
X2557983Y-6733997D01*
X2569514Y-6748576D01*
X2572410Y-6752590D01*
X2573121Y-6756400D01*
X2572410Y-6760209D01*
X2569514Y-6764223D01*
X2557983Y-6778802D01*
X2548026Y-6794500D01*
X2539695Y-6811111D01*
X2533142Y-6828485D01*
X2528417Y-6846468D01*
X2525572Y-6864858D01*
X2524607Y-6883400D01*
X2525572Y-6901942D01*
X2528417Y-6920331D01*
X2533142Y-6938314D01*
X2539695Y-6955688D01*
X2548026Y-6972300D01*
X2557983Y-6987997D01*
X2569514Y-7002576D01*
X2572410Y-7006590D01*
X2573121Y-7010400D01*
X2572410Y-7014209D01*
X2569514Y-7018223D01*
X2557983Y-7032802D01*
X2548026Y-7048500D01*
X2539695Y-7065111D01*
X2533142Y-7082485D01*
G37*
G36*
X752906Y-7091070D02*
G01*
X880770Y-7091070D01*
X880770Y-7070344D01*
X881684Y-7066025D01*
X884377Y-7062571D01*
X888339Y-7060539D01*
X892708Y-7060336D01*
X903935Y-7062419D01*
X922477Y-7063841D01*
X941019Y-7063333D01*
X964590Y-7060438D01*
X968044Y-7061555D01*
X970940Y-7063790D01*
X972819Y-7066940D01*
X973429Y-7070496D01*
X973429Y-7091070D01*
X1101496Y-7091070D01*
X1096010Y-7073747D01*
X1088542Y-7056678D01*
X1079398Y-7040524D01*
X1068628Y-7025386D01*
X1061364Y-7017105D01*
X1059484Y-7014006D01*
X1058824Y-7010400D01*
X1059484Y-7006793D01*
X1061364Y-7003694D01*
X1068628Y-6995414D01*
X1079398Y-6980275D01*
X1088542Y-6964121D01*
X1096010Y-6947052D01*
X1101648Y-6929374D01*
X1105458Y-6911187D01*
X1107338Y-6892696D01*
X1107338Y-6874103D01*
X1105458Y-6855612D01*
X1101648Y-6837425D01*
X1096010Y-6819747D01*
X1088542Y-6802678D01*
X1079398Y-6786524D01*
X1068628Y-6771386D01*
X1061364Y-6763105D01*
X1059484Y-6760006D01*
X1058824Y-6756400D01*
X1059484Y-6752793D01*
X1061364Y-6749694D01*
X1068628Y-6741414D01*
X1079398Y-6726275D01*
X1088542Y-6710121D01*
X1096010Y-6693052D01*
X1101648Y-6675374D01*
X1105458Y-6657187D01*
X1107338Y-6638696D01*
X1107338Y-6620103D01*
X1105458Y-6601612D01*
X1101648Y-6583425D01*
X1096010Y-6565747D01*
X1088542Y-6548678D01*
X1079398Y-6532524D01*
X1068628Y-6517385D01*
X1061364Y-6509105D01*
X1059484Y-6506006D01*
X1058824Y-6502400D01*
X1059484Y-6498793D01*
X1061364Y-6495694D01*
X1068628Y-6487414D01*
X1079398Y-6472275D01*
X1088542Y-6456121D01*
X1096010Y-6439052D01*
X1101648Y-6421374D01*
X1105458Y-6403187D01*
X1107338Y-6384696D01*
X1107338Y-6366103D01*
X1105458Y-6347612D01*
X1101648Y-6329426D01*
X1096010Y-6311747D01*
X1088542Y-6294678D01*
X1079398Y-6278524D01*
X1068628Y-6263386D01*
X1061364Y-6255105D01*
X1059484Y-6252006D01*
X1058824Y-6248400D01*
X1059484Y-6244793D01*
X1061364Y-6241694D01*
X1068628Y-6233414D01*
X1079398Y-6218275D01*
X1088542Y-6202121D01*
X1096010Y-6185052D01*
X1101648Y-6167374D01*
X1105458Y-6149187D01*
X1107338Y-6130696D01*
X1107338Y-6112103D01*
X1106830Y-6107074D01*
X1107389Y-6102604D01*
X1109776Y-6098844D01*
X1478991Y-5729579D01*
X1482293Y-5727395D01*
X1486204Y-5726633D01*
X2140661Y-5726633D01*
X2143201Y-5726938D01*
X2145538Y-5727852D01*
X2153259Y-5732119D01*
X2167686Y-5737961D01*
X2182723Y-5742076D01*
X2198116Y-5744362D01*
X2213711Y-5744819D01*
X2229205Y-5743448D01*
X2244445Y-5740247D01*
X2259228Y-5735269D01*
X2273300Y-5728563D01*
X2286457Y-5720232D01*
X2298547Y-5710428D01*
X2309418Y-5699252D01*
X2318867Y-5686856D01*
X2326792Y-5673445D01*
X2333040Y-5659170D01*
X2337612Y-5644286D01*
X2340356Y-5628944D01*
X2341270Y-5613400D01*
X2341118Y-5610352D01*
X2341727Y-5606288D01*
X2343861Y-5602782D01*
X2347214Y-5600446D01*
X2351278Y-5599633D01*
X2514600Y-5599633D01*
X2518613Y-5600446D01*
X2521966Y-5602782D01*
X2524150Y-5606237D01*
X2524760Y-5610301D01*
X2524607Y-5613400D01*
X2525572Y-5631942D01*
X2528417Y-5650331D01*
X2533142Y-5668314D01*
X2539695Y-5685688D01*
X2548026Y-5702300D01*
X2557983Y-5717997D01*
X2569514Y-5732576D01*
X2572410Y-5736590D01*
X2573121Y-5740400D01*
X2572410Y-5744210D01*
X2569514Y-5748223D01*
X2557983Y-5762802D01*
X2548026Y-5778500D01*
X2539695Y-5795111D01*
X2533142Y-5812485D01*
X2530906Y-5821070D01*
X2658770Y-5821070D01*
X2658770Y-5800344D01*
X2659684Y-5796026D01*
X2662377Y-5792571D01*
X2666339Y-5790539D01*
X2670708Y-5790336D01*
X2681935Y-5792419D01*
X2700477Y-5793841D01*
X2719019Y-5793333D01*
X2742590Y-5790438D01*
X2746044Y-5791555D01*
X2748940Y-5793790D01*
X2750820Y-5796940D01*
X2751429Y-5800496D01*
X2751429Y-5821070D01*
X2879496Y-5821070D01*
X2874010Y-5803747D01*
X2866542Y-5786678D01*
X2857398Y-5770524D01*
X2846628Y-5755386D01*
X2839364Y-5747105D01*
X2837484Y-5744006D01*
X2836824Y-5740400D01*
X2837484Y-5736793D01*
X2839364Y-5733694D01*
X2846628Y-5725414D01*
X2857398Y-5710275D01*
X2866542Y-5694121D01*
X2874010Y-5677052D01*
X2879648Y-5659374D01*
X2883458Y-5641187D01*
X2885338Y-5622696D01*
X2885338Y-5609793D01*
X2886151Y-5605881D01*
X2888335Y-5602579D01*
X2891637Y-5600395D01*
X2895498Y-5599633D01*
X4054703Y-5599531D01*
X4065625Y-5598668D01*
X4068876Y-5598210D01*
X4079595Y-5596026D01*
X4082745Y-5595162D01*
X4093108Y-5591606D01*
X4096105Y-5590336D01*
X4108805Y-5583936D01*
X4117949Y-5577890D01*
X4120540Y-5575960D01*
X4128922Y-5568797D01*
X4298797Y-5398922D01*
X4305960Y-5390540D01*
X4307890Y-5387949D01*
X4313936Y-5378805D01*
X4320336Y-5366105D01*
X4321606Y-5363108D01*
X4325162Y-5352745D01*
X4326026Y-5349595D01*
X4328210Y-5338876D01*
X4328668Y-5335625D01*
X4329531Y-5324703D01*
X4329633Y-3726789D01*
X4329988Y-3724148D01*
X4331004Y-3721658D01*
X4333392Y-3717645D01*
X4339640Y-3703370D01*
X4344212Y-3688486D01*
X4346956Y-3673144D01*
X4347870Y-3657600D01*
X4346956Y-3642055D01*
X4344212Y-3626713D01*
X4339640Y-3611829D01*
X4333392Y-3597554D01*
X4325467Y-3584143D01*
X4316018Y-3571748D01*
X4305147Y-3560572D01*
X4293565Y-3551174D01*
X4290822Y-3547668D01*
X4289806Y-3543300D01*
X4290822Y-3538931D01*
X4293565Y-3535426D01*
X4305147Y-3526028D01*
X4316018Y-3514851D01*
X4325467Y-3502456D01*
X4333392Y-3489045D01*
X4339640Y-3474770D01*
X4344212Y-3459886D01*
X4346956Y-3444544D01*
X4347870Y-3429000D01*
X4346956Y-3413455D01*
X4344212Y-3398113D01*
X4342841Y-3393592D01*
X4342384Y-3390036D01*
X4343247Y-3386531D01*
X4345279Y-3383534D01*
X4353712Y-3374796D01*
X4363161Y-3362502D01*
X4371035Y-3349091D01*
X4377283Y-3334918D01*
X4381804Y-3320084D01*
X4384548Y-3304794D01*
X4385513Y-3289300D01*
X4384548Y-3273806D01*
X4381804Y-3258515D01*
X4377283Y-3243681D01*
X4371035Y-3229508D01*
X4363161Y-3216148D01*
X4353712Y-3203803D01*
X4342892Y-3192627D01*
X4330852Y-3182874D01*
X4317746Y-3174593D01*
X4303725Y-3167888D01*
X4289044Y-3162960D01*
X4273854Y-3159760D01*
X4258360Y-3158388D01*
X4242866Y-3158845D01*
X4227525Y-3161131D01*
X4212539Y-3165195D01*
X4198162Y-3171037D01*
X4191304Y-3174847D01*
X4188917Y-3175762D01*
X4186377Y-3176117D01*
X4051604Y-3176117D01*
X4047693Y-3175304D01*
X4044391Y-3173120D01*
X4001922Y-3130702D01*
X3993540Y-3123539D01*
X3990949Y-3121609D01*
X3981805Y-3115564D01*
X3969105Y-3109163D01*
X3966108Y-3107893D01*
X3955745Y-3104337D01*
X3952595Y-3103473D01*
X3941876Y-3101289D01*
X3938625Y-3100832D01*
X3927703Y-3099968D01*
X3819296Y-3099968D01*
X3808374Y-3100832D01*
X3805174Y-3101289D01*
X3794404Y-3103473D01*
X3791254Y-3104337D01*
X3780891Y-3107893D01*
X3777894Y-3109163D01*
X3765194Y-3115564D01*
X3756050Y-3121609D01*
X3753459Y-3123539D01*
X3745077Y-3130702D01*
X3664102Y-3211677D01*
X3656939Y-3220059D01*
X3655009Y-3222650D01*
X3648964Y-3231794D01*
X3642563Y-3244494D01*
X3641293Y-3247491D01*
X3637737Y-3257854D01*
X3636873Y-3261004D01*
X3634689Y-3271774D01*
X3634232Y-3274974D01*
X3633368Y-3285896D01*
X3633266Y-3322624D01*
X3633012Y-3325012D01*
X3632149Y-3327298D01*
X3626612Y-3338118D01*
X3621227Y-3352647D01*
X3617569Y-3367735D01*
X3615740Y-3383127D01*
X3615740Y-3398672D01*
X3617569Y-3414064D01*
X3621227Y-3429152D01*
X3626612Y-3443681D01*
X3633724Y-3457498D01*
X3642360Y-3470401D01*
X3652520Y-3482136D01*
X3663950Y-3492601D01*
X3676599Y-3501644D01*
X3690162Y-3509162D01*
X3704539Y-3515004D01*
X3719525Y-3519068D01*
X3734866Y-3521354D01*
X3737711Y-3521456D01*
X3741521Y-3522319D01*
X3744722Y-3524554D01*
X3746855Y-3527806D01*
X3747566Y-3531615D01*
X3747566Y-4292295D01*
X3746804Y-4296206D01*
X3744620Y-4299508D01*
X3181908Y-4862220D01*
X3178606Y-4864404D01*
X3174695Y-4865217D01*
X2896260Y-4865217D01*
X2892348Y-4864404D01*
X2889046Y-4862220D01*
X2886862Y-4858918D01*
X2886100Y-4855057D01*
X2886100Y-4842510D01*
X2884170Y-4824018D01*
X2880360Y-4805832D01*
X2874721Y-4788103D01*
X2867304Y-4771085D01*
X2858109Y-4754930D01*
X2847390Y-4739741D01*
X2839567Y-4730902D01*
X2837688Y-4727752D01*
X2837027Y-4724196D01*
X2837688Y-4720590D01*
X2839567Y-4717440D01*
X2846628Y-4709414D01*
X2857398Y-4694275D01*
X2866542Y-4678121D01*
X2874010Y-4661052D01*
X2879496Y-4643729D01*
X2751429Y-4643729D01*
X2751429Y-4664506D01*
X2750820Y-4668062D01*
X2748940Y-4671212D01*
X2746044Y-4673447D01*
X2742590Y-4674565D01*
X2738170Y-4674209D01*
X2719781Y-4671822D01*
X2701188Y-4671364D01*
X2682646Y-4672787D01*
X2670708Y-4674971D01*
X2666339Y-4674768D01*
X2662377Y-4672736D01*
X2659684Y-4669282D01*
X2658770Y-4664964D01*
X2658770Y-4643729D01*
X2530906Y-4643729D01*
X2533142Y-4652314D01*
X2539695Y-4669688D01*
X2548026Y-4686300D01*
X2557983Y-4701997D01*
X2572867Y-4720996D01*
X2573680Y-4724603D01*
X2573121Y-4728260D01*
X2571292Y-4731512D01*
X2568549Y-4734814D01*
X2565044Y-4737455D01*
X2560777Y-4738420D01*
X1460804Y-4738217D01*
X1456944Y-4737404D01*
X1453642Y-4735220D01*
X1322679Y-4604308D01*
X1320495Y-4601006D01*
X1319733Y-4597095D01*
X1319733Y-4248099D01*
X1320647Y-4243832D01*
X1323289Y-4240377D01*
X1327150Y-4238294D01*
X1331468Y-4238091D01*
X1335532Y-4239666D01*
X1342186Y-4244136D01*
X1358595Y-4252874D01*
X1375816Y-4259884D01*
X1388770Y-4263644D01*
X1388770Y-4135729D01*
X1329893Y-4135729D01*
X1325981Y-4134967D01*
X1322679Y-4132783D01*
X1320495Y-4129481D01*
X1319733Y-4125569D01*
X1319733Y-4053230D01*
X1320495Y-4049318D01*
X1322679Y-4046016D01*
X1325981Y-4043832D01*
X1329893Y-4043070D01*
X1388770Y-4043070D01*
X1388770Y-3915156D01*
X1375816Y-3918915D01*
X1358595Y-3925925D01*
X1342186Y-3934663D01*
X1335532Y-3939133D01*
X1331468Y-3940708D01*
X1327150Y-3940505D01*
X1323289Y-3938422D01*
X1320647Y-3934968D01*
X1319733Y-3930700D01*
X1319631Y-3616096D01*
X1318768Y-3605174D01*
X1318310Y-3601974D01*
X1316126Y-3591204D01*
X1315262Y-3588054D01*
X1311706Y-3577691D01*
X1310436Y-3574694D01*
X1304036Y-3561994D01*
X1297990Y-3552850D01*
X1296060Y-3550259D01*
X1288897Y-3541877D01*
X864666Y-3117596D01*
X862482Y-3114294D01*
X861720Y-3110433D01*
X862482Y-3106521D01*
X864666Y-3103219D01*
X867968Y-3101035D01*
X871880Y-3100273D01*
X967384Y-3100273D01*
X980846Y-3099358D01*
X993749Y-3096818D01*
X1006195Y-3092602D01*
X1011529Y-3089960D01*
X1014476Y-3089046D01*
X1017524Y-3089046D01*
X1020470Y-3089960D01*
X1025804Y-3092602D01*
X1038250Y-3096818D01*
X1051153Y-3099358D01*
X1064615Y-3100273D01*
X1221384Y-3100273D01*
X1234846Y-3099358D01*
X1247749Y-3096818D01*
X1260195Y-3092602D01*
X1265529Y-3089960D01*
X1268476Y-3089046D01*
X1271524Y-3089046D01*
X1274470Y-3089960D01*
X1279804Y-3092602D01*
X1292250Y-3096818D01*
X1305153Y-3099358D01*
X1318615Y-3100273D01*
X1475384Y-3100273D01*
X1488846Y-3099358D01*
X1501749Y-3096818D01*
X1514195Y-3092602D01*
X1519529Y-3089960D01*
X1522476Y-3089046D01*
X1525524Y-3089046D01*
X1528470Y-3089960D01*
X1533804Y-3092602D01*
X1546250Y-3096818D01*
X1559153Y-3099358D01*
X1572615Y-3100273D01*
X1729384Y-3100273D01*
X1742846Y-3099358D01*
X1755749Y-3096818D01*
X1768195Y-3092602D01*
X1773529Y-3089960D01*
X1776475Y-3089046D01*
X1779524Y-3089046D01*
X1782470Y-3089960D01*
X1787804Y-3092602D01*
X1800250Y-3096818D01*
X1813153Y-3099358D01*
X1826615Y-3100273D01*
X1983384Y-3100273D01*
X1996846Y-3099358D01*
X2009749Y-3096818D01*
X2022195Y-3092602D01*
X2027529Y-3089960D01*
X2030475Y-3089046D01*
X2033524Y-3089046D01*
X2036470Y-3089960D01*
X2041804Y-3092602D01*
X2054250Y-3096818D01*
X2067153Y-3099358D01*
X2080615Y-3100273D01*
X2237384Y-3100273D01*
X2250846Y-3099358D01*
X2263749Y-3096818D01*
X2276195Y-3092602D01*
X2281529Y-3089960D01*
X2284476Y-3089046D01*
X2287524Y-3089046D01*
X2290470Y-3089960D01*
X2295804Y-3092602D01*
X2308250Y-3096818D01*
X2321153Y-3099358D01*
X2334615Y-3100273D01*
X2491384Y-3100273D01*
X2504846Y-3099358D01*
X2517749Y-3096818D01*
X2530195Y-3092602D01*
X2535529Y-3089960D01*
X2538476Y-3089046D01*
X2541524Y-3089046D01*
X2544470Y-3089960D01*
X2549804Y-3092602D01*
X2562250Y-3096818D01*
X2575153Y-3099358D01*
X2588615Y-3100273D01*
X2745384Y-3100273D01*
X2758846Y-3099358D01*
X2771749Y-3096818D01*
X2784195Y-3092602D01*
X2795981Y-3086760D01*
X2806903Y-3079445D01*
X2816809Y-3070809D01*
X2825445Y-3060903D01*
X2832760Y-3049981D01*
X2838602Y-3038195D01*
X2842818Y-3025749D01*
X2845358Y-3012846D01*
X2846273Y-2999384D01*
X2846273Y-2842615D01*
X2845358Y-2829153D01*
X2842818Y-2816250D01*
X2838602Y-2803804D01*
X2832760Y-2792018D01*
X2825445Y-2781096D01*
X2819552Y-2774340D01*
X2817469Y-2770682D01*
X2817114Y-2766415D01*
X2818485Y-2762402D01*
X2825191Y-2751226D01*
X2833014Y-2734513D01*
X2839110Y-2717088D01*
X2843326Y-2699156D01*
X2845714Y-2680817D01*
X2846171Y-2662377D01*
X2844749Y-2643987D01*
X2841447Y-2625852D01*
X2836265Y-2608122D01*
X2829356Y-2591003D01*
X2820670Y-2574747D01*
X2810357Y-2559405D01*
X2799486Y-2546400D01*
X2797708Y-2543251D01*
X2797149Y-2539644D01*
X2797911Y-2536088D01*
X2799842Y-2532989D01*
X2804617Y-2527808D01*
X2815691Y-2513076D01*
X2825191Y-2497226D01*
X2833014Y-2480513D01*
X2839110Y-2463088D01*
X2840126Y-2458720D01*
X2712720Y-2458720D01*
X2712720Y-2481122D01*
X2711805Y-2485339D01*
X2709164Y-2488793D01*
X2705354Y-2490876D01*
X2700985Y-2491130D01*
X2685440Y-2488692D01*
X2667000Y-2487777D01*
X2648559Y-2488692D01*
X2633014Y-2491130D01*
X2628646Y-2490876D01*
X2624836Y-2488793D01*
X2622194Y-2485339D01*
X2621280Y-2481122D01*
X2621280Y-2458720D01*
X2458720Y-2458720D01*
X2458720Y-2481122D01*
X2457805Y-2485339D01*
X2455164Y-2488793D01*
X2451354Y-2490876D01*
X2446985Y-2491130D01*
X2431440Y-2488692D01*
X2413000Y-2487777D01*
X2394559Y-2488692D01*
X2379014Y-2491130D01*
X2374646Y-2490876D01*
X2370836Y-2488793D01*
X2368194Y-2485339D01*
X2367280Y-2481122D01*
X2367280Y-2458720D01*
X2204720Y-2458720D01*
X2204720Y-2481122D01*
X2203805Y-2485339D01*
X2201164Y-2488793D01*
X2197354Y-2490876D01*
X2192985Y-2491130D01*
X2177440Y-2488692D01*
X2159000Y-2487777D01*
X2140559Y-2488692D01*
X2125014Y-2491130D01*
X2120646Y-2490876D01*
X2116836Y-2488793D01*
X2114194Y-2485339D01*
X2113280Y-2481122D01*
X2113280Y-2458720D01*
X1950720Y-2458720D01*
X1950720Y-2481122D01*
X1949805Y-2485339D01*
X1947164Y-2488793D01*
X1943354Y-2490876D01*
X1938985Y-2491130D01*
X1923440Y-2488692D01*
X1905000Y-2487777D01*
X1886559Y-2488692D01*
X1871014Y-2491130D01*
X1866646Y-2490876D01*
X1862836Y-2488793D01*
X1860194Y-2485339D01*
X1859280Y-2481122D01*
X1859280Y-2458720D01*
X1696720Y-2458720D01*
X1696720Y-2481122D01*
X1695805Y-2485339D01*
X1693164Y-2488793D01*
X1689354Y-2490876D01*
X1684985Y-2491130D01*
X1669440Y-2488692D01*
X1651000Y-2487777D01*
X1632559Y-2488692D01*
X1617014Y-2491130D01*
X1612646Y-2490876D01*
X1608836Y-2488793D01*
X1606194Y-2485339D01*
X1605280Y-2481122D01*
X1605280Y-2458720D01*
X1442720Y-2458720D01*
X1442720Y-2481122D01*
X1441805Y-2485339D01*
X1439164Y-2488793D01*
X1435354Y-2490876D01*
X1430985Y-2491130D01*
X1415440Y-2488692D01*
X1397000Y-2487777D01*
X1378559Y-2488692D01*
X1363014Y-2491130D01*
X1358646Y-2490876D01*
X1354836Y-2488793D01*
X1352194Y-2485339D01*
X1351280Y-2481122D01*
X1351280Y-2458720D01*
X1188720Y-2458720D01*
X1188720Y-2481122D01*
X1187805Y-2485339D01*
X1185164Y-2488793D01*
X1181354Y-2490876D01*
X1176985Y-2491130D01*
X1161440Y-2488692D01*
X1143000Y-2487777D01*
X1124559Y-2488692D01*
X1109014Y-2491130D01*
X1104646Y-2490876D01*
X1100836Y-2488793D01*
X1098194Y-2485339D01*
X1097280Y-2481122D01*
X1097280Y-2458720D01*
X934719Y-2458720D01*
X934719Y-2481122D01*
X933805Y-2485339D01*
X931164Y-2488793D01*
X927353Y-2490876D01*
X922985Y-2491130D01*
X907440Y-2488692D01*
X889000Y-2487777D01*
X870559Y-2488692D01*
X855014Y-2491130D01*
X850646Y-2490876D01*
X846836Y-2488793D01*
X844194Y-2485339D01*
X843280Y-2481122D01*
X843280Y-2458720D01*
X796493Y-2458720D01*
X792581Y-2457958D01*
X789279Y-2455722D01*
X787095Y-2452471D01*
X786333Y-2448560D01*
X786333Y-2377440D01*
X787095Y-2373528D01*
X789279Y-2370277D01*
X792581Y-2368042D01*
X796493Y-2367280D01*
X843280Y-2367280D01*
X843280Y-2239924D01*
X834491Y-2242261D01*
X817219Y-2248763D01*
X801014Y-2256891D01*
X797052Y-2257907D01*
X792988Y-2257348D01*
X789482Y-2255164D01*
X787146Y-2251811D01*
X786333Y-2247798D01*
X786333Y-1803704D01*
X787095Y-1799793D01*
X789279Y-1796491D01*
X1898091Y-687679D01*
X1901393Y-685495D01*
X1905304Y-684733D01*
X1959203Y-684631D01*
X1970125Y-683768D01*
X1973376Y-683310D01*
X1984095Y-681126D01*
X1987245Y-680262D01*
X1997608Y-676706D01*
X2000605Y-675436D01*
X2013305Y-669036D01*
X2022449Y-662990D01*
X2025040Y-661060D01*
X2033422Y-653897D01*
X2094992Y-592378D01*
X2097989Y-590346D01*
X2101443Y-589432D01*
X2105050Y-589838D01*
X2113280Y-592226D01*
X2113280Y-578002D01*
X2113889Y-574446D01*
X2115718Y-571398D01*
X2121560Y-564540D01*
X2123490Y-561949D01*
X2129536Y-552805D01*
X2135936Y-540105D01*
X2137206Y-537108D01*
X2140762Y-526745D01*
X2141626Y-523595D01*
X2143810Y-512876D01*
X2144268Y-509625D01*
X2145131Y-498703D01*
X2145131Y-275996D01*
X2144268Y-265074D01*
X2143810Y-261874D01*
X2141626Y-251104D01*
X2140762Y-247954D01*
X2137206Y-237591D01*
X2135936Y-234594D01*
X2129536Y-221894D01*
X2123490Y-212750D01*
X2121560Y-210159D01*
X2114397Y-201777D01*
X2046122Y-133502D01*
X2037740Y-126339D01*
X2035149Y-124409D01*
X2026005Y-118364D01*
X2013305Y-111963D01*
X2010308Y-110693D01*
X1999945Y-107137D01*
X1996795Y-106273D01*
X1986076Y-104089D01*
X1982825Y-103632D01*
X1971903Y-102768D01*
X1698396Y-102768D01*
X1687474Y-103632D01*
X1684274Y-104089D01*
X1673504Y-106273D01*
X1670354Y-107137D01*
X1659991Y-110693D01*
X1656994Y-111963D01*
X1644294Y-118364D01*
X1635150Y-124409D01*
X1632559Y-126339D01*
X1624177Y-133502D01*
X1568602Y-189077D01*
X1561439Y-197459D01*
X1559509Y-200050D01*
X1553464Y-209194D01*
X1547063Y-221894D01*
X1545793Y-224891D01*
X1542237Y-235254D01*
X1541373Y-238404D01*
X1539189Y-249174D01*
X1538732Y-252374D01*
X1537868Y-263245D01*
X1537817Y-275742D01*
X1536801Y-280009D01*
X1534160Y-283464D01*
X1529232Y-287578D01*
X1516380Y-300786D01*
X1504899Y-315264D01*
X1494993Y-330809D01*
X1486763Y-347319D01*
X1480261Y-364591D01*
X1475536Y-382422D01*
X1472692Y-400659D01*
X1471777Y-419100D01*
X1472692Y-437540D01*
X1475536Y-455777D01*
X1480261Y-473608D01*
X1486763Y-490880D01*
X1494993Y-507390D01*
X1504899Y-522935D01*
X1516380Y-537413D01*
X1529232Y-550621D01*
X1543405Y-562457D01*
X1558747Y-572770D01*
X1567840Y-577596D01*
X1570786Y-579983D01*
X1572666Y-583234D01*
X1573225Y-586943D01*
X1572361Y-590651D01*
X1570228Y-593750D01*
X527202Y-1636877D01*
X520039Y-1645259D01*
X518109Y-1647850D01*
X512064Y-1656994D01*
X505663Y-1669694D01*
X504393Y-1672691D01*
X500837Y-1683054D01*
X499973Y-1686204D01*
X497789Y-1696974D01*
X497332Y-1700174D01*
X496468Y-1711096D01*
X496468Y-3102203D01*
X497332Y-3113125D01*
X497789Y-3116376D01*
X499973Y-3127095D01*
X500837Y-3130245D01*
X504393Y-3140608D01*
X505663Y-3143605D01*
X512064Y-3156305D01*
X518109Y-3165449D01*
X520039Y-3168040D01*
X527202Y-3176422D01*
X1039520Y-3688791D01*
X1041704Y-3692093D01*
X1042517Y-3696004D01*
X1042517Y-3930497D01*
X1041603Y-3934663D01*
X1039063Y-3938066D01*
X1035354Y-3940200D01*
X1031138Y-3940556D01*
X1027125Y-3939184D01*
X1011936Y-3930091D01*
X995121Y-3922217D01*
X977544Y-3916121D01*
X959459Y-3911854D01*
X941019Y-3909466D01*
X922477Y-3908958D01*
X903935Y-3910380D01*
X885647Y-3913733D01*
X867816Y-3918915D01*
X850595Y-3925925D01*
X834186Y-3934663D01*
X818743Y-3945026D01*
X804519Y-3956913D01*
X791514Y-3970223D01*
X779983Y-3984802D01*
X770026Y-4000500D01*
X761695Y-4017111D01*
X755142Y-4034485D01*
X750417Y-4052468D01*
X747572Y-4070858D01*
X746607Y-4089400D01*
X747572Y-4107942D01*
X750417Y-4126331D01*
X755142Y-4144314D01*
X761695Y-4161688D01*
X770026Y-4178300D01*
X779983Y-4193997D01*
X791514Y-4208576D01*
X794410Y-4212590D01*
X795121Y-4216400D01*
X794410Y-4220210D01*
X791514Y-4224223D01*
X779983Y-4238802D01*
X770026Y-4254500D01*
X761695Y-4271111D01*
X755142Y-4288485D01*
X750417Y-4306468D01*
X747572Y-4324858D01*
X746607Y-4343400D01*
X747572Y-4361942D01*
X750417Y-4380331D01*
X755142Y-4398314D01*
X761695Y-4415688D01*
X770026Y-4432300D01*
X779983Y-4447997D01*
X789889Y-4460494D01*
X791870Y-4464558D01*
X791870Y-4469079D01*
X789889Y-4473143D01*
X779983Y-4485640D01*
X770026Y-4501337D01*
X761695Y-4517948D01*
X755142Y-4535322D01*
X752906Y-4543907D01*
X880770Y-4543907D01*
X880770Y-4530344D01*
X881684Y-4526026D01*
X884377Y-4522571D01*
X888339Y-4520539D01*
X892708Y-4520336D01*
X903935Y-4522419D01*
X922477Y-4523841D01*
X941019Y-4523333D01*
X964590Y-4520438D01*
X968044Y-4521555D01*
X970940Y-4523790D01*
X972819Y-4526940D01*
X973429Y-4530496D01*
X973429Y-4543907D01*
X1032357Y-4543907D01*
X1036218Y-4544669D01*
X1039520Y-4546854D01*
X1041704Y-4550156D01*
X1042517Y-4554067D01*
X1042517Y-4626406D01*
X1041704Y-4630318D01*
X1039520Y-4633620D01*
X1036218Y-4635804D01*
X1032357Y-4636566D01*
X973429Y-4636566D01*
X973429Y-4664303D01*
X972819Y-4667859D01*
X970940Y-4671009D01*
X968044Y-4673244D01*
X964590Y-4674362D01*
X941019Y-4671466D01*
X922477Y-4670958D01*
X903935Y-4672380D01*
X892708Y-4674463D01*
X888339Y-4674260D01*
X884377Y-4672228D01*
X881684Y-4668774D01*
X880770Y-4664456D01*
X880770Y-4636566D01*
X752906Y-4636566D01*
X755142Y-4645152D01*
X761695Y-4662525D01*
X770026Y-4679137D01*
X779983Y-4694834D01*
X791514Y-4709414D01*
X795731Y-4713732D01*
X797864Y-4716983D01*
X798626Y-4720844D01*
X797864Y-4724654D01*
X795731Y-4727905D01*
X791514Y-4732223D01*
X779983Y-4746802D01*
X770026Y-4762500D01*
X761695Y-4779111D01*
X755142Y-4796485D01*
X750417Y-4814468D01*
X747572Y-4832858D01*
X746607Y-4851400D01*
X747572Y-4869942D01*
X750417Y-4888331D01*
X755142Y-4906314D01*
X761695Y-4923688D01*
X770026Y-4940300D01*
X779983Y-4955997D01*
X791514Y-4970576D01*
X794410Y-4974590D01*
X795121Y-4978400D01*
X794410Y-4982210D01*
X791514Y-4986223D01*
X779983Y-5000802D01*
X770026Y-5016500D01*
X761695Y-5033111D01*
X755142Y-5050485D01*
X750417Y-5068468D01*
X747572Y-5086858D01*
X746607Y-5105400D01*
X747572Y-5123942D01*
X750417Y-5142331D01*
X755142Y-5160314D01*
X761695Y-5177688D01*
X770026Y-5194300D01*
X779983Y-5209997D01*
X791514Y-5224576D01*
X794410Y-5228590D01*
X795121Y-5232400D01*
X794410Y-5236210D01*
X791514Y-5240223D01*
X779983Y-5254802D01*
X770026Y-5270500D01*
X761695Y-5287111D01*
X755142Y-5304485D01*
X750417Y-5322468D01*
X747572Y-5340858D01*
X746607Y-5359400D01*
X747572Y-5377942D01*
X750417Y-5396331D01*
X755142Y-5414314D01*
X761695Y-5431688D01*
X770026Y-5448300D01*
X779983Y-5463997D01*
X791514Y-5478576D01*
X794410Y-5482590D01*
X795121Y-5486400D01*
X794410Y-5490210D01*
X791514Y-5494223D01*
X779983Y-5508802D01*
X770026Y-5524500D01*
X761695Y-5541111D01*
X755142Y-5558485D01*
X750417Y-5576468D01*
X747572Y-5594858D01*
X746607Y-5613400D01*
X747572Y-5631942D01*
X750417Y-5650331D01*
X755142Y-5668314D01*
X761695Y-5685688D01*
X770026Y-5702300D01*
X779983Y-5717997D01*
X791514Y-5732576D01*
X794410Y-5736590D01*
X795121Y-5740400D01*
X794410Y-5744210D01*
X791514Y-5748223D01*
X779983Y-5762802D01*
X770026Y-5778500D01*
X761695Y-5795111D01*
X755142Y-5812485D01*
X752906Y-5821070D01*
X880770Y-5821070D01*
X880770Y-5800344D01*
X881684Y-5796026D01*
X884377Y-5792571D01*
X888339Y-5790539D01*
X892708Y-5790336D01*
X903935Y-5792419D01*
X922477Y-5793841D01*
X941019Y-5793333D01*
X964590Y-5790438D01*
X968044Y-5791555D01*
X970940Y-5793790D01*
X972819Y-5796940D01*
X973429Y-5800496D01*
X973429Y-5821070D01*
X1042822Y-5821070D01*
X1046734Y-5821832D01*
X1049985Y-5824016D01*
X1052220Y-5827318D01*
X1052982Y-5831230D01*
X1052220Y-5835091D01*
X1049985Y-5838393D01*
X977646Y-5910783D01*
X975512Y-5912358D01*
X973074Y-5913374D01*
X972058Y-5915812D01*
X970483Y-5917946D01*
X949807Y-5938570D01*
X947318Y-5940399D01*
X944422Y-5941415D01*
X922477Y-5940958D01*
X903935Y-5942380D01*
X892708Y-5944463D01*
X888339Y-5944260D01*
X884377Y-5942228D01*
X881684Y-5938774D01*
X880770Y-5934456D01*
X880770Y-5913729D01*
X752906Y-5913729D01*
X755142Y-5922314D01*
X761695Y-5939688D01*
X770026Y-5956300D01*
X779983Y-5971997D01*
X791514Y-5986576D01*
X794410Y-5990590D01*
X795121Y-5994400D01*
X794410Y-5998210D01*
X791514Y-6002223D01*
X779983Y-6016802D01*
X770026Y-6032500D01*
X761695Y-6049111D01*
X755142Y-6066485D01*
X750417Y-6084468D01*
X747572Y-6102858D01*
X746607Y-6121400D01*
X747572Y-6139942D01*
X750417Y-6158331D01*
X755142Y-6176314D01*
X761695Y-6193688D01*
X770026Y-6210300D01*
X779983Y-6225997D01*
X791514Y-6240576D01*
X794410Y-6244590D01*
X795121Y-6248400D01*
X794410Y-6252210D01*
X791514Y-6256223D01*
X779983Y-6270802D01*
X770026Y-6286500D01*
X761695Y-6303111D01*
X755142Y-6320485D01*
X750417Y-6338468D01*
X747572Y-6356858D01*
X746607Y-6375400D01*
X747572Y-6393942D01*
X750417Y-6412331D01*
X755142Y-6430314D01*
X761695Y-6447688D01*
X770026Y-6464300D01*
X779983Y-6479997D01*
X791514Y-6494576D01*
X794410Y-6498590D01*
X795121Y-6502400D01*
X794410Y-6506209D01*
X791514Y-6510223D01*
X779983Y-6524802D01*
X770026Y-6540500D01*
X761695Y-6557111D01*
X755142Y-6574485D01*
X750417Y-6592468D01*
X747572Y-6610858D01*
X746607Y-6629400D01*
X747572Y-6647942D01*
X750417Y-6666331D01*
X755142Y-6684314D01*
X761695Y-6701688D01*
X770026Y-6718300D01*
X779983Y-6733997D01*
X791514Y-6748576D01*
X794410Y-6752590D01*
X795121Y-6756400D01*
X794410Y-6760209D01*
X791514Y-6764223D01*
X779983Y-6778802D01*
X770026Y-6794500D01*
X761695Y-6811111D01*
X755142Y-6828485D01*
X750417Y-6846468D01*
X747572Y-6864858D01*
X746607Y-6883400D01*
X747572Y-6901942D01*
X750417Y-6920331D01*
X755142Y-6938314D01*
X761695Y-6955688D01*
X770026Y-6972300D01*
X779983Y-6987997D01*
X791514Y-7002576D01*
X794410Y-7006590D01*
X795121Y-7010400D01*
X794410Y-7014209D01*
X791514Y-7018223D01*
X779983Y-7032802D01*
X770026Y-7048500D01*
X761695Y-7065111D01*
X755142Y-7082485D01*
G37*
G36*
X9741255Y-6831533D02*
G01*
X10680344Y-6831533D01*
X10693806Y-6830618D01*
X10706709Y-6828078D01*
X10719155Y-6823862D01*
X10730941Y-6818020D01*
X10741863Y-6810705D01*
X10751769Y-6802069D01*
X10760405Y-6792163D01*
X10767720Y-6781241D01*
X10773562Y-6769455D01*
X10777778Y-6757009D01*
X10780318Y-6744106D01*
X10781233Y-6730644D01*
X10781233Y-5689955D01*
X10780318Y-5676493D01*
X10777778Y-5663590D01*
X10773562Y-5651144D01*
X10767720Y-5639358D01*
X10760405Y-5628436D01*
X10751769Y-5618530D01*
X10741863Y-5609894D01*
X10730941Y-5602579D01*
X10719155Y-5596788D01*
X10706709Y-5592521D01*
X10693806Y-5589981D01*
X10680344Y-5589117D01*
X9741255Y-5589117D01*
X9727793Y-5589981D01*
X9714890Y-5592521D01*
X9702444Y-5596788D01*
X9690658Y-5602579D01*
X9679736Y-5609894D01*
X9669830Y-5618530D01*
X9661194Y-5628436D01*
X9653879Y-5639358D01*
X9648088Y-5651144D01*
X9643821Y-5663590D01*
X9641281Y-5676493D01*
X9640417Y-5689955D01*
X9640417Y-6730644D01*
X9641281Y-6744106D01*
X9643821Y-6757009D01*
X9648088Y-6769455D01*
X9653879Y-6781241D01*
X9661194Y-6792163D01*
X9669830Y-6802069D01*
X9679736Y-6810705D01*
X9690658Y-6818020D01*
X9702444Y-6823862D01*
X9714890Y-6828078D01*
X9727793Y-6830618D01*
G37*
G36*
X9048343Y-5709666D02*
G01*
X9050477Y-5709310D01*
X9066682Y-5704636D01*
X9076588Y-5700522D01*
X9080500Y-5699760D01*
X9084411Y-5700522D01*
X9094317Y-5704636D01*
X9110522Y-5709310D01*
X9112656Y-5709666D01*
X9112656Y-5593943D01*
X9048343Y-5593943D01*
G37*
G36*
X9175343Y-5709666D02*
G01*
X9177477Y-5709310D01*
X9193682Y-5704636D01*
X9203588Y-5700522D01*
X9207500Y-5699760D01*
X9211411Y-5700522D01*
X9221317Y-5704636D01*
X9237522Y-5709310D01*
X9239656Y-5709666D01*
X9239656Y-5593943D01*
X9175343Y-5593943D01*
G37*
G36*
X9302343Y-5709666D02*
G01*
X9304477Y-5709310D01*
X9320682Y-5704636D01*
X9336278Y-5698185D01*
X9351060Y-5690006D01*
X9364827Y-5680252D01*
X9377426Y-5669026D01*
X9388652Y-5656427D01*
X9398406Y-5642660D01*
X9406585Y-5627878D01*
X9413036Y-5612282D01*
X9417710Y-5596077D01*
X9418066Y-5593943D01*
X9302343Y-5593943D01*
G37*
G36*
X8985656Y-5709666D02*
G01*
X8985656Y-5593943D01*
X8869934Y-5593943D01*
X8870289Y-5596077D01*
X8874963Y-5612282D01*
X8881414Y-5627878D01*
X8889593Y-5642660D01*
X8899347Y-5656427D01*
X8910574Y-5669026D01*
X8923172Y-5680252D01*
X8936939Y-5690006D01*
X8951722Y-5698185D01*
X8967317Y-5704636D01*
X8983522Y-5709310D01*
G37*
G36*
X11900916Y-5571032D02*
G01*
X12000484Y-5571032D01*
X12024868Y-5570016D01*
X12048896Y-5567121D01*
X12072620Y-5562244D01*
X12095835Y-5555538D01*
X12118492Y-5546953D01*
X12140336Y-5536590D01*
X12161316Y-5524500D01*
X12181230Y-5510733D01*
X12199975Y-5495442D01*
X12217400Y-5478678D01*
X12233452Y-5460542D01*
X12247981Y-5441188D01*
X12260935Y-5420766D01*
X12272162Y-5399328D01*
X12281662Y-5377078D01*
X12289332Y-5354116D01*
X12295124Y-5330596D01*
X12298984Y-5306720D01*
X12300966Y-5282590D01*
X12300966Y-5258409D01*
X12298984Y-5234279D01*
X12295124Y-5210403D01*
X12289332Y-5186883D01*
X12281662Y-5163921D01*
X12272162Y-5141671D01*
X12260935Y-5120233D01*
X12247981Y-5099812D01*
X12233452Y-5080457D01*
X12217400Y-5062321D01*
X12199975Y-5045557D01*
X12181230Y-5030266D01*
X12161316Y-5016500D01*
X12140336Y-5004409D01*
X12118492Y-4994046D01*
X12095835Y-4985461D01*
X12072620Y-4978755D01*
X12048896Y-4973878D01*
X12024868Y-4970983D01*
X12000484Y-4970018D01*
X11900916Y-4970018D01*
X11876532Y-4970983D01*
X11852503Y-4973878D01*
X11828780Y-4978755D01*
X11805564Y-4985461D01*
X11782907Y-4994046D01*
X11761063Y-5004409D01*
X11740083Y-5016500D01*
X11720169Y-5030266D01*
X11701424Y-5045557D01*
X11684000Y-5062321D01*
X11667947Y-5080457D01*
X11653418Y-5099812D01*
X11640464Y-5120233D01*
X11629237Y-5141671D01*
X11619738Y-5163921D01*
X11612067Y-5186883D01*
X11606276Y-5210403D01*
X11602415Y-5234279D01*
X11600434Y-5258409D01*
X11600434Y-5282590D01*
X11602415Y-5306720D01*
X11606276Y-5330596D01*
X11612067Y-5354116D01*
X11619738Y-5377078D01*
X11629237Y-5399328D01*
X11640464Y-5420766D01*
X11653418Y-5441188D01*
X11667947Y-5460542D01*
X11684000Y-5478678D01*
X11701424Y-5495442D01*
X11720169Y-5510733D01*
X11740083Y-5524500D01*
X11761063Y-5536590D01*
X11782907Y-5546953D01*
X11805564Y-5555538D01*
X11828780Y-5562244D01*
X11852503Y-5567121D01*
X11876532Y-5570016D01*
G37*
G36*
X9048343Y-5531256D02*
G01*
X9112656Y-5531256D01*
X9112656Y-5415534D01*
X9110522Y-5415889D01*
X9094317Y-5420563D01*
X9084411Y-5424678D01*
X9080500Y-5425440D01*
X9076588Y-5424678D01*
X9066682Y-5420563D01*
X9050477Y-5415889D01*
X9048343Y-5415534D01*
G37*
G36*
X9175343Y-5531256D02*
G01*
X9239656Y-5531256D01*
X9239656Y-5415534D01*
X9237522Y-5415889D01*
X9221317Y-5420563D01*
X9211411Y-5424678D01*
X9207500Y-5425440D01*
X9203588Y-5424678D01*
X9193682Y-5420563D01*
X9177477Y-5415889D01*
X9175343Y-5415534D01*
G37*
G36*
X9302343Y-5531256D02*
G01*
X9418066Y-5531256D01*
X9417710Y-5529122D01*
X9413036Y-5512917D01*
X9406585Y-5497322D01*
X9398406Y-5482539D01*
X9388652Y-5468772D01*
X9377426Y-5456174D01*
X9364827Y-5444947D01*
X9351060Y-5435193D01*
X9336278Y-5427014D01*
X9320682Y-5420563D01*
X9304477Y-5415889D01*
X9302343Y-5415534D01*
G37*
G36*
X8869934Y-5531256D02*
G01*
X8985656Y-5531256D01*
X8985656Y-5415534D01*
X8983522Y-5415889D01*
X8967317Y-5420563D01*
X8951722Y-5427014D01*
X8936939Y-5435193D01*
X8923172Y-5444947D01*
X8910574Y-5456174D01*
X8899347Y-5468772D01*
X8889593Y-5482539D01*
X8881414Y-5497322D01*
X8874963Y-5512917D01*
X8870289Y-5529122D01*
G37*
G36*
X10165588Y-5251551D02*
G01*
X10187990Y-5250078D01*
X10210139Y-5246725D01*
X10231932Y-5241493D01*
X10253167Y-5234381D01*
X10273741Y-5225440D01*
X10293451Y-5214823D01*
X10312196Y-5202529D01*
X10329824Y-5188661D01*
X10346182Y-5173319D01*
X10361168Y-5156606D01*
X10374630Y-5138724D01*
X10386517Y-5119725D01*
X10396728Y-5099761D01*
X10405211Y-5079034D01*
X10411866Y-5057597D01*
X10416641Y-5035702D01*
X10419537Y-5013502D01*
X10420502Y-4991100D01*
X10419537Y-4968697D01*
X10416641Y-4946497D01*
X10411866Y-4924602D01*
X10405211Y-4903165D01*
X10396728Y-4882438D01*
X10386517Y-4862474D01*
X10374630Y-4843475D01*
X10361168Y-4825593D01*
X10346182Y-4808880D01*
X10329824Y-4793538D01*
X10312196Y-4779670D01*
X10293451Y-4767376D01*
X10273741Y-4756759D01*
X10253167Y-4747818D01*
X10231932Y-4740706D01*
X10210139Y-4735474D01*
X10187990Y-4732121D01*
X10165588Y-4730648D01*
X10143185Y-4731156D01*
X10120934Y-4733544D01*
X10098938Y-4737862D01*
X10077348Y-4744059D01*
X10056418Y-4752086D01*
X10036251Y-4761839D01*
X10017048Y-4773320D01*
X9998862Y-4786426D01*
X9981844Y-4801057D01*
X9966147Y-4817059D01*
X9951923Y-4834382D01*
X9939223Y-4852822D01*
X9928148Y-4872329D01*
X9918801Y-4892700D01*
X9911232Y-4913782D01*
X9905492Y-4935474D01*
X9901682Y-4957572D01*
X9899751Y-4979873D01*
X9899751Y-5002326D01*
X9901682Y-5024628D01*
X9905492Y-5046726D01*
X9911232Y-5068417D01*
X9918801Y-5089499D01*
X9928148Y-5109870D01*
X9939223Y-5129377D01*
X9951923Y-5147818D01*
X9966147Y-5165140D01*
X9981844Y-5181142D01*
X9998862Y-5195773D01*
X10017048Y-5208879D01*
X10036251Y-5220360D01*
X10056418Y-5230114D01*
X10077348Y-5238140D01*
X10098938Y-5244338D01*
X10120934Y-5248656D01*
X10143185Y-5251043D01*
G37*
G36*
X11900916Y-4809032D02*
G01*
X12000484Y-4809032D01*
X12024868Y-4808016D01*
X12048896Y-4805121D01*
X12072620Y-4800244D01*
X12095835Y-4793538D01*
X12118492Y-4784953D01*
X12140336Y-4774590D01*
X12161316Y-4762500D01*
X12181230Y-4748733D01*
X12199975Y-4733442D01*
X12217400Y-4716678D01*
X12233452Y-4698542D01*
X12247981Y-4679188D01*
X12260935Y-4658766D01*
X12272162Y-4637328D01*
X12281662Y-4615078D01*
X12289332Y-4592116D01*
X12295124Y-4568596D01*
X12298984Y-4544720D01*
X12300966Y-4520590D01*
X12300966Y-4496409D01*
X12298984Y-4472279D01*
X12295124Y-4448403D01*
X12289332Y-4424883D01*
X12281662Y-4401921D01*
X12272162Y-4379671D01*
X12260935Y-4358233D01*
X12247981Y-4337812D01*
X12233452Y-4318457D01*
X12217400Y-4300321D01*
X12199975Y-4283557D01*
X12181230Y-4268266D01*
X12161316Y-4254500D01*
X12140336Y-4242409D01*
X12118492Y-4232046D01*
X12095835Y-4223461D01*
X12072620Y-4216755D01*
X12048896Y-4211878D01*
X12024868Y-4208983D01*
X12000484Y-4208018D01*
X11900916Y-4208018D01*
X11876532Y-4208983D01*
X11852503Y-4211878D01*
X11828780Y-4216755D01*
X11805564Y-4223461D01*
X11782907Y-4232046D01*
X11761063Y-4242409D01*
X11740083Y-4254500D01*
X11720169Y-4268266D01*
X11701424Y-4283557D01*
X11684000Y-4300321D01*
X11667947Y-4318457D01*
X11653418Y-4337812D01*
X11640464Y-4358233D01*
X11629237Y-4379671D01*
X11619738Y-4401921D01*
X11612067Y-4424883D01*
X11606276Y-4448403D01*
X11602415Y-4472279D01*
X11600434Y-4496409D01*
X11600434Y-4520590D01*
X11602415Y-4544720D01*
X11606276Y-4568596D01*
X11612067Y-4592116D01*
X11619738Y-4615078D01*
X11629237Y-4637328D01*
X11640464Y-4658766D01*
X11653418Y-4679188D01*
X11667947Y-4698542D01*
X11684000Y-4716678D01*
X11701424Y-4733442D01*
X11720169Y-4748733D01*
X11740083Y-4762500D01*
X11761063Y-4774590D01*
X11782907Y-4784953D01*
X11805564Y-4793538D01*
X11828780Y-4800244D01*
X11852503Y-4805121D01*
X11876532Y-4808016D01*
G37*
G36*
X2530906Y-4551070D02*
G01*
X2658770Y-4551070D01*
X2658770Y-4530344D01*
X2659684Y-4526026D01*
X2662377Y-4522571D01*
X2666339Y-4520539D01*
X2670708Y-4520336D01*
X2681935Y-4522419D01*
X2700477Y-4523841D01*
X2719019Y-4523333D01*
X2742590Y-4520438D01*
X2746044Y-4521555D01*
X2748940Y-4523790D01*
X2750820Y-4526940D01*
X2751429Y-4530496D01*
X2751429Y-4551070D01*
X2879496Y-4551070D01*
X2874010Y-4533747D01*
X2866542Y-4516678D01*
X2857398Y-4500524D01*
X2846628Y-4485386D01*
X2839364Y-4477105D01*
X2837484Y-4474006D01*
X2836824Y-4470400D01*
X2837484Y-4466793D01*
X2839364Y-4463694D01*
X2846628Y-4455414D01*
X2857398Y-4440275D01*
X2866542Y-4424121D01*
X2874010Y-4407052D01*
X2879648Y-4389374D01*
X2883458Y-4371187D01*
X2885338Y-4352696D01*
X2885338Y-4334103D01*
X2883458Y-4315612D01*
X2879648Y-4297426D01*
X2874010Y-4279747D01*
X2866542Y-4262678D01*
X2857398Y-4246524D01*
X2846628Y-4231386D01*
X2839364Y-4223105D01*
X2837484Y-4220006D01*
X2836824Y-4216400D01*
X2837484Y-4212793D01*
X2839364Y-4209694D01*
X2846628Y-4201414D01*
X2857398Y-4186275D01*
X2866542Y-4170121D01*
X2874010Y-4153052D01*
X2879648Y-4135374D01*
X2883458Y-4117187D01*
X2885338Y-4098696D01*
X2885338Y-4080103D01*
X2883458Y-4061612D01*
X2879648Y-4043426D01*
X2874010Y-4025747D01*
X2866542Y-4008678D01*
X2857398Y-3992524D01*
X2846628Y-3977386D01*
X2834386Y-3963415D01*
X2820720Y-3950817D01*
X2805836Y-3939641D01*
X2789936Y-3930091D01*
X2773121Y-3922217D01*
X2755544Y-3916121D01*
X2737459Y-3911854D01*
X2719019Y-3909466D01*
X2700477Y-3908958D01*
X2681935Y-3910380D01*
X2663647Y-3913733D01*
X2645816Y-3918915D01*
X2628595Y-3925925D01*
X2612186Y-3934663D01*
X2596743Y-3945026D01*
X2582519Y-3956913D01*
X2569514Y-3970223D01*
X2557983Y-3984802D01*
X2548026Y-4000500D01*
X2539695Y-4017111D01*
X2533142Y-4034485D01*
X2528417Y-4052468D01*
X2525572Y-4070858D01*
X2524607Y-4089400D01*
X2525572Y-4107942D01*
X2528417Y-4126331D01*
X2533142Y-4144314D01*
X2539695Y-4161688D01*
X2548026Y-4178300D01*
X2557983Y-4193997D01*
X2569514Y-4208576D01*
X2572410Y-4212590D01*
X2573121Y-4216400D01*
X2572410Y-4220210D01*
X2569514Y-4224223D01*
X2557983Y-4238802D01*
X2548026Y-4254500D01*
X2539695Y-4271111D01*
X2533142Y-4288485D01*
X2528417Y-4306468D01*
X2525572Y-4324858D01*
X2524607Y-4343400D01*
X2525572Y-4361942D01*
X2528417Y-4380331D01*
X2533142Y-4398314D01*
X2539695Y-4415688D01*
X2548026Y-4432300D01*
X2557983Y-4447997D01*
X2569514Y-4462576D01*
X2572410Y-4466590D01*
X2573121Y-4470400D01*
X2572410Y-4474210D01*
X2569514Y-4478223D01*
X2557983Y-4492802D01*
X2548026Y-4508500D01*
X2539695Y-4525111D01*
X2533142Y-4542485D01*
G37*
G36*
X9728555Y-4355033D02*
G01*
X10693044Y-4355033D01*
X10706506Y-4354118D01*
X10719409Y-4351578D01*
X10731855Y-4347362D01*
X10743641Y-4341520D01*
X10754563Y-4334205D01*
X10764469Y-4325569D01*
X10773105Y-4315663D01*
X10780420Y-4304741D01*
X10786262Y-4292955D01*
X10790478Y-4280509D01*
X10793018Y-4267606D01*
X10793933Y-4254144D01*
X10793933Y-3213455D01*
X10793018Y-3199993D01*
X10790478Y-3187090D01*
X10786262Y-3174644D01*
X10780420Y-3162858D01*
X10773105Y-3151936D01*
X10764469Y-3142030D01*
X10754563Y-3133394D01*
X10743641Y-3126079D01*
X10731855Y-3120288D01*
X10719409Y-3116021D01*
X10706506Y-3113481D01*
X10693044Y-3112617D01*
X9728555Y-3112617D01*
X9715093Y-3113481D01*
X9702190Y-3116021D01*
X9689744Y-3120288D01*
X9677958Y-3126079D01*
X9667036Y-3133394D01*
X9657130Y-3142030D01*
X9648494Y-3151936D01*
X9641179Y-3162858D01*
X9635388Y-3174644D01*
X9631121Y-3187090D01*
X9628581Y-3199993D01*
X9627717Y-3213455D01*
X9627717Y-4254144D01*
X9628581Y-4267606D01*
X9631121Y-4280509D01*
X9635388Y-4292955D01*
X9641179Y-4304741D01*
X9648494Y-4315663D01*
X9657130Y-4325569D01*
X9667036Y-4334205D01*
X9677958Y-4341520D01*
X9689744Y-4347362D01*
X9702190Y-4351578D01*
X9715093Y-4354118D01*
G37*
G36*
X1684477Y-4269841D02*
G01*
X1703019Y-4269333D01*
X1721459Y-4266946D01*
X1739544Y-4262678D01*
X1757121Y-4256582D01*
X1773936Y-4248708D01*
X1789836Y-4239158D01*
X1804720Y-4227982D01*
X1809140Y-4223918D01*
X1812188Y-4221937D01*
X1815795Y-4221226D01*
X1819351Y-4221784D01*
X1822551Y-4223562D01*
X1834743Y-4233773D01*
X1850186Y-4244136D01*
X1866595Y-4252874D01*
X1883816Y-4259884D01*
X1901647Y-4265066D01*
X1919935Y-4268419D01*
X1938477Y-4269841D01*
X1957019Y-4269333D01*
X1975459Y-4266946D01*
X1993544Y-4262678D01*
X2011121Y-4256582D01*
X2027936Y-4248708D01*
X2043836Y-4239158D01*
X2058720Y-4227982D01*
X2063140Y-4223918D01*
X2066188Y-4221937D01*
X2069795Y-4221226D01*
X2073351Y-4221784D01*
X2076551Y-4223562D01*
X2088743Y-4233773D01*
X2104186Y-4244136D01*
X2120595Y-4252874D01*
X2137816Y-4259884D01*
X2155647Y-4265066D01*
X2173935Y-4268419D01*
X2192477Y-4269841D01*
X2211019Y-4269333D01*
X2229459Y-4266946D01*
X2247544Y-4262678D01*
X2265121Y-4256582D01*
X2281936Y-4248708D01*
X2297836Y-4239158D01*
X2312720Y-4227982D01*
X2326386Y-4215384D01*
X2338628Y-4201414D01*
X2349398Y-4186275D01*
X2358542Y-4170121D01*
X2366010Y-4153052D01*
X2371648Y-4135374D01*
X2375458Y-4117187D01*
X2377338Y-4098696D01*
X2377338Y-4080103D01*
X2375458Y-4061612D01*
X2371648Y-4043426D01*
X2366010Y-4025747D01*
X2358542Y-4008678D01*
X2349398Y-3992524D01*
X2338628Y-3977386D01*
X2326386Y-3963415D01*
X2312720Y-3950817D01*
X2297836Y-3939641D01*
X2281936Y-3930091D01*
X2265121Y-3922217D01*
X2247544Y-3916121D01*
X2229459Y-3911854D01*
X2211019Y-3909466D01*
X2192477Y-3908958D01*
X2173935Y-3910380D01*
X2155647Y-3913733D01*
X2137816Y-3918915D01*
X2120595Y-3925925D01*
X2104186Y-3934663D01*
X2088743Y-3945026D01*
X2076551Y-3955237D01*
X2073351Y-3957015D01*
X2069795Y-3957574D01*
X2066188Y-3956862D01*
X2063140Y-3954881D01*
X2058720Y-3950817D01*
X2043836Y-3939641D01*
X2027936Y-3930091D01*
X2011121Y-3922217D01*
X1993544Y-3916121D01*
X1975459Y-3911854D01*
X1957019Y-3909466D01*
X1938477Y-3908958D01*
X1919935Y-3910380D01*
X1901647Y-3913733D01*
X1883816Y-3918915D01*
X1866595Y-3925925D01*
X1850186Y-3934663D01*
X1834743Y-3945026D01*
X1822551Y-3955237D01*
X1819351Y-3957015D01*
X1815795Y-3957574D01*
X1812188Y-3956862D01*
X1809140Y-3954881D01*
X1804720Y-3950817D01*
X1789836Y-3939641D01*
X1773936Y-3930091D01*
X1757121Y-3922217D01*
X1739544Y-3916121D01*
X1721459Y-3911854D01*
X1703019Y-3909466D01*
X1684477Y-3908958D01*
X1665935Y-3910380D01*
X1647647Y-3913733D01*
X1629816Y-3918915D01*
X1612595Y-3925925D01*
X1596186Y-3934663D01*
X1580743Y-3945026D01*
X1568551Y-3955237D01*
X1565351Y-3957015D01*
X1561795Y-3957574D01*
X1558188Y-3956862D01*
X1555140Y-3954881D01*
X1550720Y-3950817D01*
X1535836Y-3939641D01*
X1519936Y-3930091D01*
X1503121Y-3922217D01*
X1485544Y-3916121D01*
X1481429Y-3915156D01*
X1481429Y-4043070D01*
X1502003Y-4043070D01*
X1506270Y-4043984D01*
X1509725Y-4046626D01*
X1511808Y-4050436D01*
X1512062Y-4054754D01*
X1509572Y-4070858D01*
X1508607Y-4089400D01*
X1509572Y-4107942D01*
X1512062Y-4124045D01*
X1511808Y-4128363D01*
X1509725Y-4132173D01*
X1506270Y-4134815D01*
X1502003Y-4135729D01*
X1481429Y-4135729D01*
X1481429Y-4263644D01*
X1485544Y-4262678D01*
X1503121Y-4256582D01*
X1519936Y-4248708D01*
X1535836Y-4239158D01*
X1550720Y-4227982D01*
X1555140Y-4223918D01*
X1558188Y-4221937D01*
X1561795Y-4221226D01*
X1565351Y-4221784D01*
X1568551Y-4223562D01*
X1580743Y-4233773D01*
X1596186Y-4244136D01*
X1612595Y-4252874D01*
X1629816Y-4259884D01*
X1647647Y-4265066D01*
X1665935Y-4268419D01*
G37*
G36*
X9048343Y-3233166D02*
G01*
X9050477Y-3232810D01*
X9066682Y-3228136D01*
X9076588Y-3224022D01*
X9080500Y-3223260D01*
X9084411Y-3224022D01*
X9094317Y-3228136D01*
X9110522Y-3232810D01*
X9112656Y-3233166D01*
X9112656Y-3117443D01*
X9048343Y-3117443D01*
G37*
G36*
X9175343Y-3233166D02*
G01*
X9177477Y-3232810D01*
X9193682Y-3228136D01*
X9203588Y-3224022D01*
X9207500Y-3223260D01*
X9211411Y-3224022D01*
X9221317Y-3228136D01*
X9237522Y-3232810D01*
X9239656Y-3233166D01*
X9239656Y-3117443D01*
X9175343Y-3117443D01*
G37*
G36*
X9302343Y-3233166D02*
G01*
X9304477Y-3232810D01*
X9320682Y-3228136D01*
X9336278Y-3221685D01*
X9351060Y-3213506D01*
X9364827Y-3203752D01*
X9377426Y-3192526D01*
X9388652Y-3179927D01*
X9398406Y-3166160D01*
X9406585Y-3151378D01*
X9413036Y-3135782D01*
X9417710Y-3119577D01*
X9418066Y-3117443D01*
X9302343Y-3117443D01*
G37*
G36*
X8985656Y-3233166D02*
G01*
X8985656Y-3117443D01*
X8869934Y-3117443D01*
X8870289Y-3119577D01*
X8874963Y-3135782D01*
X8881414Y-3151378D01*
X8889593Y-3166160D01*
X8899347Y-3179927D01*
X8910574Y-3192526D01*
X8923172Y-3203752D01*
X8936939Y-3213506D01*
X8951722Y-3221685D01*
X8967317Y-3228136D01*
X8983522Y-3232810D01*
G37*
G36*
X9048343Y-3054756D02*
G01*
X9112656Y-3054756D01*
X9112656Y-2939034D01*
X9110522Y-2939389D01*
X9094317Y-2944063D01*
X9084411Y-2948178D01*
X9080500Y-2948940D01*
X9076588Y-2948178D01*
X9066682Y-2944063D01*
X9050477Y-2939389D01*
X9048343Y-2939034D01*
G37*
G36*
X9175343Y-3054756D02*
G01*
X9239656Y-3054756D01*
X9239656Y-2939034D01*
X9237522Y-2939389D01*
X9221317Y-2944063D01*
X9211411Y-2948178D01*
X9207500Y-2948940D01*
X9203588Y-2948178D01*
X9193682Y-2944063D01*
X9177477Y-2939389D01*
X9175343Y-2939034D01*
G37*
G36*
X9302343Y-3054756D02*
G01*
X9418066Y-3054756D01*
X9417710Y-3052622D01*
X9413036Y-3036417D01*
X9406585Y-3020822D01*
X9398406Y-3006039D01*
X9388652Y-2992272D01*
X9377426Y-2979674D01*
X9364827Y-2968447D01*
X9351060Y-2958693D01*
X9336278Y-2950514D01*
X9320682Y-2944063D01*
X9304477Y-2939389D01*
X9302343Y-2939034D01*
G37*
G36*
X8869934Y-3054756D02*
G01*
X8985656Y-3054756D01*
X8985656Y-2939034D01*
X8983522Y-2939389D01*
X8967317Y-2944063D01*
X8951722Y-2950514D01*
X8936939Y-2958693D01*
X8923172Y-2968447D01*
X8910574Y-2979674D01*
X8899347Y-2992272D01*
X8889593Y-3006039D01*
X8881414Y-3020822D01*
X8874963Y-3036417D01*
X8870289Y-3052622D01*
G37*
G36*
X10178288Y-2762351D02*
G01*
X10200690Y-2760878D01*
X10222839Y-2757525D01*
X10244632Y-2752293D01*
X10265867Y-2745181D01*
X10286441Y-2736240D01*
X10306151Y-2725623D01*
X10324896Y-2713329D01*
X10342524Y-2699461D01*
X10358882Y-2684119D01*
X10373868Y-2667406D01*
X10387330Y-2649524D01*
X10399217Y-2630525D01*
X10409428Y-2610561D01*
X10417911Y-2589834D01*
X10424566Y-2568397D01*
X10429341Y-2546502D01*
X10432237Y-2524302D01*
X10433202Y-2501900D01*
X10432237Y-2479497D01*
X10429341Y-2457297D01*
X10424566Y-2435402D01*
X10417911Y-2413965D01*
X10409428Y-2393238D01*
X10399217Y-2373274D01*
X10387330Y-2354275D01*
X10373868Y-2336393D01*
X10358882Y-2319680D01*
X10342524Y-2304338D01*
X10324896Y-2290470D01*
X10306151Y-2278176D01*
X10286441Y-2267559D01*
X10265867Y-2258618D01*
X10244632Y-2251506D01*
X10222839Y-2246274D01*
X10200690Y-2242921D01*
X10178288Y-2241448D01*
X10155885Y-2241956D01*
X10133634Y-2244344D01*
X10111638Y-2248662D01*
X10090048Y-2254859D01*
X10069118Y-2262886D01*
X10048951Y-2272639D01*
X10029748Y-2284120D01*
X10011562Y-2297226D01*
X9994544Y-2311857D01*
X9978847Y-2327859D01*
X9964623Y-2345182D01*
X9951923Y-2363622D01*
X9940848Y-2383129D01*
X9931501Y-2403500D01*
X9923932Y-2424582D01*
X9918192Y-2446274D01*
X9914382Y-2468372D01*
X9912451Y-2490673D01*
X9912451Y-2513126D01*
X9914382Y-2535428D01*
X9918192Y-2557526D01*
X9923932Y-2579217D01*
X9931501Y-2600299D01*
X9940848Y-2620670D01*
X9951923Y-2640177D01*
X9964623Y-2658618D01*
X9978847Y-2675940D01*
X9994544Y-2691942D01*
X10011562Y-2706573D01*
X10029748Y-2719679D01*
X10048951Y-2731160D01*
X10069118Y-2740914D01*
X10090048Y-2748940D01*
X10111638Y-2755138D01*
X10133634Y-2759456D01*
X10155885Y-2761843D01*
G37*
G36*
X6809028Y-2701493D02*
G01*
X6828434Y-2700528D01*
X6847636Y-2697683D01*
X6866483Y-2692958D01*
X6884771Y-2686405D01*
X6902348Y-2678125D01*
X6919010Y-2668117D01*
X6934606Y-2656535D01*
X6948982Y-2643479D01*
X6962038Y-2629103D01*
X6973620Y-2613507D01*
X6983628Y-2596845D01*
X6991908Y-2579268D01*
X6998462Y-2560980D01*
X7003186Y-2542133D01*
X7006031Y-2522931D01*
X7006996Y-2503525D01*
X7006031Y-2484069D01*
X7003186Y-2464866D01*
X6998462Y-2446020D01*
X6991908Y-2427732D01*
X6983628Y-2410155D01*
X6973620Y-2393492D01*
X6962038Y-2377897D01*
X6948982Y-2363520D01*
X6934606Y-2350465D01*
X6919010Y-2338882D01*
X6902348Y-2328875D01*
X6884771Y-2320594D01*
X6866483Y-2314041D01*
X6847636Y-2309317D01*
X6828434Y-2306472D01*
X6809028Y-2305507D01*
X6789572Y-2306472D01*
X6770370Y-2309317D01*
X6751523Y-2314041D01*
X6733235Y-2320594D01*
X6715658Y-2328875D01*
X6698996Y-2338882D01*
X6683400Y-2350465D01*
X6669024Y-2363520D01*
X6655968Y-2377897D01*
X6644386Y-2393492D01*
X6634378Y-2410155D01*
X6626098Y-2427732D01*
X6619544Y-2446020D01*
X6614820Y-2464866D01*
X6611975Y-2484069D01*
X6611010Y-2503525D01*
X6611975Y-2522931D01*
X6614820Y-2542133D01*
X6619544Y-2560980D01*
X6626098Y-2579268D01*
X6634378Y-2596845D01*
X6644386Y-2613507D01*
X6655968Y-2629103D01*
X6669024Y-2643479D01*
X6683400Y-2656535D01*
X6698996Y-2668117D01*
X6715658Y-2678125D01*
X6733235Y-2686405D01*
X6751523Y-2692958D01*
X6770370Y-2697683D01*
X6789572Y-2700528D01*
G37*
G36*
X4832096Y-2693568D02*
G01*
X4834483Y-2692958D01*
X4852771Y-2686405D01*
X4870348Y-2678125D01*
X4887010Y-2668117D01*
X4902606Y-2656535D01*
X4916982Y-2643479D01*
X4930038Y-2629103D01*
X4941620Y-2613507D01*
X4951628Y-2596845D01*
X4959908Y-2579268D01*
X4966462Y-2560980D01*
X4967071Y-2558592D01*
X4832096Y-2558592D01*
G37*
G36*
X4721910Y-2693568D02*
G01*
X4721910Y-2558592D01*
X4586935Y-2558592D01*
X4587544Y-2560980D01*
X4594098Y-2579268D01*
X4602378Y-2596845D01*
X4612386Y-2613507D01*
X4623968Y-2629103D01*
X4637024Y-2643479D01*
X4651400Y-2656535D01*
X4666996Y-2668117D01*
X4683658Y-2678125D01*
X4701235Y-2686405D01*
X4719523Y-2692958D01*
G37*
G36*
X4586935Y-2448407D02*
G01*
X4721910Y-2448407D01*
X4721910Y-2313432D01*
X4719523Y-2314041D01*
X4701235Y-2320594D01*
X4683658Y-2328875D01*
X4666996Y-2338882D01*
X4651400Y-2350465D01*
X4637024Y-2363520D01*
X4623968Y-2377897D01*
X4612386Y-2393492D01*
X4602378Y-2410155D01*
X4594098Y-2427732D01*
X4587544Y-2446020D01*
G37*
G36*
X4832096Y-2448407D02*
G01*
X4967071Y-2448407D01*
X4966462Y-2446020D01*
X4959908Y-2427732D01*
X4951628Y-2410155D01*
X4941620Y-2393492D01*
X4930038Y-2377897D01*
X4916982Y-2363520D01*
X4902606Y-2350465D01*
X4887010Y-2338882D01*
X4870348Y-2328875D01*
X4852771Y-2320594D01*
X4834483Y-2314041D01*
X4832096Y-2313432D01*
G37*
G36*
X2712720Y-2367280D02*
G01*
X2840126Y-2367280D01*
X2836265Y-2354122D01*
X2829356Y-2337003D01*
X2820670Y-2320747D01*
X2810357Y-2305405D01*
X2798521Y-2291232D01*
X2785313Y-2278380D01*
X2770835Y-2266899D01*
X2755290Y-2256993D01*
X2738780Y-2248763D01*
X2721508Y-2242261D01*
X2712720Y-2239924D01*
G37*
G36*
X1188720Y-2367280D02*
G01*
X1351280Y-2367280D01*
X1351280Y-2239924D01*
X1342491Y-2242261D01*
X1325219Y-2248763D01*
X1308709Y-2256993D01*
X1293164Y-2266899D01*
X1278686Y-2278380D01*
X1277112Y-2279904D01*
X1273810Y-2282037D01*
X1270000Y-2282799D01*
X1266190Y-2282037D01*
X1262888Y-2279904D01*
X1261313Y-2278380D01*
X1246835Y-2266899D01*
X1231290Y-2256993D01*
X1214780Y-2248763D01*
X1197508Y-2242261D01*
X1188720Y-2239924D01*
G37*
G36*
X1442720Y-2367280D02*
G01*
X1605280Y-2367280D01*
X1605280Y-2239924D01*
X1596491Y-2242261D01*
X1579219Y-2248763D01*
X1562709Y-2256993D01*
X1547164Y-2266899D01*
X1532686Y-2278380D01*
X1531112Y-2279904D01*
X1527810Y-2282037D01*
X1524000Y-2282799D01*
X1520190Y-2282037D01*
X1516888Y-2279904D01*
X1515313Y-2278380D01*
X1500835Y-2266899D01*
X1485290Y-2256993D01*
X1468780Y-2248763D01*
X1451508Y-2242261D01*
X1442720Y-2239924D01*
G37*
G36*
X934719Y-2367280D02*
G01*
X1097280Y-2367280D01*
X1097280Y-2239924D01*
X1088491Y-2242261D01*
X1071219Y-2248763D01*
X1054709Y-2256993D01*
X1039164Y-2266899D01*
X1024686Y-2278380D01*
X1023112Y-2279904D01*
X1019810Y-2282037D01*
X1016000Y-2282799D01*
X1012190Y-2282037D01*
X1008887Y-2279904D01*
X1007313Y-2278380D01*
X992835Y-2266899D01*
X977290Y-2256993D01*
X960780Y-2248763D01*
X943508Y-2242261D01*
X934719Y-2239924D01*
G37*
G36*
X1696720Y-2367280D02*
G01*
X1859280Y-2367280D01*
X1859280Y-2239924D01*
X1850491Y-2242261D01*
X1833219Y-2248763D01*
X1816709Y-2256993D01*
X1801164Y-2266899D01*
X1786686Y-2278380D01*
X1785112Y-2279904D01*
X1781810Y-2282037D01*
X1778000Y-2282799D01*
X1774189Y-2282037D01*
X1770888Y-2279904D01*
X1769313Y-2278380D01*
X1754835Y-2266899D01*
X1739290Y-2256993D01*
X1722780Y-2248763D01*
X1705508Y-2242261D01*
X1696720Y-2239924D01*
G37*
G36*
X2458720Y-2367280D02*
G01*
X2621280Y-2367280D01*
X2621280Y-2239924D01*
X2612491Y-2242261D01*
X2595219Y-2248763D01*
X2578709Y-2256993D01*
X2563164Y-2266899D01*
X2548686Y-2278380D01*
X2547112Y-2279904D01*
X2543810Y-2282037D01*
X2540000Y-2282799D01*
X2536190Y-2282037D01*
X2532888Y-2279904D01*
X2531313Y-2278380D01*
X2516835Y-2266899D01*
X2501290Y-2256993D01*
X2484780Y-2248763D01*
X2467508Y-2242261D01*
X2458720Y-2239924D01*
G37*
G36*
X1950720Y-2367280D02*
G01*
X2113280Y-2367280D01*
X2113280Y-2239924D01*
X2104491Y-2242261D01*
X2087219Y-2248763D01*
X2070709Y-2256993D01*
X2055164Y-2266899D01*
X2040686Y-2278380D01*
X2039112Y-2279904D01*
X2035810Y-2282037D01*
X2032000Y-2282799D01*
X2028189Y-2282037D01*
X2024888Y-2279904D01*
X2023313Y-2278380D01*
X2008835Y-2266899D01*
X1993290Y-2256993D01*
X1976780Y-2248763D01*
X1959508Y-2242261D01*
X1950720Y-2239924D01*
G37*
G36*
X2204720Y-2367280D02*
G01*
X2367280Y-2367280D01*
X2367280Y-2239924D01*
X2358491Y-2242261D01*
X2341219Y-2248763D01*
X2324709Y-2256993D01*
X2309164Y-2266899D01*
X2294686Y-2278380D01*
X2293112Y-2279904D01*
X2289810Y-2282037D01*
X2286000Y-2282799D01*
X2282190Y-2282037D01*
X2278888Y-2279904D01*
X2277313Y-2278380D01*
X2262835Y-2266899D01*
X2247290Y-2256993D01*
X2230780Y-2248763D01*
X2213508Y-2242261D01*
X2204720Y-2239924D01*
G37*
G36*
X11900916Y-2332532D02*
G01*
X12000484Y-2332532D01*
X12024868Y-2331516D01*
X12048896Y-2328621D01*
X12072620Y-2323744D01*
X12095835Y-2317038D01*
X12118492Y-2308453D01*
X12140336Y-2298090D01*
X12161316Y-2286000D01*
X12181230Y-2272233D01*
X12199975Y-2256942D01*
X12217400Y-2240178D01*
X12233452Y-2222042D01*
X12247981Y-2202688D01*
X12260935Y-2182266D01*
X12272162Y-2160828D01*
X12281662Y-2138578D01*
X12289332Y-2115616D01*
X12295124Y-2092096D01*
X12298984Y-2068220D01*
X12300966Y-2044090D01*
X12300966Y-2019909D01*
X12298984Y-1995779D01*
X12295124Y-1971903D01*
X12289332Y-1948383D01*
X12281662Y-1925421D01*
X12272162Y-1903171D01*
X12260935Y-1881733D01*
X12247981Y-1861312D01*
X12233452Y-1841957D01*
X12217400Y-1823821D01*
X12199975Y-1807057D01*
X12181230Y-1791766D01*
X12161316Y-1778000D01*
X12140336Y-1765909D01*
X12118492Y-1755546D01*
X12095835Y-1746961D01*
X12072620Y-1740255D01*
X12048896Y-1735378D01*
X12024868Y-1732483D01*
X12000484Y-1731518D01*
X11900916Y-1731518D01*
X11876532Y-1732483D01*
X11852503Y-1735378D01*
X11828780Y-1740255D01*
X11805564Y-1746961D01*
X11782907Y-1755546D01*
X11761063Y-1765909D01*
X11740083Y-1778000D01*
X11720169Y-1791766D01*
X11701424Y-1807057D01*
X11684000Y-1823821D01*
X11667947Y-1841957D01*
X11653418Y-1861312D01*
X11640464Y-1881733D01*
X11629237Y-1903171D01*
X11619738Y-1925421D01*
X11612067Y-1948383D01*
X11606276Y-1971903D01*
X11602415Y-1995779D01*
X11600434Y-2019909D01*
X11600434Y-2044090D01*
X11602415Y-2068220D01*
X11606276Y-2092096D01*
X11612067Y-2115616D01*
X11619738Y-2138578D01*
X11629237Y-2160828D01*
X11640464Y-2182266D01*
X11653418Y-2202688D01*
X11667947Y-2222042D01*
X11684000Y-2240178D01*
X11701424Y-2256942D01*
X11720169Y-2272233D01*
X11740083Y-2286000D01*
X11761063Y-2298090D01*
X11782907Y-2308453D01*
X11805564Y-2317038D01*
X11828780Y-2323744D01*
X11852503Y-2328621D01*
X11876532Y-2331516D01*
G37*
G36*
X7433411Y-2290419D02*
G01*
X7448905Y-2289048D01*
X7464145Y-2285847D01*
X7478928Y-2280869D01*
X7482281Y-2279243D01*
X7486345Y-2278278D01*
X7490459Y-2278989D01*
X7501686Y-2283561D01*
X7516723Y-2287676D01*
X7532116Y-2289962D01*
X7547711Y-2290419D01*
X7563205Y-2289048D01*
X7578445Y-2285847D01*
X7593228Y-2280869D01*
X7607300Y-2274163D01*
X7620457Y-2265832D01*
X7632547Y-2256028D01*
X7643418Y-2244852D01*
X7652867Y-2232456D01*
X7660792Y-2219045D01*
X7667040Y-2204770D01*
X7670241Y-2194306D01*
X7671257Y-2192070D01*
X7672781Y-2190089D01*
X7702397Y-2160422D01*
X7709560Y-2152040D01*
X7711490Y-2149449D01*
X7717536Y-2140305D01*
X7723936Y-2127605D01*
X7725206Y-2124608D01*
X7728762Y-2114245D01*
X7729626Y-2111095D01*
X7731810Y-2100376D01*
X7732268Y-2097125D01*
X7733131Y-2086203D01*
X7733233Y-1593189D01*
X7733588Y-1590548D01*
X7734604Y-1588058D01*
X7736992Y-1584045D01*
X7743240Y-1569770D01*
X7747812Y-1554886D01*
X7750556Y-1539544D01*
X7751470Y-1524000D01*
X7750556Y-1508455D01*
X7747812Y-1493113D01*
X7743240Y-1478229D01*
X7736992Y-1463954D01*
X7729067Y-1450543D01*
X7719618Y-1438148D01*
X7708747Y-1426972D01*
X7696657Y-1417167D01*
X7683500Y-1408836D01*
X7669428Y-1402130D01*
X7654645Y-1397152D01*
X7639405Y-1393952D01*
X7623911Y-1392580D01*
X7608316Y-1393037D01*
X7592923Y-1395323D01*
X7585964Y-1397203D01*
X7581493Y-1397406D01*
X7577378Y-1395679D01*
X7574381Y-1392326D01*
X7573162Y-1388008D01*
X7572756Y-1381455D01*
X7570012Y-1366113D01*
X7565440Y-1351229D01*
X7559192Y-1336954D01*
X7551267Y-1323543D01*
X7541818Y-1311148D01*
X7530947Y-1299972D01*
X7518857Y-1290167D01*
X7505700Y-1281836D01*
X7491628Y-1275130D01*
X7476845Y-1270152D01*
X7461605Y-1266952D01*
X7446111Y-1265580D01*
X7430516Y-1266037D01*
X7415123Y-1268323D01*
X7400086Y-1272438D01*
X7385659Y-1278280D01*
X7371994Y-1285798D01*
X7359345Y-1294892D01*
X7347864Y-1305407D01*
X7337704Y-1317193D01*
X7328966Y-1330147D01*
X7321854Y-1344015D01*
X7316419Y-1358595D01*
X7312761Y-1373733D01*
X7310932Y-1389227D01*
X7310932Y-1404772D01*
X7312761Y-1420266D01*
X7316419Y-1435404D01*
X7321854Y-1449984D01*
X7327849Y-1461719D01*
X7328712Y-1463954D01*
X7329017Y-1466342D01*
X7329017Y-2070811D01*
X7328357Y-2074316D01*
X7326528Y-2077415D01*
X7325004Y-2079193D01*
X7316266Y-2092147D01*
X7309154Y-2106015D01*
X7303719Y-2120595D01*
X7300061Y-2135733D01*
X7298232Y-2151227D01*
X7298232Y-2166772D01*
X7300061Y-2182266D01*
X7303719Y-2197404D01*
X7309154Y-2211984D01*
X7316266Y-2225852D01*
X7325004Y-2238806D01*
X7335164Y-2250592D01*
X7346645Y-2261108D01*
X7359294Y-2270201D01*
X7372959Y-2277719D01*
X7387386Y-2283561D01*
X7402423Y-2287676D01*
X7417816Y-2289962D01*
G37*
G36*
X6864096Y-1931568D02*
G01*
X6866483Y-1930958D01*
X6884771Y-1924405D01*
X6902348Y-1916125D01*
X6919010Y-1906117D01*
X6934606Y-1894535D01*
X6948982Y-1881479D01*
X6962038Y-1867103D01*
X6973620Y-1851507D01*
X6983628Y-1834845D01*
X6991908Y-1817268D01*
X6998462Y-1798980D01*
X6999071Y-1796592D01*
X6864096Y-1796592D01*
G37*
G36*
X6753910Y-1931568D02*
G01*
X6753910Y-1796592D01*
X6618935Y-1796592D01*
X6619544Y-1798980D01*
X6626098Y-1817268D01*
X6634378Y-1834845D01*
X6644386Y-1851507D01*
X6655968Y-1867103D01*
X6669024Y-1881479D01*
X6683400Y-1894535D01*
X6698996Y-1906117D01*
X6715658Y-1916125D01*
X6733235Y-1924405D01*
X6751523Y-1930958D01*
G37*
G36*
X3855720Y-1919173D02*
G01*
X3888384Y-1919173D01*
X3901846Y-1918258D01*
X3914749Y-1915718D01*
X3927195Y-1911502D01*
X3938981Y-1905660D01*
X3949903Y-1898345D01*
X3959809Y-1889709D01*
X3968445Y-1879803D01*
X3975760Y-1868881D01*
X3981602Y-1857095D01*
X3985818Y-1844649D01*
X3988358Y-1831746D01*
X3989273Y-1818284D01*
X3989273Y-1785620D01*
X3855720Y-1785620D01*
G37*
G36*
X3731615Y-1919173D02*
G01*
X3764279Y-1919173D01*
X3764279Y-1785620D01*
X3630777Y-1785620D01*
X3630777Y-1818284D01*
X3631641Y-1831746D01*
X3634181Y-1844649D01*
X3638448Y-1857095D01*
X3644239Y-1868881D01*
X3651554Y-1879803D01*
X3660190Y-1889709D01*
X3670096Y-1898345D01*
X3681018Y-1905660D01*
X3692804Y-1911502D01*
X3705250Y-1915718D01*
X3718153Y-1918258D01*
G37*
G36*
X9728555Y-1891233D02*
G01*
X10667644Y-1891233D01*
X10681106Y-1890318D01*
X10694009Y-1887778D01*
X10706455Y-1883562D01*
X10718241Y-1877720D01*
X10729163Y-1870405D01*
X10739069Y-1861769D01*
X10747705Y-1851863D01*
X10755020Y-1840941D01*
X10760862Y-1829155D01*
X10765078Y-1816709D01*
X10767618Y-1803806D01*
X10768533Y-1790344D01*
X10768533Y-749655D01*
X10767618Y-736193D01*
X10765078Y-723290D01*
X10760862Y-710844D01*
X10755020Y-699058D01*
X10747705Y-688136D01*
X10739069Y-678230D01*
X10729163Y-669594D01*
X10718241Y-662279D01*
X10706455Y-656488D01*
X10694009Y-652221D01*
X10681106Y-649681D01*
X10667644Y-648817D01*
X9728555Y-648817D01*
X9715093Y-649681D01*
X9702190Y-652221D01*
X9689744Y-656488D01*
X9677958Y-662279D01*
X9667036Y-669594D01*
X9657130Y-678230D01*
X9648494Y-688136D01*
X9641179Y-699058D01*
X9635388Y-710844D01*
X9631121Y-723290D01*
X9628581Y-736193D01*
X9627717Y-749655D01*
X9627717Y-1790344D01*
X9628581Y-1803806D01*
X9631121Y-1816709D01*
X9635388Y-1829155D01*
X9641179Y-1840941D01*
X9648494Y-1851863D01*
X9657130Y-1861769D01*
X9667036Y-1870405D01*
X9677958Y-1877720D01*
X9689744Y-1883562D01*
X9702190Y-1887778D01*
X9715093Y-1890318D01*
G37*
G36*
X3630777Y-1694180D02*
G01*
X3764279Y-1694180D01*
X3764279Y-1671726D01*
X3765245Y-1667357D01*
X3768039Y-1663801D01*
X3772052Y-1661820D01*
X3776522Y-1661769D01*
X3782415Y-1662988D01*
X3800754Y-1664919D01*
X3819245Y-1664919D01*
X3837584Y-1662988D01*
X3843477Y-1661769D01*
X3847947Y-1661820D01*
X3851960Y-1663801D01*
X3854754Y-1667357D01*
X3855720Y-1671726D01*
X3855720Y-1694180D01*
X3989273Y-1694180D01*
X3989273Y-1661515D01*
X3988358Y-1648053D01*
X3985818Y-1635150D01*
X3981602Y-1622704D01*
X3975760Y-1610918D01*
X3968445Y-1599996D01*
X3962552Y-1593240D01*
X3960469Y-1589582D01*
X3960114Y-1585315D01*
X3961485Y-1581302D01*
X3968191Y-1570126D01*
X3976014Y-1553413D01*
X3982110Y-1535988D01*
X3986326Y-1518056D01*
X3988714Y-1499717D01*
X3989171Y-1481277D01*
X3987749Y-1462887D01*
X3984447Y-1444752D01*
X3979265Y-1427022D01*
X3972356Y-1409903D01*
X3963670Y-1393647D01*
X3953357Y-1378305D01*
X3942486Y-1365300D01*
X3940708Y-1362151D01*
X3940149Y-1358544D01*
X3940911Y-1354988D01*
X3942842Y-1351889D01*
X3947617Y-1346708D01*
X3958691Y-1331976D01*
X3968191Y-1316126D01*
X3976014Y-1299413D01*
X3982110Y-1281988D01*
X3986326Y-1264056D01*
X3988714Y-1245717D01*
X3989171Y-1227277D01*
X3987749Y-1208887D01*
X3984447Y-1190752D01*
X3979265Y-1173022D01*
X3972356Y-1155903D01*
X3963670Y-1139647D01*
X3953357Y-1124305D01*
X3941521Y-1110132D01*
X3928313Y-1097280D01*
X3913835Y-1085799D01*
X3898290Y-1075893D01*
X3881780Y-1067663D01*
X3864508Y-1061161D01*
X3846677Y-1056436D01*
X3828440Y-1053592D01*
X3810000Y-1052677D01*
X3791559Y-1053592D01*
X3773322Y-1056436D01*
X3755491Y-1061161D01*
X3738219Y-1067663D01*
X3721709Y-1075893D01*
X3706164Y-1085799D01*
X3691686Y-1097280D01*
X3678478Y-1110132D01*
X3666642Y-1124305D01*
X3656329Y-1139647D01*
X3647643Y-1155903D01*
X3640734Y-1173022D01*
X3635552Y-1190752D01*
X3632250Y-1208887D01*
X3630828Y-1227277D01*
X3631285Y-1245717D01*
X3633673Y-1264056D01*
X3637889Y-1281988D01*
X3643985Y-1299413D01*
X3651808Y-1316126D01*
X3661308Y-1331976D01*
X3672382Y-1346708D01*
X3677158Y-1351889D01*
X3679088Y-1354988D01*
X3679850Y-1358544D01*
X3679291Y-1362151D01*
X3677513Y-1365300D01*
X3666642Y-1378305D01*
X3656329Y-1393647D01*
X3647643Y-1409903D01*
X3640734Y-1427022D01*
X3635552Y-1444752D01*
X3632250Y-1462887D01*
X3630828Y-1481277D01*
X3631285Y-1499717D01*
X3633673Y-1518056D01*
X3637889Y-1535988D01*
X3643985Y-1553413D01*
X3651808Y-1570126D01*
X3658514Y-1581302D01*
X3659886Y-1585315D01*
X3659530Y-1589582D01*
X3657447Y-1593240D01*
X3651554Y-1599996D01*
X3644239Y-1610918D01*
X3638448Y-1622704D01*
X3634181Y-1635150D01*
X3631641Y-1648053D01*
X3630777Y-1661515D01*
G37*
G36*
X6618935Y-1686407D02*
G01*
X6753910Y-1686407D01*
X6753910Y-1551432D01*
X6751523Y-1552041D01*
X6733235Y-1558594D01*
X6715658Y-1566875D01*
X6698996Y-1576882D01*
X6683400Y-1588465D01*
X6669024Y-1601520D01*
X6655968Y-1615897D01*
X6644386Y-1631492D01*
X6634378Y-1648155D01*
X6626098Y-1665732D01*
X6619544Y-1684020D01*
G37*
G36*
X6864096Y-1686407D02*
G01*
X6999071Y-1686407D01*
X6998462Y-1684020D01*
X6991908Y-1665732D01*
X6983628Y-1648155D01*
X6973620Y-1631492D01*
X6962038Y-1615897D01*
X6948982Y-1601520D01*
X6934606Y-1588465D01*
X6919010Y-1576882D01*
X6902348Y-1566875D01*
X6884771Y-1558594D01*
X6866483Y-1552041D01*
X6864096Y-1551432D01*
G37*
G36*
X4777028Y-1685493D02*
G01*
X4796434Y-1684528D01*
X4815636Y-1681683D01*
X4834483Y-1676958D01*
X4852771Y-1670405D01*
X4870348Y-1662125D01*
X4887010Y-1652117D01*
X4902606Y-1640535D01*
X4916982Y-1627479D01*
X4930038Y-1613103D01*
X4941620Y-1597507D01*
X4951628Y-1580845D01*
X4959908Y-1563268D01*
X4966462Y-1544980D01*
X4971186Y-1526133D01*
X4974031Y-1506931D01*
X4974996Y-1487525D01*
X4974031Y-1468069D01*
X4971186Y-1448866D01*
X4966462Y-1430020D01*
X4959908Y-1411732D01*
X4951628Y-1394155D01*
X4941620Y-1377492D01*
X4930038Y-1361897D01*
X4916982Y-1347520D01*
X4902606Y-1334465D01*
X4887010Y-1322882D01*
X4870348Y-1312875D01*
X4852771Y-1304594D01*
X4834483Y-1298041D01*
X4815636Y-1293317D01*
X4796434Y-1290472D01*
X4777028Y-1289507D01*
X4757572Y-1290472D01*
X4738370Y-1293317D01*
X4719523Y-1298041D01*
X4701235Y-1304594D01*
X4683658Y-1312875D01*
X4666996Y-1322882D01*
X4651400Y-1334465D01*
X4637024Y-1347520D01*
X4623968Y-1361897D01*
X4612386Y-1377492D01*
X4602378Y-1394155D01*
X4594098Y-1411732D01*
X4587544Y-1430020D01*
X4582820Y-1448866D01*
X4579975Y-1468069D01*
X4579010Y-1487525D01*
X4579975Y-1506931D01*
X4582820Y-1526133D01*
X4587544Y-1544980D01*
X4594098Y-1563268D01*
X4602378Y-1580845D01*
X4612386Y-1597507D01*
X4623968Y-1613103D01*
X4637024Y-1627479D01*
X4651400Y-1640535D01*
X4666996Y-1652117D01*
X4683658Y-1662125D01*
X4701235Y-1670405D01*
X4719523Y-1676958D01*
X4738370Y-1681683D01*
X4757572Y-1684528D01*
G37*
G36*
X11900916Y-1532432D02*
G01*
X12000484Y-1532432D01*
X12024868Y-1531416D01*
X12048896Y-1528521D01*
X12072620Y-1523644D01*
X12095835Y-1516938D01*
X12118492Y-1508353D01*
X12140336Y-1497990D01*
X12161316Y-1485900D01*
X12181230Y-1472133D01*
X12199975Y-1456842D01*
X12217400Y-1440078D01*
X12233452Y-1421942D01*
X12247981Y-1402588D01*
X12260935Y-1382166D01*
X12272162Y-1360728D01*
X12281662Y-1338478D01*
X12289332Y-1315516D01*
X12295124Y-1291996D01*
X12298984Y-1268120D01*
X12300966Y-1243990D01*
X12300966Y-1219809D01*
X12298984Y-1195679D01*
X12295124Y-1171803D01*
X12289332Y-1148283D01*
X12281662Y-1125321D01*
X12272162Y-1103071D01*
X12260935Y-1081633D01*
X12247981Y-1061212D01*
X12233452Y-1041857D01*
X12217400Y-1023721D01*
X12199975Y-1006957D01*
X12181230Y-991666D01*
X12161316Y-977900D01*
X12140336Y-965809D01*
X12118492Y-955446D01*
X12095835Y-946861D01*
X12072620Y-940155D01*
X12048896Y-935278D01*
X12024868Y-932383D01*
X12000484Y-931418D01*
X11900916Y-931418D01*
X11876532Y-932383D01*
X11852503Y-935278D01*
X11828780Y-940155D01*
X11805564Y-946861D01*
X11782907Y-955446D01*
X11761063Y-965809D01*
X11740083Y-977900D01*
X11720169Y-991666D01*
X11701424Y-1006957D01*
X11684000Y-1023721D01*
X11667947Y-1041857D01*
X11653418Y-1061212D01*
X11640464Y-1081633D01*
X11629237Y-1103071D01*
X11619738Y-1125321D01*
X11612067Y-1148283D01*
X11606276Y-1171803D01*
X11602415Y-1195679D01*
X11600434Y-1219809D01*
X11600434Y-1243990D01*
X11602415Y-1268120D01*
X11606276Y-1291996D01*
X11612067Y-1315516D01*
X11619738Y-1338478D01*
X11629237Y-1360728D01*
X11640464Y-1382166D01*
X11653418Y-1402588D01*
X11667947Y-1421942D01*
X11684000Y-1440078D01*
X11701424Y-1456842D01*
X11720169Y-1472133D01*
X11740083Y-1485900D01*
X11761063Y-1497990D01*
X11782907Y-1508353D01*
X11805564Y-1516938D01*
X11828780Y-1523644D01*
X11852503Y-1528521D01*
X11876532Y-1531416D01*
G37*
G36*
X2857500Y-1470507D02*
G01*
X2877159Y-1469542D01*
X2896616Y-1466646D01*
X2915716Y-1461871D01*
X2934208Y-1455216D01*
X2951988Y-1446834D01*
X2968904Y-1436725D01*
X2984703Y-1424990D01*
X2999282Y-1411782D01*
X3012490Y-1397203D01*
X3024225Y-1381404D01*
X3034334Y-1364488D01*
X3042716Y-1346708D01*
X3049371Y-1328216D01*
X3054146Y-1309116D01*
X3057042Y-1289659D01*
X3058007Y-1270000D01*
X3057042Y-1250340D01*
X3054146Y-1230884D01*
X3049371Y-1211783D01*
X3042716Y-1193292D01*
X3034334Y-1175512D01*
X3024225Y-1158595D01*
X3012490Y-1142796D01*
X2999282Y-1128217D01*
X2984703Y-1115009D01*
X2968904Y-1103274D01*
X2951988Y-1093165D01*
X2934208Y-1084783D01*
X2915716Y-1078128D01*
X2896616Y-1073353D01*
X2877159Y-1070457D01*
X2857500Y-1069492D01*
X2837840Y-1070457D01*
X2818384Y-1073353D01*
X2799283Y-1078128D01*
X2780792Y-1084783D01*
X2763012Y-1093165D01*
X2746095Y-1103274D01*
X2730296Y-1115009D01*
X2715717Y-1128217D01*
X2702509Y-1142796D01*
X2690774Y-1158595D01*
X2682087Y-1173175D01*
X2679242Y-1176223D01*
X2675432Y-1177899D01*
X2671267Y-1177899D01*
X2667457Y-1176223D01*
X2664612Y-1173175D01*
X2655925Y-1158595D01*
X2644190Y-1142796D01*
X2630982Y-1128217D01*
X2616403Y-1115009D01*
X2600604Y-1103274D01*
X2583688Y-1093165D01*
X2565908Y-1084783D01*
X2547416Y-1078128D01*
X2545537Y-1077671D01*
X2545537Y-1213662D01*
X2652166Y-1213662D01*
X2655773Y-1214323D01*
X2658922Y-1216202D01*
X2661158Y-1219098D01*
X2662224Y-1222603D01*
X2662021Y-1226261D01*
X2660853Y-1230884D01*
X2657957Y-1250340D01*
X2656992Y-1270000D01*
X2657957Y-1289659D01*
X2660853Y-1309116D01*
X2662021Y-1313738D01*
X2662224Y-1317396D01*
X2661158Y-1320901D01*
X2658922Y-1323797D01*
X2655773Y-1325676D01*
X2652166Y-1326337D01*
X2545537Y-1326337D01*
X2545537Y-1462328D01*
X2547416Y-1461871D01*
X2565908Y-1455216D01*
X2583688Y-1446834D01*
X2600604Y-1436725D01*
X2616403Y-1424990D01*
X2630982Y-1411782D01*
X2644190Y-1397203D01*
X2655925Y-1381404D01*
X2664612Y-1366824D01*
X2667457Y-1363776D01*
X2671267Y-1362100D01*
X2675432Y-1362100D01*
X2679242Y-1363776D01*
X2682087Y-1366824D01*
X2690774Y-1381404D01*
X2702509Y-1397203D01*
X2715717Y-1411782D01*
X2730296Y-1424990D01*
X2746095Y-1436725D01*
X2763012Y-1446834D01*
X2780792Y-1455216D01*
X2799283Y-1461871D01*
X2818384Y-1466646D01*
X2837840Y-1469542D01*
G37*
G36*
X2432862Y-1462328D02*
G01*
X2432862Y-1326337D01*
X2296871Y-1326337D01*
X2297328Y-1328216D01*
X2303983Y-1346708D01*
X2312365Y-1364488D01*
X2322474Y-1381404D01*
X2334209Y-1397203D01*
X2347417Y-1411782D01*
X2361996Y-1424990D01*
X2377795Y-1436725D01*
X2394712Y-1446834D01*
X2412492Y-1455216D01*
X2430983Y-1461871D01*
G37*
G36*
X6809028Y-1431493D02*
G01*
X6828434Y-1430528D01*
X6847636Y-1427683D01*
X6866483Y-1422958D01*
X6884771Y-1416405D01*
X6902348Y-1408125D01*
X6919010Y-1398117D01*
X6934606Y-1386535D01*
X6948982Y-1373479D01*
X6962038Y-1359103D01*
X6973620Y-1343507D01*
X6983628Y-1326845D01*
X6991908Y-1309268D01*
X6998462Y-1290980D01*
X7003186Y-1272133D01*
X7006031Y-1252931D01*
X7006996Y-1233525D01*
X7006031Y-1214069D01*
X7003186Y-1194866D01*
X6998462Y-1176020D01*
X6991908Y-1157732D01*
X6983628Y-1140155D01*
X6973620Y-1123492D01*
X6962038Y-1107897D01*
X6948982Y-1093520D01*
X6934606Y-1080465D01*
X6919010Y-1068882D01*
X6902348Y-1058875D01*
X6884771Y-1050594D01*
X6866483Y-1044041D01*
X6847636Y-1039317D01*
X6828434Y-1036472D01*
X6809028Y-1035507D01*
X6789572Y-1036472D01*
X6770370Y-1039317D01*
X6751523Y-1044041D01*
X6733235Y-1050594D01*
X6715658Y-1058875D01*
X6698996Y-1068882D01*
X6683400Y-1080465D01*
X6669024Y-1093520D01*
X6655968Y-1107897D01*
X6644386Y-1123492D01*
X6634378Y-1140155D01*
X6626098Y-1157732D01*
X6619544Y-1176020D01*
X6614820Y-1194866D01*
X6611975Y-1214069D01*
X6611010Y-1233525D01*
X6611975Y-1252931D01*
X6614820Y-1272133D01*
X6619544Y-1290980D01*
X6626098Y-1309268D01*
X6634378Y-1326845D01*
X6644386Y-1343507D01*
X6655968Y-1359103D01*
X6669024Y-1373479D01*
X6683400Y-1386535D01*
X6698996Y-1398117D01*
X6715658Y-1408125D01*
X6733235Y-1416405D01*
X6751523Y-1422958D01*
X6770370Y-1427683D01*
X6789572Y-1430528D01*
G37*
G36*
X2296871Y-1213662D02*
G01*
X2432862Y-1213662D01*
X2432862Y-1077671D01*
X2430983Y-1078128D01*
X2412492Y-1084783D01*
X2394712Y-1093165D01*
X2377795Y-1103274D01*
X2361996Y-1115009D01*
X2347417Y-1128217D01*
X2334209Y-1142796D01*
X2322474Y-1158595D01*
X2312365Y-1175512D01*
X2303983Y-1193292D01*
X2297328Y-1211783D01*
G37*
G36*
X9162643Y-794766D02*
G01*
X9164777Y-794410D01*
X9180982Y-789736D01*
X9190888Y-785622D01*
X9194800Y-784860D01*
X9198711Y-785622D01*
X9208617Y-789736D01*
X9224822Y-794410D01*
X9226956Y-794766D01*
X9226956Y-679043D01*
X9162643Y-679043D01*
G37*
G36*
X9035643Y-794766D02*
G01*
X9037777Y-794410D01*
X9053982Y-789736D01*
X9063888Y-785622D01*
X9067800Y-784860D01*
X9071711Y-785622D01*
X9081617Y-789736D01*
X9097822Y-794410D01*
X9099956Y-794766D01*
X9099956Y-679043D01*
X9035643Y-679043D01*
G37*
G36*
X9289643Y-794766D02*
G01*
X9291777Y-794410D01*
X9307982Y-789736D01*
X9323578Y-783285D01*
X9338360Y-775106D01*
X9352127Y-765352D01*
X9364726Y-754126D01*
X9375952Y-741527D01*
X9385706Y-727760D01*
X9393885Y-712978D01*
X9400336Y-697382D01*
X9405010Y-681177D01*
X9405366Y-679043D01*
X9289643Y-679043D01*
G37*
G36*
X8972956Y-794766D02*
G01*
X8972956Y-679043D01*
X8857234Y-679043D01*
X8857589Y-681177D01*
X8862263Y-697382D01*
X8868714Y-712978D01*
X8876893Y-727760D01*
X8886647Y-741527D01*
X8897874Y-754126D01*
X8910472Y-765352D01*
X8924239Y-775106D01*
X8939022Y-783285D01*
X8954617Y-789736D01*
X8970822Y-794410D01*
G37*
G36*
X500888Y-768451D02*
G01*
X523290Y-766978D01*
X545439Y-763625D01*
X567232Y-758393D01*
X588467Y-751281D01*
X609041Y-742340D01*
X628751Y-731723D01*
X647496Y-719429D01*
X665124Y-705561D01*
X681482Y-690219D01*
X696468Y-673506D01*
X709930Y-655624D01*
X721817Y-636625D01*
X732028Y-616661D01*
X740511Y-595934D01*
X747166Y-574497D01*
X751941Y-552602D01*
X754837Y-530402D01*
X755802Y-508000D01*
X754837Y-485597D01*
X751941Y-463397D01*
X747166Y-441502D01*
X740511Y-420065D01*
X732028Y-399338D01*
X721817Y-379374D01*
X709930Y-360375D01*
X696468Y-342493D01*
X681482Y-325780D01*
X665124Y-310438D01*
X647496Y-296570D01*
X628751Y-284276D01*
X609041Y-273659D01*
X588467Y-264718D01*
X567232Y-257606D01*
X545439Y-252374D01*
X523290Y-249021D01*
X500888Y-247548D01*
X478485Y-248056D01*
X456234Y-250444D01*
X434238Y-254762D01*
X412648Y-260959D01*
X391718Y-268986D01*
X371551Y-278739D01*
X352348Y-290220D01*
X334162Y-303326D01*
X317144Y-317957D01*
X301447Y-333959D01*
X287223Y-351282D01*
X274523Y-369722D01*
X263448Y-389229D01*
X254101Y-409600D01*
X246532Y-430682D01*
X240792Y-452374D01*
X236982Y-474472D01*
X235051Y-496773D01*
X235051Y-519226D01*
X236982Y-541528D01*
X240792Y-563626D01*
X246532Y-585317D01*
X254101Y-606399D01*
X263448Y-626770D01*
X274523Y-646277D01*
X287223Y-664718D01*
X301447Y-682040D01*
X317144Y-698042D01*
X334162Y-712673D01*
X352348Y-725779D01*
X371551Y-737260D01*
X391718Y-747014D01*
X412648Y-755040D01*
X434238Y-761238D01*
X456234Y-765556D01*
X478485Y-767943D01*
G37*
G36*
X4777028Y-669493D02*
G01*
X4796434Y-668528D01*
X4815636Y-665683D01*
X4834483Y-660958D01*
X4852771Y-654405D01*
X4870348Y-646125D01*
X4887010Y-636117D01*
X4902606Y-624535D01*
X4916982Y-611479D01*
X4930038Y-597103D01*
X4941620Y-581507D01*
X4951628Y-564845D01*
X4959908Y-547268D01*
X4966462Y-528980D01*
X4971186Y-510133D01*
X4974031Y-490931D01*
X4974996Y-471525D01*
X4974031Y-452069D01*
X4971186Y-432866D01*
X4966462Y-414020D01*
X4959908Y-395732D01*
X4951628Y-378155D01*
X4941620Y-361492D01*
X4930038Y-345897D01*
X4916982Y-331520D01*
X4902606Y-318465D01*
X4887010Y-306882D01*
X4870348Y-296875D01*
X4852771Y-288594D01*
X4834483Y-282041D01*
X4815636Y-277317D01*
X4796434Y-274472D01*
X4777028Y-273507D01*
X4757572Y-274472D01*
X4738370Y-277317D01*
X4719523Y-282041D01*
X4701235Y-288594D01*
X4683658Y-296875D01*
X4666996Y-306882D01*
X4651400Y-318465D01*
X4637024Y-331520D01*
X4623968Y-345897D01*
X4612386Y-361492D01*
X4602378Y-378155D01*
X4594098Y-395732D01*
X4587544Y-414020D01*
X4582820Y-432866D01*
X4579975Y-452069D01*
X4579010Y-471525D01*
X4579975Y-490931D01*
X4582820Y-510133D01*
X4587544Y-528980D01*
X4594098Y-547268D01*
X4602378Y-564845D01*
X4612386Y-581507D01*
X4623968Y-597103D01*
X4637024Y-611479D01*
X4651400Y-624535D01*
X4666996Y-636117D01*
X4683658Y-646125D01*
X4701235Y-654405D01*
X4719523Y-660958D01*
X4738370Y-665683D01*
X4757572Y-668528D01*
G37*
G36*
X9035643Y-616356D02*
G01*
X9099956Y-616356D01*
X9099956Y-500634D01*
X9097822Y-500989D01*
X9081617Y-505663D01*
X9071711Y-509778D01*
X9067800Y-510540D01*
X9063888Y-509778D01*
X9053982Y-505663D01*
X9037777Y-500989D01*
X9035643Y-500634D01*
G37*
G36*
X9162643Y-616356D02*
G01*
X9226956Y-616356D01*
X9226956Y-500634D01*
X9224822Y-500989D01*
X9208617Y-505663D01*
X9198711Y-509778D01*
X9194800Y-510540D01*
X9190888Y-509778D01*
X9180982Y-505663D01*
X9164777Y-500989D01*
X9162643Y-500634D01*
G37*
G36*
X9289643Y-616356D02*
G01*
X9405366Y-616356D01*
X9405010Y-614222D01*
X9400336Y-598017D01*
X9393885Y-582422D01*
X9385706Y-567639D01*
X9375952Y-553872D01*
X9364726Y-541274D01*
X9352127Y-530047D01*
X9338360Y-520293D01*
X9323578Y-512114D01*
X9307982Y-505663D01*
X9291777Y-500989D01*
X9289643Y-500634D01*
G37*
G36*
X8857234Y-616356D02*
G01*
X8972956Y-616356D01*
X8972956Y-500634D01*
X8970822Y-500989D01*
X8954617Y-505663D01*
X8939022Y-512114D01*
X8924239Y-520293D01*
X8910472Y-530047D01*
X8897874Y-541274D01*
X8886647Y-553872D01*
X8876893Y-567639D01*
X8868714Y-582422D01*
X8862263Y-598017D01*
X8857589Y-614222D01*
G37*
G36*
X3858615Y-598373D02*
G01*
X4015384Y-598373D01*
X4028846Y-597458D01*
X4041749Y-594918D01*
X4054195Y-590702D01*
X4065981Y-584860D01*
X4076903Y-577545D01*
X4086809Y-568909D01*
X4095445Y-559003D01*
X4102760Y-548081D01*
X4108602Y-536295D01*
X4112818Y-523849D01*
X4115358Y-510946D01*
X4116273Y-497484D01*
X4116273Y-340715D01*
X4115358Y-327253D01*
X4112818Y-314350D01*
X4108602Y-301904D01*
X4102760Y-290118D01*
X4095445Y-279196D01*
X4086809Y-269290D01*
X4076903Y-260654D01*
X4065981Y-253339D01*
X4054195Y-247548D01*
X4041749Y-243281D01*
X4028846Y-240741D01*
X4015384Y-239877D01*
X3858615Y-239877D01*
X3845153Y-240741D01*
X3832250Y-243281D01*
X3819804Y-247548D01*
X3808018Y-253339D01*
X3797096Y-260654D01*
X3790340Y-266547D01*
X3786682Y-268630D01*
X3782415Y-268986D01*
X3778402Y-267614D01*
X3767226Y-260908D01*
X3750513Y-253085D01*
X3733088Y-246989D01*
X3728720Y-245973D01*
X3728720Y-373380D01*
X3747566Y-373380D01*
X3751478Y-374142D01*
X3754780Y-376377D01*
X3756964Y-379628D01*
X3757777Y-383540D01*
X3757777Y-454659D01*
X3756964Y-458571D01*
X3754780Y-461822D01*
X3751478Y-464058D01*
X3747566Y-464820D01*
X3728720Y-464820D01*
X3728720Y-592226D01*
X3733088Y-591210D01*
X3750513Y-585114D01*
X3767226Y-577291D01*
X3778402Y-570585D01*
X3782415Y-569214D01*
X3786682Y-569569D01*
X3790340Y-571652D01*
X3797096Y-577545D01*
X3808018Y-584860D01*
X3819804Y-590702D01*
X3832250Y-594918D01*
X3845153Y-597458D01*
G37*
G36*
X2334615Y-598373D02*
G01*
X2491384Y-598373D01*
X2504846Y-597458D01*
X2517749Y-594918D01*
X2530195Y-590702D01*
X2541981Y-584860D01*
X2552903Y-577545D01*
X2562809Y-568909D01*
X2571445Y-559003D01*
X2578760Y-548081D01*
X2584602Y-536295D01*
X2588818Y-523849D01*
X2591358Y-510946D01*
X2592273Y-497484D01*
X2592273Y-340715D01*
X2591358Y-327253D01*
X2588818Y-314350D01*
X2584602Y-301904D01*
X2578760Y-290118D01*
X2571445Y-279196D01*
X2562809Y-269290D01*
X2552903Y-260654D01*
X2541981Y-253339D01*
X2530195Y-247548D01*
X2517749Y-243281D01*
X2504846Y-240741D01*
X2491384Y-239877D01*
X2334615Y-239877D01*
X2321153Y-240741D01*
X2308250Y-243281D01*
X2295804Y-247548D01*
X2284018Y-253339D01*
X2273096Y-260654D01*
X2266340Y-266547D01*
X2262682Y-268630D01*
X2258415Y-268986D01*
X2254402Y-267614D01*
X2243226Y-260908D01*
X2226513Y-253085D01*
X2209088Y-246989D01*
X2204720Y-245973D01*
X2204720Y-373380D01*
X2223566Y-373380D01*
X2227478Y-374142D01*
X2230780Y-376377D01*
X2232964Y-379628D01*
X2233777Y-383540D01*
X2233777Y-454659D01*
X2232964Y-458571D01*
X2230780Y-461822D01*
X2227478Y-464058D01*
X2223566Y-464820D01*
X2204720Y-464820D01*
X2204720Y-592226D01*
X2209088Y-591210D01*
X2226513Y-585114D01*
X2243226Y-577291D01*
X2254402Y-570585D01*
X2258415Y-569214D01*
X2262682Y-569569D01*
X2266340Y-571652D01*
X2273096Y-577545D01*
X2284018Y-584860D01*
X2295804Y-590702D01*
X2308250Y-594918D01*
X2321153Y-597458D01*
G37*
G36*
X3424377Y-598271D02*
G01*
X3442817Y-597814D01*
X3461156Y-595426D01*
X3479088Y-591210D01*
X3496513Y-585114D01*
X3513226Y-577291D01*
X3529076Y-567791D01*
X3543808Y-556717D01*
X3548989Y-551942D01*
X3552088Y-550011D01*
X3555644Y-549249D01*
X3559251Y-549808D01*
X3562400Y-551586D01*
X3575405Y-562457D01*
X3590747Y-572770D01*
X3607003Y-581456D01*
X3624122Y-588365D01*
X3637279Y-592226D01*
X3637279Y-464820D01*
X3614826Y-464820D01*
X3610457Y-463854D01*
X3606901Y-461060D01*
X3604920Y-457047D01*
X3604869Y-452577D01*
X3606088Y-446684D01*
X3608019Y-428345D01*
X3608019Y-409854D01*
X3606088Y-391515D01*
X3604869Y-385622D01*
X3604920Y-381152D01*
X3606901Y-377139D01*
X3610457Y-374345D01*
X3614826Y-373380D01*
X3637279Y-373380D01*
X3637279Y-245973D01*
X3624122Y-249834D01*
X3607003Y-256743D01*
X3590747Y-265430D01*
X3575405Y-275742D01*
X3562400Y-286613D01*
X3559251Y-288391D01*
X3555644Y-288950D01*
X3552088Y-288188D01*
X3548989Y-286258D01*
X3543808Y-281482D01*
X3529076Y-270408D01*
X3513226Y-260908D01*
X3496513Y-253085D01*
X3479088Y-246989D01*
X3461156Y-242773D01*
X3442817Y-240385D01*
X3424377Y-239928D01*
X3405987Y-241350D01*
X3387851Y-244652D01*
X3370122Y-249834D01*
X3353003Y-256743D01*
X3336747Y-265430D01*
X3321405Y-275742D01*
X3308400Y-286613D01*
X3305251Y-288391D01*
X3301644Y-288950D01*
X3298088Y-288188D01*
X3294989Y-286258D01*
X3289808Y-281482D01*
X3275076Y-270408D01*
X3259226Y-260908D01*
X3242513Y-253085D01*
X3225088Y-246989D01*
X3220720Y-245973D01*
X3220720Y-373380D01*
X3243122Y-373380D01*
X3247339Y-374294D01*
X3250793Y-376936D01*
X3252876Y-380746D01*
X3253130Y-385114D01*
X3250692Y-400659D01*
X3249777Y-419100D01*
X3250692Y-437540D01*
X3253130Y-453085D01*
X3252876Y-457454D01*
X3250793Y-461264D01*
X3247339Y-463905D01*
X3243122Y-464820D01*
X3220720Y-464820D01*
X3220720Y-592226D01*
X3225088Y-591210D01*
X3242513Y-585114D01*
X3259226Y-577291D01*
X3275076Y-567791D01*
X3289808Y-556717D01*
X3294989Y-551942D01*
X3298088Y-550011D01*
X3301644Y-549249D01*
X3305251Y-549808D01*
X3308400Y-551586D01*
X3321405Y-562457D01*
X3336747Y-572770D01*
X3353003Y-581456D01*
X3370122Y-588365D01*
X3387851Y-593547D01*
X3405987Y-596849D01*
G37*
G36*
X3129280Y-592226D02*
G01*
X3129280Y-464820D01*
X3001924Y-464820D01*
X3004261Y-473608D01*
X3010763Y-490880D01*
X3018993Y-507390D01*
X3028899Y-522935D01*
X3040380Y-537413D01*
X3053232Y-550621D01*
X3067405Y-562457D01*
X3082747Y-572770D01*
X3099003Y-581456D01*
X3116122Y-588365D01*
G37*
G36*
X3001924Y-373380D02*
G01*
X3129280Y-373380D01*
X3129280Y-245973D01*
X3116122Y-249834D01*
X3099003Y-256743D01*
X3082747Y-265430D01*
X3067405Y-275742D01*
X3053232Y-287578D01*
X3040380Y-300786D01*
X3028899Y-315264D01*
X3018993Y-330809D01*
X3010763Y-347319D01*
X3004261Y-364591D01*
G37*

%LPD*%
G36*
X9738360Y-1790700D02*
G01*
X9734448Y-1789938D01*
X9731197Y-1787702D01*
X9728962Y-1784451D01*
X9728200Y-1780539D01*
X9728200Y-759460D01*
X9728962Y-755548D01*
X9731197Y-752297D01*
X9734448Y-750062D01*
X9738360Y-749300D01*
X10657840Y-749300D01*
X10661751Y-750062D01*
X10665002Y-752297D01*
X10667238Y-755548D01*
X10668000Y-759460D01*
X10668000Y-1780539D01*
X10667238Y-1784451D01*
X10665002Y-1787702D01*
X10661751Y-1789938D01*
X10657840Y-1790700D01*
G37*

%LPD*%
G36*
X9738360Y-4254500D02*
G01*
X9734448Y-4253738D01*
X9731197Y-4251502D01*
X9728962Y-4248251D01*
X9728200Y-4244340D01*
X9728200Y-3223260D01*
X9728962Y-3219348D01*
X9731197Y-3216097D01*
X9734448Y-3213862D01*
X9738360Y-3213100D01*
X10683240Y-3213100D01*
X10687151Y-3213862D01*
X10690402Y-3216097D01*
X10692638Y-3219348D01*
X10693400Y-3223260D01*
X10693400Y-4244340D01*
X10692638Y-4248251D01*
X10690402Y-4251502D01*
X10687151Y-4253738D01*
X10683240Y-4254500D01*
G37*

%LPD*%
G36*
X2895498Y-5119217D02*
G01*
X2891637Y-5118404D01*
X2888335Y-5116220D01*
X2886151Y-5112918D01*
X2885338Y-5109057D01*
X2885338Y-5101793D01*
X2886151Y-5097881D01*
X2888335Y-5094579D01*
X2891637Y-5092395D01*
X2895498Y-5091633D01*
X3229203Y-5091531D01*
X3240125Y-5090668D01*
X3243376Y-5090210D01*
X3254095Y-5088026D01*
X3257245Y-5087162D01*
X3267608Y-5083606D01*
X3270605Y-5082336D01*
X3283305Y-5075936D01*
X3292449Y-5069890D01*
X3295040Y-5067960D01*
X3303422Y-5060797D01*
X3943197Y-4421022D01*
X3950360Y-4412640D01*
X3952290Y-4410049D01*
X3958336Y-4400905D01*
X3964736Y-4388205D01*
X3966006Y-4385208D01*
X3969562Y-4374845D01*
X3970426Y-4371695D01*
X3972610Y-4360976D01*
X3973068Y-4357725D01*
X3973931Y-4346803D01*
X3974033Y-3411575D01*
X3974846Y-3407511D01*
X3977284Y-3404108D01*
X3980891Y-3401974D01*
X3985006Y-3401466D01*
X3997147Y-3402431D01*
X4059021Y-3402533D01*
X4062780Y-3403244D01*
X4066032Y-3405276D01*
X4068267Y-3408426D01*
X4069181Y-3412134D01*
X4068622Y-3415944D01*
X4066743Y-3419246D01*
X4061409Y-3425850D01*
X4055364Y-3434994D01*
X4048963Y-3447694D01*
X4047693Y-3450691D01*
X4044137Y-3461054D01*
X4043273Y-3464204D01*
X4041089Y-3474974D01*
X4040632Y-3478174D01*
X4039768Y-3489096D01*
X4039666Y-5105095D01*
X4038904Y-5109006D01*
X4036720Y-5112308D01*
X4032808Y-5116220D01*
X4029506Y-5118404D01*
X4025595Y-5119217D01*
G37*

%LPD*%
G36*
X9751060Y-6731000D02*
G01*
X9747148Y-6730238D01*
X9743897Y-6728002D01*
X9741662Y-6724751D01*
X9740900Y-6720840D01*
X9740900Y-5699760D01*
X9741662Y-5695848D01*
X9743897Y-5692597D01*
X9747148Y-5690362D01*
X9751060Y-5689600D01*
X10670540Y-5689600D01*
X10674451Y-5690362D01*
X10677702Y-5692597D01*
X10679938Y-5695848D01*
X10680700Y-5699760D01*
X10680700Y-6720840D01*
X10679938Y-6724751D01*
X10677702Y-6728002D01*
X10674451Y-6730238D01*
X10670540Y-6731000D01*
G37*

%LPD*%
G36*
X9725660Y-9194800D02*
G01*
X9721748Y-9194038D01*
X9718497Y-9191802D01*
X9716262Y-9188551D01*
X9715500Y-9184640D01*
X9715500Y-8163559D01*
X9716262Y-8159648D01*
X9718497Y-8156397D01*
X9721748Y-8154162D01*
X9725660Y-8153400D01*
X10645140Y-8153400D01*
X10649051Y-8154162D01*
X10652302Y-8156397D01*
X10654538Y-8159648D01*
X10655300Y-8163559D01*
X10655300Y-9184640D01*
X10654538Y-9188551D01*
X10652302Y-9191802D01*
X10649051Y-9194038D01*
X10645140Y-9194800D01*
G37*

%LPD*%
D10*
X5219700Y-5689600D02*
G01*
X4991100Y-5918200D01*
X4318000Y-5918200D01*
X3505200Y-6731000D01*
X3505200Y-7213600D01*
X3200400Y-7518400D01*
X2527300Y-7518400D01*
X2489200Y-7556500D01*
X2489200Y-7848600D01*
X2540000Y-7899400D01*
X2705100Y-7899400D01*
X2209800Y-5613400D02*
G01*
X1435100Y-5613400D01*
X927100Y-6121400D01*
X3860800Y-3302000D02*
G01*
X3860800Y-4343400D01*
X3225800Y-4978400D01*
X2222500Y-4978400D01*
X4216400Y-3429000D02*
G01*
X4152900Y-3492500D01*
X4152900Y-5156200D01*
X4076700Y-5232400D01*
X1054100Y-5232400D01*
X927100Y-5359400D01*
X4216400Y-3657600D02*
G01*
X4216400Y-5321300D01*
X4051300Y-5486400D01*
X1054100Y-5486400D01*
X927100Y-5613400D01*
X8788400Y-1016000D02*
G01*
X8496300Y-1308100D01*
X8496300Y-3302000D01*
X8394700Y-3403600D01*
X7493000Y-3403600D01*
X6045200Y-4851400D01*
X6045200Y-5422900D01*
X5994400Y-5473700D01*
X5003800Y-5473700D01*
X4838700Y-5638800D01*
X4838700Y-5689600D01*
X5892800Y-6375400D02*
G01*
X6261100Y-6375400D01*
X4965700Y-5689600D02*
G01*
X4965700Y-5829300D01*
X4917566Y-5877432D01*
X4295266Y-5877432D01*
X3454400Y-6718300D01*
X3454400Y-7200900D01*
X3263900Y-7391400D01*
X2705100Y-7391400D01*
X5473700Y-5689600D02*
G01*
X5473700Y-5930900D01*
X5435600Y-5969000D01*
X4343400Y-5969000D01*
X3581400Y-6731000D01*
X3581400Y-7239000D01*
X3175000Y-7645400D01*
X2705100Y-7645400D01*
X5727700Y-5765800D02*
G01*
X5473700Y-6019800D01*
X4368800Y-6019800D01*
X3644900Y-6743700D01*
X3644900Y-7886700D01*
X3378200Y-8153400D01*
X2705100Y-8153400D01*
X8750300Y-3606800D02*
G01*
X7569200Y-3606800D01*
X6248400Y-4927600D01*
X6248400Y-5537200D01*
X6096000Y-5689600D01*
X5600700Y-5689600D01*
X8775700Y-6464300D02*
G01*
X8636000Y-6604000D01*
X7442200Y-6604000D01*
X7429500Y-6350000D02*
G01*
X7442200Y-6337300D01*
X8775700Y-6337300D01*
X8712200Y-7823200D02*
G01*
X8255000Y-7366000D01*
X7429500Y-7366000D01*
X8559800Y-7899400D02*
G01*
X8280400Y-7620000D01*
X7429500Y-7620000D01*
X7620000Y-1524000D02*
G01*
X7620000Y-2082800D01*
X7543800Y-2159000D01*
X7442200Y-1397000D02*
G01*
X7442200Y-2146300D01*
X7429500Y-2159000D01*
X8763000Y-3860800D02*
G01*
X7404100Y-5219700D01*
X7404100Y-5334000D01*
X8763000Y-3987800D02*
G01*
X7581900Y-5168900D01*
X7581900Y-5499100D01*
X7493000Y-5588000D01*
X7404100Y-5588000D01*
X8763000Y-8547100D02*
G01*
X8483600Y-8267700D01*
X5448300Y-8267700D01*
X4838700Y-7658100D01*
X4838700Y-6121400D01*
X8763000Y-8420100D02*
G01*
X8534400Y-8191500D01*
X5448300Y-8191500D01*
X5092700Y-7835900D01*
X5092700Y-6121400D01*
X8750300Y-6083300D02*
G01*
X5791200Y-6083300D01*
X5664200Y-6210300D01*
X5435600Y-6210300D01*
X5346700Y-6121400D01*
X8750300Y-5956300D02*
G01*
X8699500Y-6007100D01*
X5753100Y-6007100D01*
X5638800Y-6121400D01*
X5600700Y-6121400D01*
X8788400Y-1143000D02*
G01*
X8547100Y-1384300D01*
X8547100Y-3352800D01*
X8432800Y-3467100D01*
X7505700Y-3467100D01*
X6096000Y-4876800D01*
X6096000Y-5461000D01*
X6032500Y-5524500D01*
X5270500Y-5524500D01*
X5105400Y-5689600D01*
X5092700Y-5689600D01*
X8750300Y-3479800D02*
G01*
X8699500Y-3530600D01*
X7543800Y-3530600D01*
X6172200Y-4902200D01*
X6172200Y-5499100D01*
X6083300Y-5588000D01*
X5435600Y-5588000D01*
X5346700Y-5676900D01*
X5346700Y-5689600D01*
X1905000Y-419100D02*
G01*
X609600Y-1714500D01*
X609600Y-3098800D01*
X1155700Y-3644900D01*
X1155700Y-4737100D01*
X1536700Y-5118100D01*
X2692400Y-5118100D01*
X2705100Y-5105400D01*
X1651000Y-419100D02*
G01*
X1651000Y-266700D01*
X1701800Y-215900D01*
X1968500Y-215900D01*
X2032000Y-279400D01*
X2032000Y-495300D01*
X1955800Y-571500D01*
X1854200Y-571500D01*
X673100Y-1752600D01*
X673100Y-3086100D01*
X1206500Y-3619500D01*
X1206500Y-4648200D01*
X1409700Y-4851400D01*
X2705861Y-4851654D01*
X4254500Y-3289300D02*
G01*
X4000500Y-3289300D01*
X3924300Y-3213100D01*
X3822700Y-3213100D01*
X3746500Y-3289300D01*
X3746500Y-3390900D01*
D11*
G01*
X1905000Y-2921000D03*
D12*
G01*
X1905000Y-2667000D03*
G01*
X1905000Y-2413000D03*
D11*
G01*
X2159000Y-2921000D03*
D12*
G01*
X2159000Y-2667000D03*
G01*
X2159000Y-2413000D03*
D11*
G01*
X2413000Y-2921000D03*
D12*
G01*
X2413000Y-2667000D03*
G01*
X2413000Y-2413000D03*
D11*
G01*
X2667000Y-2921000D03*
D12*
G01*
X2667000Y-2667000D03*
G01*
X2667000Y-2413000D03*
D11*
G01*
X889000Y-2921000D03*
D12*
G01*
X889000Y-2667000D03*
G01*
X889000Y-2413000D03*
D11*
G01*
X1143000Y-2921000D03*
D12*
G01*
X1143000Y-2667000D03*
G01*
X1143000Y-2413000D03*
D11*
G01*
X1397000Y-2921000D03*
D12*
G01*
X1397000Y-2667000D03*
G01*
X1397000Y-2413000D03*
D11*
G01*
X1651000Y-2921000D03*
D12*
G01*
X1651000Y-2667000D03*
G01*
X1651000Y-2413000D03*
D11*
G01*
X5816600Y-9499600D03*
D12*
G01*
X5562600Y-9499600D03*
G01*
X5308600Y-9499600D03*
D13*
G01*
X2705100Y-8915400D03*
D14*
G01*
X2705100Y-8661400D03*
G01*
X2705100Y-8407400D03*
G01*
X2705100Y-8153400D03*
G01*
X2705100Y-7899400D03*
G01*
X2705100Y-7645400D03*
G01*
X2705100Y-7391400D03*
G01*
X2705100Y-7137400D03*
G01*
X2705100Y-6883400D03*
G01*
X2705100Y-6629400D03*
G01*
X2705100Y-6375400D03*
G01*
X2705100Y-6121400D03*
G01*
X2705100Y-5867400D03*
G01*
X2705100Y-5613400D03*
G01*
X2705100Y-5359400D03*
G01*
X2705100Y-5105400D03*
G01*
X2705836Y-4851780D03*
G01*
X2705100Y-4597400D03*
G01*
X2705100Y-4343400D03*
G01*
X2705100Y-4089400D03*
G01*
X927100Y-4089400D03*
G01*
X927100Y-4343400D03*
G01*
X927100Y-4590237D03*
G01*
X927100Y-4851400D03*
G01*
X927100Y-5105400D03*
G01*
X927100Y-5359400D03*
G01*
X927100Y-5613400D03*
G01*
X927100Y-5867400D03*
G01*
X927100Y-6121400D03*
G01*
X927100Y-6375400D03*
G01*
X927100Y-6629400D03*
G01*
X927100Y-6883400D03*
G01*
X927100Y-7137400D03*
G01*
X927100Y-7391400D03*
G01*
X927100Y-7645400D03*
G01*
X927100Y-7899400D03*
G01*
X927100Y-8153400D03*
G01*
X927100Y-8407400D03*
G01*
X927100Y-8661400D03*
G01*
X927100Y-8915400D03*
G01*
X2197100Y-4089400D03*
G01*
X1943100Y-4089400D03*
G01*
X1689100Y-4089400D03*
G01*
X1435100Y-4089400D03*
D12*
G01*
X3810000Y-1231900D03*
G01*
X3810000Y-1485900D03*
D11*
G01*
X3810000Y-1739900D03*
G01*
X3937000Y-419100D03*
D12*
G01*
X3683000Y-419100D03*
G01*
X3429000Y-419100D03*
G01*
X3175000Y-419100D03*
D11*
G01*
X3543300Y-9486900D03*
D12*
G01*
X3797300Y-9486900D03*
G01*
X4051300Y-9486900D03*
G01*
X4305300Y-9486900D03*
D11*
G01*
X2413000Y-419100D03*
D12*
G01*
X2159000Y-419100D03*
G01*
X1905000Y-419100D03*
G01*
X1651000Y-419100D03*
D15*
G01*
X6809003Y-2503500D03*
G01*
X4777003Y-2503500D03*
G01*
X4777003Y-1487500D03*
G01*
X4777003Y-471500D03*
G01*
X6809003Y-1741500D03*
G01*
X6809003Y-1233500D03*
D16*
G01*
X7245019Y-9093200D03*
G01*
X7995005Y-9093200D03*
D17*
G01*
X11950700Y-1231900D03*
G01*
X11950700Y-2032000D03*
G01*
X11950700Y-4508500D03*
G01*
X11950700Y-5270500D03*
G01*
X11950700Y-8128000D03*
G01*
X11950700Y-7366000D03*
D18*
G01*
X9017000Y-3086100D03*
G01*
X9144000Y-3086100D03*
G01*
X9271000Y-3086100D03*
G01*
X9004300Y-647700D03*
G01*
X9131300Y-647700D03*
G01*
X9258300Y-647700D03*
G01*
X9017000Y-5562600D03*
G01*
X9144000Y-5562600D03*
G01*
X9271000Y-5562600D03*
G01*
X8991600Y-8039100D03*
G01*
X9118600Y-8039100D03*
G01*
X9245600Y-8039100D03*
D19*
G01*
X9791700Y-876300D03*
G01*
X9880600Y-876300D03*
G01*
X9969500Y-876300D03*
G01*
X10058400Y-876300D03*
G01*
X10147300Y-876300D03*
G01*
X10236200Y-876300D03*
G01*
X10325100Y-876300D03*
G01*
X10414000Y-876300D03*
G01*
X10414000Y-965200D03*
G01*
X10325100Y-965200D03*
G01*
X10236200Y-965200D03*
G01*
X10147300Y-965200D03*
G01*
X10058400Y-965200D03*
G01*
X9969500Y-965200D03*
G01*
X9880600Y-965200D03*
G01*
X9791700Y-965200D03*
G01*
X10414000Y-1054100D03*
G01*
X10325100Y-1054100D03*
G01*
X10236200Y-1054100D03*
G01*
X10147300Y-1054100D03*
G01*
X10058400Y-1054100D03*
G01*
X9969500Y-1054100D03*
G01*
X9880600Y-1054100D03*
G01*
X9791700Y-1054100D03*
G01*
X10414000Y-1143000D03*
G01*
X10325100Y-1143000D03*
G01*
X10236200Y-1143000D03*
G01*
X10147300Y-1143000D03*
G01*
X10058400Y-1143000D03*
G01*
X9969500Y-1143000D03*
G01*
X9880600Y-1143000D03*
G01*
X9791700Y-1143000D03*
G01*
X10414000Y-1231900D03*
G01*
X10325100Y-1231900D03*
G01*
X10236200Y-1231900D03*
G01*
X10147300Y-1231900D03*
G01*
X10058400Y-1231900D03*
G01*
X9969500Y-1231900D03*
G01*
X9880600Y-1231900D03*
G01*
X9791700Y-1231900D03*
G01*
X10414000Y-1320800D03*
G01*
X10325100Y-1320800D03*
G01*
X10236200Y-1320800D03*
G01*
X10147300Y-1320800D03*
G01*
X10058400Y-1320800D03*
G01*
X9969500Y-1320800D03*
G01*
X9880600Y-1320800D03*
G01*
X9791700Y-1320800D03*
G01*
X10414000Y-1409700D03*
G01*
X10325100Y-1409700D03*
G01*
X10236200Y-1409700D03*
G01*
X10147300Y-1409700D03*
G01*
X10058400Y-1409700D03*
G01*
X9969500Y-1409700D03*
G01*
X9880600Y-1409700D03*
G01*
X9791700Y-1409700D03*
G01*
X10414000Y-1498600D03*
G01*
X10325100Y-1498600D03*
G01*
X10236200Y-1498600D03*
G01*
X10147300Y-1498600D03*
G01*
X10058400Y-1498600D03*
G01*
X9969500Y-1498600D03*
G01*
X9880600Y-1498600D03*
G01*
X9791700Y-1498600D03*
G01*
X10502900Y-1498600D03*
G01*
X10502900Y-1409700D03*
G01*
X10502900Y-1320800D03*
G01*
X10502900Y-1231900D03*
G01*
X10502900Y-1143000D03*
G01*
X10502900Y-1054100D03*
G01*
X10502900Y-965200D03*
G01*
X10502900Y-876300D03*
G01*
X10591800Y-1498600D03*
G01*
X10591800Y-1409700D03*
G01*
X10591800Y-1320800D03*
G01*
X10591800Y-1231900D03*
G01*
X10591800Y-1143000D03*
G01*
X10591800Y-1054100D03*
G01*
X10591800Y-965200D03*
G01*
X10591800Y-876300D03*
G01*
X10591800Y-1587500D03*
G01*
X10502900Y-1587500D03*
G01*
X9791700Y-1587500D03*
G01*
X9880600Y-1587500D03*
G01*
X9969500Y-1587500D03*
G01*
X10058400Y-1587500D03*
G01*
X10147300Y-1587500D03*
G01*
X10236200Y-1587500D03*
G01*
X10325100Y-1587500D03*
G01*
X10414000Y-1587500D03*
G01*
X10591800Y-1676400D03*
G01*
X10502900Y-1676400D03*
G01*
X9791700Y-1676400D03*
G01*
X9880600Y-1676400D03*
G01*
X9969500Y-1676400D03*
G01*
X10058400Y-1676400D03*
G01*
X10147300Y-1676400D03*
G01*
X10236200Y-1676400D03*
G01*
X10325100Y-1676400D03*
G01*
X10414000Y-1676400D03*
G01*
X10426700Y-4140200D03*
G01*
X10337800Y-4140200D03*
G01*
X10248900Y-4140200D03*
G01*
X10160000Y-4140200D03*
G01*
X10071100Y-4140200D03*
G01*
X9982200Y-4140200D03*
G01*
X9893300Y-4140200D03*
G01*
X9804400Y-4140200D03*
G01*
X10515600Y-4140200D03*
G01*
X10604500Y-4140200D03*
G01*
X10426700Y-4051300D03*
G01*
X10337800Y-4051300D03*
G01*
X10248900Y-4051300D03*
G01*
X10160000Y-4051300D03*
G01*
X10071100Y-4051300D03*
G01*
X9982200Y-4051300D03*
G01*
X9893300Y-4051300D03*
G01*
X9804400Y-4051300D03*
G01*
X10515600Y-4051300D03*
G01*
X10604500Y-4051300D03*
G01*
X10604500Y-3340100D03*
G01*
X10604500Y-3429000D03*
G01*
X10604500Y-3517900D03*
G01*
X10604500Y-3606800D03*
G01*
X10604500Y-3695700D03*
G01*
X10604500Y-3784600D03*
G01*
X10604500Y-3873500D03*
G01*
X10604500Y-3962400D03*
G01*
X10515600Y-3340100D03*
G01*
X10515600Y-3429000D03*
G01*
X10515600Y-3517900D03*
G01*
X10515600Y-3606800D03*
G01*
X10515600Y-3695700D03*
G01*
X10515600Y-3784600D03*
G01*
X10515600Y-3873500D03*
G01*
X10515600Y-3962400D03*
G01*
X9804400Y-3962400D03*
G01*
X9893300Y-3962400D03*
G01*
X9982200Y-3962400D03*
G01*
X10071100Y-3962400D03*
G01*
X10160000Y-3962400D03*
G01*
X10248900Y-3962400D03*
G01*
X10337800Y-3962400D03*
G01*
X10426700Y-3962400D03*
G01*
X9804400Y-3873500D03*
G01*
X9893300Y-3873500D03*
G01*
X9982200Y-3873500D03*
G01*
X10071100Y-3873500D03*
G01*
X10160000Y-3873500D03*
G01*
X10248900Y-3873500D03*
G01*
X10337800Y-3873500D03*
G01*
X10426700Y-3873500D03*
G01*
X9804400Y-3784600D03*
G01*
X9893300Y-3784600D03*
G01*
X9982200Y-3784600D03*
G01*
X10071100Y-3784600D03*
G01*
X10160000Y-3784600D03*
G01*
X10248900Y-3784600D03*
G01*
X10337800Y-3784600D03*
G01*
X10426700Y-3784600D03*
G01*
X9804400Y-3695700D03*
G01*
X9893300Y-3695700D03*
G01*
X9982200Y-3695700D03*
G01*
X10071100Y-3695700D03*
G01*
X10160000Y-3695700D03*
G01*
X10248900Y-3695700D03*
G01*
X10337800Y-3695700D03*
G01*
X10426700Y-3695700D03*
G01*
X9804400Y-3606800D03*
G01*
X9893300Y-3606800D03*
G01*
X9982200Y-3606800D03*
G01*
X10071100Y-3606800D03*
G01*
X10160000Y-3606800D03*
G01*
X10248900Y-3606800D03*
G01*
X10337800Y-3606800D03*
G01*
X10426700Y-3606800D03*
G01*
X9804400Y-3517900D03*
G01*
X9893300Y-3517900D03*
G01*
X9982200Y-3517900D03*
G01*
X10071100Y-3517900D03*
G01*
X10160000Y-3517900D03*
G01*
X10248900Y-3517900D03*
G01*
X10337800Y-3517900D03*
G01*
X10426700Y-3517900D03*
G01*
X9804400Y-3429000D03*
G01*
X9893300Y-3429000D03*
G01*
X9982200Y-3429000D03*
G01*
X10071100Y-3429000D03*
G01*
X10160000Y-3429000D03*
G01*
X10248900Y-3429000D03*
G01*
X10337800Y-3429000D03*
G01*
X10426700Y-3429000D03*
G01*
X10426700Y-3340100D03*
G01*
X10337800Y-3340100D03*
G01*
X10248900Y-3340100D03*
G01*
X10160000Y-3340100D03*
G01*
X10071100Y-3340100D03*
G01*
X9982200Y-3340100D03*
G01*
X9893300Y-3340100D03*
G01*
X9804400Y-3340100D03*
G01*
X10426700Y-6604000D03*
G01*
X10337800Y-6604000D03*
G01*
X10248900Y-6604000D03*
G01*
X10160000Y-6604000D03*
G01*
X10071100Y-6604000D03*
G01*
X9982200Y-6604000D03*
G01*
X9893300Y-6604000D03*
G01*
X9804400Y-6604000D03*
G01*
X10515600Y-6604000D03*
G01*
X10604500Y-6604000D03*
G01*
X10426700Y-6515100D03*
G01*
X10337800Y-6515100D03*
G01*
X10248900Y-6515100D03*
G01*
X10160000Y-6515100D03*
G01*
X10071100Y-6515100D03*
G01*
X9982200Y-6515100D03*
G01*
X9893300Y-6515100D03*
G01*
X9804400Y-6515100D03*
G01*
X10515600Y-6515100D03*
G01*
X10604500Y-6515100D03*
G01*
X10604500Y-5803900D03*
G01*
X10604500Y-5892800D03*
G01*
X10604500Y-5981700D03*
G01*
X10604500Y-6070600D03*
G01*
X10604500Y-6159500D03*
G01*
X10604500Y-6248400D03*
G01*
X10604500Y-6337300D03*
G01*
X10604500Y-6426200D03*
G01*
X10515600Y-5803900D03*
G01*
X10515600Y-5892800D03*
G01*
X10515600Y-5981700D03*
G01*
X10515600Y-6070600D03*
G01*
X10515600Y-6159500D03*
G01*
X10515600Y-6248400D03*
G01*
X10515600Y-6337300D03*
G01*
X10515600Y-6426200D03*
G01*
X9804400Y-6426200D03*
G01*
X9893300Y-6426200D03*
G01*
X9982200Y-6426200D03*
G01*
X10071100Y-6426200D03*
G01*
X10160000Y-6426200D03*
G01*
X10248900Y-6426200D03*
G01*
X10337800Y-6426200D03*
G01*
X10426700Y-6426200D03*
G01*
X9804400Y-6337300D03*
G01*
X9893300Y-6337300D03*
G01*
X9982200Y-6337300D03*
G01*
X10071100Y-6337300D03*
G01*
X10160000Y-6337300D03*
G01*
X10248900Y-6337300D03*
G01*
X10337800Y-6337300D03*
G01*
X10426700Y-6337300D03*
G01*
X9804400Y-6248400D03*
G01*
X9893300Y-6248400D03*
G01*
X9982200Y-6248400D03*
G01*
X10071100Y-6248400D03*
G01*
X10160000Y-6248400D03*
G01*
X10248900Y-6248400D03*
G01*
X10337800Y-6248400D03*
G01*
X10426700Y-6248400D03*
G01*
X9804400Y-6159500D03*
G01*
X9893300Y-6159500D03*
G01*
X9982200Y-6159500D03*
G01*
X10071100Y-6159500D03*
G01*
X10160000Y-6159500D03*
G01*
X10248900Y-6159500D03*
G01*
X10337800Y-6159500D03*
G01*
X10426700Y-6159500D03*
G01*
X9804400Y-6070600D03*
G01*
X9893300Y-6070600D03*
G01*
X9982200Y-6070600D03*
G01*
X10071100Y-6070600D03*
G01*
X10160000Y-6070600D03*
G01*
X10248900Y-6070600D03*
G01*
X10337800Y-6070600D03*
G01*
X10426700Y-6070600D03*
G01*
X9804400Y-5981700D03*
G01*
X9893300Y-5981700D03*
G01*
X9982200Y-5981700D03*
G01*
X10071100Y-5981700D03*
G01*
X10160000Y-5981700D03*
G01*
X10248900Y-5981700D03*
G01*
X10337800Y-5981700D03*
G01*
X10426700Y-5981700D03*
G01*
X9804400Y-5892800D03*
G01*
X9893300Y-5892800D03*
G01*
X9982200Y-5892800D03*
G01*
X10071100Y-5892800D03*
G01*
X10160000Y-5892800D03*
G01*
X10248900Y-5892800D03*
G01*
X10337800Y-5892800D03*
G01*
X10426700Y-5892800D03*
G01*
X10426700Y-5803900D03*
G01*
X10337800Y-5803900D03*
G01*
X10248900Y-5803900D03*
G01*
X10160000Y-5803900D03*
G01*
X10071100Y-5803900D03*
G01*
X9982200Y-5803900D03*
G01*
X9893300Y-5803900D03*
G01*
X9804400Y-5803900D03*
G01*
X10401300Y-9080500D03*
G01*
X10312400Y-9080500D03*
G01*
X10223500Y-9080500D03*
G01*
X10134600Y-9080500D03*
G01*
X10045700Y-9080500D03*
G01*
X9956800Y-9080500D03*
G01*
X9867900Y-9080500D03*
G01*
X9779000Y-9080500D03*
G01*
X10490200Y-9080500D03*
G01*
X10579100Y-9080500D03*
G01*
X10401300Y-8991600D03*
G01*
X10312400Y-8991600D03*
G01*
X10223500Y-8991600D03*
G01*
X10134600Y-8991600D03*
G01*
X10045700Y-8991600D03*
G01*
X9956800Y-8991600D03*
G01*
X9867900Y-8991600D03*
G01*
X9779000Y-8991600D03*
G01*
X10490200Y-8991600D03*
G01*
X10579100Y-8991600D03*
G01*
X10579100Y-8280400D03*
G01*
X10579100Y-8369300D03*
G01*
X10579100Y-8458200D03*
G01*
X10579100Y-8547100D03*
G01*
X10579100Y-8636000D03*
G01*
X10579100Y-8724900D03*
G01*
X10579100Y-8813800D03*
G01*
X10579100Y-8902700D03*
G01*
X10490200Y-8280400D03*
G01*
X10490200Y-8369300D03*
G01*
X10490200Y-8458200D03*
G01*
X10490200Y-8547100D03*
G01*
X10490200Y-8636000D03*
G01*
X10490200Y-8724900D03*
G01*
X10490200Y-8813800D03*
G01*
X10490200Y-8902700D03*
G01*
X9779000Y-8902700D03*
G01*
X9867900Y-8902700D03*
G01*
X9956800Y-8902700D03*
G01*
X10045700Y-8902700D03*
G01*
X10134600Y-8902700D03*
G01*
X10223500Y-8902700D03*
G01*
X10312400Y-8902700D03*
G01*
X10401300Y-8902700D03*
G01*
X9779000Y-8813800D03*
G01*
X9867900Y-8813800D03*
G01*
X9956800Y-8813800D03*
G01*
X10045700Y-8813800D03*
G01*
X10134600Y-8813800D03*
G01*
X10223500Y-8813800D03*
G01*
X10312400Y-8813800D03*
G01*
X10401300Y-8813800D03*
G01*
X9779000Y-8724900D03*
G01*
X9867900Y-8724900D03*
G01*
X9956800Y-8724900D03*
G01*
X10045700Y-8724900D03*
G01*
X10134600Y-8724900D03*
G01*
X10223500Y-8724900D03*
G01*
X10312400Y-8724900D03*
G01*
X10401300Y-8724900D03*
G01*
X9779000Y-8636000D03*
G01*
X9867900Y-8636000D03*
G01*
X9956800Y-8636000D03*
G01*
X10045700Y-8636000D03*
G01*
X10134600Y-8636000D03*
G01*
X10223500Y-8636000D03*
G01*
X10312400Y-8636000D03*
G01*
X10401300Y-8636000D03*
G01*
X9779000Y-8547100D03*
G01*
X9867900Y-8547100D03*
G01*
X9956800Y-8547100D03*
G01*
X10045700Y-8547100D03*
G01*
X10134600Y-8547100D03*
G01*
X10223500Y-8547100D03*
G01*
X10312400Y-8547100D03*
G01*
X10401300Y-8547100D03*
G01*
X9779000Y-8458200D03*
G01*
X9867900Y-8458200D03*
G01*
X9956800Y-8458200D03*
G01*
X10045700Y-8458200D03*
G01*
X10134600Y-8458200D03*
G01*
X10223500Y-8458200D03*
G01*
X10312400Y-8458200D03*
G01*
X10401300Y-8458200D03*
G01*
X9779000Y-8369300D03*
G01*
X9867900Y-8369300D03*
G01*
X9956800Y-8369300D03*
G01*
X10045700Y-8369300D03*
G01*
X10134600Y-8369300D03*
G01*
X10223500Y-8369300D03*
G01*
X10312400Y-8369300D03*
G01*
X10401300Y-8369300D03*
G01*
X10401300Y-8280400D03*
G01*
X10312400Y-8280400D03*
G01*
X10223500Y-8280400D03*
G01*
X10134600Y-8280400D03*
G01*
X10045700Y-8280400D03*
G01*
X9956800Y-8280400D03*
G01*
X9867900Y-8280400D03*
G01*
X9779000Y-8280400D03*
D20*
G01*
X2857500Y-1270000D03*
G01*
X2489200Y-1270000D03*
D21*
G01*
X5346700Y-5689600D03*
G01*
X5600700Y-5689600D03*
G01*
X8750300Y-3606800D03*
G01*
X8750300Y-3479800D03*
G01*
X5092700Y-5689600D03*
G01*
X4838700Y-5689600D03*
G01*
X8788400Y-1016000D03*
G01*
X8788400Y-1143000D03*
G01*
X8750300Y-5956300D03*
G01*
X8750300Y-6083300D03*
G01*
X8763000Y-8420100D03*
G01*
X8763000Y-8547100D03*
G01*
X5092700Y-6121400D03*
G01*
X4838700Y-6121400D03*
G01*
X5600700Y-6121400D03*
G01*
X5346700Y-6121400D03*
G01*
X8763000Y-3860800D03*
G01*
X8763000Y-3987800D03*
G01*
X7404100Y-5334000D03*
G01*
X7404100Y-5588000D03*
G01*
X7620000Y-1524000D03*
G01*
X7442200Y-1397000D03*
G01*
X7543800Y-2159000D03*
G01*
X7429500Y-2159000D03*
G01*
X7429500Y-7366000D03*
G01*
X7429500Y-7620000D03*
G01*
X8712200Y-7823200D03*
G01*
X8559800Y-7899400D03*
G01*
X7429500Y-6350000D03*
G01*
X7442200Y-6604000D03*
G01*
X8775700Y-6337300D03*
G01*
X8775700Y-6464300D03*
G01*
X5473700Y-5689600D03*
G01*
X5727700Y-5765800D03*
G01*
X5219700Y-5689600D03*
G01*
X4965700Y-5689600D03*
G01*
X5892800Y-6375400D03*
G01*
X6261100Y-6375400D03*
G01*
X4216400Y-3429000D03*
G01*
X4216400Y-3657600D03*
G01*
X3860800Y-3302000D03*
G01*
X2222500Y-4978400D03*
G01*
X2209800Y-5613400D03*
G01*
X3708400Y-3797300D03*
G01*
X3556000Y-3302000D03*
G01*
X4711700Y-5232400D03*
D19*
G01*
X4584700Y-6790004D03*
G01*
X4030827Y-4445000D03*
G01*
X4419600Y-4775200D03*
G01*
X3746500Y-3390900D03*
G01*
X4254500Y-3289300D03*
M02*
