G04 Layer: TopSilkscreenLayer*
G04 EasyEDA v6.5.46, 2026-05-27 16:22:10*
G04 37b0a3b6e356420ea259f72b66a9e9c6,10*
G04 Gerber Generator version 0.2*
G04 Scale: 100 percent, Rotated: No, Reflected: No *
G04 Dimensions in millimeters *
G04 leading zeros omitted , absolute positions ,4 integer and 5 decimal *
%FSLAX45Y45*%
%MOMM*%

%ADD10C,0.2032*%
%ADD11C,0.1524*%
%ADD12C,0.1500*%
%ADD13C,0.2540*%
%ADD14C,0.1200*%
%ADD15C,0.2030*%
%ADD16C,0.1001*%
%ADD17C,0.4000*%
%ADD18C,0.1500*%
%ADD19C,0.0119*%

%LPD*%
G36*
X6149187Y-7477759D02*
G01*
X3725418Y-7478166D01*
X3717188Y-7479030D01*
X3715715Y-7506665D01*
X3715715Y-8118449D01*
X3717188Y-8161223D01*
X3724808Y-8161223D01*
X3725011Y-7538821D01*
X3724656Y-7486903D01*
X6154064Y-7486903D01*
X6154064Y-8161223D01*
X6163208Y-8161223D01*
X6163208Y-7479233D01*
G37*
G36*
X3730548Y-7491475D02*
G01*
X3730548Y-8161223D01*
X3738524Y-8161223D01*
X3738524Y-7530846D01*
X3739997Y-7500569D01*
X6140399Y-7500569D01*
X6140399Y-8161223D01*
X6148019Y-8161223D01*
X6149543Y-8126628D01*
X6149543Y-7491475D01*
G37*
G36*
X4824069Y-7533436D02*
G01*
X4702860Y-7534249D01*
X4701438Y-7535722D01*
X4700270Y-7610703D01*
X4697933Y-7621473D01*
X4691329Y-7630617D01*
X4680254Y-7636205D01*
X4649368Y-7637830D01*
X4647946Y-7659776D01*
X4647946Y-7714742D01*
X4644694Y-7725460D01*
X4638649Y-7733385D01*
X4627727Y-7738922D01*
X4596892Y-7740497D01*
X4595418Y-7754213D01*
X4595418Y-7809484D01*
X4593945Y-7823606D01*
X4586884Y-7835341D01*
X4574336Y-7841742D01*
X4543247Y-7843113D01*
X4542129Y-7854238D01*
X4533747Y-7863535D01*
X4532376Y-7870291D01*
X4530750Y-7870291D01*
X4529277Y-7827467D01*
X4529277Y-7581900D01*
X4522114Y-7580477D01*
X4508144Y-7580426D01*
X4499305Y-7578953D01*
X4493717Y-7566304D01*
X4492193Y-7535367D01*
X4471619Y-7533894D01*
X4404309Y-7534148D01*
X4385818Y-7534909D01*
X4384344Y-7557058D01*
X4384344Y-7589570D01*
X4520184Y-7589570D01*
X4519574Y-7919212D01*
X4517034Y-7921752D01*
X4515713Y-7879994D01*
X4515561Y-7594142D01*
X4510430Y-7594142D01*
X4505452Y-7592771D01*
X4504232Y-7589570D01*
X4384344Y-7589570D01*
X4384344Y-7679181D01*
X4503064Y-7679181D01*
X4504436Y-7634071D01*
X4505299Y-7634071D01*
X4504944Y-7846872D01*
X4503216Y-7822946D01*
X4503064Y-7679181D01*
X4384344Y-7679181D01*
X4384344Y-7895945D01*
X4503115Y-7895945D01*
X4504486Y-7863433D01*
X4505299Y-7863433D01*
X4504994Y-7910779D01*
X4503115Y-7895945D01*
X4384344Y-7895945D01*
X4384344Y-7979054D01*
X4601972Y-7979054D01*
X4604918Y-7970113D01*
X4609388Y-7964068D01*
X4620514Y-7958023D01*
X4650790Y-7956448D01*
X4651502Y-7945221D01*
X4657953Y-7935823D01*
X4660442Y-7926781D01*
X4660493Y-7911541D01*
X4654499Y-7886801D01*
X4655566Y-7870545D01*
X4660493Y-7862620D01*
X4669332Y-7856474D01*
X4683861Y-7854340D01*
X4703572Y-7854289D01*
X4704537Y-7840624D01*
X4709414Y-7835493D01*
X4714036Y-7825231D01*
X4714087Y-7811516D01*
X4707280Y-7785353D01*
X4707331Y-7771587D01*
X4711496Y-7762443D01*
X4715814Y-7758633D01*
X4722672Y-7755026D01*
X4733594Y-7755026D01*
X4742383Y-7759547D01*
X4747260Y-7767370D01*
X4747514Y-7774990D01*
X4745888Y-7784388D01*
X4735474Y-7785862D01*
X4717694Y-7785862D01*
X4716068Y-7793278D01*
X4716983Y-7887970D01*
X4663643Y-7888579D01*
X4664202Y-7979257D01*
X4663897Y-7991398D01*
X4649622Y-7991043D01*
X4611420Y-7991246D01*
X4611166Y-8005470D01*
X4609592Y-8012328D01*
X4603292Y-7994091D01*
X4601972Y-7979054D01*
X4384344Y-7979054D01*
X4384344Y-8042249D01*
X4385818Y-8059420D01*
X4398060Y-8060436D01*
X4399737Y-8062163D01*
X4401261Y-8080806D01*
X4401418Y-8107629D01*
X4409084Y-8107629D01*
X4410608Y-8081924D01*
X4410608Y-8071103D01*
X4413656Y-8071103D01*
X4415180Y-8091982D01*
X4415180Y-8093913D01*
X4424273Y-8093913D01*
X4424273Y-8072069D01*
X4426508Y-8067954D01*
X4438548Y-8063179D01*
X4448810Y-8060893D01*
X4557420Y-8060842D01*
X4598873Y-8059318D01*
X4598873Y-8049564D01*
X4607966Y-8039049D01*
X4609642Y-8032902D01*
X4611116Y-8044281D01*
X4611522Y-8093913D01*
X4415180Y-8093913D01*
X4415180Y-8103057D01*
X4620209Y-8103057D01*
X4621479Y-8047685D01*
X4621123Y-8000339D01*
X4672685Y-8000339D01*
X4674158Y-7937042D01*
X4674158Y-7897672D01*
X4726635Y-7897672D01*
X4726635Y-7794955D01*
X4740554Y-7794955D01*
X4739640Y-7797647D01*
X4730648Y-7800187D01*
X4731410Y-7902244D01*
X4678730Y-7902244D01*
X4678375Y-7945018D01*
X4679035Y-8004911D01*
X4624832Y-8004911D01*
X4625797Y-8107629D01*
X4401418Y-8107629D01*
X4401464Y-8115452D01*
X4413453Y-8116874D01*
X4632909Y-8116163D01*
X4633976Y-8115046D01*
X4635398Y-8014258D01*
X4685385Y-8013496D01*
X4687265Y-8011566D01*
X4687976Y-7911338D01*
X4739995Y-7911338D01*
X4741468Y-7889087D01*
X4741824Y-7867446D01*
X4743602Y-7885988D01*
X4752136Y-7915351D01*
X4754067Y-8059420D01*
X4767681Y-8060385D01*
X4769459Y-8062163D01*
X4770102Y-8107629D01*
X4779010Y-8107629D01*
X4779721Y-8072424D01*
X4781550Y-8070596D01*
X4783683Y-8073948D01*
X4783690Y-8090458D01*
X4792573Y-8090458D01*
X4794199Y-8068614D01*
X4804359Y-8064296D01*
X4817364Y-8060944D01*
X4861102Y-8059369D01*
X4862423Y-8052562D01*
X4862423Y-8047481D01*
X4867249Y-8043164D01*
X4872685Y-8032394D01*
X4873040Y-8026044D01*
X4874717Y-8043164D01*
X4875022Y-8093862D01*
X4793843Y-8093811D01*
X4792573Y-8090458D01*
X4783690Y-8090458D01*
X4783734Y-8103057D01*
X4883810Y-8103057D01*
X4885029Y-8047685D01*
X4885334Y-7599883D01*
X4883912Y-7594396D01*
X4875225Y-7593025D01*
X4873904Y-7589570D01*
X4889246Y-7589570D01*
X4889246Y-8107629D01*
X4770102Y-8107629D01*
X4770221Y-8115452D01*
X4784293Y-8116874D01*
X4896459Y-8116163D01*
X4897983Y-8114690D01*
X4897983Y-7582509D01*
X4896612Y-7581138D01*
X4869027Y-7579563D01*
X4866995Y-7576464D01*
X4862372Y-7564170D01*
X4860950Y-7535062D01*
G37*
G36*
X5360720Y-7533690D02*
G01*
X5036464Y-7534148D01*
X5017973Y-7534909D01*
X5016500Y-7565999D01*
X5016500Y-7665313D01*
X5129987Y-7665313D01*
X5136134Y-7656068D01*
X5148122Y-7650073D01*
X5343601Y-7650073D01*
X5388305Y-7648549D01*
X5389829Y-7636916D01*
X5396128Y-7630109D01*
X5400294Y-7622743D01*
X5400903Y-7623352D01*
X5402478Y-7683144D01*
X5138572Y-7683144D01*
X5138409Y-7692288D01*
X5411266Y-7692288D01*
X5411266Y-7594600D01*
X5401716Y-7592415D01*
X5400802Y-7589570D01*
X5415838Y-7589570D01*
X5415838Y-7696860D01*
X5152237Y-7696860D01*
X5152237Y-7720685D01*
X5149951Y-7722108D01*
X5149037Y-7719110D01*
X5147665Y-7692288D01*
X5138409Y-7692288D01*
X5138318Y-7699705D01*
X5136743Y-7706563D01*
X5130038Y-7687157D01*
X5129987Y-7665313D01*
X5016500Y-7665313D01*
X5016500Y-7794955D01*
X5363362Y-7794955D01*
X5363311Y-7822946D01*
X5361381Y-7826044D01*
X5360009Y-7823860D01*
X5358485Y-7799933D01*
X5349240Y-7797850D01*
X5348325Y-7794955D01*
X5016500Y-7794955D01*
X5016500Y-7876540D01*
X5129174Y-7876540D01*
X5131816Y-7866888D01*
X5139944Y-7858963D01*
X5149392Y-7855610D01*
X5255768Y-7855458D01*
X5263489Y-7858048D01*
X5270906Y-7863535D01*
X5274360Y-7870190D01*
X5274310Y-7884566D01*
X5272176Y-7887970D01*
X5138572Y-7888630D01*
X5138409Y-7897672D01*
X5270906Y-7897672D01*
X5270906Y-7900822D01*
X5267299Y-7902244D01*
X5152237Y-7902244D01*
X5152237Y-7911338D01*
X5270347Y-7911388D01*
X5273446Y-7913370D01*
X5275173Y-7922768D01*
X5273497Y-7932166D01*
X5268976Y-7938160D01*
X5257850Y-7943900D01*
X5185918Y-7944561D01*
X5166969Y-7938617D01*
X5162550Y-7934198D01*
X5162550Y-7911338D01*
X5152237Y-7911338D01*
X5152237Y-7927340D01*
X5149900Y-7927340D01*
X5149037Y-7924495D01*
X5147665Y-7897672D01*
X5138409Y-7897672D01*
X5138318Y-7905089D01*
X5136743Y-7911947D01*
X5130292Y-7892542D01*
X5129174Y-7876540D01*
X5016500Y-7876540D01*
X5016500Y-8031937D01*
X5017973Y-8059420D01*
X5030165Y-8060436D01*
X5031740Y-8062010D01*
X5033416Y-8073948D01*
X5033549Y-8107629D01*
X5042712Y-8107629D01*
X5042763Y-8075117D01*
X5044694Y-8072018D01*
X5046624Y-8075066D01*
X5046848Y-8081924D01*
X5056225Y-8081924D01*
X5057749Y-8069935D01*
X5068925Y-8064246D01*
X5081981Y-8060842D01*
X5294528Y-8060842D01*
X5335676Y-8059318D01*
X5336997Y-8048447D01*
X5343956Y-8038795D01*
X5347360Y-8027314D01*
X5347360Y-8017865D01*
X5340146Y-7992922D01*
X5340045Y-7974685D01*
X5343753Y-7967827D01*
X5350256Y-7961680D01*
X5359146Y-7957972D01*
X5388305Y-7956651D01*
X5389880Y-7945018D01*
X5397703Y-7936331D01*
X5400446Y-7930235D01*
X5401564Y-7943900D01*
X5401564Y-7990636D01*
X5350357Y-7991297D01*
X5349087Y-7992567D01*
X5349087Y-8093354D01*
X5056987Y-8093354D01*
X5056225Y-8081924D01*
X5046848Y-8081924D01*
X5047538Y-8103057D01*
X5358790Y-8103057D01*
X5358790Y-8000339D01*
X5411266Y-8000339D01*
X5411266Y-7902651D01*
X5401716Y-7900517D01*
X5400802Y-7897672D01*
X5415838Y-7897672D01*
X5415838Y-8004911D01*
X5363362Y-8004911D01*
X5363362Y-8107629D01*
X5033549Y-8107629D01*
X5033568Y-8115300D01*
X5042154Y-8116722D01*
X5363921Y-8116722D01*
X5372455Y-8115300D01*
X5373065Y-8014614D01*
X5423255Y-8013192D01*
X5424982Y-8012887D01*
X5424982Y-7889951D01*
X5417820Y-7888528D01*
X5403850Y-7888528D01*
X5395468Y-7887106D01*
X5389727Y-7871612D01*
X5388152Y-7843113D01*
X5376062Y-7841589D01*
X5373116Y-7838084D01*
X5372201Y-7787182D01*
X5367324Y-7785862D01*
X5349087Y-7785557D01*
X5342382Y-7784134D01*
X5336895Y-7770418D01*
X5335422Y-7740751D01*
X5314848Y-7739329D01*
X5188204Y-7739024D01*
X5173878Y-7735671D01*
X5164226Y-7730744D01*
X5162550Y-7728203D01*
X5162550Y-7705953D01*
X5412994Y-7705953D01*
X5424982Y-7704531D01*
X5424982Y-7581595D01*
X5396128Y-7579512D01*
X5394147Y-7576464D01*
X5389626Y-7564424D01*
X5388102Y-7535164D01*
G37*
G36*
X5783834Y-7533690D02*
G01*
X5563616Y-7534148D01*
X5545124Y-7534909D01*
X5543651Y-7569403D01*
X5543651Y-7589570D01*
X5838342Y-7589570D01*
X5836716Y-7619796D01*
X5835751Y-7620762D01*
X5834024Y-7619085D01*
X5833262Y-7594396D01*
X5823407Y-7592923D01*
X5822137Y-7589570D01*
X5543651Y-7589570D01*
X5543651Y-7611973D01*
X5540298Y-7623251D01*
X5533644Y-7631277D01*
X5523687Y-7636205D01*
X5492597Y-7637830D01*
X5491175Y-7659776D01*
X5491175Y-7674102D01*
X5602935Y-7674102D01*
X5605373Y-7663230D01*
X5611266Y-7655509D01*
X5622950Y-7650022D01*
X5733592Y-7650632D01*
X5744210Y-7656880D01*
X5749340Y-7667396D01*
X5748070Y-7681061D01*
X5746546Y-7682585D01*
X5613908Y-7683246D01*
X5612130Y-7685989D01*
X5612130Y-7692288D01*
X5745581Y-7692288D01*
X5745581Y-7695438D01*
X5741974Y-7696860D01*
X5626912Y-7696860D01*
X5626783Y-7705902D01*
X5746546Y-7706563D01*
X5748375Y-7708341D01*
X5748426Y-7724952D01*
X5741873Y-7733639D01*
X5731357Y-7738465D01*
X5662015Y-7739176D01*
X5650433Y-7736687D01*
X5637479Y-7730896D01*
X5636107Y-7722514D01*
X5636056Y-7705902D01*
X5626783Y-7705902D01*
X5626709Y-7711084D01*
X5625185Y-7722514D01*
X5622950Y-7719110D01*
X5622137Y-7692288D01*
X5612130Y-7692288D01*
X5612079Y-7703820D01*
X5609996Y-7702499D01*
X5605170Y-7688072D01*
X5602935Y-7674102D01*
X5491175Y-7674102D01*
X5491175Y-7767015D01*
X5873394Y-7767015D01*
X5874867Y-7751622D01*
X5875680Y-7751622D01*
X5875375Y-7842300D01*
X5873597Y-7829753D01*
X5873394Y-7767015D01*
X5491175Y-7767015D01*
X5491169Y-7872984D01*
X5603849Y-7872984D01*
X5608624Y-7863636D01*
X5615838Y-7858506D01*
X5624068Y-7855559D01*
X5729071Y-7855458D01*
X5737758Y-7857896D01*
X5746699Y-7865973D01*
X5747712Y-7869732D01*
X5873394Y-7869732D01*
X5874867Y-7854289D01*
X5875680Y-7854289D01*
X5875375Y-7945018D01*
X5873597Y-7932470D01*
X5873394Y-7869732D01*
X5747712Y-7869732D01*
X5749137Y-7875016D01*
X5747664Y-7887106D01*
X5737301Y-7888528D01*
X5613298Y-7888528D01*
X5612079Y-7893659D01*
X5611520Y-7913065D01*
X5604865Y-7892542D01*
X5603849Y-7872984D01*
X5491169Y-7872984D01*
X5491124Y-8042249D01*
X5492597Y-8059420D01*
X5504840Y-8060436D01*
X5506516Y-8062163D01*
X5508091Y-8080806D01*
X5508221Y-8107629D01*
X5516016Y-8107629D01*
X5517642Y-8072831D01*
X5518810Y-8070900D01*
X5520639Y-8072831D01*
X5521771Y-8093862D01*
X5531104Y-8093862D01*
X5531104Y-8073948D01*
X5532475Y-8068919D01*
X5549900Y-8061604D01*
X5579567Y-8059826D01*
X5599226Y-8059674D01*
X5600649Y-8047888D01*
X5606288Y-8041995D01*
X5609793Y-8033613D01*
X5611520Y-8020303D01*
X5613450Y-8090611D01*
X5612231Y-8093811D01*
X5521771Y-8093862D01*
X5522264Y-8103057D01*
X5622391Y-8103057D01*
X5622391Y-7897672D01*
X5745581Y-7897672D01*
X5745581Y-7900822D01*
X5741974Y-7902244D01*
X5626912Y-7902244D01*
X5626912Y-8107629D01*
X5508221Y-8107629D01*
X5508244Y-8115300D01*
X5516829Y-8116722D01*
X5625490Y-8116722D01*
X5636056Y-8115300D01*
X5636056Y-7911338D01*
X5743905Y-7911388D01*
X5748731Y-7912709D01*
X5753760Y-7929016D01*
X5754827Y-8049971D01*
X5755944Y-8059420D01*
X5767425Y-8060486D01*
X5770118Y-8063230D01*
X5771398Y-8107629D01*
X5779465Y-8107629D01*
X5780887Y-8073085D01*
X5782208Y-8071713D01*
X5784342Y-8075117D01*
X5784392Y-8093862D01*
X5794654Y-8093862D01*
X5794705Y-8071662D01*
X5796381Y-8069122D01*
X5805982Y-8064246D01*
X5818581Y-8060994D01*
X5863132Y-8059369D01*
X5863132Y-8048599D01*
X5869178Y-8039709D01*
X5872530Y-8029448D01*
X5874359Y-7957566D01*
X5874918Y-7956448D01*
X5876696Y-8091068D01*
X5875782Y-8093862D01*
X5784392Y-8093862D01*
X5784392Y-8103057D01*
X5885942Y-8103057D01*
X5885942Y-7696860D01*
X5880811Y-7696809D01*
X5875832Y-7695488D01*
X5874613Y-7692288D01*
X5890514Y-7692288D01*
X5890514Y-8107629D01*
X5771398Y-8107629D01*
X5771591Y-8114588D01*
X5773166Y-8116163D01*
X5885383Y-8116874D01*
X5899658Y-8115401D01*
X5899658Y-7684566D01*
X5892495Y-7683144D01*
X5876239Y-7682890D01*
X5869381Y-7681417D01*
X5863996Y-7667802D01*
X5861964Y-7637780D01*
X5849467Y-7636205D01*
X5847740Y-7633512D01*
X5846572Y-7582916D01*
X5844794Y-7581138D01*
X5816600Y-7579309D01*
X5810910Y-7563916D01*
X5809234Y-7535164D01*
G37*
G36*
X4208068Y-7533894D02*
G01*
X3877157Y-7534148D01*
X3858666Y-7534909D01*
X3857193Y-7569403D01*
X3857193Y-7683703D01*
X3969816Y-7683703D01*
X3969918Y-7667294D01*
X3975303Y-7657541D01*
X3983024Y-7652359D01*
X3991254Y-7650073D01*
X4182973Y-7650073D01*
X4228896Y-7648549D01*
X4230217Y-7637322D01*
X4238396Y-7628280D01*
X4240936Y-7622641D01*
X4241647Y-7623352D01*
X4243171Y-7683144D01*
X3979519Y-7683144D01*
X3978926Y-7692288D01*
X4252010Y-7692288D01*
X4252010Y-7594396D01*
X4241901Y-7592923D01*
X4240631Y-7589570D01*
X4256532Y-7589570D01*
X4256532Y-7696860D01*
X3992981Y-7696860D01*
X3992829Y-7720228D01*
X3991101Y-7724648D01*
X3989273Y-7721701D01*
X3988104Y-7692288D01*
X3978926Y-7692288D01*
X3977843Y-7709712D01*
X3974693Y-7702194D01*
X3969816Y-7683703D01*
X3857193Y-7683703D01*
X3857193Y-7794955D01*
X4204055Y-7794955D01*
X4203801Y-7820659D01*
X4202328Y-7827467D01*
X4200093Y-7824063D01*
X4199280Y-7799781D01*
X4189222Y-7798257D01*
X4189222Y-7794955D01*
X3857193Y-7794955D01*
X3857193Y-7880908D01*
X3969918Y-7880908D01*
X3969918Y-7873796D01*
X3974896Y-7863433D01*
X3981450Y-7858759D01*
X3990136Y-7855610D01*
X4096512Y-7855458D01*
X4106468Y-7858963D01*
X4111853Y-7863992D01*
X4115460Y-7870850D01*
X4115511Y-7885125D01*
X4112666Y-7887970D01*
X3979519Y-7888630D01*
X3978935Y-7897672D01*
X4112768Y-7897672D01*
X4112768Y-7900822D01*
X4107637Y-7902194D01*
X3992981Y-7902244D01*
X3992902Y-7911338D01*
X4111193Y-7911338D01*
X4115612Y-7914589D01*
X4115612Y-7929016D01*
X4110939Y-7937042D01*
X4103370Y-7942122D01*
X4095089Y-7944459D01*
X4025493Y-7944408D01*
X4014063Y-7941360D01*
X4003598Y-7936738D01*
X4002125Y-7922412D01*
X4002125Y-7911338D01*
X3992902Y-7911338D01*
X3992829Y-7925612D01*
X3991101Y-7930032D01*
X3989273Y-7927086D01*
X3988104Y-7897672D01*
X3978935Y-7897672D01*
X3977792Y-7915351D01*
X3973474Y-7902803D01*
X3969969Y-7888020D01*
X3969918Y-7880908D01*
X3857193Y-7880908D01*
X3857193Y-8030616D01*
X3858666Y-8059420D01*
X3870858Y-8060436D01*
X3872484Y-8062061D01*
X3874109Y-8075117D01*
X3874274Y-8107629D01*
X3883456Y-8107629D01*
X3883456Y-8075117D01*
X3885437Y-8072018D01*
X3887215Y-8074914D01*
X3887494Y-8081924D01*
X3896969Y-8081924D01*
X3898442Y-8069935D01*
X3909618Y-8064246D01*
X3922725Y-8060842D01*
X4137304Y-8060842D01*
X4176420Y-8059318D01*
X4177741Y-8047990D01*
X4185615Y-8036306D01*
X4188206Y-8023504D01*
X4185818Y-8008924D01*
X4181246Y-7994091D01*
X4179824Y-7982356D01*
X4182516Y-7971028D01*
X4189222Y-7962900D01*
X4199432Y-7957972D01*
X4228896Y-7956651D01*
X4230217Y-7945577D01*
X4238091Y-7937500D01*
X4241139Y-7930184D01*
X4242308Y-7943900D01*
X4242308Y-7990636D01*
X4191050Y-7991297D01*
X4189780Y-7992567D01*
X4189780Y-8093354D01*
X3897680Y-8093354D01*
X3896969Y-8081924D01*
X3887494Y-8081924D01*
X3888282Y-8103057D01*
X4199483Y-8103057D01*
X4199483Y-8000339D01*
X4252010Y-8000339D01*
X4252010Y-7902651D01*
X4242460Y-7900517D01*
X4241546Y-7897672D01*
X4256532Y-7897672D01*
X4256532Y-8004911D01*
X4204055Y-8004911D01*
X4204055Y-8107629D01*
X3874274Y-8107629D01*
X3874312Y-8115300D01*
X3882847Y-8116722D01*
X4202582Y-8116722D01*
X4213199Y-8115300D01*
X4213199Y-8014055D01*
X4253687Y-8014004D01*
X4265676Y-8012582D01*
X4265676Y-7889951D01*
X4258564Y-7888528D01*
X4244594Y-7888528D01*
X4236161Y-7887106D01*
X4230116Y-7872069D01*
X4228846Y-7843266D01*
X4214926Y-7841183D01*
X4213453Y-7834325D01*
X4213199Y-7787284D01*
X4206036Y-7785862D01*
X4189780Y-7785557D01*
X4183075Y-7784134D01*
X4177588Y-7770418D01*
X4176115Y-7740751D01*
X4155592Y-7739329D01*
X4026966Y-7739075D01*
X4013860Y-7735671D01*
X4003598Y-7731099D01*
X4002125Y-7715656D01*
X4002125Y-7705953D01*
X4253687Y-7705953D01*
X4265676Y-7704531D01*
X4265676Y-7581900D01*
X4258564Y-7580477D01*
X4244594Y-7580426D01*
X4236161Y-7579055D01*
X4230014Y-7564577D01*
X4228592Y-7535367D01*
G37*
G36*
X3769360Y-8152130D02*
G01*
X3769360Y-8217966D01*
X3779926Y-8219440D01*
X6207150Y-8219389D01*
X6215684Y-8218017D01*
X6215684Y-8152130D01*
X6206591Y-8152130D01*
X6206591Y-8210296D01*
X3777335Y-8210296D01*
X3777335Y-8152130D01*
G37*
G36*
X3783025Y-8152130D02*
G01*
X3783025Y-8205724D01*
X6202019Y-8205724D01*
X6202019Y-8176412D01*
X6200495Y-8152130D01*
X6192926Y-8152130D01*
X6192316Y-8196021D01*
X3792169Y-8196630D01*
X3792118Y-8170925D01*
X3790696Y-8152130D01*
G37*
D10*
X2425700Y-1023365D02*
G01*
X2592070Y-1023365D01*
X2878327Y-940307D02*
G01*
X2878327Y-1106423D01*
X2795270Y-1023365D02*
G01*
X2961386Y-1023365D01*
X2612643Y-1446021D02*
G01*
X2520441Y-1446021D01*
X2511043Y-1529079D01*
X2520441Y-1519936D01*
X2548127Y-1510537D01*
X2575813Y-1510537D01*
X2603500Y-1519936D01*
X2622041Y-1538223D01*
X2631186Y-1565910D01*
X2631186Y-1584452D01*
X2622041Y-1612137D01*
X2603500Y-1630679D01*
X2575813Y-1639823D01*
X2548127Y-1639823D01*
X2520441Y-1630679D01*
X2511043Y-1621536D01*
X2501900Y-1602994D01*
X2692145Y-1446021D02*
G01*
X2766059Y-1639823D01*
X2839974Y-1446021D02*
G01*
X2766059Y-1639823D01*
X3566922Y-9166352D02*
G01*
X3566922Y-9264395D01*
X3517900Y-9215374D02*
G01*
X3616197Y-9215374D01*
X3736086Y-9215374D02*
G01*
X3834384Y-9215374D01*
X3992372Y-9149842D02*
G01*
X3992372Y-9264395D01*
X3954272Y-9149842D02*
G01*
X4030725Y-9149842D01*
X4066540Y-9149842D02*
G01*
X4142993Y-9264395D01*
X4142993Y-9149842D02*
G01*
X4066540Y-9264395D01*
X4262881Y-9149842D02*
G01*
X4262881Y-9264395D01*
X4262881Y-9149842D02*
G01*
X4312158Y-9149842D01*
X4328413Y-9155429D01*
X4334002Y-9160763D01*
X4339336Y-9171686D01*
X4339336Y-9182608D01*
X4334002Y-9193529D01*
X4328413Y-9199118D01*
X4312158Y-9204452D01*
X4262881Y-9204452D01*
X4301236Y-9204452D02*
G01*
X4339336Y-9264395D01*
X4375404Y-9149842D02*
G01*
X4451604Y-9264395D01*
X4451604Y-9149842D02*
G01*
X4375404Y-9264395D01*
X1524000Y-615442D02*
G01*
X1524000Y-729995D01*
X1524000Y-615442D02*
G01*
X1573021Y-615442D01*
X1589531Y-621029D01*
X1594865Y-626363D01*
X1600454Y-637286D01*
X1600454Y-648207D01*
X1594865Y-659129D01*
X1589531Y-664718D01*
X1573021Y-670052D01*
X1524000Y-670052D01*
X1562100Y-670052D02*
G01*
X1600454Y-729995D01*
X1636268Y-615442D02*
G01*
X1712721Y-729995D01*
X1712721Y-615442D02*
G01*
X1636268Y-729995D01*
X1870963Y-615442D02*
G01*
X1870963Y-729995D01*
X1832610Y-615442D02*
G01*
X1909063Y-615442D01*
X1945131Y-615442D02*
G01*
X2021331Y-729995D01*
X2021331Y-615442D02*
G01*
X1945131Y-729995D01*
X2141474Y-680973D02*
G01*
X2239518Y-680973D01*
X2408681Y-631952D02*
G01*
X2408681Y-729995D01*
X2359659Y-680973D02*
G01*
X2457704Y-680973D01*
X3828288Y-9761474D02*
G01*
X3822954Y-9750552D01*
X3812031Y-9739629D01*
X3801109Y-9734042D01*
X3779265Y-9734042D01*
X3768343Y-9739629D01*
X3757422Y-9750552D01*
X3751834Y-9761474D01*
X3746500Y-9777729D01*
X3746500Y-9804908D01*
X3751834Y-9821418D01*
X3757422Y-9832339D01*
X3768343Y-9843262D01*
X3779265Y-9848595D01*
X3801109Y-9848595D01*
X3812031Y-9843262D01*
X3822954Y-9832339D01*
X3828288Y-9821418D01*
X3864356Y-9734042D02*
G01*
X3864356Y-9848595D01*
X3864356Y-9734042D02*
G01*
X3913377Y-9734042D01*
X3929888Y-9739629D01*
X3935222Y-9744963D01*
X3940556Y-9755886D01*
X3940556Y-9766808D01*
X3935222Y-9777729D01*
X3929888Y-9783318D01*
X3913377Y-9788652D01*
X3864356Y-9788652D01*
X3902456Y-9788652D02*
G01*
X3940556Y-9848595D01*
X4053077Y-9750552D02*
G01*
X4042156Y-9739629D01*
X4025645Y-9734042D01*
X4004056Y-9734042D01*
X3987545Y-9739629D01*
X3976624Y-9750552D01*
X3976624Y-9761474D01*
X3982211Y-9772395D01*
X3987545Y-9777729D01*
X3998468Y-9783318D01*
X4031234Y-9793986D01*
X4042156Y-9799574D01*
X4047490Y-9804908D01*
X4053077Y-9815829D01*
X4053077Y-9832339D01*
X4042156Y-9843262D01*
X4025645Y-9848595D01*
X4004056Y-9848595D01*
X3987545Y-9843262D01*
X3976624Y-9832339D01*
X4089145Y-9734042D02*
G01*
X4089145Y-9848595D01*
X4089145Y-9734042D02*
G01*
X4160011Y-9734042D01*
X4089145Y-9788652D02*
G01*
X4132579Y-9788652D01*
X5105400Y-9698228D02*
G01*
X5105400Y-9774681D01*
X5129275Y-9698228D02*
G01*
X5129275Y-9774681D01*
X5129275Y-9698228D02*
G01*
X5162041Y-9698228D01*
X5172963Y-9701784D01*
X5176774Y-9705594D01*
X5180329Y-9712705D01*
X5180329Y-9720071D01*
X5176774Y-9727437D01*
X5172963Y-9730994D01*
X5162041Y-9734550D01*
X5129275Y-9734550D02*
G01*
X5162041Y-9734550D01*
X5172963Y-9738360D01*
X5176774Y-9741915D01*
X5180329Y-9749281D01*
X5180329Y-9760204D01*
X5176774Y-9767315D01*
X5172963Y-9771126D01*
X5162041Y-9774681D01*
X5129275Y-9774681D01*
X5233415Y-9698228D02*
G01*
X5204206Y-9774681D01*
X5233415Y-9698228D02*
G01*
X5262372Y-9774681D01*
X5215127Y-9749281D02*
G01*
X5251704Y-9749281D01*
X5311902Y-9698228D02*
G01*
X5311902Y-9774681D01*
X5286502Y-9698228D02*
G01*
X5337302Y-9698228D01*
X5417311Y-9698228D02*
G01*
X5446522Y-9774681D01*
X5475477Y-9698228D02*
G01*
X5446522Y-9774681D01*
X5499608Y-9698228D02*
G01*
X5499608Y-9774681D01*
X5499608Y-9698228D02*
G01*
X5532374Y-9698228D01*
X5543295Y-9701784D01*
X5546852Y-9705594D01*
X5550408Y-9712705D01*
X5550408Y-9720071D01*
X5546852Y-9727437D01*
X5543295Y-9730994D01*
X5532374Y-9734550D01*
X5499608Y-9734550D02*
G01*
X5532374Y-9734550D01*
X5543295Y-9738360D01*
X5546852Y-9741915D01*
X5550408Y-9749281D01*
X5550408Y-9760204D01*
X5546852Y-9767315D01*
X5543295Y-9771126D01*
X5532374Y-9774681D01*
X5499608Y-9774681D01*
X5603493Y-9698228D02*
G01*
X5574538Y-9774681D01*
X5603493Y-9698228D02*
G01*
X5632704Y-9774681D01*
X5585459Y-9749281D02*
G01*
X5621781Y-9749281D01*
X5682234Y-9698228D02*
G01*
X5682234Y-9774681D01*
X5656579Y-9698228D02*
G01*
X5707634Y-9698228D01*
X5842000Y-9716515D02*
G01*
X5838443Y-9709150D01*
X5831331Y-9701784D01*
X5823965Y-9698228D01*
X5809488Y-9698228D01*
X5802122Y-9701784D01*
X5794756Y-9709150D01*
X5791200Y-9716515D01*
X5787643Y-9727437D01*
X5787643Y-9745471D01*
X5791200Y-9756394D01*
X5794756Y-9763760D01*
X5802122Y-9771126D01*
X5809488Y-9774681D01*
X5823965Y-9774681D01*
X5831331Y-9771126D01*
X5838443Y-9763760D01*
X5842000Y-9756394D01*
X5842000Y-9745471D01*
X5823965Y-9745471D02*
G01*
X5842000Y-9745471D01*
X5866129Y-9698228D02*
G01*
X5866129Y-9774681D01*
X5866129Y-9698228D02*
G01*
X5916929Y-9774681D01*
X5916929Y-9698228D02*
G01*
X5916929Y-9774681D01*
X5941059Y-9698228D02*
G01*
X5941059Y-9774681D01*
X5941059Y-9698228D02*
G01*
X5966459Y-9698228D01*
X5977381Y-9701784D01*
X5984747Y-9709150D01*
X5988304Y-9716515D01*
X5991859Y-9727437D01*
X5991859Y-9745471D01*
X5988304Y-9756394D01*
X5984747Y-9763760D01*
X5977381Y-9771126D01*
X5966459Y-9774681D01*
X5941059Y-9774681D01*
X3579875Y-1209294D02*
G01*
X3497834Y-1209294D01*
X3538981Y-1168400D02*
G01*
X3538981Y-1250187D01*
X3593338Y-1363979D02*
G01*
X3516122Y-1363979D01*
X3502406Y-1368297D01*
X3497834Y-1377442D01*
X3497834Y-1386586D01*
X3561588Y-1350263D02*
G01*
X3561588Y-1382013D01*
X3561588Y-1416557D02*
G01*
X3497834Y-1416557D01*
X3534409Y-1416557D02*
G01*
X3547872Y-1421129D01*
X3557015Y-1430273D01*
X3561588Y-1439418D01*
X3561588Y-1452879D01*
X3593338Y-1482852D02*
G01*
X3588765Y-1487423D01*
X3593338Y-1491995D01*
X3597909Y-1487423D01*
X3593338Y-1482852D01*
X3561588Y-1487423D02*
G01*
X3497834Y-1487423D01*
X3561588Y-1521968D02*
G01*
X3497834Y-1521968D01*
X3543300Y-1521968D02*
G01*
X3557015Y-1535684D01*
X3561588Y-1544828D01*
X3561588Y-1558289D01*
X3557015Y-1567434D01*
X3543300Y-1572005D01*
X3497834Y-1572005D01*
X3543300Y-1572005D02*
G01*
X3557015Y-1585721D01*
X3561588Y-1594865D01*
X3561588Y-1608328D01*
X3557015Y-1617471D01*
X3543300Y-1622044D01*
X3497834Y-1622044D01*
X3538981Y-1722120D02*
G01*
X3538981Y-1803907D01*
X3111500Y-664718D02*
G01*
X3193288Y-664718D01*
X3334258Y-623823D02*
G01*
X3334258Y-705865D01*
X3293363Y-664718D02*
G01*
X3375152Y-664718D01*
X3459734Y-610362D02*
G01*
X3414268Y-610362D01*
X3409695Y-651255D01*
X3414268Y-646684D01*
X3427984Y-642112D01*
X3441445Y-642112D01*
X3455161Y-646684D01*
X3464306Y-655828D01*
X3468877Y-669289D01*
X3468877Y-678434D01*
X3464306Y-692150D01*
X3455161Y-701294D01*
X3441445Y-705865D01*
X3427984Y-705865D01*
X3414268Y-701294D01*
X3409695Y-696721D01*
X3405124Y-687578D01*
X3498850Y-642112D02*
G01*
X3526027Y-705865D01*
X3553206Y-642112D02*
G01*
X3526027Y-705865D01*
X3653281Y-664718D02*
G01*
X3735070Y-664718D01*
X3898645Y-623823D02*
G01*
X3889756Y-614934D01*
X3876040Y-610362D01*
X3857752Y-610362D01*
X3844290Y-614934D01*
X3835145Y-623823D01*
X3835145Y-632968D01*
X3839718Y-642112D01*
X3844290Y-646684D01*
X3853434Y-651255D01*
X3880611Y-660400D01*
X3889756Y-664718D01*
X3894327Y-669289D01*
X3898645Y-678434D01*
X3898645Y-692150D01*
X3889756Y-701294D01*
X3876040Y-705865D01*
X3857752Y-705865D01*
X3844290Y-701294D01*
X3835145Y-692150D01*
X3928872Y-610362D02*
G01*
X3951477Y-705865D01*
X3974338Y-610362D02*
G01*
X3951477Y-705865D01*
X3974338Y-610362D02*
G01*
X3996943Y-705865D01*
X4019804Y-610362D02*
G01*
X3996943Y-705865D01*
X11025631Y-1765300D02*
G01*
X11312143Y-1765300D01*
X11025631Y-1765300D02*
G01*
X11312143Y-1656334D01*
X11025631Y-1547113D02*
G01*
X11312143Y-1656334D01*
X11025631Y-1547113D02*
G01*
X11312143Y-1547113D01*
X11080241Y-1457197D02*
G01*
X11066525Y-1429765D01*
X11025631Y-1388871D01*
X11312143Y-1388871D01*
X10987531Y-5105400D02*
G01*
X11274043Y-5105400D01*
X10987531Y-5105400D02*
G01*
X11274043Y-4996434D01*
X10987531Y-4887213D02*
G01*
X11274043Y-4996434D01*
X10987531Y-4887213D02*
G01*
X11274043Y-4887213D01*
X11055858Y-4783581D02*
G01*
X11042141Y-4783581D01*
X11014963Y-4769865D01*
X11001247Y-4756404D01*
X10987531Y-4728971D01*
X10987531Y-4674615D01*
X11001247Y-4647184D01*
X11014963Y-4633468D01*
X11042141Y-4620005D01*
X11069320Y-4620005D01*
X11096752Y-4633468D01*
X11137645Y-4660900D01*
X11274043Y-4797297D01*
X11274043Y-4606289D01*
X11515090Y-2070100D02*
G01*
X11515090Y-1906523D01*
X11433302Y-1204721D02*
G01*
X11596877Y-1204721D01*
X11515090Y-1286510D02*
G01*
X11515090Y-1122934D01*
X11451590Y-5372100D02*
G01*
X11451590Y-5208523D01*
X11369802Y-4506721D02*
G01*
X11533377Y-4506721D01*
X11451590Y-4588510D02*
G01*
X11451590Y-4424934D01*
X11484609Y-7289800D02*
G01*
X11484609Y-7453376D01*
X11566397Y-8155178D02*
G01*
X11402822Y-8155178D01*
X11484609Y-8073389D02*
G01*
X11484609Y-8236965D01*
X10924031Y-8140700D02*
G01*
X11210543Y-8140700D01*
X10924031Y-8140700D02*
G01*
X10924031Y-8018018D01*
X10937747Y-7977123D01*
X10951463Y-7963408D01*
X10978641Y-7949692D01*
X11005820Y-7949692D01*
X11033252Y-7963408D01*
X11046713Y-7977123D01*
X11060429Y-8018018D01*
X11060429Y-8140700D02*
G01*
X11060429Y-8018018D01*
X11074145Y-7977123D01*
X11087608Y-7963408D01*
X11115040Y-7949692D01*
X11155934Y-7949692D01*
X11183111Y-7963408D01*
X11196827Y-7977123D01*
X11210543Y-8018018D01*
X11210543Y-8140700D01*
X10924031Y-7750810D02*
G01*
X11210543Y-7859776D01*
X10924031Y-7750810D02*
G01*
X11210543Y-7641589D01*
X11115040Y-7818881D02*
G01*
X11115040Y-7682484D01*
X10924031Y-7456170D02*
G01*
X11210543Y-7456170D01*
X10924031Y-7551673D02*
G01*
X10924031Y-7360665D01*
X1765300Y-107442D02*
G01*
X1765300Y-189229D01*
X1770634Y-205739D01*
X1781555Y-216662D01*
X1798065Y-221995D01*
X1808987Y-221995D01*
X1825244Y-216662D01*
X1836165Y-205739D01*
X1841754Y-189229D01*
X1841754Y-107442D01*
X1921255Y-107442D02*
G01*
X1877568Y-221995D01*
X1921255Y-107442D02*
G01*
X1964943Y-221995D01*
X1894078Y-183895D02*
G01*
X1948688Y-183895D01*
X2001011Y-107442D02*
G01*
X2001011Y-221995D01*
X2001011Y-107442D02*
G01*
X2050034Y-107442D01*
X2066290Y-113029D01*
X2071877Y-118363D01*
X2077211Y-129286D01*
X2077211Y-140207D01*
X2071877Y-151129D01*
X2066290Y-156718D01*
X2050034Y-162052D01*
X2001011Y-162052D01*
X2039111Y-162052D02*
G01*
X2077211Y-221995D01*
X2151379Y-107442D02*
G01*
X2151379Y-221995D01*
X2113279Y-107442D02*
G01*
X2189734Y-107442D01*
X2309622Y-129286D02*
G01*
X2320543Y-123952D01*
X2337054Y-107442D01*
X2337054Y-221995D01*
X554989Y-2888995D02*
G01*
X541273Y-2902712D01*
X534415Y-2923031D01*
X534415Y-2950463D01*
X541273Y-2970784D01*
X554989Y-2984500D01*
X568452Y-2984500D01*
X582168Y-2977642D01*
X589026Y-2970784D01*
X595884Y-2957321D01*
X609345Y-2916428D01*
X616204Y-2902712D01*
X623062Y-2895854D01*
X636778Y-2888995D01*
X657097Y-2888995D01*
X670813Y-2902712D01*
X677671Y-2923031D01*
X677671Y-2950463D01*
X670813Y-2970784D01*
X657097Y-2984500D01*
X554989Y-2677668D02*
G01*
X677671Y-2677668D01*
X616204Y-2739136D02*
G01*
X616204Y-2616200D01*
X616204Y-2466339D02*
G01*
X616204Y-2343657D01*
X812800Y-3139186D02*
G01*
X823721Y-3133852D01*
X839978Y-3117342D01*
X839978Y-3231895D01*
X941578Y-3133852D02*
G01*
X935989Y-3122929D01*
X919734Y-3117342D01*
X908812Y-3117342D01*
X892555Y-3122929D01*
X881634Y-3139186D01*
X876045Y-3166618D01*
X876045Y-3193795D01*
X881634Y-3215639D01*
X892555Y-3226562D01*
X908812Y-3231895D01*
X914145Y-3231895D01*
X930655Y-3226562D01*
X941578Y-3215639D01*
X946912Y-3199129D01*
X946912Y-3193795D01*
X941578Y-3177286D01*
X930655Y-3166618D01*
X914145Y-3161029D01*
X908812Y-3161029D01*
X892555Y-3166618D01*
X881634Y-3177286D01*
X876045Y-3193795D01*
X1067054Y-3139186D02*
G01*
X1077976Y-3133852D01*
X1094231Y-3117342D01*
X1094231Y-3231895D01*
X1206500Y-3117342D02*
G01*
X1152144Y-3231895D01*
X1130300Y-3117342D02*
G01*
X1206500Y-3117342D01*
X1326642Y-3139186D02*
G01*
X1337563Y-3133852D01*
X1353820Y-3117342D01*
X1353820Y-3231895D01*
X1417065Y-3117342D02*
G01*
X1400810Y-3122929D01*
X1395221Y-3133852D01*
X1395221Y-3144773D01*
X1400810Y-3155695D01*
X1411731Y-3161029D01*
X1433576Y-3166618D01*
X1449831Y-3171952D01*
X1460754Y-3182873D01*
X1466342Y-3193795D01*
X1466342Y-3210052D01*
X1460754Y-3220973D01*
X1455420Y-3226562D01*
X1438910Y-3231895D01*
X1417065Y-3231895D01*
X1400810Y-3226562D01*
X1395221Y-3220973D01*
X1389887Y-3210052D01*
X1389887Y-3193795D01*
X1395221Y-3182873D01*
X1406144Y-3171952D01*
X1422654Y-3166618D01*
X1444497Y-3161029D01*
X1455420Y-3155695D01*
X1460754Y-3144773D01*
X1460754Y-3133852D01*
X1455420Y-3122929D01*
X1438910Y-3117342D01*
X1417065Y-3117342D01*
X1586229Y-3139186D02*
G01*
X1597152Y-3133852D01*
X1613407Y-3117342D01*
X1613407Y-3231895D01*
X1720342Y-3155695D02*
G01*
X1715007Y-3171952D01*
X1704086Y-3182873D01*
X1687829Y-3188207D01*
X1682242Y-3188207D01*
X1665986Y-3182873D01*
X1655063Y-3171952D01*
X1649476Y-3155695D01*
X1649476Y-3150107D01*
X1655063Y-3133852D01*
X1665986Y-3122929D01*
X1682242Y-3117342D01*
X1687829Y-3117342D01*
X1704086Y-3122929D01*
X1715007Y-3133852D01*
X1720342Y-3155695D01*
X1720342Y-3182873D01*
X1715007Y-3210052D01*
X1704086Y-3226562D01*
X1687829Y-3231895D01*
X1676907Y-3231895D01*
X1660397Y-3226562D01*
X1655063Y-3215639D01*
X1840484Y-3139186D02*
G01*
X1851405Y-3133852D01*
X1867662Y-3117342D01*
X1867662Y-3231895D01*
X1936495Y-3117342D02*
G01*
X1919986Y-3122929D01*
X1909063Y-3139186D01*
X1903729Y-3166618D01*
X1903729Y-3182873D01*
X1909063Y-3210052D01*
X1919986Y-3226562D01*
X1936495Y-3231895D01*
X1947418Y-3231895D01*
X1963674Y-3226562D01*
X1974595Y-3210052D01*
X1980184Y-3182873D01*
X1980184Y-3166618D01*
X1974595Y-3139186D01*
X1963674Y-3122929D01*
X1947418Y-3117342D01*
X1936495Y-3117342D01*
X2100072Y-3139186D02*
G01*
X2110993Y-3133852D01*
X2127250Y-3117342D01*
X2127250Y-3231895D01*
X2163318Y-3139186D02*
G01*
X2174240Y-3133852D01*
X2190495Y-3117342D01*
X2190495Y-3231895D01*
X2310638Y-3139186D02*
G01*
X2321559Y-3133852D01*
X2337815Y-3117342D01*
X2337815Y-3231895D01*
X2428493Y-3117342D02*
G01*
X2373884Y-3193795D01*
X2455672Y-3193795D01*
X2428493Y-3117342D02*
G01*
X2428493Y-3231895D01*
X2575813Y-3139186D02*
G01*
X2586736Y-3133852D01*
X2602991Y-3117342D01*
X2602991Y-3231895D01*
X2704338Y-3117342D02*
G01*
X2649981Y-3117342D01*
X2644393Y-3166618D01*
X2649981Y-3161029D01*
X2666238Y-3155695D01*
X2682493Y-3155695D01*
X2699004Y-3161029D01*
X2709925Y-3171952D01*
X2715259Y-3188207D01*
X2715259Y-3199129D01*
X2709925Y-3215639D01*
X2699004Y-3226562D01*
X2682493Y-3231895D01*
X2666238Y-3231895D01*
X2649981Y-3226562D01*
X2644393Y-3220973D01*
X2639059Y-3210052D01*
D11*
X4601209Y-4547615D02*
G01*
X4597400Y-4540250D01*
X4590288Y-4532884D01*
X4582922Y-4529328D01*
X4568443Y-4529328D01*
X4561077Y-4532884D01*
X4553965Y-4540250D01*
X4550156Y-4547615D01*
X4546600Y-4558537D01*
X4546600Y-4576571D01*
X4550156Y-4587494D01*
X4553965Y-4594860D01*
X4561077Y-4602226D01*
X4568443Y-4605781D01*
X4582922Y-4605781D01*
X4590288Y-4602226D01*
X4597400Y-4594860D01*
X4601209Y-4587494D01*
X4625086Y-4543805D02*
G01*
X4632452Y-4540250D01*
X4643374Y-4529328D01*
X4643374Y-4605781D01*
X6745470Y-5054092D02*
G01*
X6740136Y-5043678D01*
X6729722Y-5033263D01*
X6719562Y-5028184D01*
X6698734Y-5028184D01*
X6688320Y-5033263D01*
X6677906Y-5043678D01*
X6672572Y-5054092D01*
X6667492Y-5069839D01*
X6667492Y-5095747D01*
X6672572Y-5111242D01*
X6677906Y-5121655D01*
X6688320Y-5132070D01*
X6698734Y-5137150D01*
X6719562Y-5137150D01*
X6729722Y-5132070D01*
X6740136Y-5121655D01*
X6745470Y-5111242D01*
X6784840Y-5054092D02*
G01*
X6784840Y-5049012D01*
X6790174Y-5038597D01*
X6795254Y-5033263D01*
X6805668Y-5028184D01*
X6826496Y-5028184D01*
X6836910Y-5033263D01*
X6841990Y-5038597D01*
X6847324Y-5049012D01*
X6847324Y-5059426D01*
X6841990Y-5069839D01*
X6831576Y-5085334D01*
X6779760Y-5137150D01*
X6852404Y-5137150D01*
X6772909Y-7100315D02*
G01*
X6769100Y-7092950D01*
X6761988Y-7085584D01*
X6754622Y-7082028D01*
X6740143Y-7082028D01*
X6732777Y-7085584D01*
X6725665Y-7092950D01*
X6721856Y-7100315D01*
X6718300Y-7111237D01*
X6718300Y-7129271D01*
X6721856Y-7140194D01*
X6725665Y-7147560D01*
X6732777Y-7154926D01*
X6740143Y-7158481D01*
X6754622Y-7158481D01*
X6761988Y-7154926D01*
X6769100Y-7147560D01*
X6772909Y-7140194D01*
X6804152Y-7082028D02*
G01*
X6844029Y-7082028D01*
X6822186Y-7111237D01*
X6833108Y-7111237D01*
X6840474Y-7114794D01*
X6844029Y-7118350D01*
X6847840Y-7129271D01*
X6847840Y-7136637D01*
X6844029Y-7147560D01*
X6836918Y-7154926D01*
X6825995Y-7158481D01*
X6815074Y-7158481D01*
X6804152Y-7154926D01*
X6800595Y-7151115D01*
X6796786Y-7144004D01*
X5193284Y-8563610D02*
G01*
X5200650Y-8559800D01*
X5208015Y-8552687D01*
X5211572Y-8545321D01*
X5211572Y-8530844D01*
X5208015Y-8523478D01*
X5200650Y-8516365D01*
X5193284Y-8512555D01*
X5182361Y-8509000D01*
X5164327Y-8509000D01*
X5153406Y-8512555D01*
X5146040Y-8516365D01*
X5138674Y-8523478D01*
X5135118Y-8530844D01*
X5135118Y-8545321D01*
X5138674Y-8552687D01*
X5146040Y-8559800D01*
X5153406Y-8563610D01*
X5211572Y-8623808D02*
G01*
X5160518Y-8587486D01*
X5160518Y-8642095D01*
X5211572Y-8623808D02*
G01*
X5135118Y-8623808D01*
X5967984Y-8576310D02*
G01*
X5975350Y-8572500D01*
X5982715Y-8565387D01*
X5986272Y-8558021D01*
X5986272Y-8543544D01*
X5982715Y-8536178D01*
X5975350Y-8529065D01*
X5967984Y-8525255D01*
X5957061Y-8521700D01*
X5939027Y-8521700D01*
X5928106Y-8525255D01*
X5920740Y-8529065D01*
X5913374Y-8536178D01*
X5909818Y-8543544D01*
X5909818Y-8558021D01*
X5913374Y-8565387D01*
X5920740Y-8572500D01*
X5928106Y-8576310D01*
X5986272Y-8643874D02*
G01*
X5986272Y-8607552D01*
X5953506Y-8603995D01*
X5957061Y-8607552D01*
X5960872Y-8618474D01*
X5960872Y-8629395D01*
X5957061Y-8640318D01*
X5949950Y-8647429D01*
X5939027Y-8651239D01*
X5931661Y-8651239D01*
X5920740Y-8647429D01*
X5913374Y-8640318D01*
X5909818Y-8629395D01*
X5909818Y-8618474D01*
X5913374Y-8607552D01*
X5917184Y-8603995D01*
X5924295Y-8600186D01*
X3445509Y-4153915D02*
G01*
X3441700Y-4146550D01*
X3434588Y-4139184D01*
X3427222Y-4135628D01*
X3412743Y-4135628D01*
X3405377Y-4139184D01*
X3398265Y-4146550D01*
X3394456Y-4153915D01*
X3390900Y-4164837D01*
X3390900Y-4182871D01*
X3394456Y-4193794D01*
X3398265Y-4201160D01*
X3405377Y-4208526D01*
X3412743Y-4212081D01*
X3427222Y-4212081D01*
X3434588Y-4208526D01*
X3441700Y-4201160D01*
X3445509Y-4193794D01*
X3513074Y-4146550D02*
G01*
X3509518Y-4139184D01*
X3498595Y-4135628D01*
X3491229Y-4135628D01*
X3480308Y-4139184D01*
X3473195Y-4150105D01*
X3469386Y-4168394D01*
X3469386Y-4186681D01*
X3473195Y-4201160D01*
X3480308Y-4208526D01*
X3491229Y-4212081D01*
X3494786Y-4212081D01*
X3505708Y-4208526D01*
X3513074Y-4201160D01*
X3516629Y-4190237D01*
X3516629Y-4186681D01*
X3513074Y-4175760D01*
X3505708Y-4168394D01*
X3494786Y-4164837D01*
X3491229Y-4164837D01*
X3480308Y-4168394D01*
X3473195Y-4175760D01*
X3469386Y-4186681D01*
X4499609Y-4153915D02*
G01*
X4495800Y-4146550D01*
X4488688Y-4139184D01*
X4481322Y-4135628D01*
X4466843Y-4135628D01*
X4459477Y-4139184D01*
X4452365Y-4146550D01*
X4448556Y-4153915D01*
X4445000Y-4164837D01*
X4445000Y-4182871D01*
X4448556Y-4193794D01*
X4452365Y-4201160D01*
X4459477Y-4208526D01*
X4466843Y-4212081D01*
X4481322Y-4212081D01*
X4488688Y-4208526D01*
X4495800Y-4201160D01*
X4499609Y-4193794D01*
X4574540Y-4135628D02*
G01*
X4537963Y-4212081D01*
X4523486Y-4135628D02*
G01*
X4574540Y-4135628D01*
X3377184Y-3559810D02*
G01*
X3384550Y-3556000D01*
X3391915Y-3548887D01*
X3395472Y-3541521D01*
X3395472Y-3527044D01*
X3391915Y-3519678D01*
X3384550Y-3512565D01*
X3377184Y-3508755D01*
X3366261Y-3505200D01*
X3348227Y-3505200D01*
X3337306Y-3508755D01*
X3329940Y-3512565D01*
X3322574Y-3519678D01*
X3319018Y-3527044D01*
X3319018Y-3541521D01*
X3322574Y-3548887D01*
X3329940Y-3556000D01*
X3337306Y-3559810D01*
X3395472Y-3601973D02*
G01*
X3391915Y-3591052D01*
X3384550Y-3587495D01*
X3377184Y-3587495D01*
X3370072Y-3591052D01*
X3366261Y-3598163D01*
X3362706Y-3612895D01*
X3359150Y-3623818D01*
X3351784Y-3630929D01*
X3344418Y-3634739D01*
X3333495Y-3634739D01*
X3326384Y-3630929D01*
X3322574Y-3627373D01*
X3319018Y-3616452D01*
X3319018Y-3601973D01*
X3322574Y-3591052D01*
X3326384Y-3587495D01*
X3333495Y-3583686D01*
X3344418Y-3583686D01*
X3351784Y-3587495D01*
X3359150Y-3594607D01*
X3362706Y-3605529D01*
X3366261Y-3620007D01*
X3370072Y-3627373D01*
X3377184Y-3630929D01*
X3384550Y-3630929D01*
X3391915Y-3627373D01*
X3395472Y-3616452D01*
X3395472Y-3601973D01*
X1841500Y-9386315D02*
G01*
X1841500Y-9277350D01*
X1729231Y-9360408D02*
G01*
X1734565Y-9370821D01*
X1744979Y-9381236D01*
X1755139Y-9386315D01*
X1775968Y-9386315D01*
X1786381Y-9381236D01*
X1796795Y-9370821D01*
X1802129Y-9360408D01*
X1807210Y-9344660D01*
X1807210Y-9318752D01*
X1802129Y-9303258D01*
X1796795Y-9292844D01*
X1786381Y-9282429D01*
X1775968Y-9277350D01*
X1755139Y-9277350D01*
X1744979Y-9282429D01*
X1734565Y-9292844D01*
X1729231Y-9303258D01*
X1694942Y-9365487D02*
G01*
X1684528Y-9370821D01*
X1669034Y-9386315D01*
X1669034Y-9277350D01*
D12*
X1816100Y-9145574D02*
G01*
X1816100Y-9240824D01*
X1914397Y-9168180D02*
G01*
X1909826Y-9159036D01*
X1900681Y-9150146D01*
X1891537Y-9145574D01*
X1873250Y-9145574D01*
X1864360Y-9150146D01*
X1855215Y-9159036D01*
X1850644Y-9168180D01*
X1846071Y-9181896D01*
X1846071Y-9204502D01*
X1850644Y-9218218D01*
X1855215Y-9227362D01*
X1864360Y-9236506D01*
X1873250Y-9240824D01*
X1891537Y-9240824D01*
X1900681Y-9236506D01*
X1909826Y-9227362D01*
X1914397Y-9218218D01*
X1944370Y-9163608D02*
G01*
X1953259Y-9159036D01*
X1966975Y-9145574D01*
X1966975Y-9240824D01*
D11*
X5396484Y-1473200D02*
G01*
X5505450Y-1473200D01*
X5396484Y-1473200D02*
G01*
X5396484Y-1426463D01*
X5401563Y-1410970D01*
X5406897Y-1405636D01*
X5417311Y-1400555D01*
X5432806Y-1400555D01*
X5443220Y-1405636D01*
X5448300Y-1410970D01*
X5453634Y-1426463D01*
X5453634Y-1473200D01*
X5396484Y-1366265D02*
G01*
X5505450Y-1366265D01*
X5396484Y-1366265D02*
G01*
X5505450Y-1324610D01*
X5396484Y-1282954D02*
G01*
X5505450Y-1324610D01*
X5396484Y-1282954D02*
G01*
X5505450Y-1282954D01*
X5417311Y-1248663D02*
G01*
X5411977Y-1238250D01*
X5396484Y-1222755D01*
X5505450Y-1222755D01*
X4821427Y-7239000D02*
G01*
X4897881Y-7239000D01*
X4821427Y-7239000D02*
G01*
X4821427Y-7206234D01*
X4824984Y-7195312D01*
X4828793Y-7191755D01*
X4835906Y-7188200D01*
X4843272Y-7188200D01*
X4850638Y-7191755D01*
X4854193Y-7195312D01*
X4857750Y-7206234D01*
X4857750Y-7239000D01*
X4857750Y-7213600D02*
G01*
X4897881Y-7188200D01*
X4835906Y-7164070D02*
G01*
X4832350Y-7156704D01*
X4821427Y-7146036D01*
X4897881Y-7146036D01*
X5075427Y-7264400D02*
G01*
X5151881Y-7264400D01*
X5075427Y-7264400D02*
G01*
X5075427Y-7231634D01*
X5078984Y-7220712D01*
X5082793Y-7217155D01*
X5089906Y-7213600D01*
X5097272Y-7213600D01*
X5104638Y-7217155D01*
X5108193Y-7220712D01*
X5111750Y-7231634D01*
X5111750Y-7264400D01*
X5111750Y-7239000D02*
G01*
X5151881Y-7213600D01*
X5093715Y-7185913D02*
G01*
X5089906Y-7185913D01*
X5082793Y-7182104D01*
X5078984Y-7178547D01*
X5075427Y-7171436D01*
X5075427Y-7156704D01*
X5078984Y-7149592D01*
X5082793Y-7145781D01*
X5089906Y-7142226D01*
X5097272Y-7142226D01*
X5104638Y-7145781D01*
X5115559Y-7153147D01*
X5151881Y-7189470D01*
X5151881Y-7138670D01*
X5354827Y-7277100D02*
G01*
X5431281Y-7277100D01*
X5354827Y-7277100D02*
G01*
X5354827Y-7244334D01*
X5358384Y-7233412D01*
X5362193Y-7229855D01*
X5369306Y-7226300D01*
X5376672Y-7226300D01*
X5384038Y-7229855D01*
X5387593Y-7233412D01*
X5391150Y-7244334D01*
X5391150Y-7277100D01*
X5391150Y-7251700D02*
G01*
X5431281Y-7226300D01*
X5354827Y-7194804D02*
G01*
X5354827Y-7154926D01*
X5384038Y-7176770D01*
X5384038Y-7165847D01*
X5387593Y-7158481D01*
X5391150Y-7154926D01*
X5402072Y-7151370D01*
X5409438Y-7151370D01*
X5420359Y-7154926D01*
X5427725Y-7162292D01*
X5431281Y-7173213D01*
X5431281Y-7184136D01*
X5427725Y-7194804D01*
X5423915Y-7198613D01*
X5416804Y-7202170D01*
X5608827Y-7289800D02*
G01*
X5685281Y-7289800D01*
X5608827Y-7289800D02*
G01*
X5608827Y-7257034D01*
X5612384Y-7246112D01*
X5616193Y-7242555D01*
X5623306Y-7239000D01*
X5630672Y-7239000D01*
X5638038Y-7242555D01*
X5641593Y-7246112D01*
X5645150Y-7257034D01*
X5645150Y-7289800D01*
X5645150Y-7264400D02*
G01*
X5685281Y-7239000D01*
X5608827Y-7178547D02*
G01*
X5659881Y-7214870D01*
X5659881Y-7160260D01*
X5608827Y-7178547D02*
G01*
X5685281Y-7178547D01*
X5562600Y-4529328D02*
G01*
X5562600Y-4605781D01*
X5562600Y-4529328D02*
G01*
X5595365Y-4529328D01*
X5606288Y-4532884D01*
X5609843Y-4536694D01*
X5613400Y-4543805D01*
X5613400Y-4551171D01*
X5609843Y-4558537D01*
X5606288Y-4562094D01*
X5595365Y-4565650D01*
X5562600Y-4565650D01*
X5588000Y-4565650D02*
G01*
X5613400Y-4605781D01*
X5681218Y-4529328D02*
G01*
X5644895Y-4529328D01*
X5641086Y-4562094D01*
X5644895Y-4558537D01*
X5655563Y-4554728D01*
X5666486Y-4554728D01*
X5677408Y-4558537D01*
X5684774Y-4565650D01*
X5688329Y-4576571D01*
X5688329Y-4583937D01*
X5684774Y-4594860D01*
X5677408Y-4602226D01*
X5666486Y-4605781D01*
X5655563Y-4605781D01*
X5644895Y-4602226D01*
X5641086Y-4598415D01*
X5637529Y-4591304D01*
X5308600Y-4529328D02*
G01*
X5308600Y-4605781D01*
X5308600Y-4529328D02*
G01*
X5341365Y-4529328D01*
X5352288Y-4532884D01*
X5355843Y-4536694D01*
X5359400Y-4543805D01*
X5359400Y-4551171D01*
X5355843Y-4558537D01*
X5352288Y-4562094D01*
X5341365Y-4565650D01*
X5308600Y-4565650D01*
X5334000Y-4565650D02*
G01*
X5359400Y-4605781D01*
X5427218Y-4540250D02*
G01*
X5423408Y-4532884D01*
X5412486Y-4529328D01*
X5405374Y-4529328D01*
X5394452Y-4532884D01*
X5387086Y-4543805D01*
X5383529Y-4562094D01*
X5383529Y-4580381D01*
X5387086Y-4594860D01*
X5394452Y-4602226D01*
X5405374Y-4605781D01*
X5408929Y-4605781D01*
X5419852Y-4602226D01*
X5427218Y-4594860D01*
X5430774Y-4583937D01*
X5430774Y-4580381D01*
X5427218Y-4569460D01*
X5419852Y-4562094D01*
X5408929Y-4558537D01*
X5405374Y-4558537D01*
X5394452Y-4562094D01*
X5387086Y-4569460D01*
X5383529Y-4580381D01*
X5054600Y-4529328D02*
G01*
X5054600Y-4605781D01*
X5054600Y-4529328D02*
G01*
X5087365Y-4529328D01*
X5098288Y-4532884D01*
X5101843Y-4536694D01*
X5105400Y-4543805D01*
X5105400Y-4551171D01*
X5101843Y-4558537D01*
X5098288Y-4562094D01*
X5087365Y-4565650D01*
X5054600Y-4565650D01*
X5080000Y-4565650D02*
G01*
X5105400Y-4605781D01*
X5180329Y-4529328D02*
G01*
X5144008Y-4605781D01*
X5129529Y-4529328D02*
G01*
X5180329Y-4529328D01*
X4787900Y-4529328D02*
G01*
X4787900Y-4605781D01*
X4787900Y-4529328D02*
G01*
X4820665Y-4529328D01*
X4831588Y-4532884D01*
X4835143Y-4536694D01*
X4838700Y-4543805D01*
X4838700Y-4551171D01*
X4835143Y-4558537D01*
X4831588Y-4562094D01*
X4820665Y-4565650D01*
X4787900Y-4565650D01*
X4813300Y-4565650D02*
G01*
X4838700Y-4605781D01*
X4880863Y-4529328D02*
G01*
X4870195Y-4532884D01*
X4866386Y-4540250D01*
X4866386Y-4547615D01*
X4870195Y-4554728D01*
X4877308Y-4558537D01*
X4891786Y-4562094D01*
X4902708Y-4565650D01*
X4910074Y-4573015D01*
X4913629Y-4580381D01*
X4913629Y-4591304D01*
X4910074Y-4598415D01*
X4906518Y-4602226D01*
X4895595Y-4605781D01*
X4880863Y-4605781D01*
X4870195Y-4602226D01*
X4866386Y-4598415D01*
X4862829Y-4591304D01*
X4862829Y-4580381D01*
X4866386Y-4573015D01*
X4873752Y-4565650D01*
X4884674Y-4562094D01*
X4899152Y-4558537D01*
X4906518Y-4554728D01*
X4910074Y-4547615D01*
X4910074Y-4540250D01*
X4906518Y-4532884D01*
X4895595Y-4529328D01*
X4880863Y-4529328D01*
X6731000Y-6574028D02*
G01*
X6731000Y-6650481D01*
X6731000Y-6574028D02*
G01*
X6763765Y-6574028D01*
X6774688Y-6577584D01*
X6778243Y-6581394D01*
X6781800Y-6588505D01*
X6781800Y-6595871D01*
X6778243Y-6603237D01*
X6774688Y-6606794D01*
X6763765Y-6610350D01*
X6731000Y-6610350D01*
X6756400Y-6610350D02*
G01*
X6781800Y-6650481D01*
X6853174Y-6599428D02*
G01*
X6849618Y-6610350D01*
X6842252Y-6617715D01*
X6831329Y-6621271D01*
X6827774Y-6621271D01*
X6816852Y-6617715D01*
X6809486Y-6610350D01*
X6805929Y-6599428D01*
X6805929Y-6595871D01*
X6809486Y-6584950D01*
X6816852Y-6577584D01*
X6827774Y-6574028D01*
X6831329Y-6574028D01*
X6842252Y-6577584D01*
X6849618Y-6584950D01*
X6853174Y-6599428D01*
X6853174Y-6617715D01*
X6849618Y-6636004D01*
X6842252Y-6646926D01*
X6831329Y-6650481D01*
X6823963Y-6650481D01*
X6813295Y-6646926D01*
X6809486Y-6639560D01*
X6705600Y-6320028D02*
G01*
X6705600Y-6396481D01*
X6705600Y-6320028D02*
G01*
X6738365Y-6320028D01*
X6749288Y-6323584D01*
X6752843Y-6327394D01*
X6756400Y-6334505D01*
X6756400Y-6341871D01*
X6752843Y-6349237D01*
X6749288Y-6352794D01*
X6738365Y-6356350D01*
X6705600Y-6356350D01*
X6731000Y-6356350D02*
G01*
X6756400Y-6396481D01*
X6780529Y-6334505D02*
G01*
X6787895Y-6330950D01*
X6798563Y-6320028D01*
X6798563Y-6396481D01*
X6844538Y-6320028D02*
G01*
X6833615Y-6323584D01*
X6826250Y-6334505D01*
X6822693Y-6352794D01*
X6822693Y-6363715D01*
X6826250Y-6382004D01*
X6833615Y-6392926D01*
X6844538Y-6396481D01*
X6851904Y-6396481D01*
X6862572Y-6392926D01*
X6869938Y-6382004D01*
X6873493Y-6363715D01*
X6873493Y-6352794D01*
X6869938Y-6334505D01*
X6862572Y-6323584D01*
X6851904Y-6320028D01*
X6844538Y-6320028D01*
X6629387Y-4520184D02*
G01*
X6629387Y-4629150D01*
X6629387Y-4520184D02*
G01*
X6676123Y-4520184D01*
X6691617Y-4525263D01*
X6696951Y-4530597D01*
X6702031Y-4541012D01*
X6702031Y-4551426D01*
X6696951Y-4561839D01*
X6691617Y-4566920D01*
X6676123Y-4572000D01*
X6629387Y-4572000D01*
X6665709Y-4572000D02*
G01*
X6702031Y-4629150D01*
X6736321Y-4541012D02*
G01*
X6746735Y-4535678D01*
X6762483Y-4520184D01*
X6762483Y-4629150D01*
X6796773Y-4541012D02*
G01*
X6807187Y-4535678D01*
X6822681Y-4520184D01*
X6822681Y-4629150D01*
X6603987Y-4253484D02*
G01*
X6603987Y-4362450D01*
X6603987Y-4253484D02*
G01*
X6650723Y-4253484D01*
X6666217Y-4258563D01*
X6671551Y-4263897D01*
X6676631Y-4274312D01*
X6676631Y-4284726D01*
X6671551Y-4295139D01*
X6666217Y-4300220D01*
X6650723Y-4305300D01*
X6603987Y-4305300D01*
X6640309Y-4305300D02*
G01*
X6676631Y-4362450D01*
X6710921Y-4274312D02*
G01*
X6721335Y-4268978D01*
X6737083Y-4253484D01*
X6737083Y-4362450D01*
X6776453Y-4279392D02*
G01*
X6776453Y-4274312D01*
X6781787Y-4263897D01*
X6786867Y-4258563D01*
X6797281Y-4253484D01*
X6818109Y-4253484D01*
X6828523Y-4258563D01*
X6833603Y-4263897D01*
X6838937Y-4274312D01*
X6838937Y-4284726D01*
X6833603Y-4295139D01*
X6823189Y-4310634D01*
X6771373Y-4362450D01*
X6844017Y-4362450D01*
X6603987Y-5536184D02*
G01*
X6603987Y-5645150D01*
X6603987Y-5536184D02*
G01*
X6650723Y-5536184D01*
X6666217Y-5541263D01*
X6671551Y-5546597D01*
X6676631Y-5557012D01*
X6676631Y-5567426D01*
X6671551Y-5577839D01*
X6666217Y-5582920D01*
X6650723Y-5588000D01*
X6603987Y-5588000D01*
X6640309Y-5588000D02*
G01*
X6676631Y-5645150D01*
X6710921Y-5557012D02*
G01*
X6721335Y-5551678D01*
X6737083Y-5536184D01*
X6737083Y-5645150D01*
X6781787Y-5536184D02*
G01*
X6838937Y-5536184D01*
X6807695Y-5577839D01*
X6823189Y-5577839D01*
X6833603Y-5582920D01*
X6838937Y-5588000D01*
X6844017Y-5603747D01*
X6844017Y-5614162D01*
X6838937Y-5629655D01*
X6828523Y-5640070D01*
X6812775Y-5645150D01*
X6797281Y-5645150D01*
X6781787Y-5640070D01*
X6776453Y-5634989D01*
X6771373Y-5624576D01*
X6616687Y-5282184D02*
G01*
X6616687Y-5391150D01*
X6616687Y-5282184D02*
G01*
X6663423Y-5282184D01*
X6678917Y-5287263D01*
X6684251Y-5292597D01*
X6689331Y-5303012D01*
X6689331Y-5313426D01*
X6684251Y-5323839D01*
X6678917Y-5328920D01*
X6663423Y-5334000D01*
X6616687Y-5334000D01*
X6653009Y-5334000D02*
G01*
X6689331Y-5391150D01*
X6723621Y-5303012D02*
G01*
X6734035Y-5297678D01*
X6749783Y-5282184D01*
X6749783Y-5391150D01*
X6835889Y-5282184D02*
G01*
X6784073Y-5354828D01*
X6861797Y-5354828D01*
X6835889Y-5282184D02*
G01*
X6835889Y-5391150D01*
X6667500Y-7577328D02*
G01*
X6667500Y-7653781D01*
X6667500Y-7577328D02*
G01*
X6700265Y-7577328D01*
X6711188Y-7580884D01*
X6714743Y-7584694D01*
X6718300Y-7591805D01*
X6718300Y-7599171D01*
X6714743Y-7606537D01*
X6711188Y-7610094D01*
X6700265Y-7613650D01*
X6667500Y-7613650D01*
X6692900Y-7613650D02*
G01*
X6718300Y-7653781D01*
X6742429Y-7591805D02*
G01*
X6749795Y-7588250D01*
X6760463Y-7577328D01*
X6760463Y-7653781D01*
X6828281Y-7577328D02*
G01*
X6791959Y-7577328D01*
X6788150Y-7610094D01*
X6791959Y-7606537D01*
X6802881Y-7602728D01*
X6813804Y-7602728D01*
X6824472Y-7606537D01*
X6831838Y-7613650D01*
X6835393Y-7624571D01*
X6835393Y-7631937D01*
X6831838Y-7642860D01*
X6824472Y-7650226D01*
X6813804Y-7653781D01*
X6802881Y-7653781D01*
X6791959Y-7650226D01*
X6788150Y-7646415D01*
X6784593Y-7639304D01*
X6705600Y-7323328D02*
G01*
X6705600Y-7399781D01*
X6705600Y-7323328D02*
G01*
X6738365Y-7323328D01*
X6749288Y-7326884D01*
X6752843Y-7330694D01*
X6756400Y-7337805D01*
X6756400Y-7345171D01*
X6752843Y-7352537D01*
X6749288Y-7356094D01*
X6738365Y-7359650D01*
X6705600Y-7359650D01*
X6731000Y-7359650D02*
G01*
X6756400Y-7399781D01*
X6780529Y-7337805D02*
G01*
X6787895Y-7334250D01*
X6798563Y-7323328D01*
X6798563Y-7399781D01*
X6866381Y-7334250D02*
G01*
X6862572Y-7326884D01*
X6851904Y-7323328D01*
X6844538Y-7323328D01*
X6833615Y-7326884D01*
X6826250Y-7337805D01*
X6822693Y-7356094D01*
X6822693Y-7374381D01*
X6826250Y-7388860D01*
X6833615Y-7396226D01*
X6844538Y-7399781D01*
X6848093Y-7399781D01*
X6859015Y-7396226D01*
X6866381Y-7388860D01*
X6869938Y-7377937D01*
X6869938Y-7374381D01*
X6866381Y-7363460D01*
X6859015Y-7356094D01*
X6848093Y-7352537D01*
X6844538Y-7352537D01*
X6833615Y-7356094D01*
X6826250Y-7363460D01*
X6822693Y-7374381D01*
X6603987Y-4761484D02*
G01*
X6603987Y-4870450D01*
X6603987Y-4761484D02*
G01*
X6650723Y-4761484D01*
X6666217Y-4766563D01*
X6671551Y-4771897D01*
X6676631Y-4782312D01*
X6676631Y-4792726D01*
X6671551Y-4803139D01*
X6666217Y-4808220D01*
X6650723Y-4813300D01*
X6603987Y-4813300D01*
X6640309Y-4813300D02*
G01*
X6676631Y-4870450D01*
X6710921Y-4782312D02*
G01*
X6721335Y-4776978D01*
X6737083Y-4761484D01*
X6737083Y-4870450D01*
X6844017Y-4761484D02*
G01*
X6791947Y-4870450D01*
X6771373Y-4761484D02*
G01*
X6844017Y-4761484D01*
X6603987Y-5777484D02*
G01*
X6603987Y-5886450D01*
X6603987Y-5777484D02*
G01*
X6650723Y-5777484D01*
X6666217Y-5782563D01*
X6671551Y-5787897D01*
X6676631Y-5798312D01*
X6676631Y-5808726D01*
X6671551Y-5819139D01*
X6666217Y-5824220D01*
X6650723Y-5829300D01*
X6603987Y-5829300D01*
X6640309Y-5829300D02*
G01*
X6676631Y-5886450D01*
X6710921Y-5798312D02*
G01*
X6721335Y-5792978D01*
X6737083Y-5777484D01*
X6737083Y-5886450D01*
X6797281Y-5777484D02*
G01*
X6781787Y-5782563D01*
X6776453Y-5792978D01*
X6776453Y-5803392D01*
X6781787Y-5813805D01*
X6791947Y-5819139D01*
X6812775Y-5824220D01*
X6828523Y-5829300D01*
X6838937Y-5839713D01*
X6844017Y-5850128D01*
X6844017Y-5865876D01*
X6838937Y-5876289D01*
X6833603Y-5881370D01*
X6818109Y-5886450D01*
X6797281Y-5886450D01*
X6781787Y-5881370D01*
X6776453Y-5876289D01*
X6771373Y-5865876D01*
X6771373Y-5850128D01*
X6776453Y-5839713D01*
X6786867Y-5829300D01*
X6802361Y-5824220D01*
X6823189Y-5819139D01*
X6833603Y-5813805D01*
X6838937Y-5803392D01*
X6838937Y-5792978D01*
X6833603Y-5782563D01*
X6818109Y-5777484D01*
X6797281Y-5777484D01*
X6705600Y-6815328D02*
G01*
X6705600Y-6891781D01*
X6705600Y-6815328D02*
G01*
X6738365Y-6815328D01*
X6749288Y-6818884D01*
X6752843Y-6822694D01*
X6756400Y-6829805D01*
X6756400Y-6837171D01*
X6752843Y-6844537D01*
X6749288Y-6848094D01*
X6738365Y-6851650D01*
X6705600Y-6851650D01*
X6731000Y-6851650D02*
G01*
X6756400Y-6891781D01*
X6780529Y-6829805D02*
G01*
X6787895Y-6826250D01*
X6798563Y-6815328D01*
X6798563Y-6891781D01*
X6869938Y-6840728D02*
G01*
X6866381Y-6851650D01*
X6859015Y-6859015D01*
X6848093Y-6862571D01*
X6844538Y-6862571D01*
X6833615Y-6859015D01*
X6826250Y-6851650D01*
X6822693Y-6840728D01*
X6822693Y-6837171D01*
X6826250Y-6826250D01*
X6833615Y-6818884D01*
X6844538Y-6815328D01*
X6848093Y-6815328D01*
X6859015Y-6818884D01*
X6866381Y-6826250D01*
X6869938Y-6840728D01*
X6869938Y-6859015D01*
X6866381Y-6877304D01*
X6859015Y-6888226D01*
X6848093Y-6891781D01*
X6840981Y-6891781D01*
X6830059Y-6888226D01*
X6826250Y-6880860D01*
X6667500Y-7856728D02*
G01*
X6667500Y-7933181D01*
X6667500Y-7856728D02*
G01*
X6700265Y-7856728D01*
X6711188Y-7860284D01*
X6714743Y-7864094D01*
X6718300Y-7871205D01*
X6718300Y-7878571D01*
X6714743Y-7885937D01*
X6711188Y-7889494D01*
X6700265Y-7893050D01*
X6667500Y-7893050D01*
X6692900Y-7893050D02*
G01*
X6718300Y-7933181D01*
X6745986Y-7875015D02*
G01*
X6745986Y-7871205D01*
X6749795Y-7864094D01*
X6753352Y-7860284D01*
X6760463Y-7856728D01*
X6775195Y-7856728D01*
X6782308Y-7860284D01*
X6786118Y-7864094D01*
X6789674Y-7871205D01*
X6789674Y-7878571D01*
X6786118Y-7885937D01*
X6778752Y-7896860D01*
X6742429Y-7933181D01*
X6793229Y-7933181D01*
X6839204Y-7856728D02*
G01*
X6828281Y-7860284D01*
X6820915Y-7871205D01*
X6817359Y-7889494D01*
X6817359Y-7900415D01*
X6820915Y-7918704D01*
X6828281Y-7929626D01*
X6839204Y-7933181D01*
X6846315Y-7933181D01*
X6857238Y-7929626D01*
X6864604Y-7918704D01*
X6868159Y-7900415D01*
X6868159Y-7889494D01*
X6864604Y-7871205D01*
X6857238Y-7860284D01*
X6846315Y-7856728D01*
X6839204Y-7856728D01*
X5478272Y-8470900D02*
G01*
X5401818Y-8470900D01*
X5478272Y-8470900D02*
G01*
X5478272Y-8503665D01*
X5474715Y-8514587D01*
X5470906Y-8518144D01*
X5463793Y-8521700D01*
X5456427Y-8521700D01*
X5449061Y-8518144D01*
X5445506Y-8514587D01*
X5441950Y-8503665D01*
X5441950Y-8470900D01*
X5441950Y-8496300D02*
G01*
X5401818Y-8521700D01*
X5459984Y-8549386D02*
G01*
X5463793Y-8549386D01*
X5470906Y-8553195D01*
X5474715Y-8556752D01*
X5478272Y-8563863D01*
X5478272Y-8578595D01*
X5474715Y-8585708D01*
X5470906Y-8589518D01*
X5463793Y-8593074D01*
X5456427Y-8593074D01*
X5449061Y-8589518D01*
X5438140Y-8582152D01*
X5401818Y-8545829D01*
X5401818Y-8596629D01*
X5478272Y-8664447D02*
G01*
X5478272Y-8627871D01*
X5445506Y-8624315D01*
X5449061Y-8627871D01*
X5452872Y-8638794D01*
X5452872Y-8649715D01*
X5449061Y-8660637D01*
X5441950Y-8668004D01*
X5431027Y-8671560D01*
X5423661Y-8671560D01*
X5412740Y-8668004D01*
X5405374Y-8660637D01*
X5401818Y-8649715D01*
X5401818Y-8638794D01*
X5405374Y-8627871D01*
X5409184Y-8624315D01*
X5416295Y-8620760D01*
X5732272Y-8470900D02*
G01*
X5655818Y-8470900D01*
X5732272Y-8470900D02*
G01*
X5732272Y-8503665D01*
X5728715Y-8514587D01*
X5724906Y-8518144D01*
X5717793Y-8521700D01*
X5710427Y-8521700D01*
X5703061Y-8518144D01*
X5699506Y-8514587D01*
X5695950Y-8503665D01*
X5695950Y-8470900D01*
X5695950Y-8496300D02*
G01*
X5655818Y-8521700D01*
X5713984Y-8549386D02*
G01*
X5717793Y-8549386D01*
X5724906Y-8553195D01*
X5728715Y-8556752D01*
X5732272Y-8563863D01*
X5732272Y-8578595D01*
X5728715Y-8585708D01*
X5724906Y-8589518D01*
X5717793Y-8593074D01*
X5710427Y-8593074D01*
X5703061Y-8589518D01*
X5692140Y-8582152D01*
X5655818Y-8545829D01*
X5655818Y-8596629D01*
X5721350Y-8664447D02*
G01*
X5728715Y-8660637D01*
X5732272Y-8649715D01*
X5732272Y-8642604D01*
X5728715Y-8631681D01*
X5717793Y-8624315D01*
X5699506Y-8620760D01*
X5681218Y-8620760D01*
X5666740Y-8624315D01*
X5659374Y-8631681D01*
X5655818Y-8642604D01*
X5655818Y-8646160D01*
X5659374Y-8657081D01*
X5666740Y-8664447D01*
X5677661Y-8668004D01*
X5681218Y-8668004D01*
X5692140Y-8664447D01*
X5699506Y-8657081D01*
X5703061Y-8646160D01*
X5703061Y-8642604D01*
X5699506Y-8631681D01*
X5692140Y-8624315D01*
X5681218Y-8620760D01*
X4635500Y-3843528D02*
G01*
X4635500Y-3919981D01*
X4635500Y-3843528D02*
G01*
X4668265Y-3843528D01*
X4679188Y-3847084D01*
X4682743Y-3850894D01*
X4686300Y-3858005D01*
X4686300Y-3865371D01*
X4682743Y-3872737D01*
X4679188Y-3876294D01*
X4668265Y-3879850D01*
X4635500Y-3879850D01*
X4660900Y-3879850D02*
G01*
X4686300Y-3919981D01*
X4713986Y-3861815D02*
G01*
X4713986Y-3858005D01*
X4717795Y-3850894D01*
X4721352Y-3847084D01*
X4728463Y-3843528D01*
X4743195Y-3843528D01*
X4750308Y-3847084D01*
X4754118Y-3850894D01*
X4757674Y-3858005D01*
X4757674Y-3865371D01*
X4754118Y-3872737D01*
X4746752Y-3883660D01*
X4710429Y-3919981D01*
X4761229Y-3919981D01*
X4785359Y-3858005D02*
G01*
X4792472Y-3854450D01*
X4803393Y-3843528D01*
X4803393Y-3919981D01*
X4635500Y-3640328D02*
G01*
X4635500Y-3716781D01*
X4635500Y-3640328D02*
G01*
X4668265Y-3640328D01*
X4679188Y-3643884D01*
X4682743Y-3647694D01*
X4686300Y-3654805D01*
X4686300Y-3662171D01*
X4682743Y-3669537D01*
X4679188Y-3673094D01*
X4668265Y-3676650D01*
X4635500Y-3676650D01*
X4660900Y-3676650D02*
G01*
X4686300Y-3716781D01*
X4713986Y-3658615D02*
G01*
X4713986Y-3654805D01*
X4717795Y-3647694D01*
X4721352Y-3643884D01*
X4728463Y-3640328D01*
X4743195Y-3640328D01*
X4750308Y-3643884D01*
X4754118Y-3647694D01*
X4757674Y-3654805D01*
X4757674Y-3662171D01*
X4754118Y-3669537D01*
X4746752Y-3680460D01*
X4710429Y-3716781D01*
X4761229Y-3716781D01*
X4788915Y-3658615D02*
G01*
X4788915Y-3654805D01*
X4792472Y-3647694D01*
X4796281Y-3643884D01*
X4803393Y-3640328D01*
X4818125Y-3640328D01*
X4825238Y-3643884D01*
X4829047Y-3647694D01*
X4832604Y-3654805D01*
X4832604Y-3662171D01*
X4829047Y-3669537D01*
X4821681Y-3680460D01*
X4785359Y-3716781D01*
X4836159Y-3716781D01*
X4622800Y-3424428D02*
G01*
X4622800Y-3500881D01*
X4622800Y-3424428D02*
G01*
X4655565Y-3424428D01*
X4666488Y-3427984D01*
X4670043Y-3431794D01*
X4673600Y-3438905D01*
X4673600Y-3446271D01*
X4670043Y-3453637D01*
X4666488Y-3457194D01*
X4655565Y-3460750D01*
X4622800Y-3460750D01*
X4648200Y-3460750D02*
G01*
X4673600Y-3500881D01*
X4701286Y-3442715D02*
G01*
X4701286Y-3438905D01*
X4705095Y-3431794D01*
X4708652Y-3427984D01*
X4715763Y-3424428D01*
X4730495Y-3424428D01*
X4737608Y-3427984D01*
X4741418Y-3431794D01*
X4744974Y-3438905D01*
X4744974Y-3446271D01*
X4741418Y-3453637D01*
X4734052Y-3464560D01*
X4697729Y-3500881D01*
X4748529Y-3500881D01*
X4779772Y-3424428D02*
G01*
X4819904Y-3424428D01*
X4798059Y-3453637D01*
X4808981Y-3453637D01*
X4816347Y-3457194D01*
X4819904Y-3460750D01*
X4823459Y-3471671D01*
X4823459Y-3479037D01*
X4819904Y-3489960D01*
X4812538Y-3497326D01*
X4801615Y-3500881D01*
X4790693Y-3500881D01*
X4779772Y-3497326D01*
X4776215Y-3493515D01*
X4772659Y-3486404D01*
X4076700Y-2992628D02*
G01*
X4076700Y-3069081D01*
X4076700Y-2992628D02*
G01*
X4109465Y-2992628D01*
X4120388Y-2996184D01*
X4123943Y-2999994D01*
X4127500Y-3007105D01*
X4127500Y-3014471D01*
X4123943Y-3021837D01*
X4120388Y-3025394D01*
X4109465Y-3028950D01*
X4076700Y-3028950D01*
X4102100Y-3028950D02*
G01*
X4127500Y-3069081D01*
X4155186Y-3010915D02*
G01*
X4155186Y-3007105D01*
X4158995Y-2999994D01*
X4162552Y-2996184D01*
X4169663Y-2992628D01*
X4184395Y-2992628D01*
X4191508Y-2996184D01*
X4195318Y-2999994D01*
X4198874Y-3007105D01*
X4198874Y-3014471D01*
X4195318Y-3021837D01*
X4187952Y-3032760D01*
X4151629Y-3069081D01*
X4202429Y-3069081D01*
X4262881Y-2992628D02*
G01*
X4226559Y-3043681D01*
X4281170Y-3043681D01*
X4262881Y-2992628D02*
G01*
X4262881Y-3069081D01*
X5154701Y-5169382D02*
G01*
X5154701Y-5247360D01*
X5159781Y-5262854D01*
X5170195Y-5273268D01*
X5185943Y-5278348D01*
X5196357Y-5278348D01*
X5211851Y-5273268D01*
X5222265Y-5262854D01*
X5227345Y-5247360D01*
X5227345Y-5169382D01*
X5261635Y-5190210D02*
G01*
X5272049Y-5184876D01*
X5287797Y-5169382D01*
X5287797Y-5278348D01*
X9817100Y-1944115D02*
G01*
X9817100Y-1866137D01*
X9812020Y-1850644D01*
X9801606Y-1840229D01*
X9785858Y-1835150D01*
X9775443Y-1835150D01*
X9759950Y-1840229D01*
X9749536Y-1850644D01*
X9744456Y-1866137D01*
X9744456Y-1944115D01*
X9704831Y-1918207D02*
G01*
X9704831Y-1923287D01*
X9699752Y-1933702D01*
X9694418Y-1939036D01*
X9684004Y-1944115D01*
X9663429Y-1944115D01*
X9653015Y-1939036D01*
X9647681Y-1933702D01*
X9642602Y-1923287D01*
X9642602Y-1912873D01*
X9647681Y-1902460D01*
X9658095Y-1886965D01*
X9710165Y-1835150D01*
X9637268Y-1835150D01*
X9821316Y-4407915D02*
G01*
X9821316Y-4329937D01*
X9816236Y-4314444D01*
X9805822Y-4304029D01*
X9790074Y-4298950D01*
X9779660Y-4298950D01*
X9764166Y-4304029D01*
X9753752Y-4314444D01*
X9748672Y-4329937D01*
X9748672Y-4407915D01*
X9703968Y-4407915D02*
G01*
X9646818Y-4407915D01*
X9677806Y-4366260D01*
X9662312Y-4366260D01*
X9651898Y-4361179D01*
X9646818Y-4356100D01*
X9641484Y-4340352D01*
X9641484Y-4329937D01*
X9646818Y-4314444D01*
X9657232Y-4304029D01*
X9672726Y-4298950D01*
X9688220Y-4298950D01*
X9703968Y-4304029D01*
X9709048Y-4309110D01*
X9714382Y-4319523D01*
X9829800Y-6884415D02*
G01*
X9829800Y-6806437D01*
X9824720Y-6790944D01*
X9814306Y-6780529D01*
X9798558Y-6775450D01*
X9788143Y-6775450D01*
X9772650Y-6780529D01*
X9762236Y-6790944D01*
X9757156Y-6806437D01*
X9757156Y-6884415D01*
X9670795Y-6884415D02*
G01*
X9722865Y-6811771D01*
X9644888Y-6811771D01*
X9670795Y-6884415D02*
G01*
X9670795Y-6775450D01*
X9804400Y-9348215D02*
G01*
X9804400Y-9270237D01*
X9799320Y-9254744D01*
X9788906Y-9244329D01*
X9773158Y-9239250D01*
X9762743Y-9239250D01*
X9747250Y-9244329D01*
X9736836Y-9254744D01*
X9731756Y-9270237D01*
X9731756Y-9348215D01*
X9634981Y-9348215D02*
G01*
X9687052Y-9348215D01*
X9692131Y-9301479D01*
X9687052Y-9306560D01*
X9671304Y-9311894D01*
X9655809Y-9311894D01*
X9640315Y-9306560D01*
X9629902Y-9296400D01*
X9624568Y-9280652D01*
X9624568Y-9270237D01*
X9629902Y-9254744D01*
X9640315Y-9244329D01*
X9655809Y-9239250D01*
X9671304Y-9239250D01*
X9687052Y-9244329D01*
X9692131Y-9249410D01*
X9697465Y-9259824D01*
X7656322Y-9119108D02*
G01*
X7661656Y-9129521D01*
X7672070Y-9139936D01*
X7682229Y-9145015D01*
X7703058Y-9145015D01*
X7713472Y-9139936D01*
X7723886Y-9129521D01*
X7729220Y-9119108D01*
X7734300Y-9103360D01*
X7734300Y-9077452D01*
X7729220Y-9061958D01*
X7723886Y-9051544D01*
X7713472Y-9041129D01*
X7703058Y-9036050D01*
X7682229Y-9036050D01*
X7672070Y-9041129D01*
X7661656Y-9051544D01*
X7656322Y-9061958D01*
X7554468Y-9108694D02*
G01*
X7559802Y-9093200D01*
X7570215Y-9082786D01*
X7585709Y-9077452D01*
X7590790Y-9077452D01*
X7606538Y-9082786D01*
X7616952Y-9093200D01*
X7622031Y-9108694D01*
X7622031Y-9113774D01*
X7616952Y-9129521D01*
X7606538Y-9139936D01*
X7590790Y-9145015D01*
X7585709Y-9145015D01*
X7570215Y-9139936D01*
X7559802Y-9129521D01*
X7554468Y-9108694D01*
X7554468Y-9082786D01*
X7559802Y-9056624D01*
X7570215Y-9041129D01*
X7585709Y-9036050D01*
X7596124Y-9036050D01*
X7611618Y-9041129D01*
X7616952Y-9051544D01*
G36*
X4613452Y-6065012D02*
G01*
X4606544Y-6065621D01*
X4599787Y-6067094D01*
X4593234Y-6069279D01*
X4586935Y-6072276D01*
X4581093Y-6075984D01*
X4575708Y-6080353D01*
X4570882Y-6085332D01*
X4566666Y-6090818D01*
X4563160Y-6096812D01*
X4560366Y-6103112D01*
X4558334Y-6109766D01*
X4557115Y-6116574D01*
X4556709Y-6123482D01*
X4557115Y-6130442D01*
X4558334Y-6137249D01*
X4560366Y-6143853D01*
X4563160Y-6150203D01*
X4566666Y-6156198D01*
X4570882Y-6161684D01*
X4575708Y-6166662D01*
X4581093Y-6171031D01*
X4586935Y-6174740D01*
X4593234Y-6177686D01*
X4599787Y-6179921D01*
X4606544Y-6181344D01*
X4613452Y-6181953D01*
X4620412Y-6181750D01*
X4627270Y-6180734D01*
X4633925Y-6178905D01*
X4640376Y-6176314D01*
X4646422Y-6172962D01*
X4652060Y-6168948D01*
X4657191Y-6164224D01*
X4661712Y-6158992D01*
X4665573Y-6153251D01*
X4668723Y-6147104D01*
X4671161Y-6140602D01*
X4672787Y-6133846D01*
X4673600Y-6126988D01*
X4673600Y-6120028D01*
X4672787Y-6113170D01*
X4671161Y-6106414D01*
X4668723Y-6099911D01*
X4665573Y-6093764D01*
X4661712Y-6088024D01*
X4657191Y-6082741D01*
X4652060Y-6078067D01*
X4646422Y-6074054D01*
X4640376Y-6070701D01*
X4637176Y-6069279D01*
X4630623Y-6067094D01*
X4623816Y-6065621D01*
X4616958Y-6065012D01*
G37*
G36*
X6896100Y-8750300D02*
G01*
X6845300Y-8851900D01*
X6832600Y-8940800D01*
X6819900Y-9055100D01*
X6832600Y-9194800D01*
X6832600Y-9283700D01*
X6896100Y-9423400D01*
G37*
X4519739Y-4695680D02*
G01*
X4519739Y-4836680D01*
X4700460Y-4836680D02*
G01*
X4700460Y-4695680D01*
X4685220Y-4680440D02*
G01*
X4534979Y-4680440D01*
X4519739Y-5057919D02*
G01*
X4519739Y-4916919D01*
X4700460Y-4916919D02*
G01*
X4700460Y-5057919D01*
X4685220Y-5073159D02*
G01*
X4534979Y-5073159D01*
X6930880Y-5170360D02*
G01*
X7071880Y-5170360D01*
X7071880Y-4989639D02*
G01*
X6930880Y-4989639D01*
X6915640Y-5004879D02*
G01*
X6915640Y-5155120D01*
X7293119Y-5170360D02*
G01*
X7152119Y-5170360D01*
X7152119Y-4989639D02*
G01*
X7293119Y-4989639D01*
X7308359Y-5004879D02*
G01*
X7308359Y-5155120D01*
X6930880Y-7202360D02*
G01*
X7071880Y-7202360D01*
X7071880Y-7021639D02*
G01*
X6930880Y-7021639D01*
X6915640Y-7036879D02*
G01*
X6915640Y-7187120D01*
X7293119Y-7202360D02*
G01*
X7152119Y-7202360D01*
X7152119Y-7021639D02*
G01*
X7293119Y-7021639D01*
X7308359Y-7036879D02*
G01*
X7308359Y-7187120D01*
X5271960Y-9071119D02*
G01*
X5271960Y-8930119D01*
X5091239Y-8930119D02*
G01*
X5091239Y-9071119D01*
X5106479Y-9086359D02*
G01*
X5256720Y-9086359D01*
X5271960Y-8708880D02*
G01*
X5271960Y-8849880D01*
X5091239Y-8849880D02*
G01*
X5091239Y-8708880D01*
X5106479Y-8693640D02*
G01*
X5256720Y-8693640D01*
X6033960Y-9071119D02*
G01*
X6033960Y-8930119D01*
X5853239Y-8930119D02*
G01*
X5853239Y-9071119D01*
X5868479Y-9086359D02*
G01*
X6018720Y-9086359D01*
X6033960Y-8708880D02*
G01*
X6033960Y-8849880D01*
X5853239Y-8849880D02*
G01*
X5853239Y-8708880D01*
X5868479Y-8693640D02*
G01*
X6018720Y-8693640D01*
X3273280Y-4078160D02*
G01*
X3414280Y-4078160D01*
X3414280Y-3897439D02*
G01*
X3273280Y-3897439D01*
X3258040Y-3912679D02*
G01*
X3258040Y-4062920D01*
X3635519Y-4078160D02*
G01*
X3494519Y-4078160D01*
X3494519Y-3897439D02*
G01*
X3635519Y-3897439D01*
X3650759Y-3912679D02*
G01*
X3650759Y-4062920D01*
D13*
X4388957Y-4180918D02*
G01*
X4388957Y-4260916D01*
X4389003Y-4124873D02*
G01*
X4389003Y-4044876D01*
X4246989Y-4180918D02*
G01*
X4246989Y-4260916D01*
X4247037Y-4124873D02*
G01*
X4247037Y-4044876D01*
X4357974Y-4291891D02*
G01*
X4277969Y-4291891D01*
X4278022Y-4013898D02*
G01*
X4358025Y-4013898D01*
X3459642Y-3540681D02*
G01*
X3459642Y-3460683D01*
X3459596Y-3596726D02*
G01*
X3459596Y-3676723D01*
X3601610Y-3540681D02*
G01*
X3601610Y-3460683D01*
X3601562Y-3596726D02*
G01*
X3601562Y-3676723D01*
X3490625Y-3429708D02*
G01*
X3570630Y-3429708D01*
X3570577Y-3707701D02*
G01*
X3490574Y-3707701D01*
D10*
X1778000Y-2540000D02*
G01*
X1778000Y-2286000D01*
X2029459Y-2286000D01*
X2029459Y-3048000D01*
X1778000Y-3048000D01*
X1778000Y-2540000D01*
X2032000Y-2540000D02*
G01*
X2032000Y-2286000D01*
X2283459Y-2286000D01*
X2283459Y-3048000D01*
X2032000Y-3048000D01*
X2032000Y-2540000D01*
X2286000Y-2540000D02*
G01*
X2286000Y-2286000D01*
X2537459Y-2286000D01*
X2537459Y-3048000D01*
X2286000Y-3048000D01*
X2286000Y-2540000D01*
X2540000Y-2540000D02*
G01*
X2540000Y-2286000D01*
X2791459Y-2286000D01*
X2791459Y-3048000D01*
X2540000Y-3048000D01*
X2540000Y-2540000D01*
X762000Y-2540000D02*
G01*
X762000Y-2286000D01*
X1013460Y-2286000D01*
X1013460Y-3048000D01*
X762000Y-3048000D01*
X762000Y-2540000D01*
X1016000Y-2540000D02*
G01*
X1016000Y-2286000D01*
X1267460Y-2286000D01*
X1267460Y-3048000D01*
X1016000Y-3048000D01*
X1016000Y-2540000D01*
X1270000Y-2540000D02*
G01*
X1270000Y-2286000D01*
X1521460Y-2286000D01*
X1521460Y-3048000D01*
X1270000Y-3048000D01*
X1270000Y-2540000D01*
X1524000Y-2540000D02*
G01*
X1524000Y-2286000D01*
X1775460Y-2286000D01*
X1775460Y-3048000D01*
X1524000Y-3048000D01*
X1524000Y-2540000D01*
X5435600Y-9626600D02*
G01*
X5181600Y-9626600D01*
X5181600Y-9375139D01*
X5943600Y-9375139D01*
X5943600Y-9626600D01*
X5435600Y-9626600D01*
D14*
X2972097Y-3860805D02*
G01*
X668022Y-3855725D01*
X673102Y-9179554D01*
X2972097Y-9182394D01*
X2972097Y-8661394D01*
X2972097Y-3860805D01*
X2223099Y-9195394D02*
G01*
X1435100Y-9195394D01*
X1435100Y-8153397D01*
X2223099Y-8153397D01*
X2223099Y-9195394D01*
D10*
X3683000Y-1676400D02*
G01*
X3683000Y-1866900D01*
X3937000Y-1866900D01*
X3937000Y-1104900D01*
X3683000Y-1104900D01*
D15*
X3683000Y-1104900D02*
G01*
X3683000Y-1676400D01*
D10*
X3048000Y-546100D02*
G01*
X3048000Y-292100D01*
X4064000Y-292100D01*
X4064000Y-546100D01*
X3873500Y-546100D01*
D15*
X3048000Y-546100D02*
G01*
X3873500Y-546100D01*
D10*
X4432300Y-9359900D02*
G01*
X4432300Y-9613900D01*
X3416300Y-9613900D01*
X3416300Y-9359900D01*
X3606800Y-9359900D01*
D15*
X4432300Y-9359900D02*
G01*
X3606800Y-9359900D01*
D10*
X1524000Y-546100D02*
G01*
X1524000Y-292100D01*
X2540000Y-292100D01*
X2540000Y-546100D01*
X2349500Y-546100D01*
D15*
X1524000Y-546100D02*
G01*
X2349500Y-546100D01*
D16*
X7063003Y-2757500D02*
G01*
X7063003Y-217500D01*
X4523003Y-217500D01*
X4523003Y-2757500D01*
X7063003Y-2757500D01*
D11*
X4955809Y-6861180D02*
G01*
X4955809Y-6732686D01*
X4772390Y-6732686D01*
X4772390Y-6861180D01*
X4955809Y-6956419D02*
G01*
X4955809Y-7084913D01*
X4772390Y-7084913D01*
X4772390Y-6956419D01*
X5209809Y-6861180D02*
G01*
X5209809Y-6732686D01*
X5026390Y-6732686D01*
X5026390Y-6861180D01*
X5209809Y-6956419D02*
G01*
X5209809Y-7084913D01*
X5026390Y-7084913D01*
X5026390Y-6956419D01*
X5463809Y-6861180D02*
G01*
X5463809Y-6732686D01*
X5280390Y-6732686D01*
X5280390Y-6861180D01*
X5463809Y-6956419D02*
G01*
X5463809Y-7084913D01*
X5280390Y-7084913D01*
X5280390Y-6956419D01*
X5717809Y-6861180D02*
G01*
X5717809Y-6732686D01*
X5534390Y-6732686D01*
X5534390Y-6861180D01*
X5717809Y-6956419D02*
G01*
X5717809Y-7084913D01*
X5534390Y-7084913D01*
X5534390Y-6956419D01*
X5534390Y-4924419D02*
G01*
X5534390Y-5052913D01*
X5717809Y-5052913D01*
X5717809Y-4924419D01*
X5534390Y-4829180D02*
G01*
X5534390Y-4700686D01*
X5717809Y-4700686D01*
X5717809Y-4829180D01*
X5280390Y-4924419D02*
G01*
X5280390Y-5052913D01*
X5463809Y-5052913D01*
X5463809Y-4924419D01*
X5280390Y-4829180D02*
G01*
X5280390Y-4700686D01*
X5463809Y-4700686D01*
X5463809Y-4829180D01*
X5026390Y-4924419D02*
G01*
X5026390Y-5052913D01*
X5209809Y-5052913D01*
X5209809Y-4924419D01*
X5026390Y-4829180D02*
G01*
X5026390Y-4700686D01*
X5209809Y-4700686D01*
X5209809Y-4829180D01*
X4772390Y-4924419D02*
G01*
X4772390Y-5052913D01*
X4955809Y-5052913D01*
X4955809Y-4924419D01*
X4772390Y-4829180D02*
G01*
X4772390Y-4700686D01*
X4955809Y-4700686D01*
X4955809Y-4829180D01*
X7159619Y-6695709D02*
G01*
X7288113Y-6695709D01*
X7288113Y-6512290D01*
X7159619Y-6512290D01*
X7064380Y-6695709D02*
G01*
X6935886Y-6695709D01*
X6935886Y-6512290D01*
X7064380Y-6512290D01*
X7159619Y-6441709D02*
G01*
X7288113Y-6441709D01*
X7288113Y-6258290D01*
X7159619Y-6258290D01*
X7064380Y-6441709D02*
G01*
X6935886Y-6441709D01*
X6935886Y-6258290D01*
X7064380Y-6258290D01*
X7159619Y-4663709D02*
G01*
X7288113Y-4663709D01*
X7288113Y-4480290D01*
X7159619Y-4480290D01*
X7064380Y-4663709D02*
G01*
X6935886Y-4663709D01*
X6935886Y-4480290D01*
X7064380Y-4480290D01*
X7159619Y-4409709D02*
G01*
X7288113Y-4409709D01*
X7288113Y-4226290D01*
X7159619Y-4226290D01*
X7064380Y-4409709D02*
G01*
X6935886Y-4409709D01*
X6935886Y-4226290D01*
X7064380Y-4226290D01*
X7159619Y-5679709D02*
G01*
X7288113Y-5679709D01*
X7288113Y-5496290D01*
X7159619Y-5496290D01*
X7064380Y-5679709D02*
G01*
X6935886Y-5679709D01*
X6935886Y-5496290D01*
X7064380Y-5496290D01*
X7064380Y-5242290D02*
G01*
X6935886Y-5242290D01*
X6935886Y-5425709D01*
X7064380Y-5425709D01*
X7159619Y-5242290D02*
G01*
X7288113Y-5242290D01*
X7288113Y-5425709D01*
X7159619Y-5425709D01*
X7064380Y-7528290D02*
G01*
X6935886Y-7528290D01*
X6935886Y-7711709D01*
X7064380Y-7711709D01*
X7159619Y-7528290D02*
G01*
X7288113Y-7528290D01*
X7288113Y-7711709D01*
X7159619Y-7711709D01*
X7159619Y-7457709D02*
G01*
X7288113Y-7457709D01*
X7288113Y-7274290D01*
X7159619Y-7274290D01*
X7064380Y-7457709D02*
G01*
X6935886Y-7457709D01*
X6935886Y-7274290D01*
X7064380Y-7274290D01*
X7159619Y-4917709D02*
G01*
X7288113Y-4917709D01*
X7288113Y-4734290D01*
X7159619Y-4734290D01*
X7064380Y-4917709D02*
G01*
X6935886Y-4917709D01*
X6935886Y-4734290D01*
X7064380Y-4734290D01*
X7159619Y-5933709D02*
G01*
X7288113Y-5933709D01*
X7288113Y-5750290D01*
X7159619Y-5750290D01*
X7064380Y-5933709D02*
G01*
X6935886Y-5933709D01*
X6935886Y-5750290D01*
X7064380Y-5750290D01*
X7159619Y-6949709D02*
G01*
X7288113Y-6949709D01*
X7288113Y-6766290D01*
X7159619Y-6766290D01*
X7064380Y-6949709D02*
G01*
X6935886Y-6949709D01*
X6935886Y-6766290D01*
X7064380Y-6766290D01*
X7159619Y-7965709D02*
G01*
X7288113Y-7965709D01*
X7288113Y-7782290D01*
X7159619Y-7782290D01*
X7064380Y-7965709D02*
G01*
X6935886Y-7965709D01*
X6935886Y-7782290D01*
X7064380Y-7782290D01*
X5343890Y-8937619D02*
G01*
X5343890Y-9066113D01*
X5527309Y-9066113D01*
X5527309Y-8937619D01*
X5343890Y-8842380D02*
G01*
X5343890Y-8713886D01*
X5527309Y-8713886D01*
X5527309Y-8842380D01*
X5597890Y-8937619D02*
G01*
X5597890Y-9066113D01*
X5781309Y-9066113D01*
X5781309Y-8937619D01*
X5597890Y-8842380D02*
G01*
X5597890Y-8713886D01*
X5781309Y-8713886D01*
X5781309Y-8842380D01*
X4376978Y-3794739D02*
G01*
X4281091Y-3794739D01*
X4281091Y-3926860D01*
X4376978Y-3926860D01*
X4462221Y-3794739D02*
G01*
X4558108Y-3794739D01*
X4558108Y-3926860D01*
X4462221Y-3926860D01*
X4462221Y-3723660D02*
G01*
X4558108Y-3723660D01*
X4558108Y-3591539D01*
X4462221Y-3591539D01*
X4376978Y-3723660D02*
G01*
X4281091Y-3723660D01*
X4281091Y-3591539D01*
X4376978Y-3591539D01*
X4462221Y-3495060D02*
G01*
X4558108Y-3495060D01*
X4558108Y-3362939D01*
X4462221Y-3362939D01*
X4376978Y-3495060D02*
G01*
X4281091Y-3495060D01*
X4281091Y-3362939D01*
X4376978Y-3362939D01*
X4220921Y-3241060D02*
G01*
X4316808Y-3241060D01*
X4316808Y-3108939D01*
X4220921Y-3108939D01*
X4135678Y-3241060D02*
G01*
X4039791Y-3241060D01*
X4039791Y-3108939D01*
X4135678Y-3108939D01*
D13*
X5791202Y-5579595D02*
G01*
X5791202Y-6230922D01*
X4517499Y-5988055D02*
G01*
X4517499Y-6230922D01*
X4520039Y-5822955D02*
G01*
X4520039Y-5579595D01*
X4520036Y-5579595D02*
G01*
X5791202Y-5579595D01*
X4517499Y-6230922D02*
G01*
X5791202Y-6230922D01*
X9491294Y-1624507D02*
G01*
X9351289Y-1624507D01*
X9351289Y-1674495D01*
X9491294Y-1674495D01*
X9491294Y-1497507D02*
G01*
X9351289Y-1497507D01*
X9351289Y-1547495D01*
X9491294Y-1547495D01*
X9491294Y-1370507D02*
G01*
X9351289Y-1370507D01*
X9351289Y-1420495D01*
X9491294Y-1420495D01*
X9491294Y-1243507D02*
G01*
X9351289Y-1243507D01*
X9351289Y-1293495D01*
X9491294Y-1293495D01*
X9491294Y-1116507D02*
G01*
X9351289Y-1116507D01*
X9351289Y-1166495D01*
X9491294Y-1166495D01*
X9491294Y-989507D02*
G01*
X9351289Y-989507D01*
X9351289Y-1039495D01*
X9491294Y-1039495D01*
X9491294Y-912495D02*
G01*
X9351289Y-912495D01*
X9351289Y-862507D01*
X9491294Y-862507D01*
X9691293Y-1769998D02*
G01*
X9491294Y-1769998D01*
X9491294Y-759993D01*
X9691293Y-759993D01*
X9495510Y-4088307D02*
G01*
X9355505Y-4088307D01*
X9355505Y-4138295D01*
X9495510Y-4138295D01*
X9495510Y-3961307D02*
G01*
X9355505Y-3961307D01*
X9355505Y-4011295D01*
X9495510Y-4011295D01*
X9495510Y-3834307D02*
G01*
X9355505Y-3834307D01*
X9355505Y-3884295D01*
X9495510Y-3884295D01*
X9495510Y-3707307D02*
G01*
X9355505Y-3707307D01*
X9355505Y-3757295D01*
X9495510Y-3757295D01*
X9495510Y-3580307D02*
G01*
X9355505Y-3580307D01*
X9355505Y-3630295D01*
X9495510Y-3630295D01*
X9495510Y-3453307D02*
G01*
X9355505Y-3453307D01*
X9355505Y-3503295D01*
X9495510Y-3503295D01*
X9495510Y-3376295D02*
G01*
X9355505Y-3376295D01*
X9355505Y-3326307D01*
X9495510Y-3326307D01*
X9695510Y-4233798D02*
G01*
X9495510Y-4233798D01*
X9495510Y-3223793D01*
X9695510Y-3223793D01*
X9503994Y-6564807D02*
G01*
X9363989Y-6564807D01*
X9363989Y-6614795D01*
X9503994Y-6614795D01*
X9503994Y-6437807D02*
G01*
X9363989Y-6437807D01*
X9363989Y-6487795D01*
X9503994Y-6487795D01*
X9503994Y-6310807D02*
G01*
X9363989Y-6310807D01*
X9363989Y-6360795D01*
X9503994Y-6360795D01*
X9503994Y-6183807D02*
G01*
X9363989Y-6183807D01*
X9363989Y-6233795D01*
X9503994Y-6233795D01*
X9503994Y-6056807D02*
G01*
X9363989Y-6056807D01*
X9363989Y-6106795D01*
X9503994Y-6106795D01*
X9503994Y-5929807D02*
G01*
X9363989Y-5929807D01*
X9363989Y-5979795D01*
X9503994Y-5979795D01*
X9503994Y-5852795D02*
G01*
X9363989Y-5852795D01*
X9363989Y-5802807D01*
X9503994Y-5802807D01*
X9703993Y-6710298D02*
G01*
X9503994Y-6710298D01*
X9503994Y-5700293D01*
X9703993Y-5700293D01*
X9478594Y-9028607D02*
G01*
X9338589Y-9028607D01*
X9338589Y-9078595D01*
X9478594Y-9078595D01*
X9478594Y-8901607D02*
G01*
X9338589Y-8901607D01*
X9338589Y-8951595D01*
X9478594Y-8951595D01*
X9478594Y-8774607D02*
G01*
X9338589Y-8774607D01*
X9338589Y-8824595D01*
X9478594Y-8824595D01*
X9478594Y-8647607D02*
G01*
X9338589Y-8647607D01*
X9338589Y-8697595D01*
X9478594Y-8697595D01*
X9478594Y-8520607D02*
G01*
X9338589Y-8520607D01*
X9338589Y-8570595D01*
X9478594Y-8570595D01*
X9478594Y-8393607D02*
G01*
X9338589Y-8393607D01*
X9338589Y-8443595D01*
X9478594Y-8443595D01*
X9478594Y-8316595D02*
G01*
X9338589Y-8316595D01*
X9338589Y-8266607D01*
X9478594Y-8266607D01*
X9678593Y-9174099D02*
G01*
X9478594Y-9174099D01*
X9478594Y-8164093D01*
X9678593Y-8164093D01*
D11*
X4069621Y-3651750D02*
G01*
X4069621Y-3726319D01*
X4045049Y-3726319D01*
X3804378Y-3651750D02*
G01*
X3804378Y-3726319D01*
X3828950Y-3726319D01*
X4069621Y-3485649D02*
G01*
X4069621Y-3411080D01*
X4045049Y-3411080D01*
X3804378Y-3485649D02*
G01*
X3804378Y-3411080D01*
X3828950Y-3411080D01*
D13*
X3794693Y-4037495D02*
G01*
X3794693Y-4217497D01*
X3909692Y-4037495D02*
G01*
X3989694Y-4037495D01*
X4104695Y-4037495D02*
G01*
X4104695Y-4217497D01*
X8296582Y-9039852D02*
G01*
X8296582Y-9212572D01*
X8207682Y-9123672D02*
G01*
X8375324Y-9123672D01*
D11*
G75*
G01*
X4700460Y-4695680D02*
G03*
X4685221Y-4680440I-15240J0D01*
G75*
G01*
X4534979Y-4680440D02*
G03*
X4519740Y-4695680I1J-15240D01*
G75*
G01*
X4700460Y-5057920D02*
G02*
X4685221Y-5073160I-15240J0D01*
G75*
G01*
X4534979Y-5073160D02*
G02*
X4519740Y-5057920I1J15240D01*
G75*
G01*
X6930880Y-4989640D02*
G03*
X6915640Y-5004880I0J-15240D01*
G75*
G01*
X6915640Y-5155120D02*
G03*
X6930880Y-5170360I15240J0D01*
G75*
G01*
X7293120Y-4989640D02*
G02*
X7308360Y-5004880I0J-15240D01*
G75*
G01*
X7308360Y-5155120D02*
G02*
X7293120Y-5170360I-15240J0D01*
G75*
G01*
X6930880Y-7021640D02*
G03*
X6915640Y-7036879I0J-15240D01*
G75*
G01*
X6915640Y-7187120D02*
G03*
X6930880Y-7202360I15240J0D01*
G75*
G01*
X7293120Y-7021640D02*
G02*
X7308360Y-7036879I0J-15240D01*
G75*
G01*
X7308360Y-7187120D02*
G02*
X7293120Y-7202360I-15240J0D01*
G75*
G01*
X5091240Y-9071120D02*
G03*
X5106479Y-9086360I15240J0D01*
G75*
G01*
X5256721Y-9086360D02*
G03*
X5271960Y-9071120I-1J15240D01*
G75*
G01*
X5091240Y-8708880D02*
G02*
X5106479Y-8693640I15240J0D01*
G75*
G01*
X5256721Y-8693640D02*
G02*
X5271960Y-8708880I-1J-15240D01*
G75*
G01*
X5853240Y-9071120D02*
G03*
X5868479Y-9086360I15240J0D01*
G75*
G01*
X6018721Y-9086360D02*
G03*
X6033960Y-9071120I-1J15240D01*
G75*
G01*
X5853240Y-8708880D02*
G02*
X5868479Y-8693640I15240J0D01*
G75*
G01*
X6018721Y-8693640D02*
G02*
X6033960Y-8708880I-1J-15240D01*
G75*
G01*
X3273280Y-3897440D02*
G03*
X3258040Y-3912680I0J-15240D01*
G75*
G01*
X3258040Y-4062920D02*
G03*
X3273280Y-4078160I15240J0D01*
G75*
G01*
X3635520Y-3897440D02*
G02*
X3650760Y-3912680I0J-15240D01*
G75*
G01*
X3650760Y-4062920D02*
G02*
X3635520Y-4078160I-15240J0D01*
D13*
G75*
G01*
X4247037Y-4044881D02*
G02*
X4278023Y-4013899I30983J0D01*
G75*
G01*
X4358020Y-4013899D02*
G02*
X4389003Y-4044881I0J-30982D01*
G75*
G01*
X4388957Y-4260911D02*
G02*
X4357975Y-4291891I-30982J3D01*
G75*
G01*
X4277977Y-4291891D02*
G02*
X4246989Y-4260911I-5J30983D01*
G75*
G01*
X3601563Y-3676719D02*
G02*
X3570577Y-3707701I-30983J0D01*
G75*
G01*
X3490580Y-3707701D02*
G02*
X3459597Y-3676719I0J30982D01*
G75*
G01*
X3459643Y-3460689D02*
G02*
X3490625Y-3429709I30982J-3D01*
G75*
G01*
X3570623Y-3429709D02*
G02*
X3601611Y-3460689I5J-30983D01*
D16*
G75*
G01*
X7139000Y-1233500D02*
G03*
X7128993Y-1233500I-5004J0D01*
G75*
G01*
X7128993Y-1233500D02*
G03*
X7139000Y-1233500I5003J0D01*
D13*
G75*
G01*
X4520039Y-5822955D02*
G02*
X4517499Y-5988055I-1270J-82550D01*
D17*
G75*
G01*
X9378696Y-807466D02*
G03*
X9378226Y-807463I-127J20000D01*
G75*
G01*
X9382912Y-3271266D02*
G03*
X9382442Y-3271263I-126J20000D01*
G75*
G01*
X9391396Y-5747766D02*
G03*
X9390926Y-5747763I-127J20000D01*
G75*
G01*
X9365996Y-8211566D02*
G03*
X9365526Y-8211563I-127J20000D01*
D13*
G75*
G01*
X3784600Y-4267175D02*
G03*
X3785164Y-4267187I-4J-12700D01*
D18*
G75*
G01
X4019499Y-3360191D02*
G03X4019499Y-3360191I-7493J0D01*
D13*
G75*
G01
X8419998Y-9093200D02*
G03X8419998Y-9093200I-799998J0D01*
M02*
